<?xml version="1.0" encoding="utf-8"?>
<!-- Generator: Adobe Illustrator 17.0.0, SVG Export Plug-In . SVG Version: 6.00 Build 0)  -->
<!DOCTYPE svg PUBLIC "-//W3C//DTD SVG 1.1//EN" "http://www.w3.org/Graphics/SVG/1.1/DTD/svg11.dtd">
<svg version="1.1" id="Vrstva_1" xmlns="http://www.w3.org/2000/svg" xmlns:xlink="http://www.w3.org/1999/xlink" x="0px" y="0px"
	 width="65.75px" height="22px" viewBox="0 0 65.75 22" enable-background="new 0 0 65.75 22" xml:space="preserve">
<g>
</g>
<path fill="#FFFFFF" d="M63.814,13.272H39.066V9.278h24.748V13.272z M45.097,18.09H32.016v-4.404h7.05h6.031V18.09z M44.403,4.46
	h16.482v4.405H44.403V4.46z M61.298,8.865V4.047L17.392,4.05v14.453H45.51v-4.817h18.718V8.865H61.298z"/>
<rect x="2.351" y="4.05" fill="#FFFFFF" width="14.453" height="14.453"/>
<g>
	<path fill="#FFFFFF" d="M53.533,7.175c0,0.124-0.082,0.206-0.206,0.206h-0.549c-0.123,0-0.206-0.082-0.206-0.206V5.336H52.16v1.819
		c0,0.346,0.237,0.583,0.584,0.583h0.617c0.347,0,0.584-0.237,0.584-0.583V5.336h-0.412V7.175z"/>
</g>
<polygon fill="#FFFFFF" points="57.77,5.336 55.986,5.336 55.986,5.693 56.672,5.693 56.672,7.738 57.084,7.738 57.084,5.693 
	57.77,5.693 "/>
<path fill="#FFFFFF" d="M58.446,6.774l0.306-0.91h0.013l0.302,0.91H58.446z M58.563,5.336l-0.827,2.402h0.391l0.202-0.607h0.855
	l0.202,0.607h0.429l-0.827-2.402H58.563z"/>
<polygon fill="#FFFFFF" points="51.608,5.336 51.158,5.336 50.301,6.434 50.284,6.434 50.284,5.336 49.872,5.336 49.872,7.738 
	50.284,7.738 50.284,7.034 50.548,6.695 51.224,7.738 51.721,7.738 50.819,6.348 "/>
<polygon fill="#FFFFFF" points="45.844,7.738 46.256,7.738 46.256,6.709 47.182,6.709 47.182,6.352 46.256,6.352 46.256,5.693 
	47.251,5.693 47.251,5.336 45.844,5.336 "/>
<path fill="#FFFFFF" d="M48.046,6.774l0.306-0.91h0.013l0.302,0.91H48.046z M48.163,5.336l-0.827,2.402h0.391l0.203-0.607h0.854
	l0.203,0.607h0.428l-0.827-2.402H48.163z"/>
<polygon fill="#FFFFFF" points="55.008,5.336 54.596,5.336 54.596,7.738 56.003,7.738 56.003,7.381 55.008,7.381 "/>
<polygon fill="#FFFFFF" points="43.365,12.556 43.777,12.556 43.777,11.537 44.593,10.154 44.164,10.154 43.605,11.139 
	43.592,11.139 43.06,10.154 42.586,10.154 43.365,11.537 "/>
<path fill="#FFFFFF" d="M49.85,10.682h0.014l0.302,0.909h-0.621L49.85,10.682z M49.428,11.948h0.854l0.203,0.607h0.429l-0.827-2.401
	h-0.426l-0.827,2.401h0.392L49.428,11.948z"/>
<polygon fill="#FFFFFF" points="54.036,10.912 54.05,10.912 54.997,12.555 55.408,12.555 55.408,10.154 54.997,10.154 
	54.997,11.797 54.983,11.797 54.036,10.154 53.624,10.154 53.624,12.555 54.036,12.555 "/>
<polygon fill="#FFFFFF" points="56.599,12.556 57.011,12.556 57.011,11.537 57.827,10.154 57.398,10.154 56.839,11.139 
	56.826,11.139 56.294,10.154 55.82,10.154 56.599,11.537 "/>
<polygon fill="#FFFFFF" points="56.932,9.588 56.644,10.041 56.963,10.041 57.382,9.588 "/>
<polygon fill="#FFFFFF" points="41.605,12.556 42.38,10.154 41.989,10.154 41.416,11.987 41.403,11.987 40.833,10.154 
	40.404,10.154 41.18,12.556 "/>
<g>
	<path fill="#FFFFFF" d="M58.823,12.556h0.549c0.346,0,0.583-0.237,0.583-0.583v-0.148h-0.412v0.168
		c0,0.124-0.082,0.206-0.205,0.206h-0.481c-0.123,0-0.206-0.082-0.206-0.206v-1.276c0-0.124,0.083-0.206,0.206-0.206h0.481
		c0.123,0,0.205,0.082,0.205,0.206v0.168h0.412v-0.147c0-0.347-0.237-0.584-0.583-0.584h-0.549c-0.347,0-0.583,0.237-0.583,0.584
		v1.235C58.24,12.319,58.476,12.556,58.823,12.556"/>
</g>
<polygon fill="#FFFFFF" points="45.486,12.556 45.898,12.556 45.898,10.511 46.584,10.511 46.584,10.154 44.8,10.154 44.8,10.511 
	45.486,10.511 "/>
<polygon fill="#FFFFFF" points="43.698,9.588 43.41,10.041 43.729,10.041 44.147,9.588 "/>
<polygon fill="#FFFFFF" points="48.025,12.556 48.8,10.154 48.409,10.154 47.836,11.987 47.823,11.987 47.253,10.154 46.824,10.154 
	47.6,12.556 "/>
<g>
	<path fill="#FFFFFF" d="M51.772,10.511h0.652c0.123,0,0.206,0.082,0.206,0.205v0.35c0,0.124-0.083,0.206-0.206,0.206h-0.652V10.511
		z M51.772,11.629h0.401l0.484,0.926h0.453l-0.494-0.943c0.258-0.062,0.426-0.275,0.426-0.566v-0.309
		c0-0.347-0.237-0.583-0.584-0.583H51.36v2.401h0.412V11.629z"/>
</g>
<polygon fill="#FFFFFF" points="37.001,16.361 36.987,16.361 36.322,14.834 35.893,14.834 35.893,17.236 36.305,17.236 
	36.305,15.757 36.322,15.757 36.967,17.236 36.987,17.236 37.636,15.757 37.653,15.757 37.653,17.236 38.061,17.236 38.061,14.834 
	37.667,14.834 "/>
<g>
	<path fill="#FFFFFF" d="M34.829,16.673c0,0.124-0.082,0.206-0.206,0.206h-0.549c-0.123,0-0.206-0.082-0.206-0.206v-1.839h-0.411
		v1.818c0,0.347,0.236,0.584,0.583,0.584h0.617c0.347,0,0.584-0.237,0.584-0.584v-1.818h-0.412V16.673z"/>
</g>
<polygon fill="#FFFFFF" points="60.95,11.526 61.911,11.526 61.911,12.555 62.323,12.555 62.323,10.154 61.911,10.154 
	61.911,11.169 60.95,11.169 60.95,10.154 60.538,10.154 60.538,12.555 60.95,12.555 "/>
<polygon fill="#FFFFFF" points="40.189,15.191 40.189,14.834 38.714,14.834 38.714,17.236 40.223,17.236 40.223,16.879 
	39.125,16.879 39.125,16.207 40.12,16.207 40.12,15.85 39.125,15.85 39.125,15.191 "/>
<polygon fill="#FFFFFF" points="39.657,14.268 39.468,14.512 39.279,14.268 38.926,14.268 39.252,14.721 39.67,14.721 
	39.996,14.268 "/>
<polygon fill="#FFFFFF" points="41.184,15.592 41.198,15.592 42.145,17.235 42.556,17.235 42.556,14.834 42.145,14.834 
	42.145,16.477 42.131,16.477 41.184,14.834 40.772,14.834 40.772,17.235 41.184,17.235 "/>
<polygon fill="#FFFFFF" points="43.538,14.268 43.25,14.721 43.569,14.721 43.987,14.268 "/>
<rect x="43.208" y="14.833" fill="#FFFFFF" width="0.411" height="2.402"/>
<g>
	<path d="M25.767,5.899c0-0.124,0.083-0.206,0.206-0.206h0.549c0.124,0,0.206,0.082,0.206,0.206v1.276
		c0,0.124-0.082,0.206-0.206,0.206h-0.549c-0.123,0-0.206-0.082-0.206-0.206V5.899z M25.939,7.738h0.618
		c0.346,0,0.583-0.237,0.583-0.583V5.919c0-0.346-0.237-0.583-0.583-0.583h-0.618c-0.347,0-0.583,0.237-0.583,0.583v1.236
		C25.356,7.501,25.592,7.738,25.939,7.738"/>
	<path d="M23.108,16.811c0,0.123-0.083,0.206-0.206,0.206h-0.686v-0.673h0.706c0.11,0,0.186,0.076,0.186,0.186V16.811z
		 M22.216,15.329h0.634c0.124,0,0.206,0.082,0.206,0.205v0.268c0,0.11-0.075,0.186-0.185,0.186h-0.655V15.329z M23.214,16.159
		v-0.014c0.158-0.085,0.254-0.247,0.254-0.456v-0.134c0-0.347-0.237-0.583-0.583-0.583h-1.081v2.402h1.132
		c0.347,0,0.583-0.237,0.583-0.584v-0.151C23.519,16.409,23.403,16.238,23.214,16.159"/>
	<path d="M25.166,16.091h-0.652v-0.762h0.652c0.124,0,0.206,0.082,0.206,0.205v0.351C25.372,16.008,25.29,16.091,25.166,16.091
		 M25.784,15.864v-0.309c0-0.346-0.237-0.583-0.583-0.583h-1.098v2.402h0.411v-0.927h0.402l0.484,0.927h0.453l-0.494-0.944
		C25.616,16.368,25.784,16.156,25.784,15.864"/>
	<path d="M59.386,7.738L59.184,7.13h-0.855l-0.202,0.608h-0.391l0.827-2.402h0.425l0.827,2.402H59.386z M57.084,7.738h-0.412V5.692
		h-0.686V5.336h1.784v0.356h-0.686V7.738z M56.003,7.738h-1.407V5.336h0.412v2.045h0.995V7.738z M53.944,7.154
		c0,0.347-0.236,0.584-0.583,0.584h-0.618c-0.346,0-0.583-0.237-0.583-0.584V5.336h0.412v1.839c0,0.123,0.082,0.206,0.206,0.206
		h0.549c0.123,0,0.206-0.083,0.206-0.206V5.336h0.411V7.154z M51.223,7.738l-0.675-1.043l-0.265,0.339v0.704h-0.412V5.336h0.412
		v1.098H50.3l0.858-1.098h0.45l-0.79,1.012l0.903,1.39H51.223z M48.986,7.738L48.784,7.13H47.93l-0.203,0.608h-0.391l0.827-2.402
		h0.425l0.827,2.402H48.986z M47.25,5.692h-0.995v0.659h0.926v0.357h-0.926v1.03h-0.412V5.336h1.407V5.692z M60.884,4.46H44.402
		v4.405h16.482V4.46z"/>
</g>
<polygon points="58.752,5.864 58.447,6.774 59.068,6.774 58.766,5.864 "/>
<g>
	<path d="M9.142,7.889V6.26H4.674v1.629H9.142v8.204h1.68v-5.671c0-0.576,0.5-1.043,1.117-1.043h2.505v-1.49H9.142z"/>
</g>
<polygon points="48.352,5.864 48.046,6.774 48.668,6.774 48.365,5.864 "/>
<g>
	<path d="M52.629,10.717c0-0.124-0.082-0.206-0.206-0.206h-0.652v0.762h0.652c0.124,0,0.206-0.083,0.206-0.206V10.717z"/>
	<path d="M39.469,14.512l0.188-0.244h0.34l-0.326,0.453h-0.419l-0.326-0.453h0.354L39.469,14.512z M40.12,15.85v0.357h-0.995v0.672
		h1.098v0.357h-1.509v-2.402h1.475v0.357h-1.064v0.659H40.12z M40.772,14.834h0.412l0.947,1.644h0.014v-1.644h0.411v2.402h-0.411
		l-0.947-1.643h-0.014v1.643h-0.412V14.834z M43.208,14.834h0.412v2.402h-0.412V14.834z M43.538,14.268h0.449l-0.418,0.453H43.25
		L43.538,14.268z M38.062,17.236h-0.409v-1.479h-0.017l-0.648,1.479h-0.021l-0.645-1.479h-0.017v1.479h-0.412v-2.402h0.429
		l0.666,1.527h0.013l0.666-1.527h0.395V17.236z M35.241,16.653c0,0.346-0.236,0.583-0.583,0.583H34.04
		c-0.346,0-0.583-0.237-0.583-0.583v-1.819h0.412v1.839c0,0.124,0.082,0.206,0.206,0.206h0.549c0.123,0,0.206-0.082,0.206-0.206
		v-1.839h0.411V16.653z M32.016,13.686v4.404h13.081v-4.404h-6.031H32.016z"/>
	<path d="M62.322,12.555H61.91v-1.029h-0.96v1.029h-0.412v-2.401h0.412v1.015h0.96v-1.015h0.412V12.555z M59.955,10.884h-0.412
		v-0.168c0-0.123-0.082-0.206-0.206-0.206h-0.48c-0.124,0-0.206,0.083-0.206,0.206v1.277c0,0.123,0.082,0.206,0.206,0.206h0.48
		c0.124,0,0.206-0.083,0.206-0.206v-0.169h0.412v0.148c0,0.347-0.237,0.583-0.584,0.583h-0.549c-0.346,0-0.583-0.236-0.583-0.583
		v-1.235c0-0.347,0.237-0.583,0.583-0.583h0.549c0.347,0,0.584,0.236,0.584,0.583V10.884z M57.011,11.536v1.019h-0.412v-1.019
		l-0.779-1.382h0.474l0.532,0.984h0.013l0.559-0.984h0.429L57.011,11.536z M55.408,12.555h-0.411l-0.947-1.643h-0.014v1.643h-0.412
		v-2.401h0.412l0.947,1.643h0.014v-1.643h0.411V12.555z M52.657,12.555l-0.484-0.926h-0.402v0.926h-0.412v-2.401h1.099
		c0.346,0,0.583,0.236,0.583,0.583v0.309c0,0.291-0.168,0.504-0.426,0.566l0.495,0.943H52.657z M50.485,12.555l-0.203-0.607h-0.854
		l-0.203,0.607h-0.391l0.827-2.401h0.426l0.827,2.401H50.485z M48.025,12.555h-0.426l-0.775-2.401h0.428l0.57,1.832h0.014
		l0.573-1.832H48.8L48.025,12.555z M46.583,10.51h-0.686v2.045h-0.412V10.51h-0.686v-0.356h1.784V10.51z M43.777,11.536v1.019
		h-0.412v-1.019l-0.779-1.382h0.474l0.531,0.984h0.014l0.559-0.984h0.429L43.777,11.536z M41.605,12.555h-0.426l-0.775-2.401h0.429
		l0.569,1.832h0.014l0.573-1.832h0.391L41.605,12.555z M43.698,9.587h0.449l-0.418,0.453H43.41L43.698,9.587z M56.932,9.587h0.449
		l-0.418,0.453h-0.319L56.932,9.587z M39.066,13.272h24.748V9.278H39.066V13.272z"/>
</g>
<polygon points="49.851,10.682 49.545,11.592 50.166,11.592 49.865,10.682 "/>
<polygon points="25.729,11.526 26.69,11.526 26.69,12.555 27.102,12.555 27.102,10.154 26.69,10.154 26.69,11.169 25.729,11.169 
	25.729,10.154 25.317,10.154 25.317,12.555 25.729,12.555 "/>
<polygon points="31.531,7.381 30.433,7.381 30.433,6.708 31.428,6.708 31.428,6.352 30.433,6.352 30.433,5.693 31.497,5.693 
	31.497,5.336 30.021,5.336 30.021,7.738 31.531,7.738 "/>
<g>
	<path d="M23.605,7.738h0.549c0.347,0,0.583-0.237,0.583-0.583v-0.22c0-0.347-0.236-0.583-0.583-0.583h-0.48
		c-0.124,0-0.206-0.083-0.206-0.206V5.899c0-0.124,0.082-0.206,0.206-0.206h0.428c0.124,0,0.206,0.082,0.206,0.206v0.168h0.412
		V5.919c0-0.346-0.237-0.583-0.583-0.583h-0.498c-0.346,0-0.583,0.237-0.583,0.583v0.206c0,0.347,0.237,0.584,0.583,0.584h0.481
		c0.123,0,0.206,0.082,0.206,0.205v0.261c0,0.124-0.083,0.206-0.206,0.206h-0.481c-0.123,0-0.206-0.082-0.206-0.206V7.007h-0.411
		v0.148C23.022,7.501,23.258,7.738,23.605,7.738"/>
</g>
<polygon points="28.145,7.034 28.409,6.694 29.085,7.737 29.583,7.737 28.68,6.348 29.47,5.336 29.02,5.336 28.162,6.434 
	28.145,6.434 28.145,5.336 27.733,5.336 27.733,7.737 28.145,7.737 "/>
<polygon points="29.747,14.405 29.558,14.649 29.37,14.405 29.016,14.405 29.342,14.859 29.761,14.859 30.086,14.405 "/>
<polygon points="19.639,7.168 19.625,7.168 19.056,5.336 18.627,5.336 19.402,7.738 19.828,7.738 20.603,5.336 20.212,5.336 "/>
<g>
	<path d="M24.734,11.972v-0.148h-0.412v0.169c0,0.123-0.082,0.206-0.206,0.206h-0.48c-0.123,0-0.206-0.083-0.206-0.206v-1.277
		c0-0.123,0.083-0.206,0.206-0.206h0.48c0.124,0,0.206,0.083,0.206,0.206v0.168h0.412v-0.147c0-0.347-0.237-0.583-0.583-0.583
		h-0.549c-0.347,0-0.584,0.236-0.584,0.583v1.235c0,0.347,0.237,0.583,0.584,0.583h0.549C24.497,12.555,24.734,12.319,24.734,11.972
		"/>
</g>
<polygon points="30.77,4.77 30.482,5.223 30.801,5.223 31.219,4.77 "/>
<polygon points="19.828,12.556 19.828,10.511 20.514,10.511 20.514,10.154 18.73,10.154 18.73,10.511 19.416,10.511 19.416,12.556 
	"/>
<polygon points="22.47,12.199 21.372,12.199 21.372,11.526 22.367,11.526 22.367,11.17 21.372,11.17 21.372,10.511 22.436,10.511 
	22.436,10.154 20.96,10.154 20.96,12.556 22.47,12.556 "/>
<polygon points="21.588,7.738 22,7.738 22,6.719 22.816,5.336 22.387,5.336 21.828,6.321 21.814,6.321 21.283,5.336 20.809,5.336 
	21.588,6.719 "/>
<polygon points="19.639,16.804 19.625,16.804 19.056,14.972 18.627,14.972 19.402,17.374 19.828,17.374 20.603,14.972 
	20.212,14.972 "/>
<rect x="42.27" y="5.336" width="0.412" height="2.402"/>
<polygon points="42.6,4.77 42.312,5.223 42.631,5.223 43.05,4.77 "/>
<g>
	<path d="M33.659,7.738h0.618c0.346,0,0.583-0.237,0.583-0.583V5.336h-0.412v1.839c0,0.124-0.082,0.206-0.206,0.206h-0.549
		c-0.123,0-0.205-0.082-0.205-0.206V5.336h-0.412v1.819C33.076,7.501,33.313,7.738,33.659,7.738"/>
</g>
<polygon points="36.599,9.588 36.311,10.041 36.631,10.041 37.049,9.588 "/>
<polygon points="36.558,4.77 36.369,5.014 36.18,4.77 35.827,4.77 36.153,5.223 36.572,5.223 36.897,4.77 "/>
<g>
	<path d="M36.095,7.738h0.549c0.347,0,0.583-0.237,0.583-0.583V7.007h-0.411v0.168c0,0.124-0.083,0.206-0.206,0.206h-0.481
		c-0.123,0-0.205-0.082-0.205-0.206V5.899c0-0.124,0.082-0.206,0.205-0.206h0.481c0.123,0,0.206,0.082,0.206,0.206v0.168h0.411
		V5.919c0-0.346-0.236-0.583-0.583-0.583h-0.549c-0.346,0-0.583,0.237-0.583,0.583v1.236C35.512,7.501,35.749,7.738,36.095,7.738"/>
</g>
<polygon points="39.286,7.381 38.188,7.381 38.188,6.708 39.183,6.708 39.183,6.352 38.188,6.352 38.188,5.693 39.252,5.693 
	39.252,5.336 37.776,5.336 37.776,7.738 39.286,7.738 "/>
<polygon points="37.327,10.511 37.327,10.154 35.852,10.154 35.852,12.556 37.361,12.556 37.361,12.199 36.263,12.199 
	36.263,11.527 37.258,11.527 37.258,11.17 36.263,11.17 36.263,10.511 "/>
<polygon points="40.247,6.094 40.261,6.094 41.208,7.738 41.619,7.738 41.619,5.336 41.208,5.336 41.208,6.979 41.194,6.979 
	40.247,5.336 39.835,5.336 39.835,7.738 40.247,7.738 "/>
<polygon points="34.849,10.154 33.991,11.252 33.974,11.252 33.974,10.154 33.562,10.154 33.562,12.556 33.974,12.556 
	33.974,11.852 34.238,11.513 34.914,12.556 35.412,12.556 34.509,11.166 35.298,10.154 "/>
<g>
	<path d="M32.969,11.972v-0.148h-0.412v0.169c0,0.123-0.082,0.206-0.206,0.206h-0.48c-0.124,0-0.206-0.083-0.206-0.206v-1.277
		c0-0.123,0.082-0.206,0.206-0.206h0.48c0.124,0,0.206,0.083,0.206,0.206v0.168h0.412v-0.147c0-0.347-0.237-0.583-0.583-0.583
		h-0.549c-0.347,0-0.584,0.236-0.584,0.583v1.235c0,0.347,0.237,0.583,0.584,0.583h0.549C32.732,12.555,32.969,12.319,32.969,11.972
		"/>
</g>
<polygon points="29.215,16.344 30.21,16.344 30.21,15.987 29.215,15.987 29.215,15.328 30.279,15.328 30.279,14.971 28.803,14.971 
	28.803,17.373 30.313,17.373 30.313,17.016 29.215,17.016 "/>
<rect x="30.19" y="10.154" width="0.411" height="2.402"/>
<polygon points="27.74,16.615 27.726,16.615 26.779,14.971 26.368,14.971 26.368,17.373 26.779,17.373 26.779,15.73 26.793,15.73 
	27.74,17.373 28.152,17.373 28.152,14.971 27.74,14.971 "/>
<polygon points="29.538,12.556 29.538,10.154 29.126,10.154 29.126,11.798 29.113,11.798 28.166,10.154 27.754,10.154 
	27.754,12.556 28.166,12.556 28.166,10.913 28.179,10.913 29.126,12.556 "/>
</svg>
