<?xml version="1.0" encoding="utf-8"?>
<!-- Generator: Adobe Illustrator 17.0.0, SVG Export Plug-In . SVG Version: 6.00 Build 0)  -->
<!DOCTYPE svg PUBLIC "-//W3C//DTD SVG 1.1//EN" "http://www.w3.org/Graphics/SVG/1.1/DTD/svg11.dtd">
<svg version="1.1" id="Vrstva_1" xmlns="http://www.w3.org/2000/svg" xmlns:xlink="http://www.w3.org/1999/xlink" x="0px" y="0px"
	 width="67px" height="28.5px" viewBox="0 0 67 28.5" enable-background="new 0 0 67 28.5" xml:space="preserve">
<g>
	<path fill="#FFFFFF" d="M34.905,19.32c0.127-0.4,0.249-0.782,0.37-1.163c0.042,0.005,0.084,0.01,0.126,0.015
		c0.111,0.364,0.222,0.727,0.351,1.148H34.905z M36.824,20.114c-0.284-0.825-0.549-1.658-0.88-2.464
		c-0.089-0.218-0.385-0.484-0.586-0.484c-0.204,0.001-0.5,0.264-0.593,0.482c-0.346,0.818-0.626,1.664-0.928,2.5
		c-0.029,0.078-0.078,0.176-0.055,0.241c0.053,0.144,0.127,0.367,0.226,0.387c0.136,0.027,0.415-0.076,0.438-0.172
		c0.13-0.532,0.492-0.557,0.923-0.49c0.021-0.043,0.041-0.086,0.062-0.128c0.219,0.139,0.506,0.231,0.64,0.428
		c0.161,0.237,0.263,0.5,0.593,0.381C37.018,20.666,36.914,20.373,36.824,20.114 M35.44,16.761c0.289-0.101,0.551-0.163,0.78-0.287
		c0.094-0.051,0.184-0.262,0.151-0.353c-0.035-0.096-0.239-0.209-0.337-0.184c-0.252,0.063-0.498,0.179-0.721,0.316
		c-0.08,0.049-0.129,0.227-0.111,0.332C35.214,16.659,35.364,16.709,35.44,16.761 M62.471,19.32c0.127-0.4,0.249-0.782,0.37-1.163
		c0.042,0.005,0.084,0.01,0.126,0.015c0.111,0.364,0.222,0.727,0.351,1.148H62.471z M64.391,20.114
		c-0.285-0.825-0.55-1.658-0.88-2.464c-0.09-0.218-0.386-0.484-0.587-0.484c-0.203,0.001-0.5,0.264-0.592,0.482
		c-0.347,0.818-0.626,1.664-0.929,2.5c-0.028,0.078-0.078,0.176-0.054,0.241c0.052,0.144,0.126,0.367,0.225,0.387
		c0.136,0.027,0.415-0.076,0.438-0.172c0.13-0.532,0.492-0.557,0.923-0.49c0.021-0.043,0.042-0.086,0.062-0.128
		c0.219,0.139,0.506,0.231,0.64,0.428c0.161,0.237,0.264,0.5,0.593,0.381C64.584,20.666,64.48,20.373,64.391,20.114 M22.33,17.639
		c-1.11,0.458-2.38,0.101-3.133-0.881c-0.725-0.947-0.736-2.27-0.026-3.238c0.673-0.917,1.868-1.335,2.861-0.961
		c-1.117,0.389-1.62,0.993-1.628,1.908c-0.007,0.838,0.48,1.544,1.253,1.815c0.837,0.294,1.588,0.026,2.265-0.808
		C24.013,16.257,23.285,17.246,22.33,17.639 M21.391,11.724c-1.905-0.016-3.41,1.446-3.428,3.33
		c-0.019,1.945,1.441,3.46,3.343,3.468c1.892,0.009,3.395-1.471,3.413-3.358C24.736,13.264,23.261,11.739,21.391,11.724
		 M9.588,17.782c-1.511-0.312-2.462-1.881-2.052-3.385c0.387-1.417,1.932-2.314,3.296-1.842c-1.081,0.328-1.698,0.978-1.622,2.116
		c0.052,0.778,0.56,1.414,1.297,1.626c0.928,0.267,1.661-0.057,2.289-0.944C12.543,17.067,11.108,18.096,9.588,17.782
		 M10.172,11.724c-1.92-0.012-3.419,1.475-3.423,3.394c-0.003,1.892,1.488,3.4,3.365,3.405c1.905,0.004,3.409-1.509,3.402-3.423
		C13.51,13.235,12.024,11.735,10.172,11.724 M44.453,16.761c0.289-0.101,0.551-0.163,0.78-0.287
		c0.093-0.051,0.184-0.262,0.151-0.353c-0.035-0.096-0.239-0.209-0.337-0.184c-0.252,0.063-0.498,0.179-0.721,0.316
		c-0.08,0.049-0.129,0.227-0.111,0.332C44.227,16.659,44.377,16.709,44.453,16.761 M40.105,19.396l-0.116,0.018
		c-0.226-0.61-0.451-1.221-0.678-1.831c-0.098-0.265-0.236-0.563-0.556-0.371c-0.136,0.082-0.227,0.446-0.167,0.62
		c0.315,0.901,0.677,1.787,1.047,2.667c0.06,0.141,0.248,0.307,0.381,0.311c0.132,0.003,0.338-0.154,0.394-0.29
		c0.373-0.898,0.717-1.807,1.065-2.715c0.097-0.253,0.137-0.518-0.19-0.624c-0.311-0.1-0.445,0.106-0.536,0.376
		C40.542,18.172,40.32,18.783,40.105,19.396 M44.354,20.05v-0.695c0.28-0.016,0.523,0.009,0.74-0.055
		c0.143-0.042,0.248-0.213,0.37-0.326c-0.132-0.121-0.247-0.308-0.4-0.349c-0.225-0.059-0.478-0.015-0.689-0.015
		c-0.18-0.559-0.01-0.755,0.471-0.694c0.065,0.008,0.148,0.024,0.197-0.006c0.177-0.108,0.343-0.234,0.513-0.353
		c-0.167-0.121-0.321-0.316-0.503-0.348c-0.324-0.057-0.664-0.003-0.997-0.018c-0.367-0.017-0.526,0.174-0.529,0.512
		c-0.009,0.858-0.025,1.716,0.012,2.571c0.008,0.171,0.224,0.452,0.375,0.475c0.423,0.063,0.864,0.044,1.292,0
		c0.133-0.014,0.247-0.212,0.369-0.326c-0.129-0.125-0.241-0.321-0.391-0.357C44.933,20.007,44.658,20.05,44.354,20.05 M48.78,20.05
		c-0.167-0.549-0.041-0.792,0.485-0.72c0.081,0.01,0.187,0.018,0.244-0.024c0.132-0.098,0.24-0.227,0.358-0.343
		c-0.119-0.116-0.222-0.299-0.361-0.332c-0.231-0.055-0.486-0.015-0.715-0.015c-0.139-0.659-0.119-0.688,0.424-0.699
		c0.116-0.002,0.256,0.032,0.344-0.02c0.15-0.089,0.268-0.234,0.4-0.356c-0.139-0.115-0.266-0.31-0.418-0.33
		c-0.359-0.05-0.73-0.008-1.095-0.019c-0.367-0.012-0.516,0.186-0.518,0.524c-0.004,0.856-0.022,1.713,0.017,2.567
		c0.007,0.168,0.229,0.443,0.382,0.465c0.422,0.062,0.863,0.043,1.291-0.002c0.13-0.014,0.242-0.214,0.362-0.329
		c-0.131-0.123-0.246-0.316-0.397-0.351C49.332,20.007,49.058,20.05,48.78,20.05 M53.513,17.066
		c-0.226,0.025-0.344,0.029-0.458,0.053c-0.531,0.113-0.88,0.491-0.922,0.991c-0.044,0.519,0.172,0.82,0.752,1.044
		c0.187,0.072,0.403,0.099,0.557,0.214c0.138,0.103,0.21,0.298,0.31,0.453c-0.172,0.1-0.335,0.258-0.517,0.286
		c-0.184,0.027-0.39-0.119-0.582-0.108c-0.185,0.011-0.364,0.126-0.545,0.195c0.104,0.169,0.169,0.414,0.32,0.493
		c0.497,0.262,1.031,0.263,1.544,0.024c0.417-0.194,0.619-0.544,0.633-1.008c0.013-0.458-0.202-0.773-0.599-0.962
		c-0.241-0.114-0.508-0.177-0.737-0.309c-0.122-0.07-0.189-0.238-0.281-0.362c0.15-0.083,0.292-0.213,0.451-0.237
		c0.153-0.024,0.326,0.097,0.485,0.087c0.145-0.01,0.39-0.095,0.402-0.176c0.023-0.145-0.051-0.387-0.165-0.456
		C53.943,17.155,53.669,17.115,53.513,17.066 M58.344,18.844c0.276-0.294,0.518-0.547,0.755-0.804
		c0.204-0.221,0.496-0.475,0.205-0.767c-0.311-0.312-0.53,0.025-0.729,0.242c-0.298,0.326-0.589,0.658-0.883,0.987
		c-0.109-0.316-0.062-0.605-0.126-0.866c-0.044-0.182-0.242-0.324-0.371-0.485c-0.13,0.162-0.366,0.319-0.373,0.486
		c-0.038,0.889-0.022,1.78-0.017,2.67c0.001,0.276,0.092,0.558,0.413,0.481c0.151-0.035,0.317-0.304,0.35-0.489
		c0.057-0.325,0.016-0.668,0.016-1.003c0.498,0.408,0.856,0.851,1.266,1.238c0.147,0.138,0.49,0.261,0.618,0.182
		c0.303-0.187,0.137-0.466-0.051-0.679C59.075,19.648,58.725,19.267,58.344,18.844 M30.189,18.502
		c-0.04-0.02-0.081-0.039-0.121-0.059c0-0.247,0.004-0.495-0.001-0.743c-0.006-0.262-0.028-0.532-0.374-0.543
		c-0.346-0.012-0.403,0.252-0.406,0.516c-0.008,0.874-0.008,1.748,0,2.622c0.003,0.264,0.061,0.527,0.407,0.514
		c0.348-0.013,0.366-0.286,0.372-0.546c0.007-0.321,0.002-0.641,0.002-1.108c0.495,0.546,0.873,0.968,1.256,1.384
		c0.185,0.201,0.394,0.428,0.672,0.167c0.277-0.26,0.06-0.493-0.115-0.694c-0.339-0.388-0.691-0.764-1.055-1.164
		c0.292-0.311,0.558-0.586,0.816-0.869c0.194-0.213,0.436-0.454,0.129-0.726c-0.28-0.248-0.485,0.002-0.665,0.204
		C30.797,17.803,30.494,18.153,30.189,18.502 M13.816,8.688c0.115-0.165,0.227-0.328,0.341-0.49
		c3.495-4.955,10.812-4.702,13.896,0.484c0.835,1.404,1.222,2.937,1.242,4.569c0.004,0.277,0.057,0.528,0.397,0.519
		c0.338-0.01,0.39-0.267,0.372-0.541c-0.034-0.503-0.039-1.012-0.125-1.507c-0.601-3.442-2.416-5.988-5.687-7.228
		c-3.345-1.268-6.492-0.774-9.276,1.592c-0.496,0.422-1.003,0.832-1.505,1.247c0.005,0.103-0.138,0.022-0.278-0.062
		c-3.585-2.147-8.249-0.705-9.968,3.083c-0.409,0.9-0.606,1.849-0.623,2.837c-0.005,0.268,0.003,0.531,0.346,0.562
		c0.348,0.033,0.405-0.218,0.42-0.492c0.009-0.168,0.014-0.336,0.033-0.503c0.26-2.36,1.394-4.13,3.56-5.105
		C9.422,6.547,11.709,6.962,13.816,8.688"/>
</g>
</svg>
