<?xml version="1.0" encoding="utf-8"?>
<!-- Generator: Adobe Illustrator 17.0.0, SVG Export Plug-In . SVG Version: 6.00 Build 0)  -->
<!DOCTYPE svg PUBLIC "-//W3C//DTD SVG 1.1//EN" "http://www.w3.org/Graphics/SVG/1.1/DTD/svg11.dtd">
<svg version="1.1" id="Vrstva_1" xmlns="http://www.w3.org/2000/svg" xmlns:xlink="http://www.w3.org/1999/xlink" x="0px" y="0px"
	 width="57.5px" height="24px" viewBox="0 0 57.5 24" enable-background="new 0 0 57.5 24" xml:space="preserve">
<g>
	<path fill="#FFFFFF" d="M52.722,13.497v2.375h0.54c0.202,0,0.348-0.011,0.438-0.035c0.117-0.029,0.215-0.078,0.292-0.148
		c0.078-0.07,0.141-0.186,0.189-0.347c0.049-0.16,0.074-0.38,0.074-0.657c0-0.277-0.025-0.489-0.074-0.638
		c-0.048-0.148-0.117-0.264-0.205-0.347c-0.088-0.084-0.2-0.14-0.335-0.169c-0.101-0.023-0.299-0.034-0.594-0.034H52.722z
		 M51.999,12.89h1.322c0.298,0,0.525,0.022,0.682,0.068c0.21,0.062,0.391,0.172,0.54,0.331c0.15,0.158,0.265,0.351,0.343,0.58
		c0.078,0.23,0.117,0.512,0.117,0.849c0,0.295-0.037,0.549-0.11,0.763c-0.09,0.26-0.217,0.472-0.384,0.633
		c-0.125,0.123-0.295,0.218-0.509,0.287c-0.159,0.05-0.372,0.075-0.64,0.075h-1.361V12.89z M48.661,16.476V12.89h2.657v0.607h-1.933
		v0.795h1.799v0.604h-1.799v0.976h2.002v0.604H48.661z M45.409,11.948h0.555l0.263,0.364l0.284-0.364h0.553l-0.506,0.721h-0.636
		L45.409,11.948z M45.771,14.406h0.535c0.347,0,0.564-0.014,0.651-0.043c0.086-0.029,0.154-0.08,0.203-0.152
		c0.048-0.072,0.073-0.161,0.073-0.269c0-0.121-0.032-0.218-0.097-0.292c-0.064-0.075-0.155-0.121-0.273-0.141
		c-0.058-0.008-0.234-0.012-0.528-0.012h-0.564V14.406z M45.047,16.476V12.89h1.524c0.383,0,0.661,0.032,0.834,0.097
		c0.173,0.064,0.313,0.178,0.417,0.343c0.105,0.165,0.156,0.353,0.156,0.565c0,0.269-0.079,0.492-0.237,0.667
		c-0.157,0.175-0.394,0.286-0.709,0.331c0.157,0.092,0.286,0.192,0.388,0.301c0.102,0.11,0.239,0.304,0.411,0.583l0.439,0.699
		h-0.866l-0.523-0.781c-0.186-0.278-0.313-0.454-0.381-0.527c-0.069-0.072-0.142-0.121-0.218-0.149
		c-0.077-0.026-0.198-0.04-0.365-0.04h-0.146v1.497H45.047z M42.792,16.476v-2.979h-1.063V12.89h2.849v0.607h-1.061v2.979H42.792z
		 M38.462,15.31l0.705-0.07c0.042,0.238,0.128,0.411,0.258,0.522c0.129,0.11,0.304,0.167,0.524,0.167
		c0.233,0,0.409-0.05,0.527-0.149c0.118-0.099,0.178-0.214,0.178-0.346c0-0.085-0.026-0.157-0.075-0.216
		c-0.05-0.06-0.137-0.112-0.261-0.156c-0.084-0.029-0.278-0.081-0.579-0.156c-0.388-0.096-0.66-0.215-0.817-0.355
		c-0.22-0.197-0.33-0.438-0.33-0.722c0-0.183,0.052-0.353,0.155-0.513c0.104-0.158,0.253-0.279,0.448-0.363
		c0.195-0.082,0.429-0.124,0.705-0.124c0.45,0,0.789,0.099,1.016,0.295c0.227,0.198,0.347,0.461,0.358,0.791l-0.723,0.032
		c-0.031-0.185-0.098-0.317-0.2-0.398c-0.102-0.08-0.254-0.121-0.458-0.121c-0.21,0-0.375,0.043-0.494,0.13
		c-0.077,0.055-0.115,0.129-0.115,0.222c0,0.085,0.036,0.158,0.108,0.218c0.09,0.077,0.312,0.157,0.665,0.239
		c0.352,0.084,0.612,0.17,0.781,0.259c0.168,0.089,0.3,0.21,0.396,0.364c0.095,0.155,0.143,0.345,0.143,0.572
		c0,0.205-0.057,0.398-0.171,0.577c-0.114,0.179-0.276,0.313-0.484,0.4c-0.209,0.087-0.469,0.131-0.781,0.131
		c-0.453,0-0.801-0.104-1.043-0.314C38.655,16.016,38.51,15.711,38.462,15.31 M36.895,14.832h1.35v0.687h-1.35V14.832z
		 M33.682,14.681c0,0.406,0.095,0.714,0.282,0.923c0.187,0.21,0.425,0.314,0.714,0.314c0.288,0,0.525-0.103,0.71-0.312
		c0.185-0.208,0.277-0.519,0.277-0.935c0-0.411-0.09-0.717-0.269-0.92c-0.181-0.202-0.42-0.303-0.718-0.303
		c-0.299,0-0.539,0.102-0.722,0.307C33.774,13.96,33.682,14.268,33.682,14.681 M32.937,14.705c0-0.366,0.054-0.672,0.163-0.92
		c0.082-0.182,0.193-0.347,0.335-0.492c0.14-0.144,0.295-0.252,0.463-0.322c0.223-0.095,0.48-0.142,0.772-0.142
		c0.529,0,0.951,0.163,1.268,0.492c0.317,0.327,0.476,0.783,0.476,1.366c0,0.58-0.158,1.033-0.473,1.36
		c-0.314,0.327-0.735,0.49-1.261,0.49c-0.533,0-0.957-0.163-1.271-0.487C33.094,15.724,32.937,15.275,32.937,14.705 M29.475,16.476
		V12.89h0.704l1.467,2.395V12.89h0.673v3.586h-0.727l-1.445-2.338v2.338H29.475z M26.578,14.406h0.535
		c0.347,0,0.564-0.014,0.651-0.043c0.086-0.029,0.153-0.08,0.202-0.152c0.049-0.072,0.074-0.161,0.074-0.269
		c0-0.121-0.033-0.218-0.097-0.292c-0.064-0.075-0.155-0.121-0.273-0.141c-0.058-0.008-0.234-0.012-0.528-0.012h-0.564V14.406z
		 M25.853,16.476V12.89h1.524c0.383,0,0.661,0.032,0.835,0.097c0.173,0.064,0.313,0.178,0.417,0.343
		c0.104,0.165,0.156,0.353,0.156,0.565c0,0.269-0.079,0.492-0.237,0.667c-0.158,0.175-0.395,0.286-0.709,0.331
		c0.157,0.092,0.286,0.192,0.388,0.301c0.101,0.11,0.238,0.304,0.411,0.583l0.438,0.699h-0.865l-0.523-0.781
		c-0.186-0.278-0.313-0.454-0.382-0.527c-0.068-0.072-0.141-0.121-0.218-0.149c-0.076-0.026-0.197-0.04-0.364-0.04h-0.146v1.497
		H25.853z M22.961,14.913v0.959h0.67c0.261,0,0.426-0.007,0.496-0.022c0.108-0.019,0.196-0.068,0.263-0.143
		c0.068-0.076,0.102-0.178,0.102-0.304c0-0.108-0.027-0.199-0.078-0.274c-0.053-0.076-0.128-0.131-0.227-0.165
		c-0.098-0.034-0.313-0.051-0.641-0.051H22.961z M22.961,13.487v0.829h0.474c0.283,0,0.458-0.004,0.526-0.013
		c0.124-0.014,0.221-0.056,0.292-0.127s0.106-0.165,0.106-0.281c0-0.111-0.03-0.201-0.091-0.27c-0.061-0.07-0.152-0.111-0.272-0.126
		c-0.072-0.008-0.278-0.012-0.619-0.012H22.961z M22.237,12.89h1.433c0.284,0,0.496,0.012,0.635,0.036
		c0.139,0.023,0.264,0.072,0.374,0.147c0.11,0.076,0.201,0.175,0.275,0.3c0.073,0.125,0.11,0.265,0.11,0.419
		c0,0.168-0.045,0.323-0.135,0.463c-0.091,0.14-0.214,0.246-0.368,0.316c0.218,0.063,0.386,0.172,0.503,0.325
		s0.176,0.334,0.176,0.541c0,0.162-0.038,0.321-0.113,0.476c-0.077,0.153-0.18,0.277-0.311,0.369
		c-0.131,0.092-0.293,0.148-0.486,0.17c-0.12,0.013-0.411,0.021-0.873,0.024h-1.22V12.89z"/>
	<path fill="#FFFFFF" d="M49.918,9.793l0.051,0.311c-0.099,0.02-0.187,0.031-0.266,0.031c-0.127,0-0.226-0.02-0.297-0.061
		c-0.07-0.04-0.119-0.093-0.148-0.159C49.229,9.85,49.215,9.711,49.215,9.5V8.305h-0.259V8.031h0.259V7.517l0.35-0.211v0.725h0.353
		v0.274h-0.353v1.214c0,0.101,0.006,0.165,0.018,0.194c0.013,0.028,0.033,0.051,0.061,0.068c0.027,0.017,0.068,0.026,0.12,0.026
		C49.803,9.807,49.854,9.802,49.918,9.793 M47.009,9.488l0.347-0.055c0.02,0.14,0.074,0.246,0.164,0.321
		c0.089,0.074,0.213,0.112,0.374,0.112c0.161,0,0.281-0.034,0.359-0.099c0.079-0.066,0.118-0.144,0.118-0.232
		c0-0.08-0.035-0.142-0.105-0.188c-0.047-0.031-0.167-0.071-0.359-0.119c-0.257-0.065-0.437-0.121-0.536-0.169
		c-0.099-0.048-0.175-0.114-0.227-0.198c-0.051-0.084-0.077-0.177-0.077-0.278c0-0.093,0.021-0.178,0.064-0.257
		c0.042-0.079,0.1-0.145,0.173-0.197c0.054-0.04,0.129-0.075,0.223-0.103c0.095-0.028,0.196-0.042,0.304-0.042
		c0.163,0,0.306,0.024,0.429,0.071c0.123,0.046,0.214,0.11,0.273,0.19c0.058,0.081,0.099,0.188,0.121,0.322L48.31,8.614
		c-0.016-0.107-0.061-0.19-0.136-0.25c-0.075-0.06-0.181-0.09-0.318-0.09c-0.161,0-0.276,0.026-0.345,0.08
		c-0.069,0.053-0.104,0.116-0.104,0.187c0,0.046,0.015,0.087,0.043,0.124c0.029,0.038,0.074,0.069,0.135,0.094
		c0.036,0.013,0.139,0.043,0.311,0.089c0.249,0.067,0.422,0.121,0.52,0.164c0.099,0.042,0.176,0.104,0.232,0.185
		c0.056,0.08,0.085,0.181,0.085,0.301c0,0.117-0.035,0.227-0.103,0.331c-0.069,0.104-0.168,0.184-0.297,0.241
		c-0.128,0.057-0.274,0.085-0.437,0.085c-0.27,0-0.476-0.056-0.617-0.168C47.138,9.874,47.047,9.708,47.009,9.488 M45.564,7.773
		l0.26-0.547h0.461l-0.43,0.547H45.564z M46.248,9.065c-0.128,0.053-0.319,0.097-0.574,0.134c-0.145,0.02-0.248,0.044-0.307,0.07
		c-0.06,0.026-0.107,0.064-0.139,0.115c-0.032,0.05-0.049,0.105-0.049,0.167c0,0.094,0.036,0.172,0.107,0.234
		c0.07,0.063,0.175,0.094,0.311,0.094s0.256-0.029,0.362-0.089c0.105-0.059,0.183-0.141,0.233-0.244
		c0.038-0.079,0.056-0.196,0.056-0.351V9.065z M46.278,9.851c-0.131,0.111-0.257,0.189-0.377,0.235
		c-0.12,0.046-0.25,0.069-0.388,0.069c-0.228,0-0.403-0.056-0.525-0.167c-0.123-0.112-0.184-0.255-0.184-0.427
		c0-0.103,0.023-0.195,0.07-0.279c0.046-0.085,0.106-0.152,0.181-0.203c0.075-0.05,0.159-0.089,0.253-0.115
		c0.069-0.018,0.173-0.036,0.313-0.053c0.284-0.034,0.493-0.074,0.627-0.121c0.002-0.048,0.002-0.079,0.002-0.092
		c0-0.143-0.033-0.245-0.1-0.303c-0.089-0.08-0.223-0.119-0.4-0.119c-0.165,0-0.287,0.029-0.367,0.086
		c-0.079,0.059-0.137,0.161-0.175,0.309l-0.343-0.048c0.031-0.146,0.082-0.266,0.154-0.356c0.072-0.091,0.175-0.161,0.311-0.21
		c0.135-0.048,0.292-0.073,0.471-0.073c0.177,0,0.32,0.022,0.431,0.063c0.111,0.042,0.192,0.094,0.245,0.157
		c0.052,0.064,0.088,0.143,0.109,0.24c0.012,0.06,0.018,0.168,0.018,0.324v0.47c0,0.327,0.007,0.534,0.022,0.62
		c0.015,0.087,0.045,0.17,0.089,0.25h-0.367C46.312,10.035,46.288,9.95,46.278,9.851 M43.755,7.558l0.215-0.332h0.399l-0.44,0.547
		h-0.376l-0.422-0.547h0.403L43.755,7.558z M44.277,9.347l0.345,0.045c-0.037,0.239-0.134,0.425-0.29,0.56s-0.347,0.203-0.574,0.203
		c-0.283,0-0.512-0.093-0.684-0.279c-0.173-0.185-0.26-0.452-0.26-0.799c0-0.224,0.038-0.42,0.112-0.588
		c0.075-0.169,0.187-0.295,0.339-0.379s0.317-0.126,0.495-0.126c0.226,0,0.411,0.058,0.553,0.172
		c0.144,0.114,0.236,0.275,0.276,0.486l-0.342,0.052c-0.033-0.139-0.09-0.244-0.173-0.315c-0.082-0.07-0.183-0.105-0.3-0.105
		c-0.177,0-0.321,0.063-0.432,0.191c-0.111,0.127-0.166,0.327-0.166,0.602c0,0.279,0.053,0.482,0.161,0.609
		c0.106,0.126,0.246,0.19,0.418,0.19c0.138,0,0.253-0.043,0.345-0.128C44.193,9.653,44.252,9.523,44.277,9.347 M40.225,7.773
		l0.26-0.547h0.461l-0.43,0.547H40.225z M40.909,9.065c-0.128,0.053-0.319,0.097-0.574,0.134c-0.145,0.02-0.248,0.044-0.307,0.07
		c-0.06,0.026-0.107,0.064-0.139,0.115c-0.032,0.05-0.049,0.105-0.049,0.167c0,0.094,0.036,0.172,0.106,0.234
		c0.071,0.063,0.175,0.094,0.312,0.094c0.136,0,0.256-0.029,0.362-0.089c0.105-0.059,0.183-0.141,0.232-0.244
		c0.039-0.079,0.057-0.196,0.057-0.351V9.065z M40.939,9.851c-0.131,0.111-0.257,0.189-0.377,0.235
		c-0.12,0.046-0.25,0.069-0.388,0.069c-0.228,0-0.403-0.056-0.525-0.167c-0.123-0.112-0.184-0.255-0.184-0.427
		c0-0.103,0.023-0.195,0.069-0.279c0.046-0.085,0.107-0.152,0.182-0.203c0.075-0.05,0.159-0.089,0.253-0.115
		c0.069-0.018,0.173-0.036,0.312-0.053c0.285-0.034,0.494-0.074,0.628-0.121c0.001-0.048,0.002-0.079,0.002-0.092
		c0-0.143-0.033-0.245-0.1-0.303c-0.089-0.08-0.223-0.119-0.4-0.119c-0.165,0-0.288,0.029-0.367,0.086
		c-0.079,0.059-0.137,0.161-0.175,0.309l-0.343-0.048c0.031-0.146,0.082-0.266,0.154-0.356c0.071-0.091,0.175-0.161,0.311-0.21
		c0.135-0.048,0.292-0.073,0.471-0.073c0.177,0,0.321,0.022,0.431,0.063c0.111,0.042,0.192,0.094,0.245,0.157
		c0.052,0.064,0.088,0.143,0.109,0.24c0.012,0.06,0.018,0.168,0.018,0.324v0.47c0,0.327,0.007,0.534,0.022,0.62
		c0.015,0.087,0.045,0.17,0.089,0.25h-0.367C40.973,10.035,40.948,9.95,40.939,9.851 M37.584,10.108V7.241h0.353v1.635l0.832-0.845
		h0.455l-0.793,0.771l0.874,1.306h-0.434l-0.686-1.062l-0.248,0.239v0.823H37.584z M35.441,9.488l0.348-0.055
		c0.02,0.14,0.074,0.246,0.163,0.321c0.089,0.074,0.214,0.112,0.374,0.112c0.162,0,0.282-0.034,0.36-0.099
		c0.078-0.066,0.117-0.144,0.117-0.232c0-0.08-0.034-0.142-0.104-0.188c-0.048-0.031-0.168-0.071-0.359-0.119
		c-0.258-0.065-0.437-0.121-0.537-0.169c-0.099-0.048-0.175-0.114-0.226-0.198c-0.051-0.084-0.078-0.177-0.078-0.278
		c0-0.093,0.022-0.178,0.065-0.257c0.041-0.079,0.099-0.145,0.172-0.197c0.055-0.04,0.13-0.075,0.224-0.103
		c0.095-0.028,0.196-0.042,0.304-0.042c0.163,0,0.305,0.024,0.429,0.071c0.123,0.046,0.214,0.11,0.272,0.19
		c0.059,0.081,0.099,0.188,0.121,0.322l-0.343,0.047c-0.016-0.107-0.062-0.19-0.137-0.25c-0.074-0.06-0.18-0.09-0.317-0.09
		c-0.161,0-0.277,0.026-0.345,0.08c-0.07,0.053-0.104,0.116-0.104,0.187c0,0.046,0.014,0.087,0.043,0.124
		c0.029,0.038,0.073,0.069,0.135,0.094c0.035,0.013,0.138,0.043,0.311,0.089c0.248,0.067,0.422,0.121,0.52,0.164
		c0.099,0.042,0.176,0.104,0.232,0.185c0.056,0.08,0.084,0.181,0.084,0.301c0,0.117-0.035,0.227-0.103,0.331
		c-0.068,0.104-0.167,0.184-0.296,0.241c-0.129,0.057-0.275,0.085-0.437,0.085c-0.271,0-0.476-0.056-0.618-0.168
		C35.57,9.874,35.48,9.708,35.441,9.488 M35.238,9.793l0.051,0.311c-0.099,0.02-0.188,0.031-0.266,0.031
		c-0.128,0-0.227-0.02-0.297-0.061c-0.07-0.04-0.12-0.093-0.149-0.159C34.549,9.85,34.534,9.711,34.534,9.5V8.305h-0.258V8.031
		h0.258V7.517l0.35-0.211v0.725h0.354v0.274h-0.354v1.214c0,0.101,0.006,0.165,0.018,0.194c0.013,0.028,0.033,0.051,0.061,0.068
		s0.068,0.026,0.12,0.026C35.123,9.807,35.174,9.802,35.238,9.793 M32.328,9.488l0.348-0.055c0.019,0.14,0.074,0.246,0.163,0.321
		c0.089,0.074,0.214,0.112,0.374,0.112c0.162,0,0.282-0.034,0.36-0.099c0.078-0.066,0.117-0.144,0.117-0.232
		c0-0.08-0.034-0.142-0.104-0.188c-0.047-0.031-0.168-0.071-0.359-0.119c-0.258-0.065-0.437-0.121-0.536-0.169
		c-0.1-0.048-0.176-0.114-0.228-0.198c-0.051-0.084-0.077-0.177-0.077-0.278c0-0.093,0.022-0.178,0.064-0.257
		c0.042-0.079,0.1-0.145,0.173-0.197c0.055-0.04,0.13-0.075,0.223-0.103c0.095-0.028,0.196-0.042,0.305-0.042
		c0.162,0,0.305,0.024,0.429,0.071c0.123,0.046,0.214,0.11,0.272,0.19c0.059,0.081,0.099,0.188,0.121,0.322L33.63,8.614
		c-0.016-0.107-0.062-0.19-0.137-0.25c-0.074-0.06-0.18-0.09-0.317-0.09c-0.161,0-0.277,0.026-0.346,0.08
		c-0.069,0.053-0.104,0.116-0.104,0.187c0,0.046,0.015,0.087,0.044,0.124c0.028,0.038,0.073,0.069,0.135,0.094
		c0.035,0.013,0.138,0.043,0.31,0.089c0.249,0.067,0.423,0.121,0.521,0.164c0.098,0.042,0.176,0.104,0.232,0.185
		c0.056,0.08,0.084,0.181,0.084,0.301c0,0.117-0.035,0.227-0.103,0.331c-0.069,0.104-0.167,0.184-0.296,0.241
		c-0.129,0.057-0.275,0.085-0.438,0.085c-0.27,0-0.475-0.056-0.617-0.168C32.457,9.874,32.367,9.708,32.328,9.488 M31.118,7.558
		l0.215-0.332h0.399l-0.44,0.547h-0.375l-0.423-0.547h0.403L31.118,7.558z M30.508,8.87h1.159c-0.015-0.174-0.06-0.306-0.133-0.393
		c-0.112-0.135-0.257-0.203-0.435-0.203c-0.162,0-0.298,0.054-0.408,0.162S30.521,8.689,30.508,8.87 M31.663,9.439l0.364,0.045
		c-0.058,0.213-0.164,0.378-0.318,0.495c-0.156,0.117-0.354,0.176-0.595,0.176c-0.303,0-0.544-0.094-0.722-0.281
		s-0.266-0.449-0.266-0.787c0-0.35,0.09-0.62,0.269-0.813c0.18-0.193,0.413-0.29,0.7-0.29c0.277,0,0.504,0.095,0.68,0.284
		c0.176,0.189,0.264,0.455,0.264,0.797c0,0.022-0.001,0.053-0.002,0.094h-1.548c0.013,0.229,0.078,0.404,0.194,0.524
		c0.115,0.122,0.26,0.183,0.433,0.183c0.129,0,0.239-0.035,0.331-0.103C31.538,9.696,31.61,9.588,31.663,9.439 M26.909,10.108V8.031
		h0.314v0.291c0.066-0.101,0.152-0.183,0.26-0.245c0.109-0.061,0.232-0.093,0.37-0.093c0.153,0,0.279,0.032,0.378,0.096
		c0.098,0.064,0.168,0.153,0.208,0.268c0.164-0.243,0.378-0.364,0.641-0.364c0.206,0,0.364,0.058,0.475,0.172
		c0.11,0.114,0.166,0.289,0.166,0.526v1.426h-0.35V8.8c0-0.141-0.011-0.243-0.034-0.305c-0.023-0.061-0.065-0.111-0.124-0.149
		c-0.06-0.038-0.131-0.057-0.211-0.057c-0.146,0-0.267,0.049-0.364,0.146c-0.096,0.097-0.145,0.253-0.145,0.466v1.207h-0.351V8.759
		c0-0.157-0.029-0.274-0.086-0.352c-0.058-0.079-0.151-0.118-0.282-0.118c-0.098,0-0.19,0.026-0.274,0.079
		c-0.084,0.052-0.145,0.128-0.183,0.228c-0.038,0.101-0.056,0.246-0.056,0.435v1.077H26.909z"/>
	<path fill="#FFFFFF" d="M4.953,3.351v6.604c0,1.331,0.159,2.676,0.544,3.952c0.346,1.146,0.873,2.226,1.569,3.2
		c1.471,2.057,3.592,3.525,5.826,4.65c2.356-1.19,4.486-2.831,5.956-5.051c1.344-2.032,1.982-4.316,1.982-6.751l-0.002-6.604H4.953z
		"/>
	<path d="M5.047,3.449v6.517c0,1.319,0.158,2.653,0.539,3.918c0.343,1.135,0.865,2.205,1.554,3.169
		c1.453,2.031,3.548,3.484,5.752,4.598c2.327-1.18,4.429-2.802,5.881-4.996c1.332-2.013,1.965-4.276,1.965-6.689l-0.002-6.517H5.047
		z M4.83,3.232h16.123l0.002,6.734c0,2.512-0.673,4.803-2.001,6.809c-1.362,2.059-3.387,3.774-6.019,5.098l-0.042,0.021
		l-0.043-0.021c-2.656-1.334-4.582-2.869-5.887-4.694C6.264,16.2,5.73,15.113,5.379,13.947C5.014,12.741,4.83,11.401,4.83,9.966
		V3.232z"/>
	<path d="M10.573,4.533c0.056,0.066,0.104,0.103,0.208,0.115c0.028,0.06,0.042,0.128,0.09,0.196c0.047,0.069,0.147,0.16,0.204,0.224
		c0.032,0.062-0.107,0.261-0.18,0.325c-0.009,0.002-0.017,0.004-0.024,0.007c-0.077,0.024-0.136,0.065-0.202,0.099
		c-0.065,0.035-0.125,0.093-0.19,0.109c-0.065,0.015-0.08-0.004-0.123-0.02c-0.042-0.017-0.06-0.069-0.06-0.094
		c-0.001-0.025,0.007-0.023,0.058-0.017c0.05,0.005,0.086,0.01,0.139-0.023s0.106-0.06,0.151-0.088
		c0.046-0.029,0.079-0.066,0.122-0.083c0.043-0.017,0.099,0.004,0.121-0.04c0.023-0.044-0.006-0.083-0.033-0.134
		c-0.026-0.05-0.059-0.102-0.113-0.139c-0.054-0.038-0.131-0.05-0.19-0.066C10.492,4.888,10.5,4.89,10.453,4.876
		c-0.047-0.015-0.063-0.038-0.119-0.049c-0.056-0.011-0.14-0.017-0.187-0.008c-0.047,0.008-0.054,0.039-0.108,0.06
		C9.986,4.899,9.96,4.9,9.954,4.836C9.947,4.771,9.952,4.688,9.979,4.625c0.026-0.063,0.062-0.112,0.148-0.148
		c0.088-0.036,0.253-0.068,0.345-0.057C10.564,4.431,10.524,4.501,10.573,4.533 M10.659,5.288c0.026-0.021,0.051-0.042,0.083-0.055
		L10.714,5.21c-0.121-0.1-0.225-0.185-0.382-0.188c-0.078-0.001-0.154,0.034-0.231,0.046c-0.077,0.013-0.187,0.041-0.278,0.025
		c-0.091-0.016-0.179-0.07-0.244-0.116c-0.02,0.068,0.001,0.14,0.034,0.194c0.034,0.055,0.088,0.092,0.15,0.107
		c0.063,0.015,0.134-0.004,0.205-0.02c0.071-0.017,0.151-0.061,0.217-0.079c0.066-0.017,0.12-0.027,0.177-0.026
		c0.142,0.001,0.166,0.067,0.265,0.118L10.659,5.288z M11.074,4.402c-0.045-0.072-0.127-0.041-0.142,0.024
		c-0.018,0.078,0.012,0.203,0.062,0.254c0.052,0.055,0.14,0.115,0.214,0.12c0.092,0.007,0.118-0.085,0.047-0.145
		c-0.04-0.034-0.079-0.037-0.124-0.072C11.086,4.547,11.096,4.44,11.074,4.402 M9.977,14.251c0.002,0.001,0.005,0.001,0.007,0.002
		c0.08,0.021,0.172-0.084,0.246-0.118c0.074-0.035,0.116-0.083,0.168-0.081c0.052,0.003,0.11,0.031,0.091,0.094
		c-0.02,0.062-0.149,0.114-0.164,0.18v0.002c-0.376,0.359-0.699,0.73-1.066,1.101c-0.082,0.082-0.118,0.137-0.118,0.179
		c0,0.01,0.001,0.018,0.005,0.026c0.019,0.046,0.076,0.047,0.102,0.047c0.142,0.012,0.271,0.052,0.273,0.053
		c0.069,0.019,0.11,0.052,0.121,0.096c0.003,0.01,0.004,0.02,0.004,0.03c0,0.085-0.075,0.189-0.117,0.231
		c-0.106,0.108-0.199,0.047-0.301-0.038c0,0-0.028-0.022-0.03-0.024c-0.188-0.16-0.276-0.06-0.334,0.006l-0.025,0.028
		c-0.048,0.048-0.142,0.164-0.261,0.31L8.419,16.57c-0.201,0.244-0.368,0.123-0.369,0.122c-0.08-0.063-0.054-0.099-0.016-0.155
		l0.02-0.029c0.028-0.047,0.159-0.21,0.224-0.289c0.011-0.014,0.011-0.034-0.001-0.047c-0.011-0.013-0.031-0.016-0.046-0.007
		C8,16.315,7.956,16.318,7.792,16.33l-0.027,0.002c-0.037,0.003-0.064-0.005-0.083-0.026c-0.04-0.043-0.037-0.132-0.032-0.163
		c0-0.002,0-0.005,0-0.007c-0.005-0.087,0.024-0.129,0.072-0.158c0.022-0.012,0.042-0.022,0.059-0.029
		c0.008-0.004,0.017-0.007,0.026-0.011l0.003-0.001C7.903,15.899,8.238,15.8,8.241,15.8c0.017-0.006,0.028-0.022,0.026-0.039
		c-0.002-0.018-0.017-0.031-0.034-0.032c-0.297-0.016-0.351-0.044-0.353-0.045l0.003,0.002c-0.002-0.001-0.005-0.003-0.007-0.004
		c-0.077-0.037-0.126-0.095-0.138-0.165c-0.01-0.06,0.01-0.12,0.055-0.165l0.003-0.003c0.051-0.051,0.083-0.084,0.138-0.08
		c0.018,0.003,0.03,0.005,0.033,0.006c0.053,0.014,0.124,0.053,0.238,0.126c0.473,0.304,0.757-0.078,0.783-0.115
		c0.003-0.003,0.502-0.547,0.502-0.547L9.977,14.251z M7.378,15.474C7.5,15.472,7.63,15.458,7.67,15.433
		c0.01-0.049,0.035-0.094,0.072-0.132l0.003-0.003c0.015-0.015,0.029-0.029,0.042-0.041C7.644,15.258,7.457,15.296,7.378,15.474
		 M7.579,16.136c-0.001-0.007-0.001-0.014-0.001-0.021c0-0.014,0.001-0.026,0.003-0.039c-0.068,0.062-0.128,0.144-0.146,0.25
		c0,0.001,0,0.002,0,0.002l-0.01,0.041c-0.01,0.042-0.02,0.083-0.026,0.138c0.096-0.058,0.191-0.12,0.229-0.153
		c-0.044-0.049-0.052-0.122-0.052-0.171C7.576,16.16,7.578,16.143,7.579,16.136 M7.948,16.687c-0.013,0.037-0.022,0.078-0.022,0.122
		c0,0.012,0,0.023,0.002,0.035c0.01,0.097,0.067,0.187,0.166,0.268c0.009-0.058,0.027-0.139,0.066-0.2
		c0.013-0.02,0.026-0.07,0.031-0.118c-0.081,0.009-0.147-0.016-0.184-0.044C7.98,16.728,7.961,16.707,7.948,16.687 M9.95,16.132
		c-0.023-0.196-0.153-0.278-0.237-0.31c0.003,0.013,0.004,0.026,0.004,0.039c0,0.061-0.025,0.123-0.055,0.175
		C9.781,16.055,9.888,16.101,9.95,16.132z M12.892,17.882c0.014-0.002,0.039-0.032,0.052-0.064c0.137-0.335,0.207-0.673,0.264-1.028
		c0.018-0.115,0.063-0.089,0.103-0.036c0.041,0.052,0.08,0.094,0.169,0.146c0.089,0.053,0.25,0.063,0.348,0.145
		c0.099,0.081,0.175,0.263,0.204,0.314c0.03,0.051,0.049,0.078,0.075,0.017c0.025-0.061,0.046-0.198,0.049-0.314
		c0.003-0.116,0.02-0.246-0.033-0.374c-0.053-0.128-0.146-0.254-0.272-0.365c-0.183-0.162-0.438-0.206-0.579-0.447
		c-0.048-0.082,0.032-0.18,0.12-0.116c0.217,0.158,0.346,0.169,0.632,0.15c0.131-0.008,0.25-0.049,0.383-0.063
		c0.437-0.046,0.406,0.063,0.697,0.157c0.073,0.024,0.125,0.061,0.124-0.063c-0.01-0.721-0.38-0.725-0.978-0.824
		c-0.157-0.025-0.415-0.065-0.544-0.211c-0.054-0.061-0.133-0.083-0.167-0.154c-0.062-0.128-0.005-0.204,0.122-0.239
		c0.266-0.071,0.249-0.408,0.329-0.481c0.092-0.084,0.341-0.275,0.494-0.421c0.025,0.019,0.048,0.037,0.07,0.056
		c0.096,0.082,0.175,0.143,0.263,0.258c0.088,0.116,0.193,0.306,0.259,0.432c0.065,0.126,0.079,0.263,0.133,0.321
		c0.054,0.057,0.092-0.004,0.12-0.054c0.028-0.049,0-0.157,0.027-0.209c0.011-0.021,0.032-0.029,0.053-0.035
		c0.374,0.361,0.698,0.731,1.066,1.102c0.08,0.081,0.094,0.115,0.096,0.125c-0.005,0.002-0.015,0.004-0.037,0.004h-0.003
		c-0.151,0.012-0.283,0.053-0.289,0.055c-0.052,0.016-0.093,0.037-0.123,0.066c-0.066,0.015-0.36,0.099-0.36,0.462
		c0,0.013,0.007,0.025,0.018,0.031c0.011,0.007,0.025,0.007,0.036,0c0.002-0.001,0.17-0.102,0.355-0.123
		c0.014,0.018,0.026,0.032,0.036,0.042c0.161,0.162,0.315,0.036,0.398-0.033l0.03-0.024c0.135-0.116,0.179-0.065,0.234-0.002
		l0.029,0.031c0.045,0.046,0.138,0.16,0.256,0.305l0.16,0.195c0.071,0.087,0.143,0.136,0.209,0.16
		c0.004,0.062,0.02,0.137,0.044,0.176c0.038,0.058,0.056,0.156,0.061,0.227c0.001,0.027,0.023,0.037,0.037,0.036
		c0.007,0,0.013-0.003,0.019-0.007c0.149-0.102,0.232-0.223,0.247-0.357c0.02-0.19-0.104-0.34-0.126-0.364l-0.011-0.017
		c-0.016-0.027-0.06-0.085-0.106-0.142c0.117,0.06,0.181,0.065,0.301,0.074l0.028,0.003c0.031,0.002,0.059-0.002,0.083-0.011
		c0.067,0.069,0.245,0.172,0.312,0.211c0.012,0.006,0.026,0.006,0.037-0.001c0.011-0.007,0.018-0.019,0.017-0.033
		c-0.005-0.1-0.02-0.16-0.035-0.219l-0.009-0.04c0,0.001,0,0.002,0,0.003c-0.055-0.326-0.425-0.449-0.447-0.456
		c-0.055-0.02-0.144-0.048-0.225-0.073c0.101-0.011,0.169-0.025,0.194-0.04c0.096-0.047,0.159-0.125,0.175-0.217
		c0.001-0.005,0.002-0.011,0.002-0.017c0.109,0.036,0.296,0.035,0.34,0.034c0.012,0,0.022-0.006,0.029-0.015
		c0.007-0.009,0.008-0.021,0.005-0.032c-0.102-0.344-0.499-0.322-0.64-0.303c-0.014,0.001-0.028,0.003-0.043,0.007
		c-0.004,0.001-0.007,0.002-0.008,0.002c-0.063,0.017-0.144,0.06-0.26,0.136c-0.433,0.278-0.677-0.082-0.687-0.097
		c-0.001-0.002-0.002-0.003-0.004-0.005l-0.503-0.549l-0.505-0.505c-0.002-0.046-0.028-0.106-0.048-0.159
		c-0.036-0.092-0.146-0.22-0.175-0.297c-0.059-0.156,0.183-0.052,0.243-0.126c0.044-0.053,0.064-0.152-0.002-0.221
		c-0.065-0.07-0.223-0.128-0.317-0.191c-0.093-0.063-0.135-0.08-0.242-0.203c-0.039-0.045-0.088-0.104-0.14-0.169
		c0.015-0.022,0.03-0.044,0.044-0.066c0.131-0.197,0.245-0.402,0.342-0.613c0.007-0.014,0.115-0.26,0.126-0.274
		c0.094,0.262,0.227,0.818,0.227,0.818s0.083,0.093,0.083-0.011c0-0.101-0.159-0.814-0.246-1.075
		c0.034-0.14,0.074-0.267,0.115-0.378c0.361,0.848,0.56,2.14,1.447,2.587c0.244,0.123,0.776,0.151,0.776,0.151
		c-0.521-0.549-0.816-1.252-1.012-1.977c0,0,0.021-0.068,0.143,0.211c0.122,0.277,0.596,0.922,0.729,1.066
		c0.133,0.146,0.306,0.176,0.306,0.176s0.003-0.068-0.174-0.235c-0.178-0.166-0.54-0.75-0.662-0.983
		c-0.122-0.234-0.268-0.742-0.268-0.742s0.041,0.069,0.152,0.288c0.112,0.219,0.42,0.658,0.575,0.826
		c0.155,0.166,0.621,0.545,1.031,0.524c0.411-0.024,0.644-0.313,0.644-0.313c-0.705-0.298-0.963-0.768-1.309-1.313
		c-0.235-0.372-0.26-0.629-0.265-0.692c-0.003-0.01-0.003-0.016-0.002-0.016s0.001,0.005,0.002,0.016
		c0.103,0.439,0.755,1.127,1.087,1.398c0.159,0.131,0.203,0.06,0.203,0.06c-0.498-0.497-0.924-1.019-1.18-1.703
		c0,0,0.443,0.457,0.532,0.546c0.089,0.089,0.399,0.335,0.798,0.267c0.399-0.066,0.554-0.389,0.554-0.389s-0.132,0.022-0.343-0.044
		c-0.475-0.152-0.979-1.058-1.163-1.519c0,0,0.293,0.336,0.493,0.515c0.199,0.178,0.58,0.41,0.58,0.41l0.123-0.02
		c0,0-0.138-0.114-0.371-0.281c-0.233-0.167-0.414-0.437-0.624-0.67c-0.211-0.234-0.227-0.332-0.227-0.332s0.002-0.031,0.136,0.091
		c0.133,0.123,0.321,0.201,0.509,0.223c0.19,0.022,0.287,0.053,0.564-0.148s0.268-0.33,0.268-0.33
		c-1.028,0.274-1.591-1.119-1.576-1.093c0.17,0.291,0.649,0.555,0.952,0.672c0.131,0.052,0.181,0.031,0.181,0.031
		s-0.264-0.187-0.453-0.332c-0.192-0.139-0.316-0.264-0.42-0.38c-0.104-0.116-0.247-0.3-0.081-0.168
		c0.165,0.133,0.511,0.201,0.643,0.212c0.133,0.011,0.344-0.034,0.478-0.2c0.132-0.168,0.132-0.468,0.132-0.468
		s-0.447,0.087-0.627,0.037c-0.182-0.048-0.248-0.127-0.381-0.261c-0.115-0.115-0.197-0.239-0.217-0.27
		C18.53,6.642,18.53,6.64,18.53,6.64s0.001,0.003,0.005,0.008c0.1,0.129,0.781,0.304,0.87,0.126c0,0-0.343-0.034-0.488-0.078
		c-0.143-0.045-0.298-0.101-0.333-0.178c-0.033-0.079,0.045-0.179,0.045-0.179s0.255,0.022,0.399-0.01
		c0.144-0.035,0.511-0.213,0.621-0.491c0.111-0.279-0.011-0.702-0.011-0.702s-0.233,0.312-0.466,0.468
		c-0.369,0.248-1.216,0.142-1.485-0.224c-0.1-0.133-0.289-0.066-0.289-0.066c0.061,0.128-0.012,0.299-0.122,0.39
		c-0.089,0.134-0.465,0.211-0.432,0.646c0.033,0.435,0.366,0.446,0.488,0.512c0.246,0.136,0.045,0.859-0.244,0.825
		c-0.318-0.245-0.464-0.508-0.811-0.073c-0.175,0.22-0.574,0.013-0.764-0.028c-0.266-0.056-0.36,0.083-0.606,0.05
		c-0.421-0.057-0.615-0.583-0.306-0.607c0.136-0.011-0.04-0.205,0.001-0.455c0.012-0.049,0.014-0.087,0.061-0.079
		c0.018-0.002,0.041,0.01,0.068-0.001c0.027-0.011,0.043-0.032,0.009-0.09c-0.083-0.137-0.09-0.286-0.07-0.457
		c0.005-0.049,0.068,0.009,0.098,0.003c0.035-0.007,0.059-0.014,0.057-0.1c-0.001-0.13-0.032-0.318,0.025-0.408
		c0.017,0.002,0.032,0.006,0.048,0.011c0.069,0.022,0.128,0.062,0.192,0.096c0.069,0.036,0.124,0.094,0.203,0.113
		c0.068,0.016,0.089,0.003,0.154-0.022c0.054-0.022,0.094-0.086,0.095-0.145c0.002-0.081-0.06-0.08-0.117-0.074
		c-0.043,0.005-0.068,0.009-0.106-0.014c-0.046-0.029-0.095-0.054-0.141-0.082c0.106-0.054,0.118-0.113,0.244-0.114
		c0.056-0.001,0.109,0.01,0.163,0.024c0.074,0.02,0.142,0.061,0.219,0.079c0.074,0.018,0.153,0.039,0.229,0.021
		c0.076-0.019,0.144-0.064,0.185-0.132c0.044-0.071,0.065-0.16,0.041-0.242l-0.022-0.077l-0.064,0.045
		c-0.064,0.046-0.143,0.093-0.222,0.107c-0.081,0.014-0.178-0.011-0.259-0.025c-0.082-0.013-0.154-0.048-0.241-0.047
		c-0.173,0.003-0.293,0.096-0.425,0.208L14.969,5.22c-0.011-0.001-0.02-0.002-0.025-0.004c-0.006-0.017,0.026-0.067,0.033-0.081
		c0.025-0.046,0.053-0.089,0.096-0.119c0.045-0.032,0.121-0.044,0.174-0.058c0.053-0.014,0.047-0.013,0.099-0.029
		c0.042-0.012,0.073-0.039,0.114-0.047c0.045-0.009,0.123-0.017,0.168-0.009c0.022,0.004,0.064,0.044,0.098,0.057
		c0.085,0.033,0.147,0.015,0.158-0.089c0.007-0.076,0.001-0.167-0.029-0.238c-0.038-0.089-0.09-0.141-0.178-0.178
		c-0.098-0.04-0.267-0.073-0.371-0.06c-0.029,0.003-0.011,0.004-0.04,0.004c-0.123-0.166-0.265-0.321-0.587-0.343
		c-0.221-0.008-0.38,0.021-0.575,0.04c-0.182,0.018-0.356,0.009-0.513-0.035c-0.037-0.01-0.057-0.006-0.054,0.034
		c0.006,0.119,0.045,0.176,0.061,0.227c0.018,0.056,0.038,0.065,0.027,0.143c-0.011,0.079-0.06,0.205-0.084,0.261
		c-0.024,0.056-0.073,0.041-0.071,0.078c0.002,0.038,0.063,0.067,0.07,0.107c0.008,0.04,0.002,0.056-0.015,0.109
		c-0.016,0.053-0.032,0.151-0.059,0.198c-0.027,0.047-0.088,0.019-0.1,0.067c-0.011,0.047,0.054,0.076,0.041,0.147
		c-0.013,0.072-0.041,0.147-0.083,0.201c-0.041,0.053-0.098,0.045-0.109,0.08c-0.01,0.036,0.039,0.068,0.032,0.132
		c-0.008,0.064-0.037,0.147-0.076,0.202c-0.04,0.054-0.095,0.044-0.112,0.084c-0.017,0.041,0.023,0.072,0.034,0.091
		c0.073,0.118-0.11,0.321-0.125,0.417c-0.008,0.048-0.063,0.085-0.076,0.085s-0.068-0.037-0.076-0.085
		c-0.015-0.096-0.198-0.299-0.126-0.417c0.012-0.019,0.052-0.05,0.035-0.091c-0.017-0.04-0.072-0.03-0.111-0.084
		c-0.04-0.055-0.069-0.138-0.076-0.202c-0.008-0.064,0.041-0.096,0.031-0.132c-0.011-0.035-0.068-0.027-0.109-0.08
		c-0.042-0.054-0.07-0.129-0.083-0.201c-0.013-0.071,0.053-0.1,0.041-0.147c-0.012-0.048-0.073-0.02-0.1-0.067
		c-0.027-0.047-0.043-0.145-0.059-0.198c-0.017-0.053-0.023-0.069-0.015-0.109c0.007-0.04,0.068-0.069,0.07-0.107
		c0.002-0.037-0.047-0.022-0.071-0.078s-0.073-0.182-0.084-0.261c-0.011-0.078,0.009-0.087,0.027-0.143
		c0.016-0.051,0.055-0.108,0.062-0.227c0.002-0.04-0.018-0.044-0.055-0.034c-0.157,0.044-0.331,0.053-0.513,0.035
		c-0.195-0.019-0.354-0.048-0.575-0.04c-0.322,0.022-0.463,0.177-0.587,0.343c-0.029,0-0.011-0.001-0.04-0.004
		c-0.104-0.013-0.273,0.02-0.371,0.06c-0.088,0.037-0.14,0.089-0.178,0.178C9.899,4.674,9.893,4.765,9.9,4.841
		c0.011,0.104,0.073,0.122,0.158,0.089c0.035-0.013,0.076-0.053,0.099-0.057c0.044-0.008,0.122,0,0.167,0.009
		c0.041,0.008,0.073,0.035,0.114,0.047c0.053,0.016,0.046,0.015,0.099,0.029c0.053,0.014,0.129,0.026,0.174,0.058
		c0.043,0.03,0.071,0.073,0.096,0.119c0.007,0.014,0.039,0.064,0.033,0.081c-0.005,0.002-0.014,0.003-0.025,0.004l-0.057-0.048
		c-0.132-0.112-0.252-0.205-0.426-0.208c-0.086-0.001-0.158,0.034-0.24,0.047C10.011,5.025,9.913,5.05,9.833,5.036
		C9.754,5.022,9.675,4.975,9.611,4.929L9.547,4.884L9.525,4.961C9.501,5.043,9.522,5.132,9.566,5.203
		c0.042,0.068,0.109,0.113,0.185,0.132C9.827,5.353,9.906,5.332,9.98,5.314c0.077-0.018,0.145-0.059,0.219-0.079
		c0.054-0.014,0.107-0.025,0.163-0.024c0.126,0.001,0.138,0.06,0.244,0.114c-0.046,0.028-0.095,0.053-0.141,0.082
		c-0.038,0.023-0.063,0.019-0.106,0.014c-0.056-0.006-0.119-0.007-0.117,0.074c0.001,0.059,0.041,0.123,0.095,0.145
		c0.065,0.025,0.086,0.038,0.154,0.022c0.079-0.019,0.134-0.077,0.203-0.113c0.064-0.034,0.123-0.074,0.193-0.096
		c0.015-0.005,0.031-0.009,0.047-0.011c0.057,0.09,0.026,0.278,0.025,0.408c-0.001,0.086,0.022,0.093,0.057,0.1
		c0.03,0.006,0.093-0.052,0.098-0.003c0.02,0.171,0.014,0.32-0.07,0.457c-0.034,0.058-0.018,0.079,0.009,0.09
		c0.027,0.011,0.05-0.001,0.068,0.001c0.047-0.008,0.049,0.03,0.061,0.079c0.041,0.25-0.135,0.444,0.001,0.455
		c0.309,0.024,0.115,0.55-0.306,0.607c-0.246,0.033-0.339-0.106-0.606-0.05c-0.19,0.041-0.589,0.248-0.764,0.028
		C9.161,7.179,9.014,7.442,8.696,7.687c-0.289,0.034-0.49-0.689-0.244-0.825C8.574,6.796,8.907,6.785,8.94,6.35
		c0.033-0.435-0.343-0.512-0.432-0.646c-0.109-0.091-0.183-0.262-0.122-0.39c0,0-0.188-0.067-0.289,0.066
		C7.828,5.746,6.981,5.852,6.611,5.604C6.379,5.448,6.146,5.136,6.146,5.136S6.024,5.559,6.135,5.838
		c0.11,0.278,0.476,0.456,0.621,0.491c0.144,0.032,0.399,0.01,0.399,0.01s0.078,0.1,0.045,0.179
		C7.166,6.595,7.011,6.651,6.867,6.696C6.722,6.74,6.379,6.774,6.379,6.774c0.089,0.178,0.77,0.003,0.87-0.126
		C7.253,6.643,7.254,6.64,7.254,6.64s0,0.002-0.005,0.008C7.23,6.679,7.147,6.803,7.032,6.918C6.899,7.052,6.833,7.131,6.651,7.179
		c-0.18,0.05-0.627-0.037-0.627-0.037s0,0.3,0.132,0.468c0.134,0.166,0.345,0.211,0.478,0.2c0.132-0.011,0.478-0.079,0.643-0.212
		C7.443,7.466,7.3,7.65,7.196,7.766c-0.104,0.116-0.228,0.241-0.42,0.38C6.588,8.291,6.323,8.478,6.323,8.478
		s0.05,0.021,0.181-0.031C6.807,8.33,7.286,8.066,7.456,7.775c0.015-0.026-0.548,1.367-1.577,1.093c0,0-0.008,0.129,0.27,0.33
		c0.276,0.201,0.373,0.17,0.563,0.148c0.188-0.022,0.376-0.1,0.51-0.223c0.133-0.122,0.135-0.091,0.135-0.091S7.341,9.13,7.13,9.364
		c-0.209,0.233-0.391,0.503-0.625,0.67c-0.232,0.167-0.37,0.281-0.37,0.281l0.123,0.02c0,0,0.381-0.232,0.58-0.41
		c0.2-0.179,0.493-0.515,0.493-0.515c-0.184,0.461-0.687,1.367-1.163,1.519c-0.211,0.066-0.343,0.044-0.343,0.044
		s0.155,0.323,0.554,0.389c0.399,0.068,0.709-0.178,0.798-0.267c0.089-0.089,0.533-0.546,0.533-0.546
		c-0.257,0.684-0.683,1.206-1.181,1.703c0,0,0.044,0.071,0.203-0.06c0.332-0.271,0.985-0.959,1.087-1.398
		c0.001-0.011,0.002-0.016,0.002-0.016c0.001,0,0.001,0.006-0.002,0.016c-0.005,0.063-0.031,0.32-0.265,0.692
		c-0.346,0.545-0.604,1.015-1.309,1.313c0,0,0.233,0.289,0.644,0.313c0.41,0.021,0.876-0.358,1.031-0.524
		c0.155-0.168,0.463-0.607,0.575-0.826c0.111-0.219,0.152-0.288,0.152-0.288s-0.146,0.508-0.268,0.742
		c-0.122,0.233-0.484,0.817-0.662,0.983c-0.178,0.167-0.174,0.235-0.174,0.235s0.173-0.03,0.307-0.176
		c0.132-0.144,0.606-0.789,0.728-1.066c0.123-0.279,0.143-0.211,0.143-0.211c-0.196,0.725-0.491,1.428-1.011,1.977
		c0,0,0.531-0.028,0.775-0.151c0.887-0.447,1.087-1.739,1.447-2.587c0.041,0.111,0.081,0.238,0.115,0.378
		c-0.087,0.261-0.246,0.974-0.246,1.075c0,0.104,0.083,0.011,0.083,0.011s0.133-0.556,0.227-0.818
		c0.011,0.014,0.119,0.26,0.126,0.274c0.097,0.211,0.211,0.416,0.342,0.613c0.014,0.022,0.029,0.044,0.044,0.066
		c-0.052,0.065-0.101,0.124-0.14,0.169c-0.107,0.123-0.149,0.14-0.242,0.203c-0.094,0.063-0.252,0.121-0.317,0.191
		c-0.066,0.069-0.045,0.168-0.002,0.221c0.06,0.074,0.302-0.03,0.243,0.126c-0.029,0.077-0.139,0.205-0.175,0.297
		c-0.02,0.053-0.046,0.113-0.048,0.159L9.437,14.69l-0.503,0.549c-0.002,0.002-0.003,0.003-0.004,0.005
		c-0.01,0.015-0.254,0.375-0.687,0.097c-0.116-0.076-0.198-0.119-0.26-0.136c0,0-0.003-0.001-0.008-0.002
		c-0.015-0.004-0.029-0.006-0.043-0.007c-0.141-0.019-0.538-0.041-0.64,0.303c-0.003,0.011-0.001,0.023,0.005,0.032
		c0.007,0.009,0.017,0.015,0.028,0.015c0.045,0.001,0.232,0.002,0.341-0.034c0,0.006,0.001,0.012,0.002,0.017
		c0.016,0.092,0.079,0.17,0.175,0.217c0.026,0.015,0.093,0.029,0.194,0.04c-0.081,0.025-0.17,0.053-0.225,0.073
		c-0.022,0.007-0.392,0.13-0.447,0.456c0-0.001,0-0.002,0-0.003l-0.009,0.04c-0.014,0.059-0.029,0.119-0.035,0.219
		c0,0.014,0.006,0.026,0.017,0.033c0.011,0.007,0.025,0.007,0.037,0.001c0.067-0.039,0.245-0.142,0.312-0.211
		c0.024,0.009,0.052,0.013,0.083,0.011l0.028-0.003c0.12-0.009,0.184-0.014,0.301-0.074c-0.045,0.057-0.09,0.115-0.106,0.142
		l-0.011,0.017c-0.021,0.024-0.146,0.174-0.125,0.364c0.014,0.134,0.097,0.255,0.246,0.357c0.006,0.004,0.013,0.007,0.019,0.007
		c0.014,0.001,0.036-0.009,0.037-0.036c0.005-0.071,0.023-0.169,0.061-0.227c0.024-0.039,0.04-0.114,0.044-0.176
		c0.066-0.024,0.138-0.073,0.21-0.16l0.159-0.195c0.118-0.145,0.211-0.259,0.256-0.305l0.029-0.031
		c0.055-0.063,0.099-0.114,0.234,0.002l0.03,0.024c0.083,0.069,0.237,0.195,0.398,0.033c0.01-0.01,0.022-0.024,0.036-0.042
		c0.185,0.021,0.353,0.122,0.355,0.123c0.011,0.007,0.025,0.007,0.036,0c0.011-0.006,0.018-0.018,0.018-0.031
		c0-0.363-0.294-0.447-0.361-0.462c-0.029-0.029-0.07-0.05-0.122-0.066c-0.006-0.002-0.138-0.043-0.289-0.055H9.25
		c-0.022,0-0.032-0.002-0.037-0.004c0.002-0.01,0.016-0.044,0.096-0.125c0.368-0.371,0.692-0.741,1.066-1.102
		c0.021,0.006,0.042,0.014,0.053,0.035c0.027,0.052-0.001,0.16,0.027,0.209c0.027,0.05,0.066,0.111,0.12,0.054
		c0.054-0.058,0.068-0.195,0.134-0.321c0.065-0.126,0.17-0.316,0.258-0.432c0.088-0.115,0.167-0.176,0.263-0.258
		c0.022-0.019,0.045-0.037,0.07-0.056c0.153,0.146,0.402,0.337,0.494,0.421c0.08,0.073,0.063,0.41,0.329,0.481
		c0.127,0.035,0.184,0.111,0.122,0.239c-0.034,0.071-0.113,0.093-0.167,0.154c-0.129,0.146-0.387,0.186-0.544,0.211
		c-0.598,0.099-0.968,0.103-0.978,0.824c-0.001,0.124,0.051,0.087,0.124,0.063c0.292-0.094,0.26-0.203,0.697-0.157
		c0.133,0.014,0.252,0.055,0.383,0.063c0.286,0.019,0.415,0.008,0.632-0.15c0.088-0.064,0.168,0.034,0.12,0.116
		c-0.141,0.241-0.396,0.285-0.579,0.447c-0.126,0.111-0.219,0.237-0.272,0.365c-0.053,0.128-0.036,0.258-0.033,0.374
		c0.003,0.116,0.024,0.253,0.05,0.314c0.025,0.061,0.044,0.034,0.074-0.017c0.029-0.051,0.105-0.233,0.204-0.314
		c0.098-0.082,0.259-0.092,0.348-0.145c0.089-0.052,0.128-0.094,0.169-0.146c0.04-0.053,0.085-0.079,0.103,0.036
		c0.057,0.355,0.127,0.693,0.264,1.028C12.853,17.85,12.878,17.88,12.892,17.882 M15.211,4.533c0.049-0.032,0.008-0.102,0.101-0.113
		c0.092-0.011,0.258,0.021,0.344,0.057c0.088,0.036,0.123,0.085,0.149,0.148c0.027,0.063,0.032,0.146,0.025,0.211
		c-0.006,0.064-0.032,0.063-0.085,0.043c-0.054-0.021-0.061-0.052-0.108-0.06c-0.046-0.009-0.131-0.003-0.187,0.008
		s-0.072,0.034-0.119,0.049c-0.047,0.014-0.039,0.012-0.098,0.028c-0.059,0.016-0.136,0.028-0.19,0.066
		c-0.054,0.037-0.087,0.089-0.113,0.139c-0.026,0.051-0.055,0.09-0.033,0.134s0.079,0.023,0.121,0.04
		c0.043,0.017,0.076,0.054,0.121,0.083c0.046,0.028,0.099,0.055,0.152,0.088c0.053,0.033,0.089,0.028,0.139,0.023
		c0.051-0.006,0.059-0.008,0.059,0.017c-0.001,0.025-0.019,0.077-0.061,0.094c-0.042,0.016-0.058,0.035-0.123,0.02
		c-0.065-0.016-0.125-0.074-0.19-0.109c-0.066-0.034-0.126-0.075-0.201-0.099c-0.008-0.003-0.016-0.005-0.025-0.007
		c-0.073-0.064-0.212-0.263-0.18-0.325c0.058-0.064,0.157-0.155,0.205-0.224c0.047-0.068,0.062-0.136,0.089-0.196
		C15.107,4.636,15.155,4.599,15.211,4.533 M15.125,5.288c-0.026-0.021-0.051-0.042-0.083-0.055L15.07,5.21
		c0.121-0.1,0.225-0.185,0.383-0.188c0.078-0.001,0.153,0.034,0.23,0.046c0.077,0.013,0.187,0.041,0.278,0.025
		c0.091-0.016,0.179-0.07,0.244-0.116c0.02,0.068-0.001,0.14-0.034,0.194c-0.034,0.055-0.087,0.092-0.151,0.107
		c-0.062,0.015-0.133-0.004-0.204-0.02c-0.071-0.017-0.151-0.061-0.217-0.079c-0.066-0.017-0.12-0.027-0.177-0.026
		c-0.142,0.001-0.166,0.067-0.265,0.118L15.125,5.288z M14.71,4.402c0.045-0.072,0.127-0.041,0.142,0.024
		C14.87,4.504,14.84,4.629,14.79,4.68c-0.052,0.055-0.14,0.115-0.214,0.12c-0.092,0.007-0.119-0.085-0.047-0.145
		c0.04-0.034,0.08-0.037,0.124-0.072C14.698,4.547,14.689,4.44,14.71,4.402 M15.807,14.251l0.487,0.488c0,0,0.499,0.544,0.502,0.547
		c0.026,0.037,0.31,0.419,0.783,0.115c0.114-0.073,0.185-0.112,0.238-0.126c0.003-0.001,0.015-0.003,0.033-0.006
		c0.055-0.004,0.087,0.029,0.138,0.08l0.003,0.003c0.045,0.045,0.065,0.105,0.055,0.165c-0.012,0.07-0.061,0.128-0.137,0.165
		c-0.002,0.001-0.006,0.003-0.008,0.004l0.003-0.002c-0.001,0.001-0.056,0.029-0.353,0.045c-0.017,0.001-0.032,0.014-0.033,0.032
		c-0.003,0.017,0.008,0.033,0.025,0.039c0.003,0,0.338,0.099,0.431,0.137l0.003,0.001c0.009,0.004,0.018,0.007,0.026,0.011
		c0.017,0.007,0.037,0.017,0.059,0.029c0.047,0.029,0.078,0.071,0.072,0.158c0,0.002,0,0.005,0,0.007
		c0.005,0.031,0.008,0.12-0.032,0.163c-0.019,0.021-0.046,0.029-0.083,0.026l-0.027-0.002c-0.164-0.012-0.208-0.015-0.439-0.165
		c-0.015-0.009-0.035-0.006-0.046,0.007c-0.012,0.013-0.012,0.033-0.001,0.047c0.065,0.079,0.196,0.242,0.224,0.289l0.02,0.029
		c0.038,0.056,0.064,0.092-0.016,0.155c-0.001,0.001-0.167,0.122-0.369-0.122l-0.159-0.195c-0.119-0.146-0.213-0.262-0.261-0.31
		l-0.025-0.028c-0.058-0.066-0.146-0.166-0.334-0.006c-0.002,0.002-0.03,0.024-0.03,0.024c-0.102,0.085-0.194,0.146-0.301,0.038
		c-0.042-0.042-0.117-0.146-0.117-0.231c0-0.01,0.001-0.02,0.004-0.03c0.011-0.044,0.052-0.077,0.121-0.096
		c0.002-0.001,0.131-0.041,0.273-0.053c0.027,0,0.083-0.001,0.102-0.047c0.004-0.008,0.005-0.016,0.005-0.026
		c0-0.042-0.036-0.097-0.117-0.179c-0.368-0.371-0.691-0.742-1.067-1.101v-0.002c-0.015-0.066-0.144-0.118-0.163-0.18
		c-0.02-0.063,0.038-0.091,0.09-0.094c0.052-0.002,0.094,0.046,0.168,0.081c0.074,0.034,0.166,0.139,0.246,0.118
		C15.802,14.252,15.805,14.252,15.807,14.251 M18.406,15.474c-0.122-0.002-0.252-0.016-0.292-0.041
		c-0.01-0.049-0.035-0.094-0.072-0.132l-0.003-0.003c-0.015-0.015-0.029-0.029-0.042-0.041
		C18.14,15.258,18.328,15.296,18.406,15.474 M18.206,16.136c0-0.007,0-0.014,0-0.021c0-0.014-0.001-0.026-0.003-0.039
		c0.068,0.062,0.128,0.144,0.146,0.25c0,0.001,0,0.002,0,0.002l0.01,0.041c0.01,0.042,0.02,0.083,0.027,0.138
		c-0.097-0.058-0.192-0.12-0.23-0.153c0.044-0.049,0.052-0.122,0.052-0.171C18.208,16.16,18.206,16.143,18.206,16.136
		 M17.836,16.687c0.013,0.037,0.022,0.078,0.022,0.122c0,0.012-0.001,0.023-0.002,0.035c-0.01,0.097-0.067,0.187-0.166,0.268
		c-0.009-0.058-0.027-0.139-0.066-0.2c-0.013-0.02-0.026-0.07-0.031-0.118c0.081,0.009,0.147-0.016,0.184-0.044
		C17.805,16.728,17.823,16.707,17.836,16.687 M15.834,16.132c0.023-0.196,0.153-0.278,0.237-0.31
		c-0.003,0.013-0.005,0.026-0.005,0.039c0,0.061,0.026,0.123,0.057,0.175C16.004,16.055,15.897,16.101,15.834,16.132z"/>
	<path fill="#FFFFFF" d="M9.991,7.777v2.415c0,0.493,0.059,0.993,0.202,1.466c0.127,0.424,0.322,0.823,0.58,1.183
		c0.539,0.754,1.316,1.296,2.134,1.711c0.863-0.44,1.643-1.045,2.182-1.86c0.499-0.752,0.735-1.598,0.735-2.5l-0.001-2.415H9.991z"
		/>
	<path d="M10.623,12.616c0.047,0.077,0.097,0.151,0.15,0.225c0.539,0.754,1.316,1.295,2.134,1.711
		c0.863-0.44,1.643-1.045,2.182-1.86c0.017-0.025,0.033-0.05,0.05-0.076H10.623z"/>
	<path d="M9.991,8.626h5.832l0.001,1.566c0,0.175-0.009,0.348-0.027,0.518h-5.783c-0.016-0.172-0.023-0.346-0.023-0.518V8.626z"/>
	<path d="M11.074,4.401c-0.046-0.072-0.127-0.041-0.142,0.024c-0.018,0.079,0.012,0.203,0.062,0.255
		c0.052,0.054,0.14,0.114,0.214,0.12c0.092,0.006,0.118-0.086,0.047-0.146c-0.04-0.033-0.08-0.036-0.124-0.072
		C11.086,4.547,11.096,4.439,11.074,4.401"/>
	<path d="M9.95,16.132c-0.023-0.196-0.153-0.278-0.237-0.31c0.003,0.013,0.004,0.026,0.004,0.039c0,0.061-0.025,0.123-0.056,0.175
		C9.78,16.055,9.887,16.101,9.95,16.132z"/>
	<path d="M7.948,16.687c-0.013,0.037-0.022,0.078-0.022,0.122c0,0.011,0,0.023,0.002,0.035c0.01,0.097,0.067,0.187,0.166,0.268
		c0.009-0.058,0.027-0.139,0.066-0.2c0.013-0.02,0.026-0.07,0.031-0.118c-0.081,0.009-0.147-0.016-0.184-0.044
		C7.979,16.728,7.961,16.707,7.948,16.687"/>
	<path d="M7.579,16.136c0-0.007,0-0.014,0-0.021c0-0.013,0-0.026,0.002-0.039c-0.068,0.062-0.127,0.144-0.145,0.25
		c0,0.001,0,0.002-0.001,0.003l-0.009,0.04c-0.01,0.042-0.02,0.083-0.027,0.138c0.096-0.058,0.192-0.12,0.229-0.153
		c-0.043-0.049-0.052-0.122-0.052-0.17C7.576,16.16,7.578,16.143,7.579,16.136"/>
	<path d="M7.378,15.473c0.122-0.001,0.252-0.015,0.292-0.04c0.01-0.049,0.035-0.095,0.072-0.133l0.003-0.003
		c0.015-0.015,0.029-0.028,0.042-0.04C7.644,15.257,7.457,15.295,7.378,15.473"/>
	<path d="M10.659,5.288c0.026-0.021,0.051-0.041,0.083-0.055L10.714,5.21c-0.121-0.1-0.225-0.185-0.382-0.188
		c-0.078-0.001-0.154,0.034-0.231,0.047c-0.077,0.012-0.187,0.04-0.278,0.024c-0.091-0.016-0.179-0.07-0.244-0.115
		c-0.02,0.067,0.001,0.14,0.034,0.194c0.034,0.054,0.088,0.091,0.15,0.106c0.063,0.015,0.134-0.004,0.205-0.02
		c0.071-0.017,0.151-0.061,0.217-0.079c0.066-0.017,0.12-0.026,0.177-0.026c0.142,0.002,0.166,0.067,0.265,0.118L10.659,5.288z"/>
	<path fill="#FFFFFF" d="M15.823,7.777H9.991v2.415c0,0.493,0.059,0.993,0.202,1.466c0.127,0.424,0.322,0.823,0.58,1.183
		c0.539,0.754,1.316,1.296,2.134,1.711c0.863-0.44,1.643-1.045,2.182-1.86c0.499-0.752,0.735-1.598,0.735-2.5L15.823,7.777z
		 M15.689,7.911l0.001,2.281c0,0.896-0.24,1.712-0.712,2.426c-0.472,0.712-1.168,1.312-2.071,1.783
		c-0.912-0.471-1.575-1.008-2.025-1.638c-0.248-0.346-0.437-0.731-0.561-1.144c-0.13-0.43-0.196-0.911-0.196-1.427V7.911H15.689z"/>
</g>
</svg>
