<?xml version="1.0" encoding="utf-8"?>
<!-- Generator: Adobe Illustrator 17.0.0, SVG Export Plug-In . SVG Version: 6.00 Build 0)  -->
<!DOCTYPE svg PUBLIC "-//W3C//DTD SVG 1.1//EN" "http://www.w3.org/Graphics/SVG/1.1/DTD/svg11.dtd">
<svg version="1.1" id="Vrstva_1" xmlns="http://www.w3.org/2000/svg" xmlns:xlink="http://www.w3.org/1999/xlink" x="0px" y="0px"
	 width="35.875px" height="17.25px" viewBox="0 0 35.875 17.25" enable-background="new 0 0 35.875 17.25" xml:space="preserve">
<g>
</g>
<polygon fill="#FFFFFF" points="34.446,15.581 34.446,15.284 2.126,15.284 2.126,1.989 34.154,1.989 34.154,15.581 34.446,15.581 
	34.446,15.284 34.446,15.581 34.738,15.581 34.738,1.396 1.542,1.396 1.542,15.878 34.738,15.878 34.738,15.581 "/>
<path fill="#FFFFFF" d="M8.429,7.549L7.77,9.478h1.296L8.429,7.549z M9.645,11.288L9.337,10.35H7.484l-0.315,0.938H6.107
	l1.897-5.303h0.799l1.904,5.303H9.645z"/>
<g>
	<path fill="#FFFFFF" d="M14.493,10.73c-0.403,0.417-0.886,0.603-1.472,0.603c-0.557,0-1.025-0.193-1.406-0.581
		c-0.228-0.231-0.367-0.499-0.425-0.797c-0.059-0.298-0.088-0.737-0.088-1.318c0-0.581,0.029-1.02,0.088-1.318
		c0.058-0.306,0.197-0.566,0.425-0.797c0.381-0.388,0.849-0.581,1.406-0.581c1.186,0,1.824,0.774,1.963,1.698h-1.025
		c-0.125-0.514-0.433-0.775-0.938-0.775c-0.271,0-0.491,0.097-0.652,0.283c-0.191,0.246-0.249,0.44-0.249,1.49
		c0,1.043,0.044,1.251,0.249,1.497c0.154,0.186,0.374,0.276,0.652,0.276c0.3,0,0.542-0.097,0.725-0.298
		C13.9,9.933,13.98,9.695,13.98,9.404V9.203h-0.959V8.339h1.97v0.775C14.991,9.888,14.852,10.343,14.493,10.73"/>
	<path fill="#FFFFFF" d="M18.492,7.237c-0.176-0.217-0.411-0.328-0.762-0.328h-0.769v3.456h0.769c0.351,0,0.586-0.112,0.762-0.328
		c0.19-0.238,0.219-0.618,0.219-1.422C18.711,7.81,18.682,7.475,18.492,7.237 M19.202,10.782c-0.344,0.35-0.835,0.506-1.377,0.506
		h-1.882V5.985h1.882c0.542,0,1.033,0.157,1.377,0.507c0.586,0.596,0.527,1.325,0.527,2.123
		C19.729,9.411,19.788,10.186,19.202,10.782"/>
</g>
<polygon fill="#FFFFFF" points="22.601,9.68 22.601,10.872 21.707,10.872 21.707,9.68 20.528,9.68 20.528,8.771 21.707,8.771 
	21.707,7.579 22.601,7.579 22.601,8.771 23.773,8.771 23.773,9.68 "/>
<polygon fill="#FFFFFF" points="28.453,11.288 28.453,8.197 27.457,10.208 26.768,10.208 25.765,8.197 25.765,11.288 24.747,11.288 
	24.747,5.985 25.75,5.985 27.112,8.852 28.467,5.985 29.471,5.985 29.471,11.288 "/>
</svg>
