<?xml version="1.0" encoding="utf-8"?>
<!-- Generator: Adobe Illustrator 17.0.0, SVG Export Plug-In . SVG Version: 6.00 Build 0)  -->
<!DOCTYPE svg PUBLIC "-//W3C//DTD SVG 1.1//EN" "http://www.w3.org/Graphics/SVG/1.1/DTD/svg11.dtd">
<svg version="1.1" id="Vrstva_1" xmlns="http://www.w3.org/2000/svg" xmlns:xlink="http://www.w3.org/1999/xlink" x="0px" y="0px"
	 width="24.959px" height="25.25px" viewBox="0 0 24.959 25.25" enable-background="new 0 0 24.959 25.25" xml:space="preserve">
<g>
	<path fill="#FFFFFF" d="M12.62,0.904c0.084,0.046,0.168,0.092,0.258,0.141c0.029-0.039,0.056-0.076,0.083-0.113
		c0.013,0.001,0.027,0.002,0.04,0.004c0.01,0.163,0.021,0.327,0.031,0.49c-0.015,0.004-0.03,0.008-0.045,0.011
		c-0.043-0.082-0.081-0.168-0.13-0.247c-0.126-0.202-0.352-0.256-0.523-0.129c-0.156,0.115-0.137,0.321,0.042,0.39
		c0.139,0.055,0.286,0.091,0.429,0.136c0.256,0.081,0.337,0.19,0.313,0.416c-0.022,0.203-0.21,0.39-0.427,0.384
		c-0.138-0.003-0.275-0.059-0.401-0.122c-0.06,0.038-0.12,0.075-0.211,0.132c0-0.19-0.002-0.335,0.002-0.479
		c0.001-0.028,0.023-0.056,0.036-0.083c0.022,0.025,0.055,0.047,0.064,0.076c0.086,0.286,0.252,0.415,0.512,0.392
		c0.154-0.013,0.261-0.102,0.277-0.231c0.02-0.153-0.029-0.217-0.214-0.272c-0.13-0.039-0.262-0.07-0.391-0.112
		c-0.151-0.05-0.247-0.153-0.251-0.32c-0.005-0.176,0.052-0.324,0.216-0.414c0.029-0.016,0.057-0.033,0.086-0.05H12.62z"/>
	<path fill="#FFFFFF" d="M0.662,11.695c0.153-0.008,0.307-0.016,0.46-0.024c0.004,0.012,0.008,0.023,0.013,0.035
		c-0.038,0.017-0.075,0.037-0.114,0.051c-0.257,0.087-0.384,0.338-0.296,0.6c0.008,0.023,0.046,0.052,0.071,0.053
		c0.158,0.005,0.317,0.003,0.471,0.003c0.068-0.22-0.062-0.307-0.212-0.402h0.579c-0.137,0.096-0.31,0.166-0.24,0.401
		c0.165,0,0.329,0.008,0.492-0.005C1.928,12.403,1.971,12.336,2,12.29c0.018-0.028,0.01-0.072,0.043-0.109v0.64
		c-0.006,0.003-0.013,0.005-0.019,0.007c-0.007-0.03-0.023-0.061-0.02-0.09c0.014-0.122-0.049-0.147-0.156-0.145
		c-0.32,0.004-0.641,0.006-0.961-0.001c-0.123-0.002-0.183,0.031-0.17,0.164c0.002,0.023-0.036,0.051-0.055,0.076V11.695z"/>
	<path fill="#FFFFFF" d="M15.837,7.916c-0.123,0.22-0.212,0.41-0.329,0.579c-0.19,0.273-0.263,0.552-0.18,0.884
		c0.064,0.254,0.08,0.52,0.123,0.824c0.156-0.29,0.293-0.539,0.421-0.793c0.022-0.042,0.018-0.107,0.004-0.155
		c-0.05-0.165-0.02-0.309,0.082-0.448c0.031-0.041,0.049-0.11,0.04-0.16C15.954,8.416,15.898,8.187,15.837,7.916 M14.137,12.236
		c-0.213,0.377-0.408,0.716-0.597,1.06c-0.022,0.041-0.017,0.104-0.008,0.154c0.052,0.297,0.109,0.592,0.166,0.888
		c0.005,0.028,0.017,0.055,0.035,0.108c0.205-0.402,0.398-0.777,0.589-1.153c0.01-0.02,0.021-0.047,0.017-0.068
		C14.276,12.908,14.21,12.591,14.137,12.236 M15.958,9.08c0.06,0.401,0.119,0.791,0.178,1.186c0.153,0,0.289-0.005,0.425,0.002
		c0.085,0.005,0.13-0.026,0.169-0.1c0.174-0.326,0.354-0.647,0.531-0.971c0.02-0.036,0.034-0.075,0.054-0.117H15.958z
		 M11.066,20.132c0.19,0.34,0.363,0.658,0.545,0.971c0.017,0.029,0.083,0.041,0.126,0.041c0.286,0.004,0.573,0.002,0.859,0.002
		h0.674c-0.209-0.339-0.403-0.656-0.601-0.97c-0.016-0.026-0.065-0.042-0.098-0.042C12.081,20.131,11.591,20.132,11.066,20.132
		 M9.555,13.293c0.04,0.006,0.059,0.011,0.077,0.011c1.244,0,2.487,0.001,3.731-0.004c0.048,0,0.113-0.046,0.14-0.089
		c0.113-0.182,0.215-0.37,0.32-0.555c0.08-0.142,0.16-0.283,0.243-0.43c-0.033-0.011-0.046-0.02-0.06-0.02
		c-1.243-0.001-2.487-0.002-3.731,0.001c-0.038,0-0.091,0.035-0.111,0.069C9.962,12.607,9.765,12.941,9.555,13.293 M12.437,19.806
		c0.208-0.385,0.404-0.742,0.592-1.102c0.019-0.037,0.009-0.104-0.012-0.144c-0.691-1.292-1.385-2.583-2.076-3.875
		c-0.04-0.074-0.085-0.103-0.168-0.103c-0.185,0-0.37-0.018-0.554-0.016c-0.109,0.002-0.162-0.044-0.209-0.137
		c-0.118-0.234-0.224-0.479-0.375-0.69c-0.2-0.279-0.215-0.527,0.016-0.785c0.071-0.079,0.06-0.154,0.007-0.248
		c-0.385-0.668-0.779-1.333-1.137-2.016c-0.138-0.264-0.29-0.373-0.589-0.342c-0.296,0.031-0.597,0.007-0.921,0.007
		C8.825,13.514,10.624,16.648,12.437,19.806 M15.778,7.818h-0.185H5.418c-0.025,0-0.052-0.007-0.073,0.002
		c-0.048,0.021-0.11,0.038-0.136,0.077C5.018,8.19,4.835,8.487,4.65,8.784C4.637,8.805,4.632,8.832,4.62,8.865h0.13
		c3.44,0,6.88,0,10.32,0c0.025,0,0.052,0.007,0.073-0.002c0.036-0.015,0.083-0.031,0.099-0.061
		C15.419,8.484,15.591,8.164,15.778,7.818 M19.744,7.857c-0.038,0.062-0.066,0.106-0.091,0.15c-2.224,3.873-4.448,7.746-6.672,11.62
		c-0.091,0.159-0.249,0.323-0.246,0.482c0.004,0.16,0.17,0.317,0.266,0.474c0.107,0.174,0.216,0.348,0.331,0.534
		c0.037-0.062,0.062-0.104,0.086-0.146c1.54-2.698,3.081-5.396,4.622-8.093c0.724-1.269,1.449-2.538,2.171-3.808
		c0.028-0.05,0.056-0.128,0.037-0.171C20.09,8.557,19.921,8.219,19.744,7.857 M14.165,12.142c0.073,0.336,0.148,0.662,0.212,0.99
		c0.013,0.069,0.004,0.155-0.027,0.218c-0.183,0.375-0.38,0.743-0.564,1.118c-0.045,0.092-0.099,0.121-0.2,0.12
		c-0.811-0.004-1.623-0.002-2.434-0.002h-0.176c0.512,0.955,1.01,1.884,1.521,2.836c1.377-2.363,2.741-4.705,4.119-7.07h-0.57
		c-0.039-0.279-0.077-0.544-0.114-0.81c-0.154,0.22-0.284,0.445-0.402,0.676c-0.053,0.103-0.116,0.14-0.235,0.14
		c-2.231-0.004-4.461-0.003-6.692-0.003h-0.19c0.463,0.805,0.911,1.585,1.372,2.386c0.103-0.171,0.198-0.317,0.279-0.47
		c0.052-0.098,0.115-0.132,0.229-0.131c1.239,0.004,2.478,0.002,3.717,0.002H14.165z M11.141,19.818
		c-0.025-0.006-0.04-0.015-0.051-0.012c-0.27,0.063-0.383-0.094-0.504-0.306c-2.007-3.505-4.021-7.005-6.037-10.505
		C4.492,8.896,4.495,8.829,4.556,8.736c0.199-0.299,0.388-0.605,0.577-0.91c0.042-0.07,0.09-0.097,0.174-0.097
		c3.479,0.002,6.959,0.002,10.438,0c0.099,0,0.132,0.032,0.151,0.126C15.947,8.1,16.01,8.342,16.077,8.62
		c0.14-0.244,0.278-0.455,0.383-0.681c0.081-0.172,0.188-0.215,0.371-0.213c0.933,0.01,1.866,0.007,2.799,0.002
		c0.109,0,0.163,0.035,0.208,0.132c0.152,0.325,0.313,0.647,0.475,0.967c0.043,0.087,0.043,0.155-0.007,0.242
		c-2.306,4.01-4.609,8.022-6.911,12.034c-0.04,0.069-0.08,0.106-0.167,0.105c-0.506-0.005-1.011-0.005-1.517,0
		c-0.086,0.001-0.129-0.031-0.168-0.104c-0.155-0.291-0.309-0.584-0.479-0.866c-0.075-0.123-0.082-0.216,0.016-0.32
		C11.105,19.892,11.119,19.856,11.141,19.818"/>
	<path fill="#FFFFFF" d="M2.061,18.311c-0.098-0.186-0.195-0.372-0.293-0.558c0.009-0.014,0.018-0.028,0.026-0.042
		c0.17,0.252,0.344,0.104,0.512,0.029c0.19-0.085,0.379-0.176,0.563-0.272c0.092-0.049,0.203-0.099,0.145-0.243
		c-0.061-0.152-0.169-0.221-0.318-0.177c-0.316,0.094-0.629,0.198-0.943,0.297c-0.053,0.017-0.107,0.031-0.184,0.017
		c0.255-0.404,0.511-0.808,0.766-1.212l-0.021-0.041c-0.292,0.13-0.586,0.254-0.871,0.397c-0.037,0.019-0.028,0.131-0.068,0.217
		c-0.068-0.172-0.137-0.345-0.205-0.518c0.011-0.016,0.021-0.031,0.032-0.047c0.141,0.255,0.322,0.157,0.499,0.09
		c0.191-0.071,0.381-0.145,0.571-0.216c0.131-0.049,0.242-0.111,0.191-0.294c0.119,0.1,0.149,0.261,0.08,0.373
		c-0.221,0.354-0.442,0.708-0.663,1.061c0.006,0.012,0.013,0.025,0.019,0.037c0.278-0.115,0.558-0.222,0.829-0.349
		c0.05-0.024,0.064-0.124,0.095-0.19c0.156,0.326,0.315,0.66,0.474,0.995c-0.014,0.004-0.03,0.011-0.031,0.008
		c-0.119-0.174-0.262-0.115-0.407-0.043c-0.178,0.09-0.358,0.174-0.533,0.268c-0.154,0.084-0.344,0.155-0.211,0.411
		C2.097,18.31,2.079,18.31,2.061,18.311"/>
	<path fill="#FFFFFF" d="M12.472,23.109c0.021,0.343,0.028,0.687,0.071,1.027c0.011,0.082,0.141,0.148,0.226,0.232
		c-0.152,0.009-0.323,0.018-0.494,0.028c-0.009-0.013-0.018-0.025-0.027-0.038c0.222-0.038,0.193-0.19,0.184-0.335
		c-0.02-0.314-0.039-0.629-0.058-0.945c-0.078-0.014-0.147-0.026-0.215-0.038c0-0.015,0-0.029,0-0.044
		c0.136-0.006,0.272-0.018,0.408-0.014c0.026,0.001,0.056,0.06,0.075,0.097c0.135,0.274,0.267,0.55,0.401,0.825
		c0.02,0.041,0.044,0.081,0.083,0.154c0.093-0.361,0.179-0.686,0.257-1.014c0.025-0.106,0.07-0.158,0.185-0.149
		c0.105,0.009,0.211,0.002,0.318,0.002c-0.005,0.011-0.009,0.027-0.012,0.027c-0.172,0.002-0.193,0.101-0.179,0.247
		c0.026,0.29,0.042,0.582,0.051,0.873c0.004,0.123,0.031,0.196,0.172,0.175c0.024-0.004,0.05,0.014,0.075,0.022
		c0,0.012-0.001,0.024-0.001,0.037h-0.629c0.001-0.004,0.003-0.018,0.007-0.019c0.202-0.042,0.202-0.042,0.188-0.249
		c-0.023-0.317-0.046-0.635-0.096-0.957c-0.113,0.426-0.226,0.853-0.339,1.28c-0.017,0.004-0.034,0.007-0.051,0.011
		c-0.19-0.413-0.38-0.825-0.571-1.238C12.492,23.107,12.482,23.108,12.472,23.109"/>
	<path fill="#FFFFFF" d="M20.694,4.391c0.084,0.103,0.172,0.202,0.248,0.31c0.015,0.022-0.009,0.081-0.028,0.116
		c-0.163,0.314-0.328,0.626-0.513,0.976c0.213-0.08,0.392-0.148,0.57-0.216c0.091-0.034,0.182-0.067,0.273-0.101
		c0.274-0.104,0.378-0.055,0.512,0.27c-0.058-0.052-0.09-0.08-0.134-0.12c-0.068,0.045-0.142,0.089-0.209,0.142
		c-0.188,0.147-0.374,0.295-0.557,0.447c-0.201,0.166-0.199,0.167-0.093,0.388c-0.086-0.02-0.343-0.307-0.442-0.505
		c0.039,0.019,0.068,0.023,0.078,0.04c0.071,0.116,0.149,0.114,0.248,0.032c0.258-0.213,0.519-0.421,0.779-0.631
		c-0.006-0.012-0.012-0.024-0.018-0.036c-0.415,0.146-0.83,0.292-1.245,0.439c-0.011-0.008-0.022-0.016-0.033-0.025
		c0.216-0.395,0.431-0.791,0.647-1.186l-0.016-0.019c-0.089,0.075-0.178,0.148-0.266,0.223c-0.136,0.118-0.273,0.235-0.407,0.354
		c-0.191,0.169-0.191,0.169-0.077,0.429c-0.19-0.113-0.276-0.272-0.391-0.411c0.026,0.004,0.057,0,0.077,0.013
		c0.096,0.06,0.178,0.032,0.254-0.033c0.24-0.205,0.475-0.416,0.718-0.617c0.113-0.094,0.036-0.168-0.023-0.249
		C20.662,4.411,20.678,4.401,20.694,4.391"/>
	<path fill="#FFFFFF" d="M23.929,11.837c0.004-0.017,0.007-0.034,0.011-0.051c-0.2-0.086-0.4-0.172-0.606-0.261v0.353
		C23.54,11.864,23.735,11.851,23.929,11.837 M22.724,12.833c-0.029-0.391-0.057-0.758-0.085-1.124
		c0.092,0.197,0.092,0.197,0.326,0.184c0.082-0.004,0.164-0.013,0.267-0.021c0-0.115,0.001-0.224-0.002-0.333
		c0-0.021-0.015-0.051-0.032-0.059c-0.161-0.074-0.324-0.144-0.496-0.219c-0.025,0.071-0.042,0.118-0.059,0.166
		c-0.013-0.001-0.025-0.001-0.038-0.002c-0.008-0.122-0.016-0.244-0.024-0.359c0.093,0.064,0.169,0.136,0.259,0.176
		c0.332,0.149,0.668,0.287,1.003,0.428c0.029,0.013,0.062,0.018,0.107,0.029c0.014-0.085,0.027-0.16,0.04-0.236
		c0.016,0.001,0.031,0.002,0.047,0.002c0.019,0.402,0.038,0.803,0.057,1.216c-0.159,0.021-0.303,0.04-0.447,0.06
		c-0.004-0.015-0.009-0.029-0.013-0.043c0.034-0.013,0.068-0.029,0.104-0.039c0.22-0.061,0.273-0.133,0.265-0.363
		c-0.002-0.049-0.005-0.097-0.006-0.146c-0.002-0.097-0.043-0.137-0.147-0.124c-0.139,0.017-0.28,0.02-0.42,0.03
		c-0.001,0.185,0.052,0.249,0.276,0.354h-0.445c0.033-0.094,0.073-0.211,0.126-0.366c-0.219,0.013-0.387,0.018-0.554,0.038
		c-0.04,0.005-0.095,0.058-0.107,0.099c-0.065,0.234,0.089,0.479,0.325,0.531c0.064,0.014,0.129,0.027,0.193,0.04
		c-0.001,0.015-0.002,0.031-0.003,0.046C23.075,12.809,22.908,12.821,22.724,12.833"/>
	<path fill="#FFFFFF" d="M20.816,19.518c0.367-0.008,0.714,0.133,1.104,0.014c-0.138,0.172-0.263,0.328-0.399,0.497
		c-0.017-0.038-0.026-0.05-0.023-0.054c0.093-0.156,0.073-0.204-0.11-0.226c-0.173-0.021-0.347-0.027-0.519-0.04
		c-0.037,0.254,0.074,0.463,0.292,0.523c0.056,0.016,0.135-0.051,0.208-0.082c0.029,0.048-0.223,0.376-0.433,0.494
		c0.147-0.192,0.005-0.268-0.093-0.356c-0.176-0.16-0.354-0.318-0.533-0.474c-0.174-0.151-0.175-0.15-0.378-0.075
		c0.132-0.161,0.264-0.322,0.408-0.499c0.008,0.039,0.017,0.06,0.012,0.063c-0.173,0.136-0.056,0.23,0.048,0.323
		c0.119,0.105,0.24,0.206,0.391,0.335c-0.039-0.323-0.027-0.614-0.164-0.897c-0.057,0.039-0.102,0.07-0.148,0.101
		c-0.032-0.094,0.22-0.405,0.354-0.435C20.693,18.986,20.794,19.241,20.816,19.518"/>
	<path fill="#FFFFFF" d="M18.3,21.923c0.114-0.141,0.232-0.25,0.303-0.384c0.094-0.179-0.037-0.342-0.234-0.298
		c-0.115,0.025-0.224,0.086-0.327,0.145c-0.025,0.014-0.036,0.099-0.018,0.13C18.1,21.643,18.189,21.762,18.3,21.923 M18.876,22.401
		c-0.175,0.118-0.35,0.235-0.527,0.354c-0.014-0.025-0.024-0.04-0.023-0.041c0.155-0.123,0.086-0.245,0.002-0.37
		c-0.14-0.21-0.283-0.418-0.413-0.634c-0.077-0.129-0.16-0.172-0.292-0.086c-0.011,0.007-0.026,0.011-0.04,0.013
		c-0.008,0-0.017-0.007-0.029-0.012c0.002-0.013-0.001-0.033,0.007-0.038c0.251-0.154,0.498-0.316,0.757-0.457
		c0.106-0.057,0.236-0.062,0.342,0.032c0.138,0.123,0.153,0.245,0.048,0.399c-0.035,0.052-0.076,0.098-0.128,0.165
		c0.277-0.03,0.423,0.186,0.647,0.305c0.008-0.095,0.015-0.168,0.022-0.24c0.142,0.155,0.137,0.305-0.011,0.4
		c-0.09,0.057-0.173,0.059-0.249-0.021c-0.054-0.057-0.107-0.113-0.159-0.17c-0.199-0.22-0.257-0.226-0.512-0.036
		c0.095,0.142,0.189,0.288,0.292,0.427c0.017,0.024,0.075,0.032,0.111,0.025c0.044-0.008,0.083-0.039,0.125-0.06
		C18.856,22.371,18.866,22.386,18.876,22.401"/>
	<path fill="#FFFFFF" d="M19.248,4.034c0.151,0.062,0.281,0.137,0.421,0.167c0.136,0.03,0.22-0.069,0.272-0.192
		c0.051-0.123-0.005-0.204-0.097-0.274c-0.042-0.033-0.086-0.064-0.124-0.101c-0.078-0.074-0.146-0.065-0.206,0.02
		C19.433,3.768,19.353,3.883,19.248,4.034 M18.945,4.705c-0.153-0.118-0.318-0.245-0.491-0.378c0.033-0.021,0.046-0.031,0.047-0.03
		c0.123,0.126,0.208,0.074,0.298-0.047c0.152-0.207,0.317-0.405,0.473-0.61c0.148-0.194,0.146-0.195,0.017-0.385
		c0.008-0.01,0.016-0.02,0.023-0.03c0.224,0.186,0.46,0.358,0.667,0.561c0.146,0.143,0.151,0.329,0.063,0.437
		c-0.093,0.113-0.275,0.14-0.457,0.065c-0.021-0.008-0.042-0.018-0.097-0.041c0.133,0.201,0.072,0.361-0.02,0.524
		c-0.027,0.048-0.022,0.114-0.031,0.172c0.057-0.014,0.116-0.025,0.172-0.043c0.029-0.009,0.054-0.032,0.08-0.049
		c0.008,0.01,0.015,0.02,0.022,0.03c-0.074,0.054-0.142,0.124-0.224,0.159c-0.164,0.071-0.304-0.036-0.272-0.211
		c0.019-0.106,0.071-0.211,0.127-0.305c0.141-0.23,0.121-0.312-0.146-0.452c-0.099,0.13-0.214,0.257-0.294,0.402
		C18.874,4.527,18.928,4.625,18.945,4.705"/>
	<path fill="#FFFFFF" d="M8.838,2.183c0.124-0.068,0.237-0.114,0.33-0.186c0.111-0.084,0.116-0.206,0.058-0.329
		C9.171,1.55,9.073,1.509,8.951,1.523C8.879,1.531,8.81,1.557,8.739,1.571C8.642,1.59,8.621,1.648,8.654,1.732
		C8.709,1.871,8.767,2.009,8.838,2.183 M8.187,1.712c0.056-0.021,0.111-0.044,0.167-0.064c0.188-0.066,0.374-0.137,0.564-0.194
		C8.999,1.429,9.09,1.418,9.174,1.425C9.317,1.438,9.392,1.543,9.433,1.67C9.47,1.788,9.412,1.878,9.326,1.951
		C9.267,2,9.202,2.043,9.111,2.109c0.237-0.011,0.348,0.114,0.436,0.285c0.027,0.052,0.114,0.073,0.174,0.108
		c0.021-0.07,0.042-0.14,0.061-0.202c0.063,0.069,0.052,0.275-0.034,0.356C9.652,2.747,9.552,2.709,9.474,2.637
		C9.413,2.581,9.362,2.503,9.33,2.425C9.224,2.168,9.101,2.114,8.837,2.232c0.025,0.076,0.048,0.155,0.078,0.23
		c0.065,0.16,0.067,0.39,0.369,0.299L9.27,2.815c-0.197,0.067-0.393,0.133-0.59,0.2C8.673,3.006,8.666,2.998,8.658,2.99
		C8.676,2.973,8.69,2.948,8.71,2.942c0.111-0.034,0.127-0.105,0.093-0.204c-0.089-0.256-0.171-0.515-0.265-0.77
		C8.446,1.716,8.441,1.718,8.187,1.712"/>
	<path fill="#FFFFFF" d="M4.915,20.775c0.128,0.071,0.239,0.149,0.361,0.197c0.134,0.053,0.245-0.013,0.324-0.125
		c0.074-0.104,0.038-0.203-0.031-0.292c-0.044-0.057-0.098-0.107-0.145-0.162c-0.061-0.071-0.12-0.071-0.18-0.001
		C5.141,20.512,5.038,20.632,4.915,20.775 M5.25,21.087c-0.071,0.196-0.144,0.397-0.226,0.625c0.097-0.033,0.175-0.059,0.253-0.086
		c0.007,0.009,0.014,0.017,0.021,0.026c-0.069,0.051-0.131,0.126-0.207,0.144c-0.067,0.017-0.166-0.012-0.219-0.058
		c-0.039-0.034-0.051-0.133-0.034-0.191c0.026-0.091,0.083-0.175,0.134-0.257c0.147-0.239,0.14-0.298-0.079-0.493
		c-0.115,0.115-0.233,0.229-0.344,0.349c-0.104,0.112,0.011,0.189,0.04,0.292c-0.162-0.141-0.323-0.283-0.498-0.437
		c0.038-0.011,0.056-0.022,0.063-0.017c0.18,0.119,0.213,0.122,0.362-0.037c0.17-0.181,0.328-0.372,0.493-0.556
		c0.103-0.114,0.134-0.224,0.01-0.342c-0.011-0.011-0.011-0.033-0.02-0.063c0.033,0,0.062-0.009,0.073,0.001
		c0.203,0.195,0.417,0.381,0.6,0.593c0.165,0.192,0.105,0.452-0.108,0.516C5.462,21.126,5.341,21.091,5.25,21.087"/>
	<path fill="#FFFFFF" d="M15.208,1.606c-0.075,0.254-0.138,0.467-0.201,0.681c-0.07,0.238-0.069,0.241,0.118,0.437
		c-0.205-0.054-0.38-0.1-0.556-0.146c0.002-0.012,0.003-0.023,0.004-0.035c0.025-0.008,0.049-0.021,0.074-0.022
		c0.121-0.005,0.184-0.074,0.216-0.182c0.072-0.242,0.147-0.483,0.215-0.725c0.066-0.234,0.063-0.235-0.118-0.339
		c0.158-0.035,0.307,0.034,0.363,0.171c0.138,0.336,0.275,0.673,0.414,1.009c0.018,0.044,0.038,0.087,0.057,0.13
		c0.014,0.001,0.027,0.003,0.041,0.004c0.063-0.283,0.135-0.565,0.182-0.851c0.01-0.061-0.068-0.137-0.119-0.232
		c0.171,0.049,0.329,0.094,0.487,0.139c0.006,0.017,0.013,0.034,0.019,0.051c-0.263-0.057-0.282,0.134-0.328,0.283
		c-0.096,0.309-0.18,0.622-0.283,0.984C15.741,2.888,15.7,2.848,15.681,2.8c-0.137-0.346-0.271-0.695-0.406-1.043
		C15.26,1.718,15.241,1.681,15.208,1.606"/>
	<path fill="#FFFFFF" d="M4.895,19.837c-0.108,0.082-0.205,0.157-0.279,0.214c0.013-0.105,0.063-0.23,0.034-0.334
		c-0.03-0.106-0.128-0.198-0.21-0.283c-0.06-0.06-0.136-0.056-0.207,0.011c-0.098,0.092-0.205,0.175-0.308,0.262
		c0.14,0.179,0.183,0.188,0.449,0.113l-0.482,0.426c-0.008-0.007-0.017-0.013-0.025-0.019c0.037-0.072,0.099-0.142,0.105-0.217
		c0.006-0.079-0.04-0.163-0.073-0.277c-0.182,0.152-0.339,0.283-0.493,0.412c0.171,0.352,0.362,0.416,0.829,0.31
		c-0.133,0.1-0.266,0.2-0.41,0.308c-0.25-0.3-0.494-0.592-0.738-0.885c0.018-0.014,0.03-0.025,0.032-0.024
		c0.13,0.117,0.239,0.043,0.342-0.042c0.212-0.177,0.423-0.356,0.63-0.539C4.173,19.201,4.213,19.109,4.128,19
		c0.011-0.005,0.022-0.01,0.033-0.015C4.403,19.266,4.645,19.547,4.895,19.837"/>
	<path fill="#FFFFFF" d="M18.635,3.042c0.005-0.148-0.063-0.255-0.187-0.322c-0.137-0.075-0.275-0.055-0.396,0.034
		c-0.255,0.189-0.397,0.447-0.429,0.761c-0.016,0.16,0.062,0.278,0.203,0.355c0.128,0.07,0.256,0.061,0.368-0.025
		C18.456,3.642,18.591,3.366,18.635,3.042 M18.807,3.202c-0.001,0.418-0.351,0.796-0.737,0.795
		c-0.341-0.001-0.608-0.286-0.609-0.649c0-0.432,0.338-0.783,0.755-0.783C18.532,2.565,18.808,2.862,18.807,3.202"/>
	<path fill="#FFFFFF" d="M22.226,16.649c0.293,0.076,0.584,0.16,0.88,0.222c0.054,0.012,0.127-0.06,0.214-0.105
		c-0.058,0.176-0.117,0.352-0.175,0.527c-0.015,0.007-0.03,0.015-0.044,0.022c0.014-0.306-0.221-0.33-0.406-0.407
		c-0.152-0.063-0.307-0.121-0.463-0.174c-0.25-0.084-0.25-0.081-0.39,0.107c-0.032-0.122,0.056-0.304,0.168-0.341
		c0.403-0.137,0.808-0.272,1.242-0.417c-0.3-0.135-0.575-0.263-0.879-0.295c-0.059-0.006-0.126,0.067-0.214,0.119
		c0.049-0.159,0.098-0.317,0.149-0.481c0.026,0.018,0.041,0.025,0.04,0.029c-0.024,0.206,0.127,0.254,0.274,0.309
		c0.309,0.114,0.617,0.23,0.925,0.346c0.004,0.015,0.008,0.03,0.012,0.044c-0.218,0.076-0.436,0.152-0.655,0.226
		c-0.223,0.075-0.447,0.149-0.671,0.223C22.231,16.618,22.228,16.634,22.226,16.649"/>
	<path fill="#FFFFFF" d="M2.324,15.162c0.108,0.189,0.158,0.494,0.082,0.55c-0.133-0.229-0.133-0.231-0.416-0.169
		c-0.194,0.042-0.385,0.096-0.58,0.136c-0.263,0.053-0.458-0.051-0.518-0.315c-0.099-0.437,0.02-0.637,0.372-0.715
		c0.198-0.045,0.396-0.096,0.594-0.141c0.14-0.031,0.241-0.085,0.183-0.257c-0.006-0.017,0.01-0.041,0.052-0.066l0.174,0.651
		c-0.015,0.009-0.03,0.018-0.045,0.027c-0.025-0.039-0.057-0.075-0.072-0.117c-0.033-0.089-0.081-0.118-0.178-0.088
		c-0.255,0.079-0.513,0.147-0.768,0.222c-0.166,0.049-0.24,0.177-0.221,0.376c0.024,0.249,0.15,0.365,0.391,0.319
		c0.256-0.048,0.511-0.112,0.758-0.196C2.21,15.352,2.258,15.24,2.324,15.162"/>
	<path fill="#FFFFFF" d="M1.383,8.505c0.094-0.201,0.189-0.403,0.283-0.604C1.683,7.905,1.7,7.91,1.717,7.915
		c-0.02,0.077-0.041,0.153-0.068,0.257c0.294,0.134,0.589,0.279,0.892,0.402c0.173,0.069,0.274,0.012,0.358-0.151
		c0.159-0.308,0.133-0.412-0.177-0.582C2.51,7.724,2.291,7.619,2.066,7.53C2.019,7.511,1.935,7.582,1.842,7.623
		c0,0-0.025-0.042-0.014-0.069C1.89,7.408,1.96,7.265,2.067,7.116c0.009,0.035,0.036,0.076,0.025,0.102
		C2.036,7.36,2.116,7.43,2.223,7.483C2.418,7.58,2.617,7.67,2.814,7.763C3.095,7.896,3.188,8.177,3.04,8.452
		C2.89,8.731,2.639,8.831,2.348,8.708C2.139,8.619,1.939,8.507,1.736,8.405C1.553,8.314,1.553,8.314,1.458,8.492
		C1.449,8.509,1.449,8.53,1.445,8.549C1.424,8.535,1.404,8.52,1.383,8.505"/>
	<path fill="#FFFFFF" d="M5.933,4.496C5.892,4.58,5.859,4.647,5.807,4.754C5.695,4.556,5.56,4.427,5.508,4.253
		c0.013-0.009,0.026-0.017,0.039-0.026c0.063,0.042,0.123,0.09,0.19,0.125c0.217,0.117,0.502,0.059,0.601-0.14
		c0.036-0.073,0.033-0.19,0.001-0.267c-0.041-0.1-0.141-0.138-0.257-0.097c-0.142,0.05-0.284,0.1-0.429,0.138
		c-0.225,0.058-0.364,0.008-0.46-0.147C5.011,3.544,5.124,3.307,5.492,3.202c0.082-0.024,0.216,0.005,0.21-0.17
		c0.052,0.059,0.106,0.117,0.157,0.177C5.912,3.27,5.964,3.333,6.002,3.426C5.965,3.412,5.928,3.395,5.89,3.386
		C5.747,3.353,5.605,3.305,5.461,3.299C5.398,3.297,5.307,3.37,5.272,3.433C5.232,3.506,5.205,3.626,5.24,3.687
		c0.033,0.059,0.156,0.1,0.234,0.092c0.147-0.014,0.292-0.062,0.434-0.108c0.17-0.055,0.328-0.088,0.465,0.072
		C6.514,3.907,6.475,4.078,6.4,4.247C6.317,4.434,6.18,4.511,5.985,4.499C5.966,4.498,5.947,4.497,5.933,4.496"/>
	<path fill="#FFFFFF" d="M11.126,23.033c0.027-0.032,0.054-0.064,0.081-0.096c0.012,0.003,0.025,0.005,0.037,0.008
		c-0.01,0.164-0.02,0.329-0.03,0.493c-0.014,0.003-0.028,0.005-0.042,0.008c-0.033-0.087-0.062-0.175-0.098-0.26
		c-0.087-0.199-0.267-0.305-0.439-0.235c-0.077,0.031-0.158,0.112-0.189,0.19c-0.039,0.1,0.032,0.182,0.13,0.23
		c0.144,0.07,0.287,0.141,0.428,0.217c0.196,0.106,0.259,0.279,0.186,0.491c-0.068,0.193-0.244,0.31-0.445,0.263
		c-0.137-0.032-0.264-0.104-0.396-0.159c0.003-0.012,0.006-0.024,0.009-0.036c-0.016,0.009-0.031,0.019-0.048,0.026
		c-0.044,0.019-0.089,0.037-0.134,0.056c-0.006-0.045-0.018-0.09-0.015-0.134c0.008-0.102,0.02-0.203,0.036-0.303
		c0.005-0.028,0.028-0.052,0.043-0.078c0.018,0.027,0.047,0.052,0.054,0.082c0.077,0.343,0.29,0.511,0.576,0.45
		c0.157-0.034,0.237-0.148,0.187-0.3c-0.019-0.061-0.079-0.122-0.136-0.154c-0.126-0.07-0.267-0.115-0.395-0.184
		c-0.225-0.122-0.267-0.284-0.146-0.525c0.112-0.225,0.294-0.296,0.516-0.193C10.974,22.926,11.044,22.981,11.126,23.033"/>
	<path fill="#FFFFFF" d="M6.773,21.46c0.037-0.009,0.076-0.019,0.116-0.028c0.009,0.008,0.018,0.016,0.027,0.024
		c-0.082,0.129-0.165,0.257-0.248,0.386c-0.01-0.004-0.02-0.007-0.029-0.01c0.009-0.077,0.022-0.154,0.027-0.232
		c0.013-0.227-0.097-0.395-0.28-0.436c-0.123-0.027-0.22,0.013-0.295,0.111c-0.075,0.098-0.03,0.184,0.034,0.263
		c0.057,0.071,0.116,0.143,0.183,0.205c0.214,0.194,0.285,0.434,0.172,0.603c-0.115,0.173-0.422,0.239-0.648,0.11
		c-0.107-0.062-0.178-0.187-0.236-0.299c-0.067-0.011-0.134-0.023-0.2-0.034c0.029-0.063,0.054-0.128,0.09-0.187
		c0.05-0.083,0.107-0.162,0.162-0.242c0.005-0.007,0.014-0.011,0.061-0.011c-0.01,0.05-0.015,0.101-0.031,0.15
		c-0.091,0.286,0.036,0.528,0.314,0.6c0.126,0.033,0.216-0.01,0.289-0.11c0.071-0.096,0.043-0.183-0.021-0.266
		c-0.095-0.123-0.2-0.239-0.288-0.366c-0.124-0.181-0.111-0.358,0.025-0.49c0.141-0.137,0.384-0.17,0.534-0.046
		C6.625,21.232,6.687,21.349,6.773,21.46"/>
	<path fill="#FFFFFF" d="M1.703,10.805c-0.233,0.051-0.437,0.095-0.68,0.147c0.216,0.12,0.398,0.22,0.594,0.328
		C1.647,11.116,1.672,10.975,1.703,10.805 M0.748,10.791c0.064-0.016,0.128-0.036,0.193-0.049c0.36-0.072,0.723-0.138,1.082-0.218
		c0.091-0.021,0.173-0.085,0.272-0.136c-0.025,0.158-0.052,0.338-0.08,0.518c-0.014-0.001-0.027-0.001-0.041-0.001
		c-0.008-0.034-0.008-0.072-0.024-0.102c-0.017-0.031-0.043-0.069-0.073-0.078c-0.132-0.039-0.286,0.069-0.308,0.207
		c-0.015,0.096-0.04,0.191-0.046,0.287c-0.003,0.044,0.016,0.106,0.047,0.134c0.189,0.171,0.223,0.161,0.342-0.086
		c0.012,0.002,0.025,0.003,0.037,0.005c-0.028,0.17-0.057,0.339-0.083,0.496c-0.081-0.08-0.143-0.161-0.224-0.215
		c-0.326-0.218-0.658-0.428-0.987-0.641c-0.039-0.025-0.077-0.052-0.115-0.078C0.743,10.819,0.745,10.805,0.748,10.791"/>
	<path fill="#FFFFFF" d="M22.192,18.037c0.066-0.14,0.13-0.277,0.205-0.438h-0.635C21.902,17.741,22.04,17.881,22.192,18.037
		 M22.494,18.629c-0.068-0.12-0.112-0.24-0.191-0.328c-0.246-0.275-0.505-0.539-0.758-0.807c-0.036-0.038-0.067-0.078-0.132-0.155
		c0.088,0,0.132-0.003,0.176,0c0.354,0.023,0.707,0.048,1.062,0.069c0.15,0.01,0.307,0.044,0.429-0.104
		c0.009,0.012,0.018,0.023,0.027,0.035c-0.077,0.164-0.153,0.328-0.242,0.517c-0.027-0.096-0.026-0.178-0.065-0.21
		c-0.046-0.037-0.128-0.03-0.194-0.043c-0.083-0.015-0.139,0.011-0.169,0.095c-0.023,0.064-0.06,0.122-0.091,0.183
		c-0.111,0.22-0.108,0.223,0.076,0.383c0.081,0.071,0.143,0.072,0.196-0.028c0.016-0.031,0.038-0.06,0.057-0.09
		c0.016,0.008,0.031,0.017,0.047,0.025C22.644,18.327,22.567,18.483,22.494,18.629"/>
	<path fill="#FFFFFF" d="M9.398,22.819c-0.144,0.198-0.261,0.36-0.388,0.536c0.163,0.05,0.307,0.095,0.475,0.146
		C9.455,23.27,9.429,23.068,9.398,22.819 M9.583,22.518c0.015,0.078,0.028,0.121,0.032,0.166c0.033,0.382,0.06,0.764,0.101,1.145
		c0.011,0.103,0.065,0.2,0.107,0.324c-0.152-0.042-0.326-0.091-0.531-0.148c0.098-0.044,0.19-0.057,0.21-0.102
		c0.029-0.063,0.013-0.152-0.003-0.225c-0.01-0.042-0.052-0.092-0.092-0.107c-0.144-0.057-0.293-0.101-0.439-0.149
		c-0.241,0.228-0.24,0.309-0.007,0.464c-0.169-0.048-0.337-0.095-0.506-0.142l-0.003-0.038c0.173,0.032,0.237-0.098,0.318-0.198
		c0.23-0.282,0.457-0.567,0.686-0.85C9.488,22.619,9.524,22.583,9.583,22.518"/>
	<path fill="#FFFFFF" d="M14.942,23.563c-0.13-0.19-0.249-0.363-0.387-0.563c-0.042,0.235-0.077,0.435-0.116,0.654
		C14.615,23.622,14.768,23.594,14.942,23.563 M15.552,23.984c-0.177,0.037-0.354,0.074-0.531,0.111
		c-0.003-0.013-0.006-0.026-0.01-0.039c0.047-0.016,0.093-0.031,0.176-0.059c-0.071-0.114-0.133-0.218-0.203-0.317
		c-0.012-0.017-0.061-0.015-0.092-0.011c-0.106,0.014-0.211,0.031-0.317,0.049c-0.149,0.025-0.196,0.099-0.183,0.282
		c0.01,0.146,0.113,0.114,0.203,0.113c0.012,0,0.024,0.008,0.039,0.048l-0.484,0.085c-0.007-0.012-0.014-0.024-0.021-0.035
		c0.16-0.052,0.164-0.187,0.189-0.312c0.074-0.376,0.15-0.752,0.225-1.128c0.006-0.032,0.018-0.062,0.037-0.127
		c0.051,0.061,0.09,0.099,0.117,0.143c0.2,0.322,0.4,0.644,0.595,0.968c0.061,0.102,0.116,0.203,0.266,0.184
		C15.556,23.954,15.554,23.969,15.552,23.984"/>
	<path fill="#FFFFFF" d="M4.329,4.485c0.098,0.226,0.18,0.417,0.254,0.589c0.122-0.115,0.232-0.219,0.349-0.33
		C4.742,4.663,4.553,4.582,4.329,4.485 M4.172,4.193C4.216,4.21,4.26,4.225,4.303,4.245c0.331,0.149,0.662,0.3,0.994,0.449
		c0.127,0.056,0.25,0.158,0.402,0.024C5.705,4.733,5.71,4.749,5.716,4.765C5.578,4.891,5.441,5.016,5.304,5.141
		C5.293,5.13,5.283,5.119,5.272,5.108c0.036-0.04,0.072-0.079,0.124-0.135C5.277,4.907,5.17,4.847,5.041,4.775
		c-0.116,0.12-0.26,0.227-0.339,0.369C4.665,5.21,4.748,5.348,4.791,5.448c0.004,0.01,0.11-0.021,0.167-0.038
		c0.021-0.006,0.036-0.027,0.047-0.049c-0.124,0.118-0.248,0.236-0.316,0.3C4.74,5.565,4.644,5.412,4.58,5.258
		c-0.123-0.3-0.258-0.596-0.388-0.893c-0.02-0.047-0.036-0.094-0.055-0.141C4.149,4.214,4.161,4.203,4.172,4.193"/>
	<path fill="#FFFFFF" d="M23.32,14.948c-0.234,0.042-0.439,0.078-0.682,0.12c0.205,0.14,0.378,0.258,0.563,0.385
		C23.241,15.282,23.277,15.129,23.32,14.948 M23.734,15.447c-0.038,0.169-0.076,0.339-0.114,0.508l-0.04,0.013
		c0.002-0.242-0.192-0.308-0.339-0.413c-0.257-0.184-0.519-0.36-0.778-0.541c-0.038-0.026-0.075-0.056-0.146-0.11
		c0.19-0.032,0.344-0.059,0.498-0.083c0.283-0.043,0.568-0.077,0.849-0.129c0.09-0.017,0.172-0.081,0.281-0.135
		c-0.04,0.179-0.08,0.356-0.12,0.534c-0.013-0.003-0.027-0.005-0.041-0.008c0.003-0.027,0.002-0.055,0.01-0.08
		c0.034-0.101-0.021-0.12-0.103-0.116c-0.232,0.009-0.28,0.049-0.33,0.271c-0.018,0.081-0.043,0.161-0.049,0.242
		c-0.003,0.043,0.017,0.103,0.049,0.13c0.186,0.156,0.217,0.146,0.335-0.091C23.708,15.442,23.721,15.444,23.734,15.447"/>
	<path fill="#FFFFFF" d="M21.739,7.255c0.131-0.189,0.247-0.358,0.387-0.562c-0.235,0.042-0.432,0.076-0.651,0.114
		C21.563,6.957,21.644,7.093,21.739,7.255 M22.464,6.592c-0.049,0.074-0.075,0.117-0.106,0.158
		c-0.227,0.302-0.459,0.601-0.682,0.906c-0.059,0.08-0.09,0.179-0.138,0.277c-0.081-0.13-0.175-0.281-0.269-0.432
		c0.013-0.009,0.026-0.018,0.04-0.028c0.04,0.044,0.08,0.088,0.141,0.155c0.074-0.1,0.141-0.19,0.207-0.282
		c0.008-0.01,0.015-0.032,0.009-0.04c-0.09-0.15-0.162-0.318-0.283-0.436c-0.048-0.046-0.206,0.016-0.311,0.043
		c-0.008,0.002,0.011,0.113,0.018,0.173c0.002,0.018,0.009,0.034,0.016,0.056c-0.092-0.027-0.236-0.24-0.297-0.426
		c0.339,0.187,0.671-0.005,1.005-0.025C22.019,6.679,22.221,6.63,22.464,6.592"/>
	<path fill="#FFFFFF" d="M7.876,2.814C7.711,2.658,7.554,2.51,7.368,2.335c0.025,0.251,0.045,0.459,0.066,0.684
		C7.589,2.948,7.724,2.885,7.876,2.814 M7.69,3.472C7.55,3.537,7.41,3.603,7.27,3.668c0.141-0.159,0.099-0.339,0.086-0.515
		C7.329,2.786,7.304,2.419,7.275,2.009c0.07,0.051,0.113,0.076,0.148,0.109c0.28,0.262,0.556,0.529,0.841,0.786
		c0.079,0.071,0.184,0.114,0.278,0.171c-0.125,0.059-0.277,0.13-0.429,0.202c-0.006-0.01-0.012-0.021-0.018-0.031
		C8.137,3.214,8.179,3.182,8.22,3.151C8.111,2.924,7.955,2.865,7.753,2.965c-0.056,0.029-0.11,0.063-0.169,0.083
		C7.478,3.084,7.448,3.15,7.459,3.258C7.48,3.468,7.489,3.48,7.69,3.472"/>
	<path fill="#FFFFFF" d="M15.787,22.387c-0.054,0.08-0.123,0.154-0.16,0.242c-0.064,0.15,0.001,0.262,0.163,0.284
		c0.095,0.014,0.193-0.003,0.29-0.005c0.166-0.004,0.336-0.061,0.494,0.05c0.252,0.177,0.241,0.552-0.028,0.704
		c-0.157,0.089-0.323,0.133-0.499,0.037c-0.052,0.064-0.103,0.126-0.17,0.209c-0.059-0.159-0.11-0.292-0.155-0.427
		c-0.01-0.032,0.001-0.071,0.003-0.106c0.032,0.02,0.074,0.032,0.094,0.06c0.171,0.23,0.434,0.29,0.667,0.147
		c0.091-0.057,0.164-0.124,0.12-0.249c-0.073-0.207-0.116-0.247-0.277-0.231c-0.145,0.015-0.289,0.049-0.433,0.051
		c-0.218,0.003-0.345-0.14-0.383-0.399c-0.026-0.18,0.064-0.299,0.277-0.364L15.787,22.387z"/>
	<path fill="#FFFFFF" d="M16.97,22.164c0.023,0.237,0.042,0.436,0.063,0.653c0.155-0.073,0.291-0.137,0.443-0.208
		C17.304,22.458,17.152,22.324,16.97,22.164 M17.378,23.224c-0.176,0.089-0.329,0.165-0.481,0.242
		c0.173-0.24,0.059-0.494,0.054-0.735c-0.005-0.252-0.044-0.503-0.067-0.754c-0.004-0.037-0.001-0.074-0.001-0.148
		c0.062,0.048,0.1,0.074,0.132,0.103c0.252,0.229,0.501,0.46,0.754,0.687c0.116,0.105,0.21,0.259,0.418,0.188
		c0,0.015-0.001,0.03-0.001,0.045c-0.167,0.076-0.333,0.152-0.5,0.228c-0.006-0.013-0.013-0.027-0.02-0.04
		c0.058-0.034,0.116-0.068,0.202-0.119c-0.11-0.085-0.201-0.161-0.3-0.227c-0.022-0.015-0.073,0-0.105,0.014
		c-0.093,0.041-0.183,0.089-0.274,0.134c-0.137,0.069-0.18,0.248-0.066,0.349C17.167,23.231,17.263,23.212,17.378,23.224"/>
	<path fill="#FFFFFF" d="M10.882,2.454c-0.203,0.03-0.406,0.06-0.614,0.091c0.002-0.029,0.001-0.046,0.003-0.046
		c0.192-0.029,0.196-0.152,0.164-0.306c-0.058-0.28-0.103-0.563-0.16-0.843c-0.01-0.049-0.054-0.126-0.088-0.129
		c-0.051-0.004-0.126,0.032-0.155,0.075C9.977,1.379,9.944,1.477,9.908,1.571C9.887,1.627,9.879,1.689,9.865,1.747
		c-0.015,0-0.03,0-0.044-0.001C9.809,1.58,9.797,1.413,9.784,1.234c0.383-0.07,0.752-0.138,1.133-0.208
		c0.039,0.179,0.077,0.347,0.114,0.514c-0.011,0.008-0.021,0.016-0.032,0.024c-0.024-0.023-0.056-0.041-0.072-0.069
		c-0.051-0.082-0.085-0.177-0.147-0.248c-0.047-0.054-0.123-0.099-0.193-0.113c-0.088-0.017-0.159,0.01-0.134,0.137
		c0.058,0.29,0.101,0.583,0.155,0.873C10.654,2.391,10.657,2.39,10.882,2.454"/>
	<path fill="#FFFFFF" d="M21.86,8.709c-0.079-0.185-0.157-0.37-0.239-0.562c0.034-0.006,0.043-0.008,0.043-0.007
		c0.09,0.202,0.223,0.132,0.367,0.068c0.256-0.115,0.519-0.216,0.776-0.329c0.14-0.062,0.149-0.154,0.012-0.224
		c-0.107-0.055-0.237-0.066-0.358-0.089c-0.041-0.008-0.087,0.008-0.131,0.013c-0.003-0.017-0.006-0.035-0.01-0.052
		c0.158-0.04,0.316-0.079,0.491-0.123c0.149,0.345,0.295,0.686,0.45,1.045c-0.172,0.07-0.337,0.138-0.502,0.206l-0.027-0.042
		c0.032-0.026,0.066-0.05,0.094-0.08c0.081-0.082,0.171-0.158,0.231-0.253c0.026-0.041,0.004-0.134-0.028-0.181
		c-0.021-0.031-0.108-0.04-0.154-0.024C22.633,8.16,22.392,8.25,22.156,8.35c-0.148,0.063-0.344,0.103-0.241,0.364
		C21.897,8.712,21.878,8.711,21.86,8.709"/>
	<path fill="#FFFFFF" d="M2.146,9.084C2.397,9.108,2.597,9.422,2.517,9.68c-0.096,0.314-0.393,0.525-0.705,0.496
		c-0.384-0.035-0.701-0.311-0.734-0.637C1.062,9.386,1.124,9.238,1.305,8.994C1.28,8.955,1.254,8.913,1.227,8.871
		c0.005-0.01,0.01-0.02,0.015-0.029c0.174,0.054,0.347,0.109,0.52,0.164C1.761,9.015,1.76,9.024,1.759,9.033
		C1.681,9.045,1.603,9.057,1.525,9.07C1.342,9.1,1.229,9.206,1.187,9.383C1.152,9.528,1.21,9.658,1.372,9.759
		c0.215,0.134,0.453,0.2,0.705,0.2c0.151,0,0.297-0.038,0.358-0.2C2.501,9.58,2.498,9.405,2.349,9.261
		C2.285,9.198,2.214,9.143,2.146,9.084"/>
	<path fill="#FFFFFF" d="M23.054,10.918c-0.413,0.104-0.728-0.255-0.618-0.653c0.078-0.283,0.35-0.49,0.674-0.514
		c0.313-0.023,0.615,0.143,0.733,0.403c0.062,0.137,0.056,0.272-0.024,0.517c0.036,0.023,0.075,0.046,0.113,0.07
		c0,0.011,0,0.023,0,0.034c-0.175,0.028-0.35,0.056-0.525,0.084c-0.004-0.008-0.007-0.016-0.011-0.025
		c0.077-0.055,0.156-0.107,0.231-0.166c0.129-0.1,0.194-0.234,0.158-0.396c-0.035-0.158-0.151-0.244-0.306-0.275
		c-0.255-0.05-0.504-0.013-0.741,0.083c-0.153,0.063-0.257,0.182-0.254,0.358c0.003,0.187,0.097,0.324,0.273,0.394
		C22.84,10.866,22.931,10.883,23.054,10.918"/>
	<path fill="#FFFFFF" d="M8.083,23.59c-0.185-0.077-0.37-0.155-0.56-0.234c0.019-0.027,0.026-0.042,0.029-0.041
		c0.211,0.057,0.214,0.058,0.297-0.146c0.105-0.256,0.211-0.511,0.303-0.771c0.022-0.061,0.012-0.187-0.023-0.204
		c-0.06-0.029-0.164-0.022-0.225,0.013c-0.115,0.064-0.212,0.159-0.318,0.242c0.072-0.144,0.148-0.298,0.231-0.465
		c0.348,0.139,0.688,0.274,1.041,0.415c-0.044,0.153-0.085,0.3-0.131,0.446c-0.006,0.02-0.038,0.031-0.058,0.046
		c-0.012-0.022-0.034-0.045-0.033-0.068c0.004-0.106,0.021-0.212,0.018-0.318c-0.002-0.098-0.046-0.177-0.155-0.2
		c-0.119-0.026-0.151,0.058-0.186,0.14c-0.101,0.241-0.205,0.481-0.3,0.725C7.922,23.404,7.927,23.406,8.083,23.59"/>
	<path fill="#FFFFFF" d="M16.009,2.991c0.239,0.024,0.238,0.023,0.347-0.238c0.081-0.192,0.162-0.384,0.243-0.576
		c0.116-0.279,0.116-0.279-0.12-0.424c0.006-0.013,0.011-0.026,0.017-0.039c0.342,0.146,0.685,0.292,1.041,0.444
		c-0.048,0.142-0.092,0.273-0.136,0.404c-0.008,0-0.016,0-0.023,0c0-0.029-0.002-0.058,0-0.086c0.013-0.261-0.156-0.464-0.416-0.483
		C16.91,1.99,16.827,2.021,16.808,2.06c-0.065,0.133-0.109,0.277-0.16,0.415c0.192,0.104,0.223,0.097,0.427-0.096
		c0.013,0.005,0.026,0.01,0.039,0.015c-0.073,0.18-0.147,0.361-0.221,0.541c-0.008-0.191-0.077-0.321-0.289-0.38
		c-0.063,0.15-0.131,0.303-0.191,0.459c-0.03,0.075-0.002,0.132,0.083,0.153c0.036,0.01,0.07,0.027,0.105,0.041
		c-0.007,0.017-0.014,0.034-0.021,0.05c-0.195-0.077-0.389-0.155-0.583-0.232C16.001,3.014,16.005,3.003,16.009,2.991"/>
	<path fill="#FFFFFF" d="M3.411,5.169c0.016,0.066,0.009,0.157,0.05,0.194C3.735,5.61,4.019,5.845,4.31,6.093
		C4.358,6.048,4.405,6.004,4.452,5.96C4.465,5.97,4.478,5.98,4.49,5.989C4.404,6.175,4.244,6.31,4.125,6.473
		C4.11,6.465,4.094,6.457,4.079,6.449C4.103,6.4,4.126,6.351,4.168,6.266c-0.086-0.078-0.185-0.17-0.286-0.258
		C3.703,5.852,3.523,5.695,3.339,5.545C3.3,5.514,3.221,5.483,3.192,5.502C3.154,5.525,3.123,5.604,3.132,5.65
		C3.159,5.776,3.209,5.898,3.25,6.021c0.01,0.033,0.019,0.066,0.028,0.098C3.267,6.125,3.257,6.132,3.246,6.138
		C3.133,6.016,3.02,5.895,2.895,5.761c0.171-0.204,0.338-0.404,0.504-0.603C3.403,5.161,3.407,5.165,3.411,5.169"/>
	<path fill="#FFFFFF" d="M4.063,18.927c-0.13-0.133-0.279-0.068-0.417-0.041c-0.375,0.072-0.749,0.155-1.147,0.239
		c0.033-0.052,0.052-0.088,0.075-0.121c0.207-0.3,0.419-0.596,0.618-0.901c0.069-0.105,0.106-0.23,0.166-0.366
		c0.096,0.151,0.204,0.319,0.317,0.496c-0.041,0.011-0.048,0.016-0.049,0.014c-0.17-0.156-0.174-0.159-0.319,0.034
		c-0.163,0.215-0.319,0.437-0.478,0.656c0.007,0.011,0.013,0.022,0.02,0.033c0.316-0.065,0.633-0.128,0.948-0.195
		c0.073-0.016,0.092-0.063,0.05-0.131c-0.028-0.044-0.048-0.093-0.075-0.145C3.86,18.512,4.007,18.726,4.063,18.927"/>
	<path fill="#FFFFFF" d="M3.503,6.401c0.142,0.103,0.284,0.205,0.439,0.317C3.733,7.045,3.53,7.365,3.326,7.685
		C3.322,7.682,3.317,7.679,3.312,7.676c0.016-0.069,0.063-0.151,0.039-0.202C3.323,7.412,3.239,7.371,3.174,7.331
		C2.967,7.204,2.757,7.083,2.549,6.958C2.328,6.825,2.328,6.825,2.13,6.95c0.117-0.185,0.234-0.37,0.357-0.565
		c0.024,0.033,0.036,0.043,0.034,0.047C2.416,6.658,2.413,6.662,2.632,6.8c0.242,0.152,0.492,0.293,0.736,0.442
		c0.107,0.066,0.171,0.041,0.233-0.067c0.186-0.324,0.18-0.399-0.081-0.674C3.502,6.482,3.488,6.459,3.472,6.437
		C3.482,6.425,3.493,6.413,3.503,6.401"/>
	<path fill="#FFFFFF" d="M20.466,21.068c0.02,0.094-0.277,0.386-0.47,0.475c0.004-0.023,0.001-0.048,0.011-0.056
		c0.145-0.113,0.078-0.202-0.007-0.322c-0.123-0.172-0.288-0.249-0.478-0.302c-0.116-0.033-0.23-0.084-0.348-0.101
		c-0.088-0.013-0.182,0.014-0.274,0.024c-0.03,0.003-0.06,0.005-0.09,0.008c-0.004-0.013-0.009-0.026-0.014-0.039
		c0.144-0.123,0.287-0.247,0.432-0.373c0.016,0.025,0.027,0.036,0.025,0.04c-0.105,0.182-0.104,0.192,0.109,0.265
		c0.146,0.05,0.295,0.088,0.469,0.139c-0.045-0.208-0.074-0.394-0.128-0.572c-0.047-0.154-0.15-0.052-0.232-0.019
		c-0.009-0.012-0.018-0.025-0.027-0.037c0.121-0.111,0.242-0.222,0.363-0.333c0.013,0.008,0.027,0.016,0.04,0.024
		c-0.127,0.124-0.087,0.263-0.053,0.4c0.064,0.257,0.088,0.525,0.268,0.744C20.233,21.241,20.26,21.251,20.466,21.068"/>
	<path fill="#FFFFFF" d="M23.256,13.965c-0.171,0-0.323-0.156-0.319-0.33c0.003-0.155,0.156-0.298,0.318-0.298
		c0.159,0,0.306,0.152,0.302,0.312C23.554,13.813,23.41,13.965,23.256,13.965"/>
	<path fill="#FFFFFF" d="M1.349,13.964c-0.167,0.005-0.33-0.153-0.331-0.322c-0.001-0.151,0.153-0.299,0.316-0.305
		c0.147-0.006,0.303,0.139,0.311,0.29C1.655,13.791,1.507,13.959,1.349,13.964"/>
	<path fill="#FFFFFF" d="M11.304,2.336c0.323,0.008,0.265-0.204,0.258-0.375c-0.009-0.257-0.037-0.513-0.043-0.77
		c-0.003-0.122-0.04-0.171-0.162-0.146c-0.023,0.005-0.05-0.006-0.074-0.009c0-0.013-0.001-0.026-0.001-0.039
		c0.211-0.02,0.421-0.04,0.631-0.06c0.004,0.011,0.007,0.021,0.011,0.031c-0.025,0.012-0.049,0.034-0.074,0.035
		c-0.132,0.008-0.168,0.076-0.16,0.202c0.02,0.291,0.031,0.582,0.037,0.873C11.73,2.22,11.776,2.3,11.932,2.277
		c0.015-0.002,0.032,0.009,0.048,0.014c0,0.014,0.001,0.027,0.001,0.041c-0.212,0.021-0.423,0.042-0.635,0.063
		C11.332,2.375,11.318,2.356,11.304,2.336"/>
	<path fill="#FFFFFF" d="M22.393,18.8c-0.12,0.178-0.239,0.353-0.357,0.528c-0.013-0.009-0.026-0.017-0.039-0.026
		c0.012-0.022,0.022-0.045,0.037-0.066c0.061-0.083,0.049-0.145-0.042-0.202c-0.296-0.185-0.587-0.377-0.885-0.559
		c-0.028-0.017-0.093,0.001-0.128,0.023c-0.035,0.024-0.054,0.073-0.081,0.111c-0.015-0.01-0.03-0.02-0.044-0.03
		c0.116-0.176,0.232-0.352,0.348-0.529l0.043,0.022c-0.013,0.028-0.02,0.06-0.038,0.083c-0.067,0.08-0.065,0.137,0.031,0.196
		c0.256,0.157,0.505,0.325,0.76,0.483c0.119,0.074,0.246,0.14,0.336-0.045c0.002-0.004,0.017-0.004,0.026-0.004
		C22.364,18.784,22.369,18.788,22.393,18.8"/>
	<path fill="#FFFFFF" d="M6.452,22.745c0.03,0.011,0.061,0.02,0.091,0.033c0.09,0.039,0.154,0.023,0.203-0.07
		c0.122-0.227,0.253-0.449,0.375-0.675c0.129-0.24,0.126-0.241-0.016-0.464c0.186,0.098,0.372,0.195,0.558,0.293
		c-0.006,0.014-0.011,0.028-0.016,0.042c-0.031-0.008-0.065-0.01-0.091-0.027c-0.11-0.069-0.167-0.032-0.222,0.08
		c-0.119,0.244-0.252,0.481-0.379,0.721c-0.12,0.228-0.121,0.227,0.049,0.404l-0.579-0.291C6.434,22.776,6.443,22.761,6.452,22.745"
		/>
	<path fill="#FFFFFF" d="M22.214,9.807C22.157,9.596,22.1,9.384,22.039,9.16c0.035,0.009,0.048,0.008,0.052,0.014
		c0.138,0.203,0.138,0.203,0.38,0.134c0.252-0.071,0.503-0.147,0.756-0.211c0.122-0.03,0.181-0.08,0.134-0.211
		c-0.009-0.026,0.005-0.061,0.008-0.092c0.013-0.002,0.026-0.004,0.04-0.006c0.058,0.206,0.116,0.413,0.174,0.62L23.56,9.423
		c-0.017-0.016-0.046-0.03-0.049-0.047c-0.023-0.153-0.114-0.173-0.243-0.137c-0.234,0.065-0.471,0.118-0.702,0.19
		c-0.174,0.055-0.401,0.082-0.28,0.394C22.262,9.818,22.238,9.812,22.214,9.807"/>
	<path fill="#FFFFFF" d="M13.883,2.415c0.243,0.004,0.248,0.005,0.295-0.256c0.05-0.272,0.088-0.546,0.131-0.819
		c0.017-0.103,0-0.183-0.123-0.204c-0.028-0.005-0.053-0.028-0.079-0.042c0.004-0.012,0.008-0.024,0.012-0.035
		c0.211,0.038,0.422,0.076,0.641,0.116c-0.016,0.027-0.021,0.041-0.025,0.041c-0.252-0.026-0.254-0.026-0.297,0.229
		c-0.042,0.254-0.08,0.508-0.118,0.762c-0.036,0.243-0.027,0.255,0.184,0.362c-0.21-0.038-0.419-0.075-0.629-0.112
		C13.878,2.443,13.88,2.429,13.883,2.415"/>
	<path fill="#FFFFFF" d="M3.399,5.158c0.068-0.093,0.136-0.186,0.213-0.291c0.14,0.138,0.325,0.206,0.404,0.39
		c-0.205-0.049-0.382-0.22-0.605-0.088C3.407,5.166,3.403,5.162,3.399,5.158"/>
	<path fill="#FFFFFF" d="M15.79,22.39c0.119-0.013,0.238-0.025,0.369-0.039c0.018-0.032,0.045-0.077,0.086-0.149
		c0.081,0.173,0.148,0.318,0.217,0.466c-0.238-0.099-0.456-0.189-0.675-0.28C15.787,22.387,15.79,22.39,15.79,22.39"/>
</g>
</svg>
