<?xml version="1.0" encoding="utf-8"?>
<!-- Generator: Adobe Illustrator 17.0.0, SVG Export Plug-In . SVG Version: 6.00 Build 0)  -->
<!DOCTYPE svg PUBLIC "-//W3C//DTD SVG 1.1//EN" "http://www.w3.org/Graphics/SVG/1.1/DTD/svg11.dtd">
<svg version="1.1" id="Vrstva_1" xmlns="http://www.w3.org/2000/svg" xmlns:xlink="http://www.w3.org/1999/xlink" x="0px" y="0px"
	 width="59.375px" height="15.625px" viewBox="0 0 59.375 15.625" enable-background="new 0 0 59.375 15.625" xml:space="preserve">
<rect x="10.726" y="1.379" fill="#FFFFFF" width="0.43" height="12.808"/>
<rect x="23.959" y="1.379" fill="#FFFFFF" width="1.07" height="12.808"/>
<rect x="37.839" y="1.379" fill="#FFFFFF" width="2.559" height="12.808"/>
<rect x="53.209" y="1.379" fill="#FFFFFF" width="4.264" height="12.808"/>
<g>
	<path fill="#FFFFFF" d="M46.803,5.603c-1.389,0-2.167,0.803-2.167,2.181s0.778,2.178,2.167,2.178c1.383,0,2.17-0.8,2.17-2.178
		S48.186,5.603,46.803,5.603 M46.803,9.151c-0.789,0-0.953-0.73-0.953-1.348c0-0.659,0.164-1.384,0.953-1.384
		c0.787,0,0.948,0.725,0.948,1.384C47.751,8.421,47.59,9.151,46.803,9.151"/>
</g>
<polygon fill="#FFFFFF" points="33.472,5.691 32.435,5.691 32.435,8.796 32.421,8.809 31.018,5.691 29.394,5.691 29.394,9.874 
	30.44,9.874 30.44,6.672 30.453,6.672 31.869,9.874 33.472,9.874 "/>
<g>
	<path fill="#FFFFFF" d="M17.678,5.691h-1.939v4.183h1.164V8.275h0.432c0.589,0,0.614,0.207,0.657,0.713
		c0.032,0.297,0.067,0.598,0.127,0.886h1.257c-0.097-0.334-0.16-0.664-0.189-1.018c-0.077-0.644-0.214-1.022-0.951-1.036V7.793
		C18.819,7.721,19.3,7.397,19.3,6.767C19.3,5.883,18.384,5.691,17.678,5.691 M16.903,7.464V6.5h0.449
		c0.37,0,0.729,0.056,0.729,0.485c0,0.43-0.359,0.479-0.729,0.479H16.903z"/>
	<path fill="#FFFFFF" d="M4.551,5.69H2.545v4.183h1.966c0.005,0,0.033,0.002,0.078,0.002c0.322,0,1.516-0.066,1.516-1.134
		c0-0.6-0.455-0.952-1.011-1.03V7.703c0.471-0.09,0.9-0.4,0.9-0.916C5.994,6.046,5.338,5.698,4.551,5.69 M3.705,7.356V6.5h0.629
		c0.277,0,0.476,0.171,0.476,0.41c0,0.314-0.199,0.433-0.514,0.433L3.705,7.356z M3.705,9.067V8.159h0.757
		c0.264,0.019,0.424,0.238,0.424,0.475c0,0.255-0.216,0.433-0.505,0.433H3.705z"/>
</g>
</svg>
