<?xml version="1.0" encoding="utf-8"?>
<!-- Generator: Adobe Illustrator 17.0.0, SVG Export Plug-In . SVG Version: 6.00 Build 0)  -->
<!DOCTYPE svg PUBLIC "-//W3C//DTD SVG 1.1//EN" "http://www.w3.org/Graphics/SVG/1.1/DTD/svg11.dtd">
<svg version="1.1" id="Vrstva_1" xmlns="http://www.w3.org/2000/svg" xmlns:xlink="http://www.w3.org/1999/xlink" x="0px" y="0px"
	 width="62.75px" height="13.136px" viewBox="0 0 62.75 13.136" enable-background="new 0 0 62.75 13.136" xml:space="preserve">
<polygon fill="#929497" points="3.655,7.483 1.667,9.471 3.946,11.75 5.934,9.762 5.934,7.483 "/>
<g>
	<path fill="#FFFFFF" d="M16.068,4.421c0-0.132-0.046-0.243-0.137-0.333c-0.092-0.091-0.2-0.136-0.325-0.136h-0.124
		c-0.125,0.008-0.232,0.055-0.319,0.142c-0.088,0.086-0.131,0.195-0.131,0.327v6.108c0,0.131,0.043,0.24,0.131,0.327
		c0.088,0.086,0.194,0.134,0.319,0.142h0.125c0.066,0,0.137-0.015,0.212-0.044c0.075-0.028,0.138-0.08,0.188-0.154l-0.247-0.506
		c-0.033-0.065-0.045-0.123-0.037-0.172c0.008-0.042,0.029-0.081,0.062-0.118c0.032-0.037,0.102-0.055,0.209-0.055h0.074V4.421z
		 M17.364,11.738h-0.679c-0.041,0-0.076-0.01-0.105-0.031c-0.028-0.02-0.063-0.076-0.104-0.167c-0.091,0.116-0.2,0.179-0.327,0.192
		c-0.128,0.012-0.233,0.018-0.315,0.018h-0.592c-0.148,0-0.286-0.026-0.414-0.08c-0.127-0.053-0.24-0.13-0.339-0.228
		c-0.099-0.099-0.177-0.212-0.234-0.34c-0.058-0.127-0.087-0.265-0.087-0.413V4.273c0-0.296,0.105-0.549,0.315-0.759
		s0.462-0.315,0.759-0.315h0.654c0.287,0.017,0.532,0.128,0.734,0.333c0.201,0.206,0.302,0.453,0.302,0.741v6.54L17.364,11.738z"/>
	<path fill="#FFFFFF" d="M21.559,3.248v7.441c-0.008,0.288-0.111,0.532-0.308,0.734c-0.198,0.201-0.441,0.31-0.728,0.327h-0.667
		c-0.148,0-0.288-0.029-0.419-0.087c-0.132-0.057-0.245-0.133-0.34-0.228c-0.094-0.094-0.171-0.206-0.228-0.333
		c-0.058-0.128-0.086-0.265-0.086-0.413V3.482c0-0.065,0.026-0.121,0.08-0.166c0.053-0.045,0.113-0.068,0.179-0.068h0.604v7.292
		c0,0.123,0.044,0.23,0.13,0.321s0.191,0.136,0.315,0.136h0.135c0.132,0,0.243-0.043,0.334-0.13c0.09-0.086,0.135-0.195,0.135-0.327
		V3.248H21.559z"/>
	<path fill="#FFFFFF" d="M26.273,11.688h-0.95L24.57,5.864l-0.765,5.824h-0.95l1.283-8.44h0.457c0.189,0,0.31,0.047,0.364,0.142
		c0.053,0.095,0.088,0.199,0.105,0.315L26.273,11.688z"/>
	<path fill="#FFFFFF" d="M30.419,3.248c-0.049,0.109-0.105,0.232-0.167,0.369c-0.061,0.138-0.101,0.224-0.117,0.257
		c-0.025,0.058-0.072,0.113-0.142,0.163c-0.07,0.05-0.175,0.075-0.314,0.075H29c-0.066,0-0.117,0.02-0.154,0.061
		c-0.037,0.042-0.056,0.091-0.056,0.148v7.367h-0.666c-0.099,0-0.163-0.023-0.192-0.068c-0.028-0.045-0.047-0.084-0.055-0.117V4.112
		h-1.209V3.511c0-0.075,0.024-0.138,0.074-0.188c0.049-0.05,0.111-0.075,0.185-0.075H30.419z"/>
	<path fill="#FFFFFF" d="M32.763,7.153c0.091-0.069,0.136-0.199,0.136-0.388V4.544c0-0.165-0.045-0.278-0.136-0.34
		c-0.09-0.061-0.197-0.092-0.32-0.092h-0.457v3.146h0.457C32.566,7.258,32.673,7.223,32.763,7.153 M33.763,11.688h-0.864V8.603
		c0-0.214-0.045-0.358-0.136-0.432c-0.09-0.074-0.197-0.111-0.32-0.111h-0.457v3.628h-0.864v-8.44h1.573
		c0.147,0,0.286,0.027,0.417,0.08c0.131,0.054,0.244,0.128,0.338,0.222c0.094,0.095,0.17,0.206,0.227,0.333
		c0.057,0.128,0.086,0.266,0.086,0.414v2.616c0,0.164-0.018,0.296-0.055,0.395c-0.036,0.098-0.075,0.172-0.116,0.222
		c-0.048,0.057-0.101,0.098-0.158,0.123c0.057,0.033,0.11,0.086,0.158,0.161c0.041,0.065,0.08,0.15,0.116,0.252
		c0.037,0.103,0.055,0.233,0.055,0.389V11.688z"/>
	<path fill="#FFFFFF" d="M37.329,10.861c0.091-0.09,0.136-0.201,0.136-0.333V4.421c0-0.132-0.045-0.243-0.136-0.334
		c-0.091-0.09-0.202-0.135-0.333-0.135H36.86c-0.123,0.008-0.228,0.055-0.315,0.141c-0.086,0.087-0.129,0.196-0.129,0.328v6.107
		c0,0.132,0.043,0.241,0.129,0.327c0.087,0.087,0.196,0.134,0.327,0.142h0.124C37.127,10.997,37.238,10.952,37.329,10.861
		 M38.02,3.532c0.206,0.206,0.308,0.453,0.308,0.74v6.417c0,0.148-0.026,0.284-0.08,0.407c-0.053,0.123-0.127,0.232-0.222,0.327
		c-0.094,0.095-0.205,0.171-0.333,0.228c-0.128,0.058-0.261,0.091-0.401,0.099h-0.666c-0.297,0-0.549-0.103-0.759-0.309
		c-0.21-0.205-0.315-0.456-0.315-0.752V4.272c0-0.296,0.105-0.549,0.315-0.758c0.21-0.21,0.462-0.315,0.759-0.315h0.666
		C37.572,3.216,37.814,3.327,38.02,3.532"/>
	<path fill="#FFFFFF" d="M45.189,4.483c-0.017-0.115-0.068-0.214-0.154-0.296c-0.087-0.083-0.187-0.124-0.302-0.124h-0.457v2.974
		h0.457c0.115,0,0.215-0.039,0.302-0.117c0.086-0.078,0.137-0.175,0.154-0.29V4.483z M45.337,3.329
		c0.132,0.054,0.249,0.13,0.352,0.228c0.102,0.099,0.185,0.212,0.246,0.34c0.062,0.127,0.093,0.265,0.093,0.413v2.184
		c0,0.411-0.103,0.749-0.308,1.012c-0.206,0.263-0.519,0.395-0.938,0.395h-0.506v3.788h-0.617c-0.107,0-0.175-0.023-0.204-0.068
		c-0.029-0.045-0.043-0.084-0.043-0.117V3.249h1.506C45.065,3.249,45.205,3.276,45.337,3.329"/>
	<path fill="#FFFFFF" d="M48.841,7.153c0.091-0.069,0.136-0.199,0.136-0.388V4.544c0-0.165-0.045-0.278-0.136-0.34
		c-0.09-0.061-0.197-0.092-0.32-0.092h-0.457v3.146h0.457C48.644,7.258,48.751,7.223,48.841,7.153 M49.841,11.688h-0.864V8.603
		c0-0.214-0.045-0.358-0.136-0.432c-0.09-0.074-0.197-0.111-0.32-0.111h-0.457v3.628H47.2v-8.44h1.572
		c0.148,0,0.287,0.027,0.418,0.08c0.131,0.054,0.243,0.128,0.338,0.222c0.094,0.095,0.169,0.206,0.227,0.333
		c0.057,0.128,0.086,0.266,0.086,0.414v2.616c0,0.164-0.018,0.296-0.055,0.395C49.749,7.406,49.711,7.48,49.67,7.53
		c-0.048,0.057-0.101,0.098-0.158,0.123c0.057,0.033,0.11,0.086,0.158,0.161c0.041,0.065,0.079,0.15,0.116,0.252
		c0.037,0.103,0.055,0.233,0.055,0.389V11.688z"/>
	<path fill="#FFFFFF" d="M52.457,3.366c0.049,0.078,0.074,0.15,0.074,0.216v8.107h-0.617c-0.098,0-0.162-0.021-0.191-0.062
		c-0.029-0.041-0.047-0.082-0.056-0.123V3.249h0.519C52.317,3.249,52.408,3.288,52.457,3.366"/>
	<path fill="#FFFFFF" d="M57.171,3.248v8.44h-0.397c-0.117,0-0.212-0.021-0.286-0.062c-0.075-0.041-0.133-0.09-0.174-0.148
		c-0.042-0.057-0.073-0.117-0.093-0.179c-0.021-0.061-0.035-0.113-0.044-0.154l-0.931-4.171v4.714h-0.864v-8.44h0.395
		c0.247,0,0.405,0.047,0.475,0.142c0.07,0.095,0.117,0.204,0.142,0.327l0.913,4.393V3.248H57.171z"/>
	<path fill="#FFFFFF" d="M61.909,3.248c-0.049,0.109-0.105,0.232-0.167,0.369c-0.061,0.138-0.101,0.224-0.117,0.257
		c-0.025,0.058-0.072,0.113-0.142,0.163c-0.07,0.05-0.175,0.075-0.314,0.075H60.49c-0.066,0-0.117,0.02-0.154,0.061
		c-0.037,0.042-0.056,0.091-0.056,0.148v7.367h-0.666c-0.099,0-0.163-0.023-0.191-0.068c-0.029-0.045-0.048-0.084-0.056-0.117V4.112
		h-1.209V3.511c0-0.075,0.024-0.138,0.074-0.188c0.049-0.05,0.111-0.075,0.185-0.075H61.909z"/>
</g>
<path fill="#C5C7C9" d="M5.933,7.483v2.279l1.988,1.988L10.2,9.471L8.212,7.483H5.933z M8.212,7.483L8.212,7.483L8.212,7.483z"/>
<polygon fill="#929497" points="7.899,3.194 5.934,3.194 5.934,7.483 8.213,7.483 10.201,5.496 "/>
<polygon fill="#626366" points="3.969,3.194 1.667,5.495 1.667,5.496 3.655,7.483 5.934,7.483 5.934,3.194 "/>
<polygon fill="#FFFFFF" points="3.945,11.75 7.921,11.75 5.933,9.762 "/>
<polygon fill="#FFFFFF" points="8.213,7.483 10.201,9.471 10.201,5.495 "/>
<polygon fill="#FFFFFF" points="1.667,9.471 3.655,7.483 1.667,5.496 "/>
<polygon fill="#929497" points="5.934,1.229 3.969,3.194 5.934,3.194 "/>
<polygon fill="#C5C7C9" points="5.934,1.229 5.934,3.194 7.9,3.194 "/>
</svg>
