<?xml version="1.0" encoding="utf-8"?>
<!-- Generator: Adobe Illustrator 17.0.0, SVG Export Plug-In . SVG Version: 6.00 Build 0)  -->
<!DOCTYPE svg PUBLIC "-//W3C//DTD SVG 1.1//EN" "http://www.w3.org/Graphics/SVG/1.1/DTD/svg11.dtd">
<svg version="1.1" id="Vrstva_1" xmlns="http://www.w3.org/2000/svg" xmlns:xlink="http://www.w3.org/1999/xlink" x="0px" y="0px"
	 width="62.125px" height="17.25px" viewBox="0 0 62.125 17.25" enable-background="new 0 0 62.125 17.25" xml:space="preserve">
<polygon fill="#FFFFFF" points="9.266,5.439 9.266,6.253 7.534,6.253 7.534,11.634 6.709,11.634 6.709,6.253 4.977,6.253 
	4.977,5.439 "/>
<polygon fill="#FFFFFF" points="12.417,5.439 12.417,6.253 11.576,6.253 11.576,10.82 12.417,10.82 12.417,11.634 9.91,11.634 
	9.91,10.82 10.751,10.82 10.751,6.253 9.91,6.253 9.91,5.439 "/>
<g>
	<path fill="#FFFFFF" d="M15.337,5.315c1.336,0,2.079,0.903,2.079,2.23v0.16h-0.825V7.581c0-0.859-0.38-1.452-1.254-1.452
		c-0.874,0-1.336,0.602-1.336,1.682v1.451c0,1.08,0.462,1.682,1.336,1.682c0.874,0,1.254-0.584,1.254-1.452V9.368h0.825v0.124
		c0,1.381-0.743,2.266-2.079,2.266c-1.369,0-2.161-0.92-2.161-2.531V7.846C13.176,6.235,13.968,5.315,15.337,5.315"/>
	<path fill="#FFFFFF" d="M21.985,8.122h1.55c0.594,0,0.974-0.328,0.974-0.921V7.148c0-0.566-0.405-0.894-0.99-0.894h-1.534V8.122z
		 M21.977,10.821h1.542c0.585,0,0.99-0.328,0.99-0.903V9.865c0-0.593-0.38-0.929-0.974-0.929h-1.558V10.821z M23.593,5.44
		c0.998,0,1.707,0.584,1.707,1.611v0.106c0,0.681-0.42,1.15-0.973,1.31v0.124C24.88,8.759,25.3,9.228,25.3,9.909v0.106
		c0,1.027-0.717,1.62-1.707,1.62H21.16V5.44H23.593z"/>
	<path fill="#FFFFFF" d="M27.099,8.343h1.435c0.701,0,1.039-0.354,1.039-0.983V7.219c0-0.558-0.338-0.965-1.039-0.965h-1.435V8.343z
		 M28.649,5.44c1.081,0,1.749,0.726,1.749,1.69v0.089c0,0.823-0.471,1.195-0.842,1.38v0.124c0.38,0.036,0.66,0.346,0.66,0.762v2.15
		h-0.825v-2c0-0.301-0.115-0.478-0.445-0.478h-1.847v2.478h-0.825V5.44H28.649z"/>
</g>
<polygon fill="#FFFFFF" points="32.922,5.439 34.539,10.838 34.654,10.838 34.654,5.439 35.479,5.439 35.479,11.634 33.945,11.634 
	32.328,6.236 32.213,6.236 32.213,11.634 31.388,11.634 31.388,5.439 "/>
<g>
	<path fill="#FFFFFF" d="M37.342,9.298c0,1.062,0.429,1.646,1.287,1.646c0.858,0,1.287-0.584,1.287-1.646V7.775
		c0-1.062-0.429-1.646-1.287-1.646c-0.858,0-1.287,0.584-1.287,1.646V9.298z M38.629,5.315c1.303,0,2.111,0.921,2.111,2.496v1.451
		c0,1.576-0.775,2.496-2.111,2.496c-1.336,0-2.112-0.92-2.112-2.496V7.811C36.517,6.236,37.293,5.315,38.629,5.315"/>
</g>
<polygon fill="#FFFFFF" points="51.699,8.82 51.699,8.218 53.596,6.183 54.091,6.714 52.994,7.891 52.755,8.077 52.78,8.156 
	53.076,8.13 57.473,8.13 57.473,8.909 53.076,8.909 52.78,8.882 52.755,8.962 52.994,9.147 54.091,10.325 53.596,10.856 "/>
<path fill="#FFFFFF" d="M1.751,1.849h59.113v13.866H1.751V1.849z M1.476,16.01h59.662V1.554H1.476V16.01z"/>
</svg>
