<svg id="Vrstva_1" data-name="Vrstva 1" xmlns="http://www.w3.org/2000/svg" viewBox="0 0 2657.08 1824.11"><defs><style>.cls-1,.cls-4{fill:#00006c;}.cls-2,.cls-3{fill:none;}.cls-3{stroke:#000;stroke-linecap:round;stroke-linejoin:round;stroke-width:3.1px;}.cls-4{font-size:16.62px;}.cls-4,.cls-6{font-family:PlusssBrrrno-Regular, PlusssBrrrno;}.cls-5{letter-spacing:-0.04em;}.cls-6{font-size:22.99px;fill:#e8002a;}.cls-7{letter-spacing:-0.04em;}.cls-8{letter-spacing:0em;}.cls-9{letter-spacing:-0.02em;}.cls-10{letter-spacing:-0.06em;}.cls-11{letter-spacing:-0.02em;}.cls-12{letter-spacing:-0.02em;}.cls-13{letter-spacing:-0.07em;}</style></defs><title>brrrno2_mapa</title><rect class="cls-1" y="3.65" width="2657.08" height="1822.48"/><polygon class="cls-2" points="1442.15 443.49 1419.95 453.88 1464.47 599.34 1547.77 574.72 1502.62 425.43 1442.15 443.49"/><path class="cls-2" d="M1560.77,588.49h-.06l-99.4,29.38h0l-.07,0L1396,638.06l18.87,60,188-8.35-.38-2v-.08l0-.09-17.82-106Z"/><path class="cls-2" d="M1586.49,978.64l-.72-1.73-58.17-65.56a7.77,7.77,0,0,1-.82-1.09l-9.58-15.14-30.83-43.27L1466.27,865l-56.59,37.2L1347.17,943l43.76,65.79,26.92,40.69,14.09,21.62,105.26-55.22Z"/><path class="cls-2" d="M1392.51,1196.63l6.65-1.8,2.59-.86,61.13-21.38-10.79-37.88-28.86-39.36-36.69,21.91a9.4,9.4,0,0,1-1,.51l-1.67.72-11.18,6.71,10.45,37.28Z"/><path class="cls-2" d="M1557.62,785.28l40.66-20.64a8.58,8.58,0,0,1,.82-.37l37-14.11-7.37-43.75-15.55-.25-192.74,8.57,15,43.89,1.92,2.79,12.58,15c.15.19.3.37.43.57l13.92,19.79,26,32.3,66.5-43.36A6.8,6.8,0,0,1,1557.62,785.28Z"/><path class="cls-2" d="M984.89,1248.76l-11.54-44-47.78,14.42,8.9,37.64,14,56.5a11.5,11.5,0,0,1,.2,1.31l9.07.72,39.66-13.61-11-46.79Z"/><path class="cls-2" d="M1050.84,1052.29l-40.14,39-20.61,43.58-3,29.83-.28,11.59L994,1173a9.11,9.11,0,0,1,3.71-.74l91.72,2.49,8.66-.27,44.35-13.15a9.82,9.82,0,0,1,1.31-.27l49.43-6.26a8,8,0,0,1,1.69,0l6,.46-9-60.62-5.63-18.94-16.77-38.83-29.32-22.71-5.9-2.5-20.7,9.41-.39.16-32.48,12.87Z"/><polygon class="cls-2" points="1356.42 487.42 1391.88 621.67 1448.3 604.23 1404.66 461.62 1356.42 487.42"/><path class="cls-2" d="M1334.7,487.54l-.37-.15-6.9-3.1-1.22,22.88v.17a1.6,1.6,0,0,0,0,.43l-18.41,177.16,3,1.13a8.44,8.44,0,0,1,5.43,8l80.93,3.73-17.33-55.11a2.38,2.38,0,0,1,0-.26c0-.1-.08-.2-.11-.3l-1.87-7.82-38.28-144.89Z"/><path class="cls-2" d="M1239.2,1188.14a8.73,8.73,0,0,1-.44-1.57l-1.65-9.3-4-1.46-1.31-.19-21.87-2.77-15.51-1.17-47.91,6.06-17.49,5.13-.49.15,18.11,5.57,49,14.36a8.42,8.42,0,0,1,5.33,4.65l1.11,2.47,41.24-11.26Z"/><path class="cls-2" d="M1083.84,799.73l30.34,76.95c0,.07,0,.15.06.23a6.63,6.63,0,0,1,.25.9c.06.25.13.5.17.75s0,.53.06.8c0,.11,0,.23,0,.34l28.94-15.65,60.73-53.62-1-.72-26.35-19.14a8.2,8.2,0,0,1-1-.86l-16.14-16.14-19.58-18c-.22-.22-.44-.44-.64-.67l-16.9-19.4a8.25,8.25,0,0,1-.82-1.12l-13.2-21.49-.75-1-48.75,29.2-6.2,4.23,30.27,53.32A9.41,9.41,0,0,1,1083.84,799.73Z"/><path class="cls-2" d="M1116.17,922.63l1.57,3.76-1.62.67,4.78,16.33,13.95,36.27,6,16.4,7,3a8.32,8.32,0,0,1,1.87,1.09l27.43,21.25,86.43-49.73.1,0a.18.18,0,0,1,.07-.05l6.88-3.76,41.87-23.7a8.51,8.51,0,0,1-2.81-2.48l-14.21-20.09-17-20.72-9.19-11.73a7.17,7.17,0,0,1-.45-.63l-5.92-9.18-8.36-9.54a8.9,8.9,0,0,1-.73-1L1247,858.35l-23.42-31-2.86-2.6-.4-.38-2.83-2.94-63.38,56a8.47,8.47,0,0,1-1.57,1.09l-43.74,23.66,6.15,21Z"/><path class="cls-2" d="M1119,698.6l1.39-.32,11.86-7.9a8.37,8.37,0,0,1,3.54-1.35l6.31-5.92c.08-.07.16-.15.24-.21l19.08-16.58a8.46,8.46,0,0,1,5.15-2.07l33.78-1.56a7.8,7.8,0,0,1,1.67.09l3.51.53-1.78-6.7-28.06-96-15.47-50-59.78,61.36a4.82,4.82,0,0,1-.43.36c-.15.14-.28.29-.44.42l-42.48,33-.76,2.86,60.5,87.3Z"/><path class="cls-2" d="M1708.21,684.54a1.84,1.84,0,0,0-.09-.25l-35.24-129.84L1601,576.6l18.16,108.06.89,4.71,15.93.22h.19l74.09,1.21-2-6C1708.24,684.68,1708.23,684.61,1708.21,684.54Z"/><path class="cls-2" d="M1707.58,728.1c.24-.06.47-.13.71-.17l13.45-2.82h.13l.21-.06.81-.13-7-17.06-3.93-.13-66-1,6.41,38.06Z"/><polygon class="cls-2" points="1278.42 982.72 1307.82 1053.89 1345.88 1032.84 1345.88 1032.84 1371.82 1018.15 1371.82 1018.15 1371.94 1018.08 1329.32 953.91 1278.76 982.53 1278.42 982.72"/><path class="cls-2" d="M1358.16,1114.22l.17-.09.14-.1,17.2-10.32a8.16,8.16,0,0,1,1-.52l1.67-.72,35.27-21.06-13.3-20.42-26.14-39.51-.36.21h0l-26,14.7h0l-38.44,21.33,28,70.18Z"/><path class="cls-2" d="M1313.46,830l.53,18,4.79,19.79,2.84,12.29,2.22,10.81,19.45,29.62a8.52,8.52,0,0,1,1.32,4L1400.42,888l56.6-37.22,19.09-12.45L1451,807.18l-.33-.44L1436.81,787,1424.21,772a7,7,0,0,1-.46-.61l-2.82-4.06a8.55,8.55,0,0,1-1-2.07L1402.67,715l-89-4.09-.69,3.54-2.44,39.73.92,21.1.92,14.21.61,15.86a8.83,8.83,0,0,1,.09,1.27,8.55,8.55,0,0,1-.29,2.22l.5,17.16,4.2.17-.16,4.06Z"/><path class="cls-2" d="M1271.05,1159l51.52-22.81-3-7.47-26.26-65.66-29.76-72-76.47,44,14.85,34.38a8.13,8.13,0,0,1,.34.94l5.94,20a8.45,8.45,0,0,1,.27,1.21l1.56,11,8.12,54.32,18.19,2.33a8.4,8.4,0,0,1,1.71.43l7.44,2.73Z"/><polygon class="cls-2" points="1751.29 288.59 1755.63 297.98 1812.64 259.11 1805.51 251.52 1751.29 288.59"/><path class="cls-2" d="M1881.91,380.35l-16.21-22.74-13.92-17.19-16.59,32-10.48,46.21,6.08,25.83,9,15,15.85,11.66,12.59,2,19.09-10.6a2,2,0,0,1,.85-.26l39.54-2.65-2.52-11.1Z"/><path class="cls-2" d="M1815.35,262.19l-58,39.53,2,4.41L1780,340.69a1.66,1.66,0,0,1,.15.33l9.39,25,4.57,11.59L1821.61,414l9.67-42.66a1.81,1.81,0,0,1,.18-.49l17.69-34.16L1816.81,264Z"/><path class="cls-2" d="M1935.76,493.29l-7.11-29.61-39.75,2.67-18.14,10.08,5.5,56.23a2,2,0,0,1-.81,1.83l-6,4.54,24.92,41.09,69.07-41.69L1936,493.88A2,2,0,0,1,1935.76,493.29Z"/><polygon class="cls-2" points="1731.37 314.52 1752.18 300.33 1747.86 290.92 1726.07 305.74 1731.37 314.52"/><path class="cls-2" d="M1711.89,315.28l-6.1,4.27,0,0,0,0-78.31,53.54,2,4.16L1716.25,516l77.23-49.25,7-5L1712,315.18Z"/><polygon class="cls-2" points="1518.82 420.66 1563.97 569.95 1589.1 562.61 1675.75 535.89 1697.74 525.93 1614.44 392.87 1518.82 420.66"/><path class="cls-2" d="M1721.35,199l4.09,62.56,15.66,13.49.14-.1h0l52.82-36.05-5.56-6.31Z"/><path class="cls-2" d="M1872.1,531.92l-5.36-54.86-12.21-1.94a2,2,0,0,1-.89-.37l-16.58-12.2a2,2,0,0,1-.54-.59l-8-13.31-8.39,9.15,47.13,77.73Z"/><polygon class="cls-2" points="1755.82 308.04 1753.92 304.06 1734.96 316.99 1774.28 382.12 1785.31 366.46 1776.37 342.61 1755.82 308.04"/><path class="cls-2" d="M1382.67,1269l3.52,10.08,30.66,14.23,53.69,7.67,21.83-7.48-6.53-29.13-14.93-64.07-3.34-11.42-63.3,22.09-.46.14-14,3.79-27.6,15.63,7.44,15.74,12.34,21.28A7.88,7.88,0,0,1,1382.67,1269Z"/><path class="cls-2" d="M1634.92,933.28l.17-.18,30-25.65,26.09-22.08,22-141.22-1.14.23-63.79,19.21-42.78,16.31-39.86,20.24-65.14,42.47,30.56,42.9a4.4,4.4,0,0,1,.26.39l9.34,14.75,58.66,66.12a3.55,3.55,0,0,1,.23.31l35.16-33.66C1634.8,933.37,1634.87,933.33,1634.92,933.28Z"/><path class="cls-2" d="M1720.3,862.06l0,0,3-2.17L1736,741.36l-2.42-1.11-2.71.45-20,128.52,9.42-7.13Z"/><path class="cls-2" d="M1044.59,730.68l5.35-3.65a3.87,3.87,0,0,1,.43-.27L1098,698.24l-53.39-77-39.08,21.54-3.31,2.09,15.4,39.82Z"/><path class="cls-2" d="M1316.2,1295.73l13.14,46.65,51.81-12.18-9.88-42.66-4.28-12.26-8.63-14.88L1310,1277l6.12,18.34C1316.13,1295.47,1316.17,1295.6,1316.2,1295.73Z"/><path class="cls-2" d="M1826.66,444.68l-5.92-25.11-30.08-39.7a2.12,2.12,0,0,1-.27-.49l-3.3-8.38-10.52,14.92,41.36,68.22Z"/><path class="cls-2" d="M1740.69,856h16.21L1862,796.37l-58-96.94-54,30a8.45,8.45,0,0,1,3.37,7.66Z"/><path class="cls-2" d="M1761.2,630.71l-54.52-90.28-17.91,8.11,35.59,131.08,2.12,6.35c0,.12.07.23.1.35l3,10.5.07.15,60.74-19.77Z"/><path class="cls-2" d="M1801.07,620.43a8.42,8.42,0,0,1,1.24-3.8l4.06-6.57a8.56,8.56,0,0,1,3-2.88l19.08-10.95a8.5,8.5,0,0,1,4.21-1.12h6.56a8.69,8.69,0,0,1,2.68.43l7.5,2.51a8.48,8.48,0,0,1,3.61,2.36l11.26,12.51a8.12,8.12,0,0,1,.76,1l14.07,21.21,18.17-10.53-3.21-10-84.81-138.41-6.06,4.38-.4.27-77.67,49.53,54,89.34,32.19,51.4,6.1-1.55a8.33,8.33,0,0,1-1.17-1.57l-10-18.14a8.34,8.34,0,0,1-.73-1.78l-4.69-16.58a8.65,8.65,0,0,1-.3-3Z"/><path class="cls-2" d="M860.37,1351.44l5,17,6.93,23.37,15-25.2,5.2-17.42,2.34-19.36L822.06,1272l1.87,11,11.31,19.26,27.74,34.6a2.06,2.06,0,0,1,.4,1.74Z"/><path class="cls-2" d="M892.65,1410.26a9.94,9.94,0,0,1,.61-2.23l24.4-61.63c.05-.13.1-.25.16-.38l-19.15-13.42-2.1,17.28a1.3,1.3,0,0,1-.07.33L891.19,1368a1.92,1.92,0,0,1-.21.46l-17.11,28.74,5.78,28a2.47,2.47,0,0,1,.05.38l.3,16.29,7.66,11.35,3.89.9-2.39-19.07a10.65,10.65,0,0,1,.05-2.93Z"/><path class="cls-2" d="M817.15,1267.26v0L814,1234.09h0l-.54-5.38-30.65-.69.57,3.59h0L791,1278.9l28.74,18.6a8.46,8.46,0,0,1,3.36,4.23l19.33,53.62,14.15-5.36,2.66-11.43-27.22-34a2.13,2.13,0,0,1-.16-.25l-11.58-19.7a2.12,2.12,0,0,1-.25-.69l-2.81-16.58s0,0,0-.06A.19.19,0,0,1,817.15,1267.26Z"/><path class="cls-2" d="M1945.64,720.23l-9.42-21.47-31.94-54-54.19,31.4L1823.41,691l61.07,102.08s0,.05,0,.08l0,.06,23.15,40a10.68,10.68,0,0,1,1.35,4.15l1.23,11.73,14-10.13-4.47-32.88a10.42,10.42,0,0,1,.38-4.54Z"/><path class="cls-2" d="M1336.69,257.77v27.49l6.19,38.91,13.59-3.59,3.33-5.82a2,2,0,0,1,1.12-.93l6.57-2.19a2.07,2.07,0,0,1,1.86.31l5.48,4.11,45.66-11.64-.27-14.37-9.16-15.66L1367.73,249a2.62,2.62,0,0,1-.32-.23l-24.85-22Z"/><path class="cls-2" d="M1922.45,634.27l32.13,54.36c.11.19.17.39.27.58s.22.35.3.54l11.26,25.65a10.49,10.49,0,0,1,.41,7.34L1963,734.93l3-5.38a8.58,8.58,0,0,1,1.39-1.83l14.08-14.08a8.59,8.59,0,0,1,1.79-1.37l53.8-30.65a8.48,8.48,0,0,1,3-1l15.64-2.19a8.38,8.38,0,0,1,2.5,0l13.76,2.18a8.77,8.77,0,0,1,2.72.93l27.54,15,0-.14-76.1-121.61Z"/><path class="cls-2" d="M777.36,967.27a2,2,0,0,1-.36.41l-18.13,15.15,34.06,11,9.22.28,5-4.51.59-18.33-1.85-11.7-2.46-19.37-1.05-1.84a1,1,0,0,1-.12-.26l-21-52.86-18.76-46-9.76-32.72a1.31,1.31,0,0,1-.06-.27L748,775.35l-8.7-.49-11.39,6.55-3.49,8.42a1.88,1.88,0,0,1-.4.63L717.73,797a2.08,2.08,0,0,1-.83.53l-8.44,2.81a1.72,1.72,0,0,1-.6.1l-12.82.32-5.58-.53L752,890.51l13.19,21,22.85,38.2A2.06,2.06,0,0,1,788,952Z"/><path class="cls-2" d="M1424.28,289.45l.26,13.94,31.37-8,20-10.59-42.76-23.35-.41-.23-1.41-.86-16.17,13,8.81,15.07A2,2,0,0,1,1424.28,289.45Z"/><polygon class="cls-2" points="1348.84 210.2 1343.67 222.31 1369.96 245.6 1412.37 270.44 1427.66 258.13 1395.55 238.7 1348.84 210.2"/><path class="cls-2" d="M1098.41,40.51,1078.88,79l15,29.8L1183.67,127a2,2,0,0,1,1.21.76l4.55,6,20-16.64-12.09-29.48a10.27,10.27,0,0,1-.63-2.18L1183.26,8.18l-.41-4.53H1125.6Z"/><path class="cls-2" d="M1328.4,12.89a2,2,0,0,1,.92.62l1.88,2.19,3.82,5,32.06-17.07h-67.49Z"/><path class="cls-2" d="M119.62,12.69l1.16,4.88,11,47.93,10.32,44.39,15.63,66.29,22.53,97.32c.06.25.1.5.14.76l1.25,9.07c0,.25.06.51.07.77l.29,6.48,91.68,45.84a11,11,0,0,1,1.46.89L302.32,357,442.68,457.45l28.6-22.89L562.2,321.5,573.58,309l22.29-21.8a8.71,8.71,0,0,1,1.76-1.32l32.22-18.14.09,0,.08-.06,59.63-31.82a10.39,10.39,0,0,1,4.49-4.7l53-28.13-45.49-42.21-34.37-31.56L532.05,3.65H169.93Z"/><polygon class="cls-2" points="1362.94 317.45 1360.47 321.77 1365.41 325.43 1369.2 324.38 1371.83 318.89 1367.76 315.84 1362.94 317.45"/><path class="cls-2" d="M1351.78,35.05l12.65,7.1,42,27,60.7,36.12,19.91-35.82-61.4-33.08a2,2,0,0,1-.5-3.2l19.25-19.92-4.27-2.28-13.36-7.28h-23.47Z"/><path class="cls-2" d="M1203.91,4.56l13.26,76.17,9.17,22.35,55-45.64c.25-.2.51-.4.77-.58L1331.57,23l-5-6.41L1286.28,3.65h-82.5Z"/><polygon class="cls-2" points="681.39 113.74 715.84 145.38 766.5 192.38 851.47 143 909.1 91.71 887.27 60.46 836.09 3.65 569.5 3.65 681.39 113.74"/><path class="cls-2" d="M901.29,44.71l15.15-1.87,37.5-12.68,1.18-1.25a10.69,10.69,0,0,1,2.23-1.79l2.21-23.47H866.17Z"/><polygon class="cls-2" points="976.76 36.95 969.38 44.34 954.06 60.59 1031.32 91.5 1075.17 77.28 1094.33 39.57 1118.76 3.65 982.36 3.65 976.76 36.95"/><path class="cls-2" d="M1335.26,330.84h0l-21,6.26h0l-6.34,1.75,4.61,12a8,8,0,0,1,.47,1.83l4.38,30.66,6.9,50.13a.57.57,0,0,0,0,.13.5.5,0,0,0,0,.13l3.26,32.06,13.5,6.05,4.94,1.94,59.67-31.9h0l0,0,.4-.2,29.41-13.77a9,9,0,0,1,1.16-.44l69.09-20.63h.1l100.38-29.17-.79-1.63-7.2-15.48-114.41-71.39-3.67-2-22.62,12a1.85,1.85,0,0,1-.44.18l-34.1,8.76-47.25,12-3.34,7a2.1,2.1,0,0,1-1.29,1.08l-5.63,1.56a2.09,2.09,0,0,1-.55.08,2.06,2.06,0,0,1-1.21-.4l-6.41-4.74-15.55,4.11-6.53,2.17Z"/><path class="cls-2" d="M1286.68,1412.26l-24.08,7.58,2.73,12.57a2,2,0,0,1,0,.78l-1.18,6.75,11.14,40.54,1.34,3.62,26.81-13.82Z"/><polygon class="cls-2" points="1124.38 1342.12 1128.63 1348.03 1140.05 1331.2 1108.29 1320.3 1124.38 1342.12"/><path class="cls-2" d="M1121.82,1434.44l2.13,1.15,16.18-.55a8.13,8.13,0,0,1,2.45.28l19.88,5.26,30.79-2.39a5.41,5.41,0,0,1,.9,0l23.83.69-.55-17.91-4.75-7.78-15-10.09-54.29-22.83c-.15-.06-.26-.15-.4-.21s-.2-.06-.3-.12l-9.2-4.89-13.6,38.84Z"/><polygon class="cls-2" points="1023.64 1280.73 1008.17 1273.55 1011.52 1287.79 1023.64 1280.73"/><path class="cls-2" d="M1190,1224.21c0-.07,0-.14-.09-.21s-.16-.27-.22-.42l-2.48-5.52-45.37-13.29-43.49-13.39-8.61.27h-.49l-90-2.45-11.13,5,14.14,54.07,9.89,8.44,33.36,15.47.1,0,0,0,.24.12,47,24.72,58.68,20.14,42.62-35.71h0l18.77-15.85Z"/><path class="cls-2" d="M854.52,670.5A8.43,8.43,0,0,1,846.3,664L818.92,548.64,761,564.54l3.92,16.58,34.52,141.19,42.69-10.61,73.42-18-9.07-37.26L856.76,670.2A8.51,8.51,0,0,1,854.52,670.5Z"/><path class="cls-2" d="M976.42,618.77,939.69,489.66,867.64,529c-.12.07-.25.12-.37.18l-.16.08-.18.09-32,13.77,25.74,108.45L927,633.27Z"/><path class="cls-2" d="M1100.23,1505.07l17.84,3.8,6.78-4.8a2,2,0,0,1,1.69-.31l68.73,18,14.57-2.08,16.57-8.9a2,2,0,0,1,.92-.24l16.31-.32,31.92.91.67-1.34a2,2,0,0,1,1.21-1l6.88-2.13-5.71-12.86-.6.3a2,2,0,0,1-.9.21,2.11,2.11,0,0,1-.82-.17,2.06,2.06,0,0,1-1.14-1.29l-1.56-5.32-1.79-4.85-17.16-5-.07,0a2.19,2.19,0,0,1-.4-.21,1.89,1.89,0,0,1-.3-.19l-.07,0-23.5-22.51a8.66,8.66,0,0,1-4.74,1.33l-31.45-.93-31.77,2.47-.66,0a8.38,8.38,0,0,1-2.16-.29l-20.06-5.31-17.21.59a8.58,8.58,0,0,1-4.3-1l-8.13-4.38-.2-.13c-.28-.17-.54-.36-.81-.55s-.36-.26-.53-.4-.44-.44-.65-.66-.31-.32-.45-.49a9.74,9.74,0,0,1-.56-.86c-.09-.16-.21-.3-.29-.47a7.88,7.88,0,0,1-.44-1.08c-.05-.13-.12-.26-.16-.39-.08-.28-.11-.57-.17-.86s-.11-.49-.14-.74v0l-2.5-26.91a8.35,8.35,0,0,1,.43-3.57l16.07-45.9-8.69-12.06-22.78-30.9a8,8,0,0,1-.84-1.4l-4.11-8.71-40.91-21.53-31.93,18.6a8.43,8.43,0,0,1-7.59.46,7.74,7.74,0,0,1-1.18-.69l-13.07,12.79,3.35,34.06,11.47,51.07,19.26,33.94,15.73,8.17a1.67,1.67,0,0,1,.28.18l21.27,16,.23.2,15,15.33a2.22,2.22,0,0,1,.39.57l5.7,12.3Z"/><polygon class="cls-2" points="1075.69 1490.64 1071.78 1482.19 1057.12 1467.22 1036.1 1451.46 1021.46 1443.86 1006.13 1462.81 1010.76 1471.8 1075.69 1490.64"/><path class="cls-2" d="M1224,651l4.29,16.16,6.31,1.26,27.12,2.77a8.43,8.43,0,0,1,5.16,2.48l2.37.43.28,0,21.9,4.74L1308,519.71l-110,42.23Z"/><path class="cls-2" d="M1602.72,1116.28l25-20.33,0,0c.22-.17.47-.31.71-.46a6.77,6.77,0,0,1,.75-.48l0,0,18.15-9.07,3.12-1.61-16.89-30.55-39.77-59.51-47.07,35.58a10.05,10.05,0,0,1-1.17.74l-104,54.54,28.42,38.77a10.7,10.7,0,0,1,1.63,3.32l13.45,47.24,3.82,13.09,85.87-16.33,16.45-3,14.67-13.29-6.23-30.31A8.47,8.47,0,0,1,1602.72,1116.28Z"/><path class="cls-2" d="M1909,606.65a8.12,8.12,0,0,1,.84,1.82l2.42,7.5,103.42-59.29-6-10.92-28.32,17a1.72,1.72,0,0,1-.31.29,2.07,2.07,0,0,1-.56.23l-68.9,41.39-2.86,1.56Z"/><polygon class="cls-2" points="1896.44 583.59 1907.8 602.1 1909.55 601.15 1977.1 560.57 1965.53 541.89 1896.44 583.59"/><path class="cls-2" d="M996.76,628.29l.38-.22,38.1-21L960,489.11l-3.6-2.48L995,622.19Z"/><path class="cls-2" d="M1261.27,1432.89l-3-13.78-13.66-29.19-16.24-31.86-26.91-60.66-41.9,35.11L1141,1359.88l9.3,4.95,54.7,23a8.38,8.38,0,0,1,1.44.78l17.2,11.57a8.38,8.38,0,0,1,2.49,2.61l6.88,11.26a8.34,8.34,0,0,1,1.24,4.15l.62,20.64a6.47,6.47,0,0,1,0,.88l-.62,8.45a8.37,8.37,0,0,1-1.12,3.55l23.15,22.17,14.17,4.15-10.3-37.46a2.06,2.06,0,0,1,0-.89Z"/><polygon class="cls-2" points="984.73 1325.68 979.26 1333.69 972.78 1350.67 970.85 1354.87 961.53 1381.63 976.65 1407.22 998.74 1404.79 987.66 1355.39 984.73 1325.68"/><polygon class="cls-2" points="1018.47 1441.09 1000.11 1408.73 978.76 1411.08 1004.08 1458.89 1018.47 1441.09"/><path class="cls-2" d="M2055.28,1428.48l-8.14,2.44a8.87,8.87,0,0,1-1.85.34l-45.67,3.13h0l-20.58,1.55-41.84,3,1,31.4,6.17,41.06,60.66,4.65a10.19,10.19,0,0,1,1.09.15l17.83,3.76h0l52.51,10.81,41.08,2.09,16.24-87.71L2100,1429.06Z"/><polygon class="cls-2" points="385.12 1108.33 336 1103.28 288.9 1094.18 243.94 1079.73 173.82 1055 145.19 1042.11 117.03 1025.22 116.11 1026.8 112.53 1069.16 275.72 1122.64 385.12 1108.33"/><polygon class="cls-2" points="332.87 1135.13 275.46 1126.76 184.54 1133.9 157.87 1150.73 225.07 1169.93 349.12 1188.14 437.56 1176.82 412.21 1156.29 332.87 1135.13"/><polygon class="cls-2" points="613.86 971.66 570.81 943.61 553 972.23 597.2 976.57 613.86 971.66"/><path class="cls-2" d="M492.49,884.31,494,869.25l.61-15.83L494,842.85l-6.93-28.34-69.2-36.88-5.9,3.48a1.52,1.52,0,0,1-.47.2l-17.94,5.22-.92,62.31a2.07,2.07,0,0,1-.45,1.24L377,868.94l-.29,10.31,34.17,4.56L426,844.33a2,2,0,0,1,1.13-1.16,2.07,2.07,0,0,1,1.62,0l11.57,5.31a2.06,2.06,0,0,1,.86.74l4.6,7,10.63,11.55,34.57,20.51Z"/><polygon class="cls-2" points="518.39 909 490.96 893.11 463.49 876.81 510.16 935.76 526.54 957.72 532.17 961.27 548.87 971.17 567.41 941.38 518.39 909"/><polygon class="cls-2" points="357 1355.37 378.82 1368.36 444.04 1396.03 435.28 1317.21 357 1355.37"/><path class="cls-2" d="M502.29,1332.06l12.95-5.3a8.43,8.43,0,0,1,5.23-9.07l4.56-1.8-10.93-34.43-36.28,13-36.84,20a3,3,0,0,1-.4.21l-1.42.69,4,36.34Z"/><path class="cls-2" d="M770.91,1207a11,11,0,0,1,1.89-.13l41.91.94.42,0,24.86,1.55,47.91,1.5,12.88-4.57-19.9-77.07-24.61,6.21a9.5,9.5,0,0,1-1.4.23l-239.51,18.85L621,1185v.06l6.85,44.69Z"/><path class="cls-2" d="M876.68,1112.84l-13.88-54.49-4.82.8a2,2,0,0,1-.34,0,2,2,0,0,1-1.83-1.15l-19.08-39.41-15.09-41.8-6.28-19.47-1.73-4.6-5.32-6.47,1.62,12.7,1.86,11.82a2.56,2.56,0,0,1,0,.39l-.63,19.39a2,2,0,0,1-.67,1.45l-6.25,5.63a2.08,2.08,0,0,1-1.36.52h-.07l-10.32-.32a1.77,1.77,0,0,1-.56-.09l-37.71-12.16-29-5.29L662.51,961l-17.68.9L619.56,974.2a1.75,1.75,0,0,1-.32.12l-20.9,6.15-12.21,9.46a2.07,2.07,0,0,1-.79.38l-31.28,7.19-24.57,4.36L506.56,1012l-33.09,30.62-29.29,38.33-15.29,21.53a2,2,0,0,1-.79.66l-10.63,5a2.61,2.61,0,0,1-.27.06,2,2,0,0,1-.34.12l-126.5,16.54,43.33,6.33,80,21.32a2,2,0,0,1,.76.38l28.7,23.26,36.31-4.65,130.24-33.34a8.72,8.72,0,0,1,1.43-.24l241.71-19Z"/><path class="cls-2" d="M662.67,956.89a2.36,2.36,0,0,1,.7.09l62.87,19.39,27.92,5.09,20-16.73,9.73-14-22.16-37L749,893.33l-31.74-11.6-28.64-6.23L667,868.72l-17.6,25.52-4.32,56.49,1,7Z"/><path class="cls-2" d="M389.52,786.82l-7.22-.75-4.46-.63L323.5,771.32a1.85,1.85,0,0,1-.33-.12L274.68,749,165,702.53v2.38a2,2,0,0,1-.59,1.44l-2.5,2.5a2.09,2.09,0,0,1-.76.48l-4.38,1.56a2,2,0,0,1-1.22.05l-3.44-.94a2,2,0,0,1-1.21-.93l-2.63-4.44-23.87,27.68,12.49,5.46,0,0c.06,0,.11.08.16.11a2.3,2.3,0,0,1,.37.23l7.5,6.89a2,2,0,0,1,.54.82L153,767.11a2,2,0,0,1,.11.81l-5.94,88.84s0,0,0,.06,0,0,0,0l-1.83,15.28L148.17,884l9.73,8.85,57.22,36.38,132.72,48.19,13.91-4.18,14.9-56.92L373,914.81l0,0a2.44,2.44,0,0,1-.43-.28,1.84,1.84,0,0,1-.22-.17,2.16,2.16,0,0,1-.24-.35,2.29,2.29,0,0,1-.18-.29,3,3,0,0,1-.07-.32,1.78,1.78,0,0,1-.08-.47v0L373,868.15a2,2,0,0,1,.44-1.22l15.21-18.85Z"/><path class="cls-2" d="M538.57,1328.71h0l-11.88,4.69a8.41,8.41,0,0,1-9.9-2.88l-13.08,5.35-60,19.92,4.67,42.06,2.22.94,38,16.25,27.44,5.61,111.92.57-10.47-123.69Z"/><path class="cls-2" d="M664.21,865.64l.88-15.13-14.75-27.65a1.88,1.88,0,0,1-.16-.39l-16.84-58.81-51.42-7.8,1.51,6.46,4.33,20.77,11.38,24,12.39,16.42,5.59,9.29L636,849.47a2.09,2.09,0,0,1,.6.94l11.6,38.5Z"/><path class="cls-2" d="M498.08,842.43l.62,11-.62,16.15L496.51,885a2.11,2.11,0,0,1-.12.51l-1.89,5,26,15.08L569.62,938,594,901.73l-36.41-49.47-65.65-35.17,6.12,25A2.23,2.23,0,0,1,498.08,842.43Z"/><polygon class="cls-2" points="618.81 970.04 641.17 959.13 597.67 903.52 573.02 940.2 618.81 970.04"/><path class="cls-2" d="M150.56,696.78v3.82l3.37,5.69,2,.56,3.34-1.2,1.59-1.58v-2.91a1.75,1.75,0,0,1,0-.4l.25-1.27-.16-1.61-9.27-3.73-1.5.17-.11.15-.12.74.33.66A2,2,0,0,1,150.56,696.78Z"/><path class="cls-2" d="M101.18,748.83a2.07,2.07,0,0,1-.79.31l-47.65,8.1-5,2-1,7L66,812.83l6.74-.75,9.7-2.94,21-18.87,2.34-4.1a2.08,2.08,0,0,1,.92-.84l3.45-1.56a1.92,1.92,0,0,1,1-.18l5.63.31a2.06,2.06,0,0,1,1.39.66l3.13,3.44a2,2,0,0,1,.46.85l.72,2.69,2-.58,5.05-3.72,1.33-5.57-.27-6.12-5.38-5.39a2,2,0,0,1-.23-.27l-4.38-6.25a2,2,0,0,1-.28-1.75l2.5-8.44a2.05,2.05,0,0,1,.22-.5l6.26-10a1.91,1.91,0,0,1,.39-.46l2.59-2.27-11.06-4.84Z"/><polygon class="cls-2" points="115.68 787.91 111.38 787.67 108.99 788.76 107.26 791.8 108.34 795.27 111.07 797.09 113.72 797.33 117.45 796.63 118.84 793.84 117.92 790.37 115.68 787.91"/><path class="cls-2" d="M1037.77,1605.33l-136.38-49.11a8.46,8.46,0,0,1-2.51-1.43l-48.4-39.91L839.31,1561l5.54,47.81,146.55,3.28a7.82,7.82,0,0,1,1.28.13l73.56,13,3.11-6.22.73-5.78-31.43-7.61A8.89,8.89,0,0,1,1037.77,1605.33Z"/><path class="cls-2" d="M1981.79,1257.84l46.85-177.41,34.77-121.88c0-.08.05-.15.07-.23h0l26.14-84.12,16.32-67,3.33-52.61-4-37.1-37.4-20.4-11.08-1.76-12.78,1.79-51.41,29.29-12.45,12.45-7.44,13.22-27.16,87.85.34,2.48a10.49,10.49,0,0,1-4.25,9.91l-31.15,22.49-3.28,9.15-40.89,114.57-2.44,7.91-16.59,52.92c0,.11-.07.23-.11.34L1826,1120.25l-3.72,11.45-6.33,19.3,69.37,90.45,12.92,7.27,8.39,4.19,43.43,20,25.29,4.89Z"/><polygon class="cls-2" points="1774.71 1276.6 1861.34 1244.63 1808.02 1175.11 1774.71 1276.6"/><path class="cls-2" d="M1794.57,1148.78l11.52-35.12a.54.54,0,0,1,.05-.11.53.53,0,0,1,0-.12l21.21-60.52,16.6-53.09-52.38-18.24L1729,1165.91h0v0l-9.08,26.37,19.62,7.13,34.48,12.15,20-61.13A11,11,0,0,1,1794.57,1148.78Z"/><path class="cls-2" d="M1586.79,1414.34c-.15-.2-.27-.41-.4-.62s-.24-.35-.35-.54l0-.07-.07-.11-9.68-18.46-234.9,114,1.54,6.41a2.07,2.07,0,0,1-.49,1.86l-31.91,34.41a1.83,1.83,0,0,1-.46.37l-12.81,7.5a2.13,2.13,0,0,1-.56.23l-12.82,3.13a1.64,1.64,0,0,1-.38,0h-.11l-47.71,1.53-1.27,1.8,47.84,23.53,10.82-7.49a10.41,10.41,0,0,1,7.19-1.74l287.24-165-.23-.28C1587.09,1414.7,1586.93,1414.53,1586.79,1414.34Z"/><path class="cls-2" d="M649.79,1267.71l33.78,3.13a8.43,8.43,0,0,1,2.22.51l40.35,15.33a8.4,8.4,0,0,1,2.32,1.34L745,1301.47a8.68,8.68,0,0,1,1.58,1.68L767,1331.93a8.74,8.74,0,0,1,1,1.78l36.76,93.15,5.1,10.05,17.66-12.4,8.09-8.34,3.19-9.82.94-8.76-31.53-87.46L778.61,1291a8.44,8.44,0,0,1-3.75-5.76l-8.14-51h0l-.84-5.28-136.31,21.74-99.32,25.76,10.53,33.18,81-32h0l24.08-9.38A8.55,8.55,0,0,1,649.79,1267.71Z"/><polygon class="cls-2" points="1643.33 1616.63 1653.24 1634.63 1760.07 1572.89 1750.27 1556.64 1643.33 1616.63"/><path class="cls-2" d="M2073.66,1547.47l-53.17-10.94h0l-17.29-3.64-55.93-4.29,3.33,18.8c0,.1,0,.21,0,.32l2.81,19.39,4.8,36.82,7,30,8.57,21,12.22,23.25,14.24,19.39,31.29,40.59,22.67,26.71,18.57,22.1,41.67-237.29-39.57-2A7.88,7.88,0,0,1,2073.66,1547.47Z"/><path class="cls-2" d="M1718.31,1196.07,1703,1223.82l3.21,36.23a8.44,8.44,0,0,1-6,8.83l.24,5.91-4.07.16-.23-5.88a8.42,8.42,0,0,1-6.77-7.53l-2.29-25.8-72.45,40.55a8.5,8.5,0,0,1-1.87.78l-95.45,26.39,2.66,7,33.55,31.17,35.38,33.2a10,10,0,0,1,2.11,2.77l8.49,16.18,98.14-54,.07-.07h-.07l.94-7.82,4,.49-.4,3.35,21.87-19.41,25.07-29.16,23.52-71.69-34.59-12.18Z"/><polygon class="cls-2" points="752.57 1340.85 733.49 1313.85 718.87 1301.99 680.87 1287.55 650.22 1284.71 633.87 1291.08 644.89 1421.3 784.53 1421.84 752.57 1340.85"/><polygon class="cls-2" points="646.58 1564.43 645.49 1603.29 805.99 1608.34 827.82 1608.55 823.2 1568.74 646.58 1564.43"/><path class="cls-2" d="M1141.21,1559.54l-87.88-9c-.33,0-.65-.08-1-.14l-45.67-9.07a10.54,10.54,0,0,1-1.89-.57l-66.32-26.9a10.37,10.37,0,0,1-2.78-1.68l-28.78-24.09a10.33,10.33,0,0,1-2.59-3.24l-11-21.27a10.41,10.41,0,0,1-1.08-3.5l-.21-1.66L886,1457a2,2,0,0,1-1.23-.84l-8.45-12.51a2.08,2.08,0,0,1-.35-1.1l-.31-16.71-5.88-28.5L857,1354.2v0l-13.18,5,12.44,34.51a8.38,8.38,0,0,1,.46,3.78L855.41,1409a8.88,8.88,0,0,1-.37,1.7L851,1423.25a8.49,8.49,0,0,1-2,3.27l-10,10.32a9.22,9.22,0,0,1-1.21,1l-19.06,13.38,32.82,42.62,56.94,46.95,134.57,48.46,38.08,9.21,28.5,5a9.83,9.83,0,0,1,1.32.34l84.77,29.41a8.45,8.45,0,0,1,5.25,10.63l-8.11,24.56,14.16,5.54,54.31-69.54a9.76,9.76,0,0,1,1.25-1.32l-40-19.66Z"/><path class="cls-2" d="M722.91,1651.57l51-27.34-128.55-4,1.28,85.94,14.33.62.68-3.4a8.58,8.58,0,0,1,1.94-3.92l9.07-10.32a8.19,8.19,0,0,1,1.3-1.2l47.86-35.66A7.28,7.28,0,0,1,722.91,1651.57Z"/><path class="cls-2" d="M800,1454.57c-.05,0-.07-.12-.12-.18l-.1-.11c-.1-.15-.16-.31-.26-.45s-.26-.38-.36-.58l-7.36-14.49-146.12-.57,1.09,109.35,177.4,4.32,12.14-50.13Z"/><path class="cls-2" d="M1086.68,1616.61l-.76,5.93a8.59,8.59,0,0,1-.82,2.71l-1.14,2.27,17.51,5.17c.24.08.45.2.68.28s.47.14.7.24l20.91,9.53,53.3,19.66,5.28-16L1106.07,1620Z"/><path class="cls-2" d="M636.89,761.28,654,821.14l14.92,28a2.11,2.11,0,0,1,.23,1.08l-.85,14.68,21.33,6.72,28.59,6.21a1.2,1.2,0,0,1,.27.08L745,887.56,683.62,799l-29-39.05-17.88-26.35a2.06,2.06,0,0,1-.35-1.21l.26-7.84-28.22-8.82-25.92.87-1.12,35.08,53.9,8.17A2.05,2.05,0,0,1,636.89,761.28Z"/><path class="cls-2" d="M837.13,1625.54l-29.33-.29-76.36,40.91-46.64,34.75-5.67,6.45,53.7,1.55,33.55,1.25,283.16,8.46,3.46-58.35,0-.08a10.14,10.14,0,0,1,.17-1.06,9.23,9.23,0,0,1,.19-1.05.17.17,0,0,1,0-.07l4.87-17.07-67.88-12Z"/><path class="cls-2" d="M1094.34,244.33l-29.06-110.07-30.55-4.66-38.64,36,0,.07,7.91,14.65,84.61,89,13.52-17.62-7.21-6.31A2.05,2.05,0,0,1,1094.34,244.33Z"/><path class="cls-2" d="M889.22,1231.85l-50-1.57h-.33l-21.26-1.33.48,4.75h0l3,32.3,77.21,61.39,21.22,14.88,7-15.19,1.17-10.53-13.63-54.8-8.28-35-12.76,4.53A9.94,9.94,0,0,1,889.22,1231.85Z"/><path class="cls-2" d="M1295.41,1555.44l1.3-.78,11-6.43,31-33.39-1.28-5.36a8.48,8.48,0,0,1-6-2.55l-2,1.18h-.06s0,.05-.08.06L1308,1518.51l-28.13,14.06a2,2,0,0,1-.65.2l-36.28,4.69-30,4.18,29.89,7.48,12.86,3.45,27.59,5.82Z"/><path class="cls-2" d="M922,1473.4l25.9,21.67,63.86,25.92,44.21,8.78,88.34,9a10.19,10.19,0,0,1,1.89.37l83.2,24.4a10,10,0,0,1,1.28.5l2.24-3.19a2,2,0,0,1,1.6-.86l32-1-11.67-2.46-12.93-3.47-40-10-34.62-10-34.23-3.74-26.42-.61a2.33,2.33,0,0,1-.37,0L1084,1524a2,2,0,0,1-.52-.18l-21.11-11-8,.27-8.64,4.77a2,2,0,0,1-.83.25l-4.06.31a2,2,0,0,1-1.15-.25l-2.81-1.56a2,2,0,0,1-1-1.53l-.31-2.5a2.05,2.05,0,0,1,.08-.89l.94-2.82a2,2,0,0,1,.87-1.09l8.92-5.47.3-1.62-1.41-1.72-2.29.58-13.89,6.79a2.05,2.05,0,0,1-1.73,0l-3.44-1.56a2,2,0,0,1-1-.92l-15.17-29.19a2.38,2.38,0,0,1-.23-.45l-5.55-10.69h0l0,0-28.14-53.16-16.22-27.44a2.09,2.09,0,0,1-.17-1.71l9.7-27.84,1.95-4.25,6.52-17.08a1.88,1.88,0,0,1,.22-.42l8.75-12.82.09-.1a.27.27,0,0,1,.07-.08,1.13,1.13,0,0,1,.1-.13L997.5,1306l-38.79,13.31a1.74,1.74,0,0,1-.63.11h-.19l-9.32-.74-1.37,12.38a10.78,10.78,0,0,1-.9,3.24L937,1354.38l-23.86,60.28-3,19.29,2.71,21.71Z"/><path class="cls-2" d="M899.08,1115.87h0l20.54,79.51,50.21-14.15.42-17.32c0-.21,0-.41,0-.62l3.13-31.6a8.12,8.12,0,0,1,.77-2.77l21.9-46.31a8.28,8.28,0,0,1,1.75-2.44l41.91-40.67a8.34,8.34,0,0,1,1.49-1.15l31.28-19.08a7.75,7.75,0,0,1,1.29-.64l33-13.06,5.11-2.33-10.57-33.69-49.11,9.69-18.45-14.07-6.82-27.29-10.76-12.16a1,1,0,0,0-.08-.11A9,9,0,0,1,1015,924l0-.08,0,0-6.26-12.52a7.47,7.47,0,0,1-.47-1.13L989,852l-11.31-23.21-5.6-7.65-40.49,9.92a8.45,8.45,0,0,1-4-16.41l46-11.26a8.44,8.44,0,0,1,8.83,3.21l9.38,12.83a8.51,8.51,0,0,1,.78,1.29l11.88,24.4a8,8,0,0,1,.43,1l19.2,58.23,2.83,5.66,68.51-19.93,1.63-1,.7-8.12-29.39-74.55-33.79-59.53-31.86-54.34a7.73,7.73,0,0,1-.59-1.23L984,644.45s0,0,0,0l0-.1a5.34,5.34,0,0,1-.18-.52L981.13,635l-49.48,14.52-21.24,5.87L920,694.73h0a1.85,1.85,0,0,1,0,.81,2.32,2.32,0,0,1-.13.37,2.24,2.24,0,0,1-.14.36,1.67,1.67,0,0,1-.25.28,1.93,1.93,0,0,1-.27.3,2.29,2.29,0,0,1-.23.1,2.1,2.1,0,0,1-.5.24l-75.39,18.45-42.68,10.61,3.26,13,23.76,93.18.09.39.87,4.07,1.48,5.33a6,6,0,0,1,.15.61l.9,4.18,20,78,14.72,59.52Z"/><path class="cls-2" d="M1685,1217.59l-7-37.52-21.3-80-1.62.83-17.4,8.7-20.33,16.52,6.16,30a8.46,8.46,0,0,1-2.6,8l-20,18.14a8.35,8.35,0,0,1-4.15,2l-18.76,3.45-84.71,16.1,13,55.79,6.19,27.62,94.86-26.22Z"/><path class="cls-2" d="M1539.25,1357l-35.3-32.81a10.37,10.37,0,0,1-2.67-4l-4-10.56-23.19,7.95a8.52,8.52,0,0,1-2.74.46,8,8,0,0,1-1.19-.09l-22.85-3.26-50.2,9.58,2.4,10.32a8.46,8.46,0,0,1-6.3,10.13l-67.88,16-.19,0a8,8,0,0,1-1.74.21h-.11a9.08,9.08,0,0,1-1.28-.11,4.92,4.92,0,0,1-.55-.14,6.86,6.86,0,0,1-.78-.2,6,6,0,0,1-.58-.25,5.85,5.85,0,0,1-.68-.3,6.1,6.1,0,0,1-.54-.34c-.2-.13-.41-.25-.6-.4a5,5,0,0,1-.49-.43c-.18-.16-.36-.31-.53-.49s-.28-.34-.42-.51-.31-.37-.44-.57-.24-.39-.35-.59-.23-.41-.33-.63-.17-.45-.25-.67a5.55,5.55,0,0,1-.2-.52L1300,1300.5l-8.16-24.49-27.26-31.29-37.9,31.5L1205,1294.47h0l-.24.2,27.32,61.63,16.22,31.81s0,0,0,0l0,0,13,27.8,26.14-8.23a2.07,2.07,0,0,1,1.58.15,2,2,0,0,1,1,1.23l17.83,61.62a2,2,0,0,1-1,2.38L1278,1488l.41,1.37.33-.16.06,0,0,0a1.3,1.3,0,0,1,.33-.07,3.24,3.24,0,0,1,.4-.09,1.76,1.76,0,0,1,.39.06,1.59,1.59,0,0,1,.38.07,2,2,0,0,1,.32.18,2,2,0,0,1,.34.22,1.83,1.83,0,0,1,.24.31,3,3,0,0,1,.22.28.13.13,0,0,1,0,.06l0,0,1.87,4.37,5.62,12.48a2,2,0,0,1-1.25,2.78l-8.24,2.56-.87,1.73a1.86,1.86,0,0,1-1.87,1.12l-33.16-.94h-.88l-14.8.3-16.46,8.85a2.29,2.29,0,0,1-.67.22l-15.33,2.19-.29,0a2.24,2.24,0,0,1-.51-.07l-68.21-17.9-6.74,4.77a2.06,2.06,0,0,1-1.6.33L1099,1509a2,2,0,0,1-.69-.29l-19.76-13-65.21-18.92,12.81,24.56,1.93.88,13.21-6.46a2.74,2.74,0,0,1,.4-.15l3.76-.94a2,2,0,0,1,2.06.69l2.82,3.44a2.05,2.05,0,0,1,.43,1.65l-.63,3.44a2,2,0,0,1-.94,1.37l-9.06,5.56-.56,1.67.13,1,1.38.77,3-.23,8.69-4.79a1.94,1.94,0,0,1,.91-.25l9.07-.32a1.9,1.9,0,0,1,1,.23l21.34,11.13,21.75,4.6,26.4.62,34.58,3.77a1.37,1.37,0,0,1,.34.07l34.3,9.88,39.93-5.57,36-4.65,27.85-13.92,21.23-10.31,1.94-1.14a8.42,8.42,0,0,1,4.39-10l231.29-112.25Z"/><polygon class="cls-2" points="1849.35 983.81 1891.09 866.92 1888.45 841.8 1870.6 810.93 1768.91 868.61 1793.4 964.32 1849.35 983.81"/><path class="cls-2" d="M1694.46,1176.35c0,.11.07.2.09.31l3.82,20.59,5.15-9.35,9.46-27.46h0l64.56-190-25-97.57h-18.51l-3.62,2.66h0L1719,884.21l-14.5,12-28.45,24.07-29.82,25.48L1607,983.32l.25.51,40.63,60.8c.13.2.26.4.37.61l21.27,38.48a1.17,1.17,0,0,1,0,.11l.07.11a8.79,8.79,0,0,1,.64,1.65s0,0,0,0l24.09,90.4C1694.44,1176.14,1694.44,1176.25,1694.46,1176.35Z"/><path class="cls-2" d="M817.32,951l1.88,5,6.28,19.48,15,41.54,18.33,37.85,3-.5L845.3,989.66l-14.72-59.51-20-78.12-.09-.4-.88-4.07-1.48-5.33c0-.2-.1-.41-.14-.61l-.9-4.19L790.37,771.7l-38.3,3.54,4.65,30.26,9.66,32.4,18.7,45.8L806,936.45l1.09,1.91L817,950.44A2,2,0,0,1,817.32,951Z"/><polygon class="cls-2" points="1296.41 356.06 1292.69 346.35 1279.17 342.97 1221.05 360.13 1221.05 360.14 1145.89 382.8 1146.73 385.77 1173.28 480.83 1284.99 437.4 1306.64 429.13 1306.27 426.37 1296.41 356.06"/><path class="cls-2" d="M990.5,208.2,942,220.71h0L886.16,235.1l2.18,2.08a10.42,10.42,0,0,1,2.93,5l15.33,61.31,8.12,33.21,37.88-9.84,109.84-28.68,14.31-14.31,1.19-1.36-1.58-1.7-77.65-81.63-3.06,5.13A8.44,8.44,0,0,1,990.5,208.2Z"/><path class="cls-2" d="M686.39,795.88l8.79.85,12.28-.31,7.68-2.56,5.64-5.93,3.61-8.72a2.05,2.05,0,0,1,.86-1l7.87-4.53-40.42-8.3a2.16,2.16,0,0,1-.65-.26l-23.46-14.39a2,2,0,0,1-.34-.26l-19-18-8.7-5.72-.17,5.1,17.46,25.72Z"/><path class="cls-2" d="M1091.67,318.42h-14.79l-7.86-.27-111.13,29-39.06,10.15L935,402.37l20.84,58.45,83-43.37h0l59.66-31.55,23-11.61-13.82-45.54Z"/><path class="cls-2" d="M1126.37,390.78l-20,10.1-8.57,4.6-51,26.93h0l-79.21,41.37,3.45,2.37a8.56,8.56,0,0,1,2.34,2.42l72.85,114.22,42.63-33.1,65.88-67.61-28.1-100.62Z"/><path class="cls-2" d="M1858.09,225l175.4,320.62,31.74-20.94-28.29-184.35-49.1-78.26a8.51,8.51,0,0,1-.72-1.41l-4.69-11.89-19.73-51.37-6.31-15.76-48.3,17.54-48.81,17.92-5.5,3,2.53,2.52A10.57,10.57,0,0,1,1858.09,225Z"/><path class="cls-2" d="M697.77,584.51,622.53,602.7a8.87,8.87,0,0,1-2,.23,7.69,7.69,0,0,1-1.07-.07l-8.78-1.12v23.2l6.84,35.48,10.86,36.87,11.88,24.37,11.42,7.52a1.93,1.93,0,0,1,.28.22l18.93,18,23,14.09,45.18,9.28,10.64.61,39.67-3.67-9.31-36.59L718,745.37a2.3,2.3,0,0,1-.45,0,2,2,0,0,1-.45-4l62-14.23L744.56,586l-3.27-13.82-2.86,1.39a8.63,8.63,0,0,1-1.56.59Z"/><polygon class="cls-2" points="820.99 382.69 763.41 396.35 723.57 406.27 757.12 548.09 822.3 530.19 853.71 516.66 840.68 462.57 821.29 384.11 820.99 382.69"/><polygon class="cls-2" points="837.75 380.3 857.09 458.57 869.22 508.9 940.27 470.09 941.03 469.5 919.13 408.06 902.42 361.6 837.38 378.62 837.75 380.3"/><polygon class="cls-2" points="1066.29 130.3 1090.02 110.04 1075.57 81.43 1033.41 95.1 1035.95 125.68 1066.29 130.3"/><path class="cls-2" d="M758.46,376l66.11-15.67L894.39,342l-.62-2.46-7.52-31-14.58-58.3-11.88-11.35a10,10,0,0,1-1.5-1.84l-10.17-3.81-44,1.51a9,9,0,0,1-2.78-.37l-17.21-5.32a8.73,8.73,0,0,1-2.46-1.23L766.2,216.6l-57,30.23,31.14,133.66Z"/><path class="cls-2" d="M556.49,704.26a1.77,1.77,0,0,1-.52.33l-15.33,6.57L533,715.08h6.87l38.89-2.4,4.34-31.2Z"/><path class="cls-2" d="M931.5,55.58,921,59.12a8.6,8.6,0,0,1-1.67.38l-6.63.82,9.15,13.09Z"/><polygon class="cls-2" points="1031.95 126.63 1029.33 95.08 951.06 63.77 950.67 64.19 934.63 93.89 993.57 162.38 1031.95 126.63"/><path class="cls-2" d="M884.43,218.1l53.37-13.75h0l45.11-11.64,4.52-7.6-5.73-10.62-58.16-67.58-55.78,49.64,16.48,60.33A7.18,7.18,0,0,1,884.43,218.1Z"/><path class="cls-2" d="M608.59,711.64a1.68,1.68,0,0,1,.67.09l25.53,8-10.13-20.79a1.75,1.75,0,0,1-.12-.32l-10.95-37.22-5.62-29-6.18,15.47-14,29.24-4.94,35.46Z"/><polygon class="cls-2" points="620.08 585.91 693.63 568.13 731.75 558.07 737.3 555.35 703.23 411.34 669.37 419.77 461.94 474.73 564.21 554.5 585.38 568.92 601.76 578.81 611.26 584.78 620.08 585.91"/><path class="cls-2" d="M654.9,393.37a9,9,0,0,1-.61-1.64l-26-99.51q-.09-.36-.15-.72l-.53-3.13-20.75,11.68-27,26.4-96,119.42a8,8,0,0,1-1.3,1.3l-.78.63,176.91-46.87Z"/><path class="cls-2" d="M1153.2,214l-25.08,36.9,16.05-5.8,50.67-16.9,25.34-7.5,20.64-5.64L1269,302l7.51,24.15.11,0a8.57,8.57,0,0,1,4.44-.1l20,5c.2.05.37.14.56.2a8,8,0,0,1,.93.34,5.24,5.24,0,0,1,.73.41,6.82,6.82,0,0,1,.68.41c.23.17.43.37.64.55s.41.35.59.54.35.44.52.66.33.42.48.65a2.69,2.69,0,0,1,.16.29l6.82-1.88h0L1334,327h0l4.93-1.64-6.3-39.59a1.72,1.72,0,0,1,0-.32V257.58a2.34,2.34,0,0,1,0-.38l6.57-34.72c0-.06.06-.1.07-.15a2.61,2.61,0,0,1,.06-.27l6-14-20.67-12.16L1223,133.13l-21.67,18-18.64,18.63Z"/><path class="cls-2" d="M1568.73,98.33a2.14,2.14,0,0,1,.4.2l70.94,46.57,53.75,32.76,16.37-32-21.65-10.54-96.69-47.57-96.33-47.22-.33-.17-47-25.13L1430,34l74.15,40Z"/><path class="cls-2" d="M1098.12,242.69l6.41,5.62,31.28-46.05,30-45a10.45,10.45,0,0,1,1.31-1.59l19.26-19.27-4.25-5.58-89-18.11-23.92,20.43Z"/><path class="cls-2" d="M1356.55,190.36l49.88,30.43,37,22.38,50.79,27.73.52.31,117.3,73.2a10.55,10.55,0,0,1,4,4.47l4.1,8.81,76.1-52h0l4.91-3.44-7.2-11.67h0l-13.18-21.77-45.22-26.33a2,2,0,1,1,2-3.51l45.67,26.59a2.1,2.1,0,0,1,.72.7l13.44,22.2,7.1,11.51,5.5-3.66h0l27.66-18.81-15.35-13.21L1533.8,150.46l-66.94-40.67-62.55-37.22-42-26.94-14.54-8.16L1345.36,39l-51,34.92L1240,119l95.5,59Z"/><path class="cls-2" d="M1720.08,193.86l70.61,35.31a2.21,2.21,0,0,1,.62.47l6.15,7,25.67-17.53-11.22-11.22-10.28-9.79-41.1-27.4-46.6-23L1697.31,180Z"/><polygon class="cls-2" points="1638.46 148.88 1541.94 150.62 1721.18 258.83 1717.13 196.83 1638.46 148.88"/><polygon class="cls-2" points="1816.03 256.79 1841.86 239.01 1840.43 236.4 1835.28 231.25 1808.91 249.2 1816.03 256.79"/><path class="cls-2" d="M1820.13,261.61a2,2,0,0,1,.29.46l32.73,73.58,15.79,19.5,16.34,22.94,43.53,68.59a2,2,0,0,1,.27.64l3.13,13.77,7.43,30.94,40.95,66.44,27.12-16.28L1843.82,242.6l-25.11,17.28Z"/><path class="cls-2" d="M1632.39,144.93l-65.31-42.88-64.54-24.32-.25-.11-11.66-6.28-20,36,64.76,39.34Z"/><path d="M2217.25,1469.79l-70.07-36.91c-.1-.06-.2-.1-.3-.15L2105.59,1413a8.27,8.27,0,0,0-3.53-.82l-47.85-.63a6.25,6.25,0,0,0-2.54.36l-8.48,2.54-44.72,3.06h-.06l-60.18,4.41,2.25-17.62,10.13-28.3,14.36-32.39,22.6-41.26,9.37,2.85a10.33,10.33,0,0,0,2.41.43l20.64,1.25.64,0a10.57,10.57,0,0,0,2.23-.24l38.79-8.45c.11,0,.21-.07.32-.1s.4-.08.6-.14l126.69-40a10.48,10.48,0,0,0-6.32-20l-126.23,39.9-36.9,8-18-1.09-6.14-1.87,6.11-18.94c.06-.18.11-.36.16-.54l37.28-141.19a8.41,8.41,0,0,0,7.18,4.92l166.41,9.08h.47a8.45,8.45,0,0,0,.45-16.88l-166.41-9.07A8.49,8.49,0,0,0,2042,1112l6.86-26,34.67-121.54,0-.08,25-79.25c.07-.22.13-.44.19-.67l1.13-4.66,5.26-16.91c.09-.28.16-.57.23-.85l11.26-51a11,11,0,0,0,.22-1.6l3.44-54.43a9.61,9.61,0,0,0,0-1.78l-4.38-41c0-.15,0-.3-.05-.46l-3.13-20.64a10.53,10.53,0,0,0-1.48-4L2044,563.83l36.55-24.11a10.24,10.24,0,0,0,1.32-1l30.87-28.52,17.82,18.49,9.77,10.34,50.43,101.5,15,30a8.44,8.44,0,0,0,7.56,4.67,8.35,8.35,0,0,0,3.77-.89,8.45,8.45,0,0,0,3.78-11.33L2209,639.19l-54.11-108.84a8.48,8.48,0,0,0-1.42-2L2142.76,517l-18-18.72L2221,395.82a10.48,10.48,0,1,0-15.28-14.34l-101.4,108-24,22.13-26.94-175.5a8.43,8.43,0,0,0-1.19-3.21l-38.8-62-10.84-17.16-24.12-62.49-6.15-15.39L2126,119.46l90.09-31.59a8.45,8.45,0,0,0-5.59-15.94l-81.67,28.64-15.93,5.71L1966.51,160,1929.18,45.36,1915.51,3.65h-17.27c.06.25,2.61,9.5,2.69,9.74l12.2,37.21,37.5,115.18-48.33,17.55-49.43,18.15a7.66,7.66,0,0,0-1.13.51l-9.93,5.41-15.28-14.54-9.32-9.32a10.06,10.06,0,0,0-1.6-1.31l-.84-.56-1.18-1.13a11.17,11.17,0,0,0-1.43-1.14L1774,154.06a11.82,11.82,0,0,0-1.15-.66l-1.82-.9-2.33-1.55a11.5,11.5,0,0,0-1.13-.66L1498.9,16.07l-10-12.42h-62.16l13.36,7.28,4.27,2.28-19.25,19.92a2,2,0,0,0,.5,3.2l61.4,33.08-19.91,35.82-60.7-36.12-42-27-12.65-7.1,51.53-31.4h-36.23L1335,20.72l-3.82-5-1.88-2.19a2,2,0,0,0-.92-.62l-28.81-9.24h-13.31l40.33,12.94,5,6.41-49.44,33.86c-.26.18-.52.38-.77.58l-55,45.64-9.17-22.35L1203.91,4.56l-.13-.91h-20.93l.41,4.53,13.46,77.27a10.27,10.27,0,0,0,.63,2.18l12.09,29.48-20,16.64-4.55-6a2,2,0,0,0-1.21-.76l-89.74-18.26-15-29.8,19.53-38.45L1125.6,3.65h-6.84l-24.43,35.92-19.16,37.71L1031.32,91.5,954.06,60.59l15.32-16.25L976.76,37l5.6-33.3h-22.8l-2.21,23.47a10.69,10.69,0,0,0-2.23,1.79l-1.18,1.25-37.5,12.68-15.15,1.87L866.17,3.65H836.09l51.18,56.81L909.1,91.71,851.47,143l-85,49.38-50.66-47-34.45-31.64L569.5,3.65H532.05L667.26,129.22l34.37,31.56L747.12,203l-53,28.13a10.39,10.39,0,0,0-4.49,4.7L630,267.64l-.08.06-.09,0-32.22,18.14a8.71,8.71,0,0,0-1.76,1.32L573.58,309,562.2,321.5,471.28,434.56l-28.6,22.89L302.32,357l-27.21-19.7a11,11,0,0,0-1.46-.89L182,290.58l-.29-6.48c0-.26,0-.52-.07-.77l-1.25-9.07c0-.26-.08-.51-.14-.76l-22.53-97.32-15.63-66.29L131.74,65.5l-11-47.93-1.16-4.88,50.31-9H84.28L67.71,7.56,25,17.94l-8.13,2.19A8.45,8.45,0,0,0,19,36.73a8.87,8.87,0,0,0,2.2-.29l7.93-2.14L71.65,24l31.46-7.43L115.28,69.3l10.33,44.44L141.24,180l22.44,96.91.87,6.3-53.42-21.32-.66-.23L67,247.61a11.77,11.77,0,0,0-1.33-.34l-20.14-3.71L42.89,243a10.48,10.48,0,0,0-1.67-.23l-21.58-1.25a10.48,10.48,0,1,0-1.21,20.92l20.74,1.2,2,.44.37.08,19.66,3.63,42.49,13.76,65.89,26.29,93.94,47L290.07,374,435.21,477.88c.21.15.44.26.65.39s.42.27.65.39.63.28.95.41.38.17.57.23a11,11,0,0,0,1.13.29l.48.11a10.23,10.23,0,0,0,1.34.11L554,568l.44.32L576.07,583l.38.25,16.45,9.93,11,6.88a8.41,8.41,0,0,0,2.78,1.07v23.61l-8.57,21.41-13.88,29L554.08,701l-14.5,6.23-20.33-3-50.68-9.33-25.23-13.38-83.51-34.73a1.82,1.82,0,0,0-.4-.11l-37.37-7.22-40-4.69a2,2,0,1,0-.47,4l39.88,4.66,37,7.16,83.16,34.56,25.33,13.45a2.19,2.19,0,0,0,.59.21l51.05,9.39,14.68,2.19L524.2,715l-69.88-12.68L366.7,674.24l-21.13-10.56a1.86,1.86,0,0,0-.72-.21l-32.31-3.11-38-12.13a2.07,2.07,0,0,0-.89-.08L253.14,651l-20.41,1.87-22.63-.62-61.11-14a1.72,1.72,0,0,0-.64,0l-21,1.88a2.19,2.19,0,0,0-.52.12L86.82,655l-42.31,1.54-25.13-4.34a2,2,0,0,0-.69,4L44,660.62a1.5,1.5,0,0,0,.42,0l42.86-1.56a2,2,0,0,0,.63-.13L128,644l20.36-1.83,61,14a1.74,1.74,0,0,0,.39,0l23.08.62L253.59,655l20.19-2.76,37.73,12.07a2,2,0,0,0,.42.08l32.16,3.09L365,678a1.48,1.48,0,0,0,.29.12l87.89,28.15.26.07,70.69,12.82.36,0H540l38.43-2.37-1.18,36.56a2.32,2.32,0,0,0,0,.53l2.18,9.34,4.38,21a2.41,2.41,0,0,0,.16.45L595.56,809a2.12,2.12,0,0,0,.21.36l12.39,16.4,5.64,9.38a1.79,1.79,0,0,0,.39.48l18.65,16.51,12.55,41.62L641,950.63a1.5,1.5,0,0,0,0,.22c0,.07,0,.14,0,.21l.22,1.61L560.52,849.43a2.09,2.09,0,0,0-.64-.54l-70.07-37.54-71-37.85a2,2,0,0,0-.92-.22l-.25,0a1.73,1.73,0,0,0-.66.19c-.05,0-.11,0-.16,0l-6.66,3.94-18.77,5.45-8.6-.89-4.15-.58-53.94-14-48.38-22.16L165.14,698.19l-.2-1.93a2,2,0,0,0-1.24-1.68l-9.21-3.8-1.87-.62a2.15,2.15,0,0,0-.87-.1l-2.82.32a2,2,0,0,0-1.4.8l-.94,1.25a2.17,2.17,0,0,0-.38.88l-.31,1.88a2.07,2.07,0,0,0,.19,1.25l.41.82v3.14l-26.31,30.49L67,723.25l-23.89-4.66L19.81,709a2,2,0,1,0-1.55,3.76l23.46,9.7a2.4,2.4,0,0,0,.38.12l24.19,4.71,49.19,7.06-16.2,10.89-47.43,8.06a2.21,2.21,0,0,0-.42.12l-6.25,2.5a2,2,0,0,0-1.26,1.6l-1.25,8.76a2,2,0,0,0,.13,1.06l20,48.49h0l14.39,35.34a2,2,0,0,0,.73.91l6,4.07a2,2,0,0,0,1.14.35,2,2,0,0,0,.63-.1l24.39-7.82a.6.6,0,0,0,.11-.06s.07,0,.11,0l29.09-13.14a2,2,0,0,0,1.16-1.5l5.95-33.78a2,2,0,0,0-4-.71l-5.75,32.73-28,12.64L85.36,852.2,80.74,849,67.6,816.75l5.77-.64a2.45,2.45,0,0,0,.37-.08l10.32-3.13a1.8,1.8,0,0,0,.77-.44L98,800.59l6.09-5.42.62,2a2,2,0,0,0,.82,1.09l3.75,2.5a2,2,0,0,0,.94.33l3.45.32h.18a2.45,2.45,0,0,0,.38,0l5-.94a2.05,2.05,0,0,0,1.45-1.09l1.78-3.58,3.52-1a2.19,2.19,0,0,0,.65-.32l5.94-4.38a2.07,2.07,0,0,0,.78-1.16l1.56-6.58a2.05,2.05,0,0,0,0-.55l-.31-7.2a2,2,0,0,0-.59-1.35l-5.82-5.81-3.72-5.31,2.15-7.24,6-9.52,3.41-3,5.79,5.31,7.2,20.4-5.91,88.37L141.19,872c0,.12,0,.23,0,.35a2.23,2.23,0,0,0,0,.37l3.13,12.83a2,2,0,0,0,.6,1L155.3,896a2.88,2.88,0,0,0,.27.22l57.56,36.6a2.46,2.46,0,0,0,.4.19l133.56,48.49a2,2,0,0,0,.69.12,2,2,0,0,0,.59-.09L364,976.82a2,2,0,0,0,1.38-1.43L381,915.64a2,2,0,0,0-1.19-2.39l-4-1.66.79-28.25L412,888.05l.27,0a2,2,0,0,0,1.9-1.31l14.86-39,9.07,4.17,4.37,6.7a1.71,1.71,0,0,0,.21.26l10.89,11.82,53.41,67.48,16.58,22.21a1.86,1.86,0,0,0,.29.27l-11.64-.38-16.27,1.25a2.1,2.1,0,0,0-.24.06,2.36,2.36,0,0,0-.28,0l-46.61,16.59s-.06,0-.1.06a2.33,2.33,0,0,0-.34.2,2.1,2.1,0,0,0-.33.26l-.09.06-47,54.46-49.23,5.47-13.08-7.43-16.44-10.74L290.06,1004l-24.4-10a1.66,1.66,0,0,0-.38-.11l-33.78-6.51L206,973.2,169.8,941.68l-11.26-8.76a1.79,1.79,0,0,0-.34-.22l-9.56-4.77L117.2,915.8,78.54,897.09l-1.76-1.17a2,2,0,1,0-2.26,3.38l1.88,1.25.24.14,38.94,18.84L147,931.64l9.2,4.61,11,8.56,36.28,31.6a2.16,2.16,0,0,0,.35.24l26,14.39a2.17,2.17,0,0,0,.6.22l33.9,6.53,24,9.86,31.73,16.47,13.08,8.55-11.31.86-23.05-.31-15.14-.92-8-1.22-15.79-5.27-.27-.07-6.89-1.25a2.16,2.16,0,0,0-.84,0L241.71,1027l-8.78.91-17.41-.91-4.58-1.44-4.88-2.58-3.44-3.44-6.13-7-12.21-17.21a1,1,0,0,0-.15-.14,1.92,1.92,0,0,0-.29-.28,1.88,1.88,0,0,0-.36-.21c-.07,0-.11-.08-.18-.11l-48.35-17-26.26-26.57a1.78,1.78,0,0,0-.53-.38L51.45,921.89,25.93,904.67l-4.16-8.32L23.12,888l7.62-7a2.09,2.09,0,0,0,.55-.87l5.32-16.26a2.16,2.16,0,0,0,.09-.72l-.62-15.32a1.85,1.85,0,0,0-.08-.48L23.54,804.37l-2.5-15a2,2,0,1,0-4,.67l2.55,15.25L32,848.2l.6,14.71-5,15.42-7.75,7.15a2,2,0,0,0-.62,1.17l-1.57,9.7a2,2,0,0,0,.19,1.23L22.53,907a2.05,2.05,0,0,0,.68.78L49.4,925.39,106,954l26.35,26.67a2,2,0,0,0,.77.49l48.19,17L193.29,1015l6.35,7.3,3.76,3.75a1.89,1.89,0,0,0,.48.36l5.32,2.82.35.14,5,1.56a2.1,2.1,0,0,0,.5.09l17.83.94h.32l9.07-.94a.56.56,0,0,0,.12,0h.15l9.9-2.4,6.31,1.15,15.82,5.27.34.08,8.31,1.27,15.43.94,23.32.31,12.52-.94a2,2,0,0,0,.75-.21l2.16-1.08,12.82,7.28a2,2,0,0,0,1,.27h.23l50.67-5.63a2.06,2.06,0,0,0,1.32-.69l47.19-54.65,45.85-16.31,15.77-1.23,18.24.61,18,10.68.06,0a1.76,1.76,0,0,0,.69.23s.06,0,.09,0l42.77,4.19L584,986.44l-30.74,7.08-24.71,4.38a1.76,1.76,0,0,0-.46.14l-23.46,10.32a2.15,2.15,0,0,0-.57.37l-33.47,31a2.85,2.85,0,0,0-.23.26l-29.45,38.53-15,21.15-9.76,4.59-28.1.32-51.43-5.29-46.69-9-44.67-14.37-69.91-24.65-28.25-12.72-29.61-17.76L73.14,985.46,24.59,947.88l-4.38-3.13a2,2,0,0,0-2.36,3.31l4.32,3.08,48.46,37.52,43,34.26-1.3,2.23a1.85,1.85,0,0,0-.27.86l-3.76,44.42a2,2,0,0,0,1.4,2.1l155.5,51-81.52,6.4a2.06,2.06,0,0,0-.93.31l-30.16,19-4.41-1.26a8.6,8.6,0,0,0-.87-.24l-6-1.72-67.48-42-47.65-36.35-.6-.76a8.45,8.45,0,0,0-13.19,10.56l1.25,1.56a8.71,8.71,0,0,0,1.47,1.44L64,1117.67a7.66,7.66,0,0,0,.66.45L117.47,1151l-8.92.27h-.21l-89.78,5A8.45,8.45,0,0,0,19,1173.2h.48l89.73-5,20.17-.62a8.09,8.09,0,0,0,1.3-.15l14.52-2.74L221,1186.33a8.12,8.12,0,0,0,1.09.23L347.81,1205a8.48,8.48,0,0,0,1.23.09,7.79,7.79,0,0,0,1.07-.07l132-16.89a7.35,7.35,0,0,0,1-.2l128.21-32.82,5.64,30.62,6.87,44.81-107.6,27.91a9.37,9.37,0,0,0-.9.28L470,1275a10.5,10.5,0,0,0-1.45.65l-37.34,20.23L334.46,1343l-86,4.83L34.87,1318a11.71,11.71,0,0,0-2.58,0l-14.39,1.57a10.48,10.48,0,0,0,2.26,20.83l13.1-1.42,213.29,29.85a10,10,0,0,0,1.45.1l.59,0,89.15-5c.13,0,.25,0,.38-.06l32.56,19.38a8.09,8.09,0,0,0,1,.51l72.23,30.65,38.79,16.58a7.71,7.71,0,0,0,1.63.51l29.09,5.94a8.25,8.25,0,0,0,1.65.17l113.67.59,1.17,117.58-1.56,55.53c0,.11,0,.24,0,.36l1.41,93.9-28.9-.94-82.94-12.73-137.62-20.65a10.73,10.73,0,0,0-3.15,0l-20.33,3.12a10.45,10.45,0,0,0-3.9,1.44l-12.2,7.5a11,11,0,0,0-1.93,1.53L229.63,1794.26a10.48,10.48,0,0,0,14.84,14.8l108.3-108.62,9.34-5.74,16.66-2.57,136,20.41,83.52,12.82a10.37,10.37,0,0,0,1.25.12l38.35,1.25h0l29.24,1.25,65,1.88,33.55,1.25,293.4,8.76h.33a10.51,10.51,0,0,0,2-.2c.24,0,.45-.14.68-.2a9.74,9.74,0,0,0,1.23-.37c.27-.11.51-.27.76-.4a9.11,9.11,0,0,0,1-.51c.25-.17.46-.37.7-.55a10.72,10.72,0,0,0,.84-.67c.21-.2.38-.43.58-.65a9.3,9.3,0,0,0,.7-.83c.17-.24.3-.5.45-.75a8.92,8.92,0,0,0,.54-1,8.64,8.64,0,0,0,.31-.85,9.07,9.07,0,0,0,.35-1c.08-.3.1-.62.15-.93s.13-.63.15-1l4-67.37,4.28-15,16.68,4.92,20.6,9.4.72.29,61.85,22.81,16.2,6.34-24.8,35a10.48,10.48,0,1,0,17.11,12.1l32.39-45.78,58-74.24,26.86-18.58,7.16,14.31,17.51,11.57,404.77-226.48-1.86-3.22,1.08-.67-4.07-6.57-.87.55-2.64-4.58,1-.61-.64-1.11a8.32,8.32,0,0,0-6.66-9.55l1-.61-4.07-6.88-1.14.67-2.51-4.36,1.17-.66-2.77-4.92-.12-.23c.19-.15.4-.25.57-.4l27.84-24.72a10.39,10.39,0,0,0,1-1l23.41-27.22L1877.39,1261l10.79,6.07.3.14.15.1,8.76,4.38.3.14,44.73,20.65.17.06a11.67,11.67,0,0,0,1.34.44c.26.08.52.18.78.24l.11,0,21.55,4.16-20,36.51c-.14.26-.27.52-.39.79l-14.7,33.16c0,.11-.07.24-.11.36s-.13.23-.17.35l-10.64,29.72a11.29,11.29,0,0,0-.53,2.21l-3.75,29.4a11.4,11.4,0,0,0-.08,1.65l1.25,40.05c0,.41,0,.82.11,1.23l7.2,47.86a2.51,2.51,0,0,0,0,.27l5.29,29.86,2.77,19.07,4.69,36.6a9.77,9.77,0,0,0,.23,1.2l6.12,26L1920,1646.57l-.29.16-34.23,20.32-2.25-3.75-4.36-7.47-54.13-97-2.48-4.35-3.75-6.88-3.19,1.74-2.12-1.49a2,2,0,0,0-2.08-.15l-47.21,23.6-11.13-18.46a2,2,0,0,0-2.74-.72l-110.42,61.94,0,0,0,0-28.72,18.42h0l-.08.06-53.24,35.71-26.59,19.39a2.35,2.35,0,0,0-.33.3l-13.78,15.66-11.57,13.45a2.62,2.62,0,0,0-.24.34l-19.71,35.66a3,3,0,0,0-.17.41l-5,16.89a2,2,0,0,0,1.37,2.53,2.32,2.32,0,0,0,.58.08,2,2,0,0,0,2-1.45l4.94-16.68,19.5-35.29,11.42-13.27,13.61-15.48,26.35-19.21,51.39-34.47,83.36,140.17a2,2,0,0,0,1.75,1,1.94,1.94,0,0,0,1-.29,2,2,0,0,0,.71-2.78L1614.55,1635l25.29-16.23,10.84,19.69a2,2,0,0,0,2.8.78L1763,1575.91a2,2,0,0,0,1.13-.17l47.71-23.86,7.09,5,56.4,101,6.67,11.25L1836,1696.37l-83.87,46.77-45.4,21.14a8.45,8.45,0,1,0,7.14,15.31l45.67-21.27a5.52,5.52,0,0,0,.54-.28l84.35-47,47.84-28.45,35.83-21.19,21.06-11.38,5.43,13.31c.09.2.2.39.3.59s.07.21.13.32l12.82,24.4a12.28,12.28,0,0,0,.83,1.33l14.85,20.21,31.59,41,.31.38,22.8,26.87,31.28,37.22a10.37,10.37,0,0,0,1.24,1.24l6.26,5.32a10.47,10.47,0,0,0,13.57-16l-3.48-3,45.66-260,16.68-90.07,59.92,31.56a8.28,8.28,0,0,0,3.92,1,8.45,8.45,0,0,0,3.95-15.92Zm-115-773.36,0,.14-27.54-15a8.77,8.77,0,0,0-2.72-.93l-13.76-2.18a8.38,8.38,0,0,0-2.5,0l-15.64,2.19a8.48,8.48,0,0,0-3,1l-53.8,30.65a8.59,8.59,0,0,0-1.79,1.37l-14.08,14.08a8.58,8.58,0,0,0-1.39,1.83l-3,5.38,3.81-12.19a10.49,10.49,0,0,0-.41-7.34l-11.26-25.65c-.08-.19-.21-.35-.3-.54s-.16-.39-.27-.58l-32.13-54.36,103.69-59.45ZM1919.85,806.11l4.47,32.88-14,10.13-1.23-11.73a10.68,10.68,0,0,0-1.35-4.15l-23.15-40,0-.06s0,0,0-.08L1823.41,691l26.68-14.85,54.19-31.4,31.94,54,9.42,21.47-25.41,81.34A10.42,10.42,0,0,0,1919.85,806.11Zm-1030.69,629,2.39,19.07-3.89-.9L880,1441.9l-.3-16.29a2.47,2.47,0,0,0-.05-.38l-5.78-28L891,1368.5a1.92,1.92,0,0,0,.21-.46l5.31-17.83a1.3,1.3,0,0,0,.07-.33l2.1-17.28L917.82,1346c-.06.13-.11.25-.16.38L893.26,1408a9.94,9.94,0,0,0-.61,2.23l-3.44,21.89A10.65,10.65,0,0,0,889.16,1435.08ZM863,1336.78l-27.74-34.6-11.31-19.26-1.87-11,72.84,57.91-2.34,19.36-5.2,17.42-15,25.2-6.93-23.37-5-17,3-12.92A2.06,2.06,0,0,0,863,1336.78ZM820,1284a2.12,2.12,0,0,0,.25.69l11.58,19.7a2.13,2.13,0,0,0,.16.25l27.22,34L856.53,1350l-14.15,5.36-19.33-53.62a8.46,8.46,0,0,0-3.36-4.23L791,1278.9l-7.54-47.28h0l-.57-3.59,30.65.69.54,5.38h0l3.13,33.15v0a.19.19,0,0,0,0,.07s0,0,0,.06ZM788.07,949.74l-22.85-38.2-13.19-21-62.57-90.25,5.58.53,12.82-.32a1.72,1.72,0,0,0,.6-.1l8.44-2.81a2.08,2.08,0,0,0,.83-.53l6.26-6.57a1.88,1.88,0,0,0,.4-.63l3.49-8.42,11.39-6.55,8.7.49,4.76,30.91a1.31,1.31,0,0,0,.06.27l9.76,32.72,18.76,46,21,52.86a1,1,0,0,0,.12.26l1.05,1.84,2.46,19.37,1.85,11.7-.59,18.33-5,4.51-9.22-.28-34.06-11L777,967.68a2,2,0,0,0,.36-.41L788,952A2.06,2.06,0,0,0,788.07,949.74Zm624.3-679.3L1370,245.6l-26.29-23.29,5.17-12.11,46.71,28.5,32.11,19.43Zm19-10.07,1.41.86.41.23,42.76,23.35-20,10.59-31.37,8-.26-13.94a2,2,0,0,0-.28-1l-8.81-15.07Zm-63.95-11.59a2.62,2.62,0,0,0,.32.23l43.33,25.38,9.16,15.66.27,14.37-45.66,11.64-5.48-4.11a2.07,2.07,0,0,0-1.86-.31l-6.57,2.19a2,2,0,0,0-1.12.93l-3.33,5.82-13.59,3.59-6.19-38.91V257.77l5.87-31Zm4.42,70.11-2.63,5.49-3.79,1.05-4.94-3.66,2.47-4.32,4.82-1.61Zm-14.45,5.66,6.41,4.74a2.06,2.06,0,0,0,1.21.4,2.09,2.09,0,0,0,.55-.08l5.63-1.56a2.1,2.1,0,0,0,1.29-1.08l3.34-7,47.25-12,34.1-8.76a1.85,1.85,0,0,0,.44-.18l22.62-12,3.67,2,114.41,71.39,7.2,15.48.79,1.63-100.38,29.17h-.1l-69.09,20.63a9,9,0,0,0-1.16.44l-29.41,13.77-.4.2,0,0h0L1346,473.83l-4.94-1.94-13.5-6.05-3.26-32.06a.5.5,0,0,1,0-.13.57.57,0,0,1,0-.13l-6.9-50.13L1313,352.73a8,8,0,0,0-.47-1.83l-4.61-12,6.34-1.75h0l21-6.26h.06l6.53-2.17Zm552.17,276.6-1.75,1-11.36-18.51,69.09-41.69,11.57,18.67Zm70.92-37.86a2.07,2.07,0,0,0,.56-.23,1.72,1.72,0,0,0,.31-.29l28.32-17,6,10.92L1912.22,616l-2.42-7.5a8.12,8.12,0,0,0-.84-1.82l-.25-.41,2.86-1.56Zm-179.73,68.22,4.69,16.58a8.34,8.34,0,0,0,.73,1.78l10,18.14a8.33,8.33,0,0,0,1.17,1.57l-6.1,1.55-32.19-51.4-54-89.34,77.67-49.53.4-.27,6.06-4.38L1894,614.62l3.21,10-18.17,10.53L1865,613.91a8.12,8.12,0,0,0-.76-1L1853,600.41a8.48,8.48,0,0,0-3.61-2.36l-7.5-2.51a8.69,8.69,0,0,0-2.68-.43h-6.56a8.5,8.5,0,0,0-4.21,1.12l-19.08,10.95a8.56,8.56,0,0,0-3,2.88l-4.06,6.57a8.42,8.42,0,0,0-1.24,3.8l-.63,8.13A8.65,8.65,0,0,0,1800.74,631.51Zm-201,493,6.23,30.31-14.67,13.29-16.45,3L1489,1187.49l-3.82-13.09-13.45-47.24a10.7,10.7,0,0,0-1.63-3.32l-28.42-38.77,104-54.54a10.05,10.05,0,0,0,1.17-.74l47.07-35.58,39.77,59.51,16.89,30.55-3.12,1.61-18.15,9.07,0,0a6.77,6.77,0,0,0-.75.48c-.24.15-.49.29-.71.46l0,0-25,20.33A8.47,8.47,0,0,0,1599.77,1124.54Zm-339.64,316,10.3,37.46-14.17-4.15-23.15-22.17a8.37,8.37,0,0,0,1.12-3.55l.62-8.45a6.47,6.47,0,0,0,0-.88l-.62-20.64a8.34,8.34,0,0,0-1.24-4.15l-6.88-11.26a8.38,8.38,0,0,0-2.49-2.61l-17.2-11.57a8.38,8.38,0,0,0-1.44-.78l-54.7-23-9.3-4.95,18.57-27.37,41.9-35.11,26.91,60.66,16.24,31.86,13.66,29.19,3,13.78-1.18,6.8A2.06,2.06,0,0,0,1260.13,1440.58Zm-260-31.85,18.36,32.36-14.39,17.8-25.32-47.81Zm-23.46-1.51-15.12-25.59,9.32-26.76,1.93-4.2,6.48-17,5.47-8,2.93,29.71,11.08,49.4Zm44.81,36.64,14.64,7.6,21,15.76,14.66,15,3.92,8.46-64.94-18.85-4.62-9Zm53.86,36.3a2.22,2.22,0,0,0-.39-.57l-15-15.33-.23-.2-21.27-16a1.67,1.67,0,0,0-.28-.18l-15.73-8.17-19.26-33.94-11.47-51.07-3.35-34.06,13.07-12.79a7.74,7.74,0,0,0,1.18.69,8.43,8.43,0,0,0,7.59-.46l31.93-18.6,40.91,21.53,4.11,8.71a8,8,0,0,0,.84,1.4l22.78,30.9,8.69,12.06-16.07,45.9a8.35,8.35,0,0,0-.43,3.57l2.5,26.91v0c0,.25.1.49.14.74s.09.58.17.86c0,.13.11.26.16.39a7.88,7.88,0,0,0,.44,1.08c.08.17.2.31.29.47a9.74,9.74,0,0,0,.56.86c.14.17.3.32.45.49s.42.45.65.66.36.27.53.4.53.38.81.55l.2.13,8.13,4.38a8.58,8.58,0,0,0,4.3,1l17.21-.59,20.06,5.31a8.38,8.38,0,0,0,2.16.29l.66,0,31.77-2.47,31.45.93a8.66,8.66,0,0,0,4.74-1.33l23.5,22.51.07,0a1.89,1.89,0,0,0,.3.19,2.19,2.19,0,0,0,.4.21l.07,0,17.16,5,1.79,4.85,1.56,5.32a2.06,2.06,0,0,0,1.14,1.29,2.11,2.11,0,0,0,.82.17,2,2,0,0,0,.9-.21l.6-.3,5.71,12.86-6.88,2.13a2,2,0,0,0-1.21,1l-.67,1.34-31.92-.91-16.31.32a2,2,0,0,0-.92.24l-16.57,8.9-14.57,2.08-68.73-18a2,2,0,0,0-1.69.31l-6.78,4.8-17.84-3.8L1081,1492.46Zm-67.15-206.61,15.47,7.18-12.12,7.06ZM1128.63,1348l-4.25-5.91-16.09-21.82,31.76,10.9Zm14.07,31.89c.1.06.21.07.3.12s.25.15.4.21l54.29,22.83,15,10.09,4.75,7.78.55,17.91-23.83-.69a5.41,5.41,0,0,0-.9,0l-30.79,2.39-19.88-5.26a8.13,8.13,0,0,0-2.45-.28l-16.18.55-2.13-1.15-1.92-20.57,13.6-38.84Zm134,104.18-1.34-3.62-11.14-40.54,1.18-6.75a2,2,0,0,0,0-.78l-2.73-12.57,24.08-7.58,16.78,58Zm-82.55-202.56h0l-42.62,35.71-58.68-20.14-47-24.72-.24-.12,0,0-.1,0-33.36-15.47-9.89-8.44-14.14-54.07,11.13-5,90,2.45h.49l8.61-.27,43.49,13.39,45.37,13.29,2.48,5.52c.06.15.15.28.22.42s.05.14.09.21l22.92,41.48Zm-333.39-630L835,543.13l32-13.77.18-.09.16-.08c.12-.06.25-.11.37-.18l72.05-39.35,36.73,129.11L927,633.27Zm45.78,4.88,9.07,37.26-73.42,18-42.69,10.61L764.93,581.12,761,564.54l57.91-15.9L846.3,664a8.46,8.46,0,0,0,10.46,6.19Zm49.9-169.83,3.6,2.48,75.25,118-38.1,21-.38.22-1.81-6.1Zm49.13,156.11,39.08-21.54,53.39,77-47.62,28.52a3.87,3.87,0,0,0-.43.27l-5.35,3.65-27-46-15.4-39.82Zm50.85-34.21.76-2.86,42.48-33c.16-.13.29-.28.44-.42a4.82,4.82,0,0,0,.43-.36l59.78-61.36,15.47,50,28.06,96,1.78,6.7-3.51-.53a7.8,7.8,0,0,0-1.67-.09l-33.78,1.56a8.46,8.46,0,0,0-5.15,2.07l-19.08,16.58c-.08.06-.16.14-.24.21l-6.31,5.92a8.37,8.37,0,0,0-3.54,1.35l-11.86,7.9-1.39.32-2.17-2.77Zm2.89,132.59,48.75-29.2.75,1,13.2,21.49a8.25,8.25,0,0,0,.82,1.12l16.9,19.4c.2.23.42.45.64.67l19.58,18L1176,789.71a8.2,8.2,0,0,0,1,.86l26.35,19.14,1,.72-60.73,53.62-28.94,15.65c0-.11,0-.23,0-.34,0-.27,0-.54-.06-.8s-.11-.5-.17-.75a6.63,6.63,0,0,0-.25-.9c0-.08,0-.16-.06-.23l-30.34-76.95a9.41,9.41,0,0,0-.51-1.06l-30.27-53.32Zm93.31,137.32a8.47,8.47,0,0,0,1.57-1.09l63.38-56,2.83,2.94.4.38,2.86,2.6,23.42,31,6.72,10.37a8.9,8.9,0,0,0,.73,1l8.36,9.54,5.92,9.18a7.17,7.17,0,0,0,.45.63l9.19,11.73,17,20.72,14.21,20.09a8.51,8.51,0,0,0,2.81,2.48l-41.87,23.7-6.88,3.76a.18.18,0,0,0-.07.05l-.1,0-86.43,49.73-27.43-21.25a8.32,8.32,0,0,0-1.87-1.09l-7-3-6-16.4-13.95-36.27-4.78-16.33,1.62-.67-1.57-3.76-1.19.5-6.15-21Zm483.62-188.85H1636l-15.93-.22-.89-4.71L1601,576.6l71.86-22.15,35.24,129.84a1.84,1.84,0,0,1,.09.25c0,.07,0,.14,0,.21l2,6Zm75.74,18.13,3.93.13,7,17.06-.81.13-.21.06h-.13l-13.45,2.82c-.24,0-.47.11-.71.17l-55.26,16.64-6.41-38.06ZM1313.34,826l-.5-17.16a8.55,8.55,0,0,0,.29-2.22,8.83,8.83,0,0,0-.09-1.27l-.61-15.86-.92-14.21-.92-21.1,2.44-39.73.69-3.54,89,4.09,17.22,50.25a8.55,8.55,0,0,0,1,2.07l2.82,4.06a7,7,0,0,0,.46.61l12.6,15.06,13.87,19.73.33.44,25.1,31.19L1457,850.82,1400.42,888l-55.81,36.47a8.52,8.52,0,0,0-1.32-4l-19.45-29.62-2.22-10.81-2.84-12.29L1314,848l-.53-18,3.92.15.16-4.06Zm16,127.95,42.62,64.17-.12.07h0l-25.94,14.69h0l-38.06,21.05-29.4-71.17.34-.18Zm18.52,82.49h0l26-14.7h0l.36-.21,26.14,39.51,13.3,20.42-35.27,21.06-1.67.72a8.16,8.16,0,0,0-1,.52l-17.2,10.32-.14.1-.17.09-20.75,13.69-28-70.18Zm36,82.09,1.67-.72a9.4,9.4,0,0,0,1-.51l36.69-21.91,28.86,39.36,10.79,37.88L1401.75,1194l-2.59.86-6.65,1.8-9.37-34.15-10.45-37.28Zm34-69-26.92-40.69L1347.17,943l62.51-40.85,56.59-37.2,20.1-13.11,30.83,43.27,9.58,15.14a7.77,7.77,0,0,0,.82,1.09l58.17,65.56.72,1.73-49.29,37.25-105.26,55.22Zm46.49-252.69L1450.42,777c-.13-.2-.28-.38-.43-.57l-12.58-15-1.92-2.79-15-43.89,192.74-8.57,15.55.25,7.37,43.75-37,14.11a8.58,8.58,0,0,0-.82.37l-40.66,20.64a6.8,6.8,0,0,0-.79.46l-66.5,43.36Zm138.19-109.26,0,.09v.08l.38,2-188,8.35-18.87-60,65.21-20.15.07,0h0l99.4-29.38h.06l23.94-7Zm-138.06-88.2L1420,453.88l22.2-10.39,60.47-18.06,45.15,149.29Zm-16.17,4.89-56.42,17.44-35.46-134.25,48.24-25.8Zm-70.55,30.08,1.87,7.82c0,.1.08.2.11.3a2.38,2.38,0,0,0,0,.26l17.33,55.11-80.93-3.73a8.44,8.44,0,0,0-5.43-8l-3-1.13,18.41-177.16a1.6,1.6,0,0,1,0-.43v-.17l1.22-22.88,6.9,3.1.37.15,4.77,1.88ZM1113.57,1021l20.7-9.41,5.9,2.5,29.32,22.71,16.77,38.83,5.63,18.94,9,60.62-6-.46a8,8,0,0,0-1.69,0l-49.43,6.26a9.82,9.82,0,0,0-1.31.27l-44.35,13.15-8.66.27-91.72-2.49a9.11,9.11,0,0,0-3.71.74l-7.13,3.23.28-11.59,3-29.83,20.61-43.58,40.14-39,29.86-18.22,32.48-12.87Zm-116.12,280.7-39.66,13.61-9.07-.72a11.5,11.5,0,0,0-.2-1.31l-14-56.5-8.9-37.64,47.78-14.42,11.54,44,1.55,6.19Zm204.64-91.67-1.11-2.47a8.42,8.42,0,0,0-5.33-4.65l-49-14.36-18.11-5.57.49-.15,17.49-5.13,47.91-6.06,15.51,1.17,21.87,2.77,1.31.19,4,1.46,1.65,9.3a8.73,8.73,0,0,0,.44,1.57l4.13,10.67Zm36-50.43a8.4,8.4,0,0,0-1.71-.43l-18.19-2.33-8.12-54.32-1.56-11a8.45,8.45,0,0,0-.27-1.21l-5.94-20a8.13,8.13,0,0,0-.34-.94l-14.85-34.38,76.47-44,29.76,72,26.26,65.66,3,7.47L1271.05,1159l-25.51,3.33Zm120.26,100.76,8.63,14.88,4.28,12.26,9.88,42.66-51.81,12.18-13.14-46.65c0-.13-.07-.26-.11-.38L1310,1277Zm11.31-14.17-7.44-15.74,27.6-15.63,14-3.79.46-.14,63.3-22.09,3.34,11.42,14.93,64.07,6.53,29.13-21.83,7.48-53.69-7.67L1386.19,1279l-3.52-10.08a7.88,7.88,0,0,0-.66-1.45Zm229.68-279.46-58.66-66.12-9.34-14.75a4.4,4.4,0,0,0-.26-.39l-30.56-42.9,65.14-42.47,39.86-20.24,42.78-16.31,63.79-19.21,1.14-.23-22,141.22-26.09,22.08-30,25.65-.17.18c-.05.05-.12.09-.18.14l-35.16,33.66A3.55,3.55,0,0,0,1599.35,966.77ZM1730.87,740.7l2.71-.45,2.42,1.11-12.71,118.5-3,2.17,0,0,0,0-9.42,7.13ZM1729.65,697l-.07-.15-3-10.5c0-.12-.06-.23-.1-.35l-2.12-6.35-35.59-131.08,17.91-8.11,54.52,90.28,29.19,46.49Zm20.43,32.46,54-30,58,96.94L1756.9,856h-16.21l12.76-118.91A8.45,8.45,0,0,0,1750.08,729.43Zm37-358.43,3.3,8.38a2.12,2.12,0,0,0,.27.49l30.08,39.7,5.92,25.11-8.73,9.46-41.36-68.22Zm-12.82,11.12L1735,317l19-12.93,1.9,4,20.55,34.57,8.94,23.85Zm54.27,66.53,8,13.31a2,2,0,0,0,.54.59l16.58,12.2a2,2,0,0,0,.89.37l12.21,1.94,5.36,54.86-4.82,3.61-47.13-77.73Zm65.78,131.47L1869.4,539l6-4.54a2,2,0,0,0,.81-1.83l-5.5-56.23,18.14-10.08,39.75-2.67,7.11,29.61a2,2,0,0,0,.24.59l27.39,44.55Zm-6.14-117.8a2,2,0,0,0-.85.26l-19.09,10.6-12.59-2-15.85-11.66-9-15-6.08-25.83,10.48-46.21,16.59-32,13.92,17.19,16.21,22.74,43.29,68.22,2.52,11.1Zm-56.72-91.5a1.81,1.81,0,0,0-.18.49L1821.61,414l-27.54-36.34L1789.5,366l-9.39-25a1.66,1.66,0,0,0-.15-.33l-20.56-34.56-2-4.41,58-39.53,1.46,1.78,32.34,72.69ZM1755.63,298l-4.34-9.39,54.22-37.07,7.13,7.59Zm-14.37-23h0l-.14.1-15.66-13.49L1721.35,199l67.17,33.59,5.56,6.31Zm6.6,15.93,4.32,9.41-20.81,14.19-5.3-8.78Zm52.57,170.82-7,5L1716.25,516l-86.82-138.69-2-4.16,78.31-53.54,0,0,0,0,6.1-4.27.15-.1Zm-102.69,64.19-22,10-86.65,26.72L1564,570l-45.15-149.29,95.63-27.79ZM1308,519.71l-16.54,159.16-21.9-4.74-.28,0-2.37-.43a8.43,8.43,0,0,0-5.16-2.48l-27.12-2.77-6.31-1.26L1224,651l-26-89Zm-23-82.31-111.71,43.43-26.54-95.06-.85-3,75.16-22.66h0L1279.17,343l13.52,3.38,3.72,9.71,9.86,70.31.37,2.76Zm-130.32,54.69-65.88,67.61-42.63,33.1L973.31,478.58a8.56,8.56,0,0,0-2.34-2.42l-3.45-2.37,79.21-41.37h0l51-26.93,8.57-4.6,20-10.1.2.69ZM1098.58,385.9l-59.66,31.55h0l-83,43.37L935,402.37l-16.2-45.05,39.06-10.15,111.13-29,7.86.27h14.79l16.06,10.33,13.82,45.54Zm-9.92-116.63-84.61-89-7.91-14.65,0-.07,38.64-36,30.55,4.66,29.06,110.07a2.05,2.05,0,0,0,.63,1l7.21,6.31Zm-90-70.06,77.65,81.63,1.58,1.7-1.19,1.36-14.31,14.31L952.6,326.89l-37.88,9.84-8.12-33.21-15.33-61.31a10.42,10.42,0,0,0-2.93-5l-2.18-2.08L942,220.71h0L990.5,208.2a8.44,8.44,0,0,0,5.15-3.86ZM919.13,408.07,941,469.5l-.76.59-71,38.81-12.13-50.33L837.75,380.3l-.37-1.68,65-17Zm-78.45,54.51,13,54.08-31.4,13.53-65.19,17.9L723.57,406.27l39.84-9.92L821,382.69l.3,1.42ZM741.29,572.21,744.56,586l34.51,141.15-62,14.23a2,2,0,0,0,.45,4,2.3,2.3,0,0,0,.45,0l62.09-14.25,9.31,36.59-39.67,3.67-10.64-.61-45.18-9.28-23-14.09L652,729.4a1.93,1.93,0,0,0-.28-.22l-11.42-7.52-11.88-24.37-10.86-36.87-6.84-35.48v-23.2l8.78,1.12a7.69,7.69,0,0,0,1.07.07,8.87,8.87,0,0,0,2-.23l75.24-18.19,39.1-10.32a8.63,8.63,0,0,0,1.56-.59ZM640.6,726.75l8.7,5.72,19,18a2,2,0,0,0,.34.26l23.46,14.39a2.16,2.16,0,0,0,.65.26l40.42,8.3-7.87,4.53a2.05,2.05,0,0,0-.86,1l-3.61,8.72-5.64,5.93-7.68,2.56-12.28.31-8.79-.85-28.5-38.31-17.46-25.72ZM807.08,938.36,806,936.45,785.08,883.7l-18.7-45.8-9.66-32.4-4.65-30.26,38.3-3.54,16.72,65.73.9,4.19c0,.2.09.41.14.61l1.48,5.33.88,4.07.09.4,20,78.12,14.72,59.51,16.49,64.73-3,.5L840.48,1017l-15-41.54L819.2,956l-1.88-5a2,2,0,0,0-.33-.57ZM850.91,925l-20-78-.9-4.18a6,6,0,0,0-.15-.61l-1.48-5.33-.87-4.07-.09-.39-23.76-93.18-3.26-13,42.68-10.61,75.39-18.45a2.1,2.1,0,0,0,.5-.24,2.29,2.29,0,0,0,.23-.1,1.93,1.93,0,0,0,.27-.3,1.67,1.67,0,0,0,.25-.28,2.24,2.24,0,0,0,.14-.36,2.32,2.32,0,0,0,.13-.37,1.85,1.85,0,0,0,0-.81h0l-9.58-39.35,21.24-5.87L981.13,635l2.61,8.82a5.34,5.34,0,0,0,.18.52l0,.1s0,0,0,0l18.14,46.92a7.73,7.73,0,0,0,.59,1.23l31.86,54.34,33.79,59.53L1097.73,881l-.7,8.12-1.63,1-68.51,19.93-2.83-5.66-19.2-58.23a8,8,0,0,0-.43-1l-11.88-24.4a8.51,8.51,0,0,0-.78-1.29l-9.38-12.83a8.44,8.44,0,0,0-8.83-3.21l-46,11.26a8.45,8.45,0,0,0,4,16.41l40.49-9.92,5.6,7.65L989,852l19.21,58.27a7.47,7.47,0,0,0,.47,1.13l6.26,12.52,0,0,0,.08a9,9,0,0,0,1.09,1.6,1,1,0,0,1,.08.11l10.76,12.16,6.82,27.29,18.45,14.07,49.11-9.69,10.57,33.69-5.11,2.33-33,13.06a7.75,7.75,0,0,0-1.29.64l-31.28,19.08a8.34,8.34,0,0,0-1.49,1.15l-41.91,40.67a8.28,8.28,0,0,0-1.75,2.44l-21.9,46.31a8.12,8.12,0,0,0-.77,2.77l-3.13,31.6c0,.21,0,.41,0,.62l-.42,17.32-50.21,14.15-20.54-79.51h0L865.63,984.56Zm63.19,336.71,13.63,54.8-1.17,10.53-7,15.19-21.22-14.88L821.11,1266l-3-32.3h0l-.48-4.75,21.26,1.33h.33l50,1.57a9.94,9.94,0,0,0,3.84-.6l12.76-4.53Zm-.93,152.91L937,1354.38l9.27-20.06a10.78,10.78,0,0,0,.9-3.24l1.37-12.38,9.32.74h.19a1.74,1.74,0,0,0,.63-.11L997.5,1306l-12.72,12.44a1.13,1.13,0,0,0-.1.13.27.27,0,0,0-.07.08l-.09.1-8.75,12.82a1.88,1.88,0,0,0-.22.42L969,1349.09l-1.95,4.25-9.7,27.84a2.09,2.09,0,0,0,.17,1.71l16.22,27.44,28.14,53.16,0,0h0l5.55,10.69a2.38,2.38,0,0,0,.23.45l15.17,29.19a2,2,0,0,0,1,.92l3.44,1.56a2.05,2.05,0,0,0,1.73,0l13.89-6.79,2.29-.58,1.41,1.72-.3,1.62-8.92,5.47a2,2,0,0,0-.87,1.09l-.94,2.82a2.05,2.05,0,0,0-.08.89l.31,2.5a2,2,0,0,0,1,1.53l2.81,1.56a2,2,0,0,0,1.15.25l4.06-.31a2,2,0,0,0,.83-.25l8.64-4.77,8-.27,21.11,11a2,2,0,0,0,.52.18l22.21,4.7a2.33,2.33,0,0,0,.37,0l26.42.61,34.23,3.74,34.62,10,40,10,12.93,3.47,11.67,2.46-32,1a2,2,0,0,0-1.6.86l-2.24,3.19a10,10,0,0,0-1.28-.5l-83.2-24.4a10.19,10.19,0,0,0-1.89-.37l-88.34-9-44.21-8.78-63.86-25.92L922,1473.4l-9.13-17.74L910.14,1434Zm342.57,137.91-12.86-3.45-29.89-7.48,30-4.18,36.28-4.69a2,2,0,0,0,.65-.2l28.13-14.06,21.27-10.33s0,0,.08-.06h.06l2-1.18a8.48,8.48,0,0,0,6,2.55l1.28,5.36-31,33.39-11,6.43-1.3.78-12.08,3Zm78-59.13a8.42,8.42,0,0,0-4.39,10l-1.94,1.14-21.23,10.31-27.85,13.92-36,4.65-39.93,5.57-34.3-9.88a1.37,1.37,0,0,0-.34-.07l-34.58-3.77-26.4-.62-21.75-4.6-21.34-11.13a1.9,1.9,0,0,0-1-.23l-9.07.32a1.94,1.94,0,0,0-.91.25l-8.69,4.79-3,.23-1.38-.77-.13-1,.56-1.67,9.06-5.56a2,2,0,0,0,.94-1.37l.63-3.44a2.05,2.05,0,0,0-.43-1.65l-2.82-3.44a2,2,0,0,0-2.06-.69l-3.76.94a2.74,2.74,0,0,0-.4.15l-13.21,6.46-1.93-.88-12.81-24.56,65.21,18.92,19.76,13a2,2,0,0,0,.69.29l19.08,4.07a2.06,2.06,0,0,0,1.6-.33l6.74-4.77,68.21,17.9a2.24,2.24,0,0,0,.51.07l.29,0,15.33-2.19a2.29,2.29,0,0,0,.67-.22l16.46-8.85,14.8-.3h.88l33.16.94a1.86,1.86,0,0,0,1.87-1.12l.87-1.73,8.24-2.56a2,2,0,0,0,1.25-2.78l-5.62-12.48-1.87-4.37,0,0a.13.13,0,0,0,0-.06,3,3,0,0,0-.22-.28,1.83,1.83,0,0,0-.24-.31,2,2,0,0,0-.34-.22,2,2,0,0,0-.32-.18,1.59,1.59,0,0,0-.38-.07,1.76,1.76,0,0,0-.39-.06,3.24,3.24,0,0,0-.4.09,1.3,1.3,0,0,0-.33.07l0,0-.06,0-.33.16L1278,1488l28.86-14.87a2,2,0,0,0,1-2.38L1290,1409.13a2,2,0,0,0-1-1.23,2.07,2.07,0,0,0-1.58-.15L1261.3,1416l-13-27.8,0,0s0,0,0,0L1232,1356.31l-27.32-61.63.24-.2h0l21.71-18.25,37.9-31.5,27.26,31.29,8.16,24.49,15.27,54.24a5.55,5.55,0,0,0,.2.52c.08.22.15.45.25.67s.22.42.33.63.22.4.35.59.29.38.44.57.27.35.42.51.35.33.53.49a5,5,0,0,0,.49.43c.19.15.4.27.6.4a6.1,6.1,0,0,0,.54.34,5.85,5.85,0,0,0,.68.3,6,6,0,0,0,.58.25,6.86,6.86,0,0,0,.78.2,4.92,4.92,0,0,0,.55.14,9.08,9.08,0,0,0,1.28.11h.11a8,8,0,0,0,1.74-.21l.19,0,67.88-16a8.46,8.46,0,0,0,6.3-10.13l-2.4-10.32,50.2-9.58,22.85,3.26a8,8,0,0,0,1.19.09,8.52,8.52,0,0,0,2.74-.46l23.19-7.95,4,10.56a10.37,10.37,0,0,0,2.67,4l35.3,32.81,25.83,24.23Zm172.48-233.78-13-55.79,84.71-16.1,18.76-3.45a8.35,8.35,0,0,0,4.15-2l20-18.14a8.46,8.46,0,0,0,2.6-8l-6.16-30,20.33-16.52,17.4-8.7,1.62-.83,21.3,80,7,37.52-77.65,43.47-94.86,26.22Zm164-174s0,0,0,0a8.79,8.79,0,0,0-.64-1.65l-.07-.11a1.17,1.17,0,0,0,0-.11l-21.27-38.48c-.11-.21-.24-.41-.37-.61l-40.63-60.8-.25-.51,39.21-37.52,29.82-25.48,28.45-24.07,14.5-12,11.43-8.65h0l3.62-2.66h18.51l25,97.57-64.56,190h0l-9.46,27.46-5.15,9.35-3.82-20.59c0-.11-.07-.2-.09-.31s0-.21,0-.32Zm98.59-217,101.69-57.68,17.85,30.87,2.64,25.12-41.74,116.89-55.95-19.49Zm90.37-651.49,48.81-17.92,48.3-17.54,6.31,15.76,19.73,51.37,4.69,11.89a8.51,8.51,0,0,0,.72,1.41l49.1,78.26,28.29,184.35-31.74,20.94L1858.09,225a10.57,10.57,0,0,0-1.78-2.38l-2.53-2.52Zm148.43,325.07-27.12,16.28L1939.64,492l-7.43-30.94-3.13-13.77a2,2,0,0,0-.27-.64l-43.53-68.59-16.34-22.94-15.79-19.5-32.73-73.58a2,2,0,0,0-.29-.46l-1.42-1.73,25.11-17.28ZM1835.28,231.25l5.15,5.15,1.43,2.62L1816,256.79l-7.12-7.59Zm-74.75-60.56,41.1,27.4,10.28,9.79,11.22,11.22-25.67,17.53-6.15-7a2.21,2.21,0,0,0-.62-.47l-70.61-35.31L1697.31,180l16.62-32.3Zm-39.34,88.14L1541.94,150.62l96.52-1.74,78.67,48ZM1430,34l18.19-18.81,47,25.13.33.17,96.33,47.22,96.69,47.57,21.65,10.54-16.37,32-53.75-32.76-70.94-46.57a2.14,2.14,0,0,0-.4-.2L1504.1,74Zm60.68,37.32,11.66,6.28.25.11,64.54,24.32,65.31,42.88-97,1.74-64.76-39.34Zm-196.26,2.54,51-34.92,2.44-1.49,14.54,8.16,42,26.94,62.55,37.22,66.94,40.67,188.47,113.78,15.35,13.21L1710,296.26h0l-5.5,3.66-7.1-11.51-13.44-22.2a2.1,2.1,0,0,0-.72-.7l-45.67-26.59a2,2,0,1,0-2,3.51l45.22,26.33,13.18,21.77h0l7.2,11.67-4.91,3.44h0l-76.1,52-4.1-8.81a10.55,10.55,0,0,0-4-4.47l-117.3-73.2-.52-.31-50.79-27.73-37-22.38-49.88-30.43L1335.47,178,1240,119Zm-93.08,77.27,21.67-18,101.7,62.78,20.67,12.16-6,14a2.61,2.61,0,0,0-.06.27s-.06.09-.07.15l-6.57,34.72a2.34,2.34,0,0,0,0,.38v27.84a1.72,1.72,0,0,0,0,.32l6.3,39.59L1334,327h0l-20.85,6.23h0l-6.82,1.88a2.69,2.69,0,0,0-.16-.29c-.15-.23-.32-.43-.48-.65s-.33-.45-.52-.66-.39-.36-.59-.54-.41-.38-.64-.55a6.82,6.82,0,0,0-.68-.41,5.24,5.24,0,0,0-.73-.41,8,8,0,0,0-.93-.34c-.19-.06-.36-.15-.56-.2l-20-5a8.57,8.57,0,0,0-4.44.1l-.11,0L1269,302l-28.15-87-20.64,5.64-25.34,7.5-50.67,16.9-16.05,5.8L1153.2,214l29.45-44.19Zm-19.18-20.3,4.25,5.58L1167.1,155.7a10.45,10.45,0,0,0-1.31,1.59l-30,45-31.28,46.05-6.41-5.62L1069.2,133.17l23.92-20.43ZM1075.57,81.43,1090,110l-23.73,20.26L1036,125.68l-2.55-30.58ZM950.67,64.19l.39-.42,78.27,31.31,2.62,31.55-38.38,35.75L934.63,93.9ZM919.36,59.5a8.6,8.6,0,0,0,1.67-.38l10.47-3.54-9.62,17.83-9.15-13.09Zm4.19,47.41,58.16,67.58,5.73,10.62-4.52,7.6-45.11,11.64h0L884.43,218.1a7.18,7.18,0,0,0-.18-1.22l-16.48-60.33ZM766.2,216.6l15.48,11.22a8.73,8.73,0,0,0,2.46,1.23l17.21,5.32a9,9,0,0,0,2.78.37l44-1.51L858.29,237a10,10,0,0,0,1.5,1.84l11.88,11.35,14.58,58.3,7.52,31,.62,2.46-69.82,18.28L758.46,376l-18.09,4.51L709.23,246.83ZM482.56,447.17a8,8,0,0,0,1.3-1.3l96-119.42,27-26.4,20.75-11.68.53,3.13q.06.36.15.72l26,99.51a9,9,0,0,0,.61,1.64l3.79,7.56L481.78,447.8Zm119.2,131.64-16.38-9.89L564.21,554.5,461.93,474.73l207.44-55,33.86-8.43,34.07,144-5.55,2.72-38.12,10.06-73.55,17.78-8.82-1.13Zm-14,98.23,14-29.24L608,632.33l5.62,29,10.95,37.22a1.75,1.75,0,0,0,.12.32l10.13,20.79-25.53-8a1.68,1.68,0,0,0-.67-.09l-25.74.86Zm-9.06,35.64-38.89,2.4H533l7.67-3.92L556,704.59a1.77,1.77,0,0,0,.52-.33l26.58-22.78Zm3.73,3.9,25.92-.87,28.22,8.82-.26,7.84a2.06,2.06,0,0,0,.35,1.21l17.88,26.35,29,39.05L745,887.56l-26.51-9.69a1.2,1.2,0,0,0-.27-.08l-28.59-6.21-21.33-6.72.85-14.68a2.11,2.11,0,0,0-.23-1.08l-14.92-28-17.14-59.86a2.05,2.05,0,0,0-1.65-1.45l-53.9-8.17Zm54.11,133.83a2.09,2.09,0,0,0-.6-.94l-18.85-16.68-5.59-9.29-12.39-16.42-11.38-24-4.33-20.77-1.51-6.46,51.42,7.8,16.84,58.81a1.88,1.88,0,0,0,.16.39l14.75,27.65-.88,15.13-16,23.27Zm12.86,43.83L667,868.72l21.59,6.78,28.64,6.23L749,893.33l12.75,20.34,22.16,37-9.73,14-20,16.73-27.92-5.09L663.37,957a2.36,2.36,0,0,0-.7-.09l-16.6.84-1-7Zm-8.26,64.89L618.81,970,573,940.2l24.65-36.68ZM557.56,852.26,594,901.73,569.62,938l-49.09-32.43-26-15.08,1.89-5a2.11,2.11,0,0,0,.12-.51l1.57-15.46.62-16.15-.62-11a2.23,2.23,0,0,0-.05-.36l-6.12-25ZM150.14,694.47l.11-.15,1.5-.17,9.27,3.73.16,1.61-.25,1.27a1.75,1.75,0,0,0,0,.4v2.91l-1.59,1.58-3.34,1.2-2-.56-3.37-5.69v-3.82a2,2,0,0,0-.21-.91l-.33-.66ZM117.45,796.63l-3.73.7-2.65-.24-2.73-1.82-1.08-3.47,1.73-3,2.39-1.08,4.3.23,2.24,2.46.92,3.47Zm12.23-54.15a1.91,1.91,0,0,0-.39.46L123,753a2.05,2.05,0,0,0-.22.5l-2.5,8.44a2,2,0,0,0,.28,1.75l4.38,6.25a2,2,0,0,0,.23.27l5.38,5.39.27,6.12-1.33,5.57L124.47,791l-2,.58-.72-2.69a2,2,0,0,0-.46-.85l-3.13-3.44a2.06,2.06,0,0,0-1.39-.66l-5.63-.31a1.92,1.92,0,0,0-1,.18l-3.45,1.56a2.08,2.08,0,0,0-.92.84l-2.34,4.1-21,18.87-9.7,2.94-6.74.75L46.77,766.27l1-7,5-2,47.65-8.1a2.07,2.07,0,0,0,.79-.31l20-13.46,11.06,4.84ZM373.41,866.93a2,2,0,0,0-.44,1.22l-1.26,44.73v0a1.78,1.78,0,0,0,.08.47,3,3,0,0,0,.07.32,2.29,2.29,0,0,0,.18.29,2.16,2.16,0,0,0,.24.35,1.84,1.84,0,0,0,.22.17,2.44,2.44,0,0,0,.43.28l0,0,3.68,1.52-14.9,56.92-13.91,4.18L215.12,929.24,157.9,892.86,148.17,884l-2.89-11.86,1.83-15.28s0,0,0,0,0,0,0-.06l5.94-88.84a2,2,0,0,0-.11-.81l-7.51-21.27a2,2,0,0,0-.54-.82l-7.5-6.89a2.3,2.3,0,0,0-.37-.23c-.05,0-.1-.08-.16-.11l0,0-12.49-5.46,23.87-27.68,2.63,4.44a2,2,0,0,0,1.21.93l3.44.94a2,2,0,0,0,1.22-.05l4.38-1.56a2.09,2.09,0,0,0,.76-.48l2.5-2.5a2,2,0,0,0,.59-1.44v-2.38L274.68,749l48.49,22.21a1.85,1.85,0,0,0,.33.12l54.34,14.12,4.46.63,7.22.75-.9,61.26Zm72.33-10.62-4.6-7a2.06,2.06,0,0,0-.86-.74l-11.57-5.31a2.07,2.07,0,0,0-1.62,0,2,2,0,0,0-1.13,1.16l-15.07,39.48-34.17-4.56.29-10.31,15.21-18.86a2.07,2.07,0,0,0,.45-1.24l.92-62.31,17.94-5.22a1.52,1.52,0,0,0,.47-.2l5.9-3.48,69.2,36.88L494,842.85l.61,10.57L494,869.25l-1.54,15.06-1.55,4.06-34.57-20.51ZM548.87,971.17l-16.7-9.9-5.62-3.55-16.39-22-46.67-59L491,893.11,518.39,909l49,32.38Zm4.12,1.06,17.82-28.62,43.05,28.06-16.66,4.9Zm-440.46,96.94,3.58-42.37.92-1.57,28.16,16.88L173.82,1055l70.12,24.73,45,14.45,47.1,9.1,49.12,5-109.4,14.31Zm236.59,119-124-18.21-67.2-19.2,26.67-16.83,90.92-7.14,57.41,8.37,79.34,21.16,25.35,20.53Zm262-50.26a8.72,8.72,0,0,0-1.43.24l-130.24,33.34-36.31,4.65-28.7-23.26a2,2,0,0,0-.76-.38l-80-21.32-43.33-6.33,126.5-16.54a2,2,0,0,0,.34-.12,2.61,2.61,0,0,0,.27-.06l10.63-5a2,2,0,0,0,.79-.66l15.29-21.53,29.29-38.33L506.56,1012l22.93-10.09,24.57-4.36,31.28-7.19a2.07,2.07,0,0,0,.79-.38l12.21-9.46,20.9-6.15a1.75,1.75,0,0,0,.32-.12l25.27-12.33,17.68-.9,62.77,19.35,29,5.29L792,997.77a1.77,1.77,0,0,0,.56.09l10.32.32h.07a2.08,2.08,0,0,0,1.36-.52l6.25-5.63a2,2,0,0,0,.67-1.45l.63-19.39a2.56,2.56,0,0,0,0-.39L809.93,959l-1.62-12.7,5.32,6.47,1.73,4.6,6.28,19.47,15.09,41.8L855.81,1058a2,2,0,0,0,1.83,1.15,2,2,0,0,0,.34,0l4.82-.8,13.88,54.49-23.85,6Zm9.87,47.21V1185l-5.62-30.54,239.51-18.85a9.5,9.5,0,0,0,1.4-.23l24.61-6.21,19.9,77.07-12.88,4.57-47.91-1.5-24.86-1.55-.42,0-41.91-.94a11,11,0,0,0-1.89.13l-143.07,22.82ZM440.58,1314.63a3,3,0,0,0,.4-.21l36.84-20,36.28-13L525,1315.89l-4.56,1.8a8.43,8.43,0,0,0-5.23,9.07l-12.95,5.3-59.09,19.6-4-36.34Zm-61.76,53.73-21.82-13,78.28-38.15L444,1396ZM516,1420.65,488.57,1415l-38-16.25-2.22-.94-4.67-42.06,60-19.92,13.08-5.35a8.41,8.41,0,0,0,9.9,2.88l11.88-4.69h0l78.89-31.18,10.47,123.69Zm105.85-143h0l-81,32-10.53-33.18,99.32-25.76L765.88,1229l.84,5.28h0l8.14,51a8.44,8.44,0,0,0,3.75,5.76l29.51,19.1,31.53,87.46-.94,8.76-3.19,9.82-8.09,8.34-17.66,12.4-5.1-10.05-36.76-93.15a8.74,8.74,0,0,0-1-1.78l-20.33-28.78a8.68,8.68,0,0,0-1.58-1.68L728.46,1288a8.4,8.4,0,0,0-2.32-1.34l-40.35-15.33a8.43,8.43,0,0,0-2.22-.51l-33.78-3.13a8.55,8.55,0,0,0-3.85.54Zm202.28,274.23-177.4-4.32-1.09-109.35,146.12.57,7.36,14.49c.1.2.25.38.36.58s.16.3.26.45l.1.11c0,.06.07.13.12.18l36.31,47.16Zm3.68,56.69-21.83-.21-160.5-5,1.09-38.86,176.62,4.31Zm-194-317.47,16.35-6.37,30.65,2.84,38,14.44,14.62,11.86,19.08,27,32,81-139.64-.54Zm38.82,398-9.07,10.32a8.58,8.58,0,0,0-1.94,3.92l-.68,3.4-14.33-.62-1.28-85.94,128.55,4-51,27.34a7.28,7.28,0,0,0-1.06.67L674,1687.9A8.19,8.19,0,0,0,672.69,1689.1Zm380.7-31.09a.17.17,0,0,0,0,.07,9.23,9.23,0,0,0-.19,1.05,10.14,10.14,0,0,0-.17,1.06l0,.08-3.46,58.35-283.16-8.46-33.55-1.25-53.7-1.55,5.67-6.45,46.64-34.75,76.36-40.91,29.33.29L990.38,1629l67.88,12Zm16-39-3.11,6.22-73.56-13a7.82,7.82,0,0,0-1.28-.13l-146.55-3.28L839.31,1561l11.17-46.12,48.4,39.91a8.46,8.46,0,0,0,2.51,1.43l136.38,49.11a8.89,8.89,0,0,0,.88.26l31.43,7.61Zm107.71,43.42-53.3-19.66-20.91-9.53c-.23-.1-.47-.15-.7-.24s-.44-.2-.68-.28l-17.51-5.17,1.14-2.27a8.59,8.59,0,0,0,.82-2.71l.76-5.93,19.39,3.37,76.27,26.45Zm84.28-58L1207,1673.93l-14.16-5.54,8.11-24.56a8.45,8.45,0,0,0-5.25-10.63L1111,1603.79a9.83,9.83,0,0,0-1.32-.34l-28.5-5-38.08-9.21-134.57-48.46-56.94-46.95-32.82-42.62,19.06-13.38a9.22,9.22,0,0,0,1.21-1l10-10.32a8.49,8.49,0,0,0,2-3.27l4.06-12.51a8.88,8.88,0,0,0,.37-1.7l1.25-11.58a8.38,8.38,0,0,0-.46-3.78l-12.44-34.51,13.18-5v0l12.8,43.17,5.88,28.5.31,16.71a2.08,2.08,0,0,0,.35,1.1l8.45,12.51a2,2,0,0,0,1.23.84l6.11,1.41.21,1.66a10.41,10.41,0,0,0,1.08,3.5l11,21.27a10.33,10.33,0,0,0,2.59,3.24l28.78,24.09a10.37,10.37,0,0,0,2.78,1.68l66.32,26.9a10.54,10.54,0,0,0,1.89.57l45.67,9.07c.33.06.65.11,1,.14l87.88,9,81.41,23.87,40,19.66A9.76,9.76,0,0,0,1261.34,1604.39Zm38.89-24.25a10.41,10.41,0,0,0-7.19,1.74l-10.82,7.49-47.84-23.53,1.27-1.8,47.71-1.53h.11a1.64,1.64,0,0,0,.38,0l12.82-3.13a2.13,2.13,0,0,0,.56-.23l12.81-7.5a1.83,1.83,0,0,0,.46-.37l31.91-34.41a2.07,2.07,0,0,0,.49-1.86l-1.54-6.41,234.9-114,9.68,18.46.07.11,0,.07c.11.19.23.36.35.54s.25.42.4.62.3.36.45.55l.23.28Zm449-293-25.07,29.16-21.87,19.41.4-3.35-4-.49-.94,7.82h.07l-.07.07-98.14,54-8.49-16.18a10,10,0,0,0-2.11-2.77l-35.38-33.2L1520,1310.47l-2.66-7,95.45-26.39a8.5,8.5,0,0,0,1.87-.78l72.45-40.55,2.29,25.8a8.42,8.42,0,0,0,6.77,7.53l.23,5.88,4.07-.16-.24-5.91a8.44,8.44,0,0,0,6-8.83l-3.21-36.23,15.29-27.75,19.81,7.2,34.59,12.18Zm-9.7-87.7-19.62-7.13,9.08-26.37v0h0l62.64-184.33L1844,999.82l-16.6,53.09-21.21,60.52a.53.53,0,0,0,0,.12.54.54,0,0,0-.05.11l-11.52,35.12a11,11,0,0,0-.55,1.68l-20,61.13Zm35.22,77.16L1808,1175.11l53.32,69.52Zm175.34-3.65-43.43-20-8.39-4.19-12.92-7.27L1815.94,1151l6.33-19.3,3.72-11.45,21.23-60.57c0-.11.07-.23.11-.34l16.59-52.92,2.44-7.91,40.89-114.57,3.28-9.15,31.15-22.49a10.49,10.49,0,0,0,4.25-9.91l-.34-2.48,27.16-87.85,7.44-13.22,12.45-12.45,51.41-29.29,12.78-1.79,11.08,1.76,37.4,20.4,4,37.1-3.33,52.61-16.32,67-26.14,84.12h0c0,.08-.05.15-.07.23l-34.77,121.88-46.85,177.41-6.45,20Zm-296.81,361.68-9.91-18,106.94-60,9.8,16.25Zm419.59,152.31-18.57-22.1-22.67-26.71-31.29-40.59-14.24-19.39-12.22-23.25-8.57-21-7-30-4.8-36.82-2.81-19.39c0-.11,0-.22,0-.32l-3.33-18.8,55.93,4.29,17.29,3.64h0l53.17,10.94a7.88,7.88,0,0,0,1.27.16l39.57,2Zm44.69-254-41.08-2.09L2023.93,1520h0l-17.83-3.76a10.19,10.19,0,0,0-1.09-.15l-60.66-4.65-6.17-41.06-1-31.4,41.84-3,20.58-1.55h0l45.67-3.13a8.87,8.87,0,0,0,1.85-.34l8.14-2.44,44.71.58,33.77,16.12Z"/><rect x="1383.1" y="884.25" width="4.07" height="7.72" transform="translate(-228.39 565.83) rotate(-21.37)"/><rect x="1378.04" y="872.22" width="4.07" height="7.84" transform="translate(-234.77 622.15) rotate(-23.47)"/><rect x="1372.97" y="860.05" width="4.07" height="8.13" transform="translate(-226.49 594.78) rotate(-22.6)"/><rect x="1368.03" y="848.13" width="4.07" height="7.85" transform="translate(-226 616.17) rotate(-23.47)"/><rect x="1362.95" y="836.25" width="4.07" height="7.84" transform="translate(-221.95 614.94) rotate(-23.53)"/><rect x="1452.45" y="842.86" width="4.07" height="7.9" transform="translate(-225.43 949.21) rotate(-33.7)"/><rect x="1445.22" y="831.93" width="4.07" height="7.9" transform="translate(-220.61 942.99) rotate(-33.68)"/><rect x="1438.06" y="820.96" width="4.07" height="7.9" transform="translate(-215.7 937.55) rotate(-33.7)"/><rect x="1430.87" y="810.28" width="4.07" height="7.64" transform="translate(-207.84 968.73) rotate(-34.99)"/><polygon points="1425.29 799.03 1427.03 798 1424.96 794.5 1418.08 798.57 1420.15 802.07 1422.36 800.77 1421.8 801.14 1426.18 807.7 1429.57 805.45 1425.29 799.03"/><rect x="1324.66" y="824.43" width="4.06" height="7.83" transform="translate(446.45 2121.19) rotate(-87.73)"/><rect x="1337.48" y="824.72" width="4.07" height="7.83" transform="translate(457.96 2133.92) rotate(-87.71)"/><rect x="1350.61" y="825.03" width="4.07" height="7.83" transform="translate(470.26 2147.35) rotate(-87.71)"/><polygon points="1369.02 831.47 1370.51 830.48 1368.53 827.52 1368.54 827.38 1368.25 827.1 1367.87 827.35 1361.97 827.07 1361.92 828.07 1358.45 829.61 1359.7 832.43 1362.54 831.17 1369.02 831.47"/><rect x="1373.47" y="822.14" width="7.72" height="4.07" transform="translate(-227.57 848.71) rotate(-31.77)"/><rect x="1384.8" y="815.62" width="7.73" height="4.07" transform="translate(-222.44 853.62) rotate(-31.77)"/><rect x="1396.11" y="809.2" width="7.84" height="4.07" transform="translate(-217.51 769.53) rotate(-28.61)"/><rect x="1407.39" y="802.62" width="7.84" height="4.07" transform="translate(-212.99 774.49) rotate(-28.63)"/><rect x="1429.86" y="789.88" width="7.84" height="4.07" transform="translate(-204.14 783.33) rotate(-28.61)"/><rect x="1213.33" y="1095.18" width="7.85" height="4.06" transform="translate(-336.64 576.63) rotate(-23.51)"/><rect x="1225.22" y="1089.85" width="7.84" height="4.06" transform="translate(-333.64 581.28) rotate(-23.52)"/><rect x="1237.42" y="1084.53" width="7.84" height="4.06" transform="translate(-330.5 585.71) rotate(-23.52)"/><rect x="1249.31" y="1079.52" width="7.84" height="4.06" transform="translate(-327.52 590.04) rotate(-23.52)"/><rect x="1261.2" y="1074.2" width="7.84" height="4.06" transform="translate(-324.41 594.34) rotate(-23.52)"/><rect x="1273.08" y="1068.89" width="7.85" height="4.06" transform="translate(-321.3 598.64) rotate(-23.52)"/><rect x="1284.96" y="1063.9" width="7.85" height="4.06" transform="translate(-318.21 602.61) rotate(-23.51)"/><path d="M364.83,909.81v1.09l-6.56,42.35L337,951l-86.69-35.87h0l-5.81-2.42,25.75-85.94,5.47,2h0l73.81,27.83a1.59,1.59,0,0,0,.3.06c.07,0,.13.06.2.06l16,1.68Zm3.5-55.2-17.57-1.85L277.18,825h0l-7.51-2.82a2,2,0,0,0-2.66,1.32l-26.9,89.78a2,2,0,0,0,1.17,2.46l7.5,3.13h0l87,36c.1,0,.21,0,.31.06a2,2,0,0,0,.26.08l23.46,2.5H360a2,2,0,0,0,2-1.72l6.88-44.42a1.63,1.63,0,0,0,0-.31l1.25-54.38a2,2,0,0,0-1.82-2.07"/><rect x="1810.2" y="1536.88" width="4.06" height="7.84" transform="translate(-516.56 1056.02) rotate(-28.61)"/><polygon points="1802.11 1526.78 1806.17 1533.66 1809.68 1531.6 1805.61 1524.72 1802.11 1526.78"/><rect x="1797.45" y="1514.04" width="4.07" height="7.84" transform="translate(-507.23 1047.44) rotate(-28.62)"/><rect x="1791.19" y="1502.78" width="4.07" height="7.84" transform="translate(-502.6 1043.07) rotate(-28.62)"/><polygon points="1786.52 1490.92 1783.03 1493.01 1785.77 1497.57 1786.71 1499.44 1790.35 1497.63 1789.34 1495.61 1786.52 1490.92"/><polygon points="1776.46 1481.42 1780.52 1488.31 1784.03 1486.24 1779.96 1479.36 1776.46 1481.42"/><rect x="1771.87" y="1468.63" width="4.07" height="7.84" transform="translate(-488.45 1028.83) rotate(-28.6)"/><polygon points="1763.63 1458.9 1767.7 1465.78 1771.2 1463.72 1767.13 1456.84 1763.63 1458.9"/><rect x="1758.98" y="1446.15" width="4.07" height="7.56" transform="translate(-487.28 1064.41) rotate(-29.74)"/><polygon points="1754.38 1434.12 1750.74 1435.94 1752.37 1439.19 1754.56 1442.94 1758.07 1440.89 1755.94 1437.25 1754.38 1434.12"/><rect x="1746.02" y="1423.13" width="4.07" height="7.99" transform="translate(-482.89 1087.62) rotate(-30.58)"/><rect x="1739.58" y="1412.06" width="4.07" height="7.84" transform="translate(-465.46 1007.26) rotate(-28.62)"/><rect x="1733.08" y="1400.75" width="4.07" height="7.84" transform="translate(-460.69 1001.98) rotate(-28.6)"/><polygon points="1698.92 1319.15 1699.5 1325.78 1699.44 1325.89 1699.55 1326.35 1700.24 1326.29 1703.08 1327.7 1703.65 1326.56 1702.97 1318.8 1698.92 1319.15"/><rect x="1698.46" y="1306.14" width="4.07" height="7.83" transform="translate(-51.17 69.24) rotate(-2.3)"/><rect x="1697.83" y="1293" width="4.07" height="7.83" transform="translate(-50.64 69.21) rotate(-2.3)"/><rect x="1697.12" y="1280.13" width="4.07" height="7.53" transform="translate(-100.36 144.91) rotate(-4.74)"/><rect x="1241.92" y="870.09" width="7.69" height="4.06" transform="translate(-258.52 649.33) rotate(-26.57)"/><polygon points="1236.53 879.49 1239.02 878.1 1237 874.57 1234.95 875.74 1230.1 877.56 1231.53 881.37 1236.53 879.49"/><rect x="1218.44" y="880.53" width="7.62" height="4.06" transform="translate(-222.19 450.81) rotate(-19.19)"/><rect x="1205.84" y="884.93" width="7.91" height="4.07" transform="translate(-218.24 427.59) rotate(-18.42)"/><rect x="1193.89" y="889.6" width="7.84" height="4.07" transform="translate(-256.14 551.36) rotate(-23.49)"/><rect x="1181.73" y="894.66" width="7.85" height="4.06" transform="translate(-259.27 547.38) rotate(-23.51)"/><rect x="1169.54" y="899.43" width="8.02" height="4.07" transform="translate(-241.8 469.44) rotate(-20.56)"/><rect x="1157.74" y="904.49" width="7.72" height="4.07" transform="translate(-250.38 485.32) rotate(-21.36)"/><rect x="1145.44" y="909.34" width="7.85" height="4.07" transform="translate(-267.98 533.49) rotate(-23.48)"/><rect x="1133.63" y="914.16" width="7.73" height="4.07" transform="translate(-255.5 477.03) rotate(-21.35)"/><rect x="1121.43" y="919.17" width="7.73" height="4.07" transform="translate(-258.16 472.93) rotate(-21.35)"/><line class="cls-3" x1="1144.05" y1="1413.32" x2="1179.83" y2="1415.83"/><line class="cls-3" x1="1168.56" y1="1406.02" x2="1167.31" y2="1423.97"/><line class="cls-3" x1="1545.14" y1="884.96" x2="1575.55" y2="865.95"/><line class="cls-3" x1="1560.68" y1="864.64" x2="1570.21" y2="879.9"/><line class="cls-3" x1="1526.74" y1="848.62" x2="1560.44" y2="836.35"/><line class="cls-3" x1="1546.16" y1="831.98" x2="1552.32" y2="848.88"/><line class="cls-3" x1="1451.86" y1="506.64" x2="1485.57" y2="494.38"/><line class="cls-3" x1="1471.29" y1="490" x2="1477.44" y2="506.91"/><line class="cls-3" x1="1095.43" y1="991.33" x2="1060.34" y2="998.78"/><line class="cls-3" x1="1073.87" y1="1005.1" x2="1070.13" y2="987.5"/><polygon class="cls-1" points="1192.17 492.84 1206.96 540.09 1273.12 514.44 1282.23 493.92 1277.17 475.96 1256.24 467.52 1192.17 492.84"/><line class="cls-3" x1="1223.03" y1="506.64" x2="1256.73" y2="494.38"/><line class="cls-3" x1="1242.45" y1="490" x2="1248.6" y2="506.91"/><text class="cls-4" transform="translate(1351.43 976.9) rotate(56.49)">Masary<tspan class="cls-5" x="53.18" y="0">k</tspan><tspan x="61.14" y="0">ova</tspan></text><text class="cls-4" transform="translate(1484.17 1234.74) rotate(75.41)">Masary<tspan class="cls-5" x="53.18" y="0">k</tspan><tspan x="61.14" y="0">ova</tspan></text><text class="cls-4" transform="matrix(0.87, -0.49, 0.49, 0.87, 1652.16, 1383.69)">Ndran</text><text class="cls-4" transform="matrix(0.87, -0.49, 0.49, 0.87, 1507.28, 1481.15)">Ndran</text><text class="cls-6" transform="translate(1273.93 1205.93)">Zeln trh</text><text class="cls-6" transform="translate(1129.42 728.71)">nmst Svobody</text><text class="cls-6" transform="translate(1733.63 735.33) rotate(-28.54)">Malinovs<tspan class="cls-7" x="90.4" y="0">k</tspan><tspan class="cls-8" x="101.42" y="0">ho nm.</tspan></text><text class="cls-4" transform="matrix(0.27, 0.96, -0.96, 0.27, 1136.5, 404.88)">Ranova</text><text class="cls-4" transform="matrix(0.27, 0.96, -0.96, 0.27, 1185.23, 570.83)">Ranova</text><text class="cls-4" transform="translate(1191.63 489.64) rotate(-19.96)">Ja<tspan class="cls-9" x="16.24" y="0">k</tspan><tspan x="24.54" y="0">ubs</tspan><tspan class="cls-5" x="50.02" y="0">k</tspan><tspan x="57.98" y="0"> nm.</tspan></text><text class="cls-4" transform="matrix(1, 0, 0, 1, 1375.43, 712.28)"><tspan class="cls-10">K</tspan><tspan x="9.64" y="0">oblin</tspan></text><text class="cls-4" transform="matrix(1, 0, 0, 1, 1582.87, 704.38)"><tspan class="cls-10">K</tspan><tspan x="9.64" y="0">oblin</tspan></text><text class="cls-4" transform="translate(1574.2 793.56) rotate(-25.81)">Jns<tspan class="cls-11" x="32.33" y="0">k</tspan><tspan x="40.58" y="0"></tspan></text><text class="cls-4" transform="translate(1392.45 910.89) rotate(-32.92)">Jns<tspan class="cls-11" x="32.33" y="0">k</tspan><tspan x="40.58" y="0"></tspan></text><text class="cls-4" transform="translate(1637.54 951.78) rotate(-42.12)">Orl</text><text class="cls-4" transform="translate(1502.38 1051.29) rotate(-28.25)">Orl</text><text class="cls-4" transform="translate(965.93 495.51) rotate(57.4)">es<tspan class="cls-12" x="28.16" y="0">k</tspan><tspan x="36.41" y="0"></tspan></text><text class="cls-4" transform="translate(1050.4 626.67) rotate(54.67)">es<tspan class="cls-12" x="28.16" y="0">k</tspan><tspan x="36.41" y="0"></tspan></text><text class="cls-4" transform="translate(978.96 618.27) rotate(70.05)"><tspan class="cls-13">V</tspan><tspan x="9.97" y="0">esel</tspan></text><text class="cls-4" transform="translate(1070.94 805.02) rotate(68.48)"><tspan class="cls-13">V</tspan><tspan x="9.97" y="0">esel</tspan></text><text class="cls-4" transform="translate(1085.57 901.1) rotate(70.77)">Domini<tspan class="cls-11" x="54.81" y="0">k</tspan><tspan x="63.05" y="0">ns</tspan><tspan class="cls-5" x="87.37" y="0">k</tspan><tspan x="95.33" y="0"></tspan><tspan x="0" y="19.95">nm.</tspan></text><text class="cls-4" transform="matrix(0.25, 0.97, -0.97, 0.25, 726.72, 486.89)">Husova</text><text class="cls-4" transform="matrix(0.25, 0.97, -0.97, 0.25, 810.87, 826.4)">Husova</text><text class="cls-4" transform="matrix(0.25, 0.97, -0.97, 0.25, 889.6, 1137.67)">Husova</text><text class="cls-4" transform="translate(1042.16 431.34) rotate(-27.2)">Solnin</text><text class="cls-4" transform="translate(845.92 537.29) rotate(-27.2)">Solnin</text></svg>