<svg id="Vrstva_1" data-name="Vrstva 1" xmlns="http://www.w3.org/2000/svg" viewBox="0 0 4103.17 2826.33"><defs><style>.cls-1,.cls-4{fill:#00006c;}.cls-2,.cls-3{fill:none;}.cls-3{stroke:#000;stroke-linecap:round;stroke-linejoin:round;stroke-width:3.1px;}.cls-4{font-size:16.62px;}.cls-4,.cls-6{font-family:PlusssBrrrno-Regular, PlusssBrrrno;}.cls-5{letter-spacing:-0.04em;}.cls-6{font-size:22.99px;fill:#e8002a;}.cls-7{letter-spacing:-0.04em;}.cls-8{letter-spacing:0em;}.cls-9{letter-spacing:-0.02em;}.cls-10{letter-spacing:-0.06em;}.cls-11{letter-spacing:-0.02em;}.cls-12{letter-spacing:-0.02em;}.cls-13{letter-spacing:-0.07em;}</style></defs><title>brrrno2_mapa2</title><rect class="cls-1" width="4103.17" height="2826.33"/><rect class="cls-1" x="776.94" y="430.22" width="2657.08" height="1822.48"/><polygon class="cls-2" points="2219.09 870.06 2196.89 880.45 2241.41 1025.92 2324.7 1001.29 2279.55 852 2219.09 870.06"/><path class="cls-2" d="M2337.7,1015.07h-.06l-99.39,29.38h0l-.08,0-65.2,20.15,18.87,60,188-8.35-.38-2s0-.06,0-.08,0-.06,0-.09l-17.82-106.06Z"/><path class="cls-2" d="M2363.42,1405.22l-.71-1.73-58.18-65.57a8.87,8.87,0,0,1-.82-1.09l-9.57-15.13-30.83-43.28-20.11,13.11-56.59,37.21-62.5,40.85,43.76,65.78,26.91,40.69,14.1,21.63,105.25-55.22Z"/><path class="cls-2" d="M2169.44,1623.21l6.66-1.8,2.58-.87,61.14-21.37L2229,1561.29l-28.86-39.37-36.7,21.92a8.54,8.54,0,0,1-1,.51l-1.66.71-11.19,6.71,10.46,37.28Z"/><path class="cls-2" d="M2334.55,1211.86l40.67-20.65q.39-.2.81-.36l37-14.11-7.37-43.75-15.55-.25-192.74,8.56,15,43.9,1.93,2.79,12.58,15c.15.18.29.37.43.56l13.92,19.8,26,32.29,66.49-43.36C2334,1212.15,2334.28,1212,2334.55,1211.86Z"/><path class="cls-2" d="M1761.83,1675.34l-11.54-44-47.79,14.43,8.9,37.63,14,56.51a11.52,11.52,0,0,1,.21,1.31l9.07.72,39.65-13.62-11-46.78Z"/><path class="cls-2" d="M1827.78,1478.86l-40.14,39L1767,1561.39l-3,29.84-.29,11.58,7.14-3.22a9.12,9.12,0,0,1,3.71-.75l91.72,2.5,8.66-.27,44.34-13.15a7.36,7.36,0,0,1,1.32-.27l49.42-6.26a8,8,0,0,1,1.7,0l6,.45-9-60.61-5.62-18.94-16.77-38.84-29.32-22.71-5.9-2.5-20.71,9.41-.38.17-32.49,12.87Z"/><polygon class="cls-2" points="2133.35 914 2168.81 1048.24 2225.24 1030.81 2181.6 888.2 2133.35 914"/><path class="cls-2" d="M2111.64,914.12l-.37-.16-6.91-3.09-1.21,22.88h0v.16a1.52,1.52,0,0,0,0,.21,1.62,1.62,0,0,0,0,.22l-18.41,177.16,3,1.13a8.43,8.43,0,0,1,5.42,8l80.94,3.72-17.33-55.11c0-.08,0-.16-.06-.25s-.07-.2-.1-.31l-1.88-7.82L2116.41,916Z"/><path class="cls-2" d="M2016.14,1614.72a7.89,7.89,0,0,1-.44-1.58l-1.65-9.29-4-1.47-1.31-.19-21.86-2.77-15.51-1.17-47.91,6.07-17.5,5.13-.49.14,18.12,5.58,49,14.35a8.47,8.47,0,0,1,5.33,4.65l1.11,2.48,41.24-11.27Z"/><path class="cls-2" d="M1860.77,1226.3l30.34,77c0,.08,0,.16.07.24a9,9,0,0,1,.25.89,6.41,6.41,0,0,1,.16.76,6.83,6.83,0,0,1,.06.79c0,.12,0,.23,0,.35l28.93-15.66,60.74-53.62-1-.71L1954,1217.15a8.34,8.34,0,0,1-1-.86l-16.14-16.14-19.58-18a6.86,6.86,0,0,1-.65-.67l-16.89-19.39a8.42,8.42,0,0,1-.83-1.13l-13.19-21.48-.75-1-48.75,29.19-6.2,4.24,30.27,53.31A8.53,8.53,0,0,1,1860.77,1226.3Z"/><path class="cls-2" d="M1893.11,1349.21l1.56,3.75-1.61.67,4.77,16.34,14,36.27,6,16.4,6.94,2.94a9.07,9.07,0,0,1,1.88,1.1l27.43,21.25,86.43-49.73.09,0a.18.18,0,0,0,.07-.05l6.88-3.75,41.88-23.71a8.31,8.31,0,0,1-2.81-2.48l-14.21-20.08-17-20.73-9.19-11.72a7.17,7.17,0,0,1-.45-.63l-5.92-9.18-8.35-9.55a7.69,7.69,0,0,1-.73-1l-6.72-10.38-23.42-31-2.86-2.6-.4-.39-2.84-2.94-63.38,56a8.07,8.07,0,0,1-1.57,1.1l-43.73,23.66,6.14,21Z"/><path class="cls-2" d="M1896,1125.18l1.39-.33,11.85-7.9a8.49,8.49,0,0,1,3.54-1.34l6.32-5.92.24-.22,19.08-16.58a8.49,8.49,0,0,1,5.15-2.06l33.78-1.57a8.41,8.41,0,0,1,1.66.09l3.52.54-1.78-6.7-28.07-96.05-15.46-50-59.78,61.36c-.14.13-.29.23-.43.36s-.28.29-.44.42l-42.49,33-.76,2.86,60.51,87.31Z"/><path class="cls-2" d="M2485.15,1111.11a1.84,1.84,0,0,1-.09-.25L2449.81,981,2378,1003.18l18.15,108.06.89,4.7,15.94.22h.18l74.1,1.22-2-6.06A1.6,1.6,0,0,1,2485.15,1111.11Z"/><path class="cls-2" d="M2484.52,1154.68c.23-.07.47-.13.7-.18l13.45-2.81.14,0,.21-.05.81-.13-7-17.06-3.94-.13-66-1,6.42,38Z"/><polygon class="cls-2" points="2055.36 1409.3 2084.76 1480.46 2122.81 1459.42 2122.81 1459.42 2148.75 1444.73 2148.76 1444.72 2148.88 1444.66 2106.26 1380.49 2055.7 1409.11 2055.36 1409.3"/><path class="cls-2" d="M2135.1,1540.8a1.29,1.29,0,0,1,.16-.09l.14-.1,17.21-10.33a8.68,8.68,0,0,1,1-.51l1.67-.72,35.28-21.07-13.31-20.41-26.13-39.51-.37.2h0l-26,14.71h0l-38.45,21.33,28,70.18Z"/><path class="cls-2" d="M2090.4,1256.61l.52,18,4.8,19.78,2.84,12.29,2.22,10.82,19.44,29.62a8.27,8.27,0,0,1,1.32,4l55.82-36.48L2234,1277.4l19.1-12.45-25.1-31.19c-.12-.15-.23-.29-.33-.44l-13.87-19.73-12.6-15.06c-.16-.2-.32-.4-.47-.61l-2.81-4.07a8.23,8.23,0,0,1-1-2.07l-17.22-50.24-88.94-4.1L2090,1141l-2.45,39.73.92,21.1.93,14.2.6,15.87a8.27,8.27,0,0,1-.2,3.49l.51,17.16,4.2.17-.17,4.06Z"/><path class="cls-2" d="M2048,1585.62l51.53-22.81-3-7.47-26.26-65.67-29.76-72-76.47,44L1978.9,1496a7.55,7.55,0,0,1,.35.94l5.94,20a8.15,8.15,0,0,1,.27,1.21l1.56,11,8.12,54.32,18.18,2.33a7.88,7.88,0,0,1,1.72.43l7.43,2.73Z"/><polygon class="cls-2" points="2528.22 715.16 2532.57 724.55 2589.57 685.69 2582.45 678.1 2528.22 715.16"/><path class="cls-2" d="M2658.84,806.93l-16.21-22.75L2628.71,767l-16.59,32-10.47,46.21,6.07,25.82,9,15,15.86,11.67,12.58,2,19.09-10.61a2.09,2.09,0,0,1,.85-.25l39.54-2.66-2.52-11.1Z"/><path class="cls-2" d="M2592.29,688.76l-58,39.54,2,4.41,20.55,34.56a3.18,3.18,0,0,1,.16.32l9.38,25,4.58,11.59,27.53,36.34,9.67-42.67a2.15,2.15,0,0,1,.18-.48l17.69-34.17-32.33-72.68Z"/><path class="cls-2" d="M2712.69,919.87l-7.1-29.61-39.75,2.67L2647.7,903l5.5,56.23a2,2,0,0,1-.81,1.82l-6,4.54,24.91,41.1L2740.33,965l-27.39-44.55A2.06,2.06,0,0,1,2712.69,919.87Z"/><polygon class="cls-2" points="2508.3 741.09 2529.11 726.91 2524.8 717.5 2503.01 732.31 2508.3 741.09"/><path class="cls-2" d="M2488.82,741.86l-6.09,4.27,0,0,0,0-78.31,53.54,2,4.17,86.83,138.69,77.23-49.26,6.94-5L2489,741.75Z"/><polygon class="cls-2" points="2295.76 847.23 2340.91 996.53 2366.03 989.18 2452.68 962.47 2474.68 952.51 2391.38 819.45 2295.76 847.23"/><path class="cls-2" d="M2498.29,625.62l4.09,62.56L2518,701.66l.14-.09h0l52.82-36-5.55-6.3Z"/><path class="cls-2" d="M2649,958.5l-5.37-54.86-12.21-1.94a1.93,1.93,0,0,1-.88-.38L2614,889.12a1.91,1.91,0,0,1-.54-.59l-8-13.3-8.39,9.15,47.13,77.73Z"/><polygon class="cls-2" points="2532.75 734.62 2530.86 730.64 2511.9 743.56 2551.21 808.69 2562.25 793.04 2553.3 769.19 2532.75 734.62"/><path class="cls-2" d="M2159.61,1695.53l3.51,10.08,30.67,14.24,53.68,7.67,21.83-7.49-6.52-29.12-14.93-64.07-3.34-11.42-63.31,22.09-.46.14-14,3.78-27.6,15.64,7.45,15.74,12.34,21.28A9.37,9.37,0,0,1,2159.61,1695.53Z"/><path class="cls-2" d="M2411.86,1359.85c.06,0,.1-.12.17-.17l30-25.65,26.09-22.08,22-141.23-1.14.24-63.8,19.2-42.77,16.31-39.86,20.24-65.14,42.48,30.56,42.9c.09.12.18.25.26.38l9.33,14.75,58.66,66.12c.09.1.16.21.24.31l35.15-33.65C2411.73,1359.94,2411.8,1359.91,2411.86,1359.85Z"/><path class="cls-2" d="M2497.24,1288.64l0,0,2.95-2.17,12.72-118.5-2.42-1.1-2.71.45-20,128.52,9.43-7.13Z"/><path class="cls-2" d="M1821.53,1157.26l5.35-3.66.42-.27,47.62-28.52-53.38-77-39.08,21.53-3.31,2.1,15.39,39.81Z"/><path class="cls-2" d="M2093.14,1722.3l13.13,46.65,51.82-12.18-9.89-42.65-4.28-12.27L2135.3,1687l-48.39,16.62,6.11,18.33Z"/><path class="cls-2" d="M2603.59,871.26l-5.91-25.12-30.08-39.7a2.27,2.27,0,0,1-.27-.48l-3.31-8.38-10.51,14.91,41.36,68.22Z"/><path class="cls-2" d="M2517.62,1282.58h16.22L2639,1222.94,2581,1126l-54,30a8.42,8.42,0,0,1,3.38,7.66Z"/><path class="cls-2" d="M2538.14,1057.29,2483.62,967l-17.91,8.11,35.58,131.08,2.12,6.36a3.58,3.58,0,0,1,.11.35l3,10.49.06.16,60.75-19.78Z"/><path class="cls-2" d="M2578,1047a8.58,8.58,0,0,1,1.24-3.8l4.07-6.56a8.31,8.31,0,0,1,3-2.88l19.08-11a8.39,8.39,0,0,1,4.2-1.12h6.57a8.34,8.34,0,0,1,2.67.43l7.51,2.51a8.3,8.3,0,0,1,3.6,2.36l11.27,12.51a10.26,10.26,0,0,1,.76,1l14.06,21.21,18.18-10.52-3.22-10-84.8-138.4-6.06,4.37-.4.27L2502,957,2556,1046.3l32.19,51.4,6.11-1.54a7.92,7.92,0,0,1-1.17-1.57l-10-18.15a8.13,8.13,0,0,1-.73-1.78l-4.7-16.58a8.33,8.33,0,0,1-.29-2.94Z"/><path class="cls-2" d="M1637.31,1778l5,17,6.93,23.37,15-25.19,5.19-17.43,2.35-19.35L1599,1698.52l1.86,11,11.31,19.26,27.75,34.6a2,2,0,0,1,.39,1.73Z"/><path class="cls-2" d="M1669.58,1836.83a10.84,10.84,0,0,1,.61-2.23l24.4-61.62c.05-.13.11-.26.16-.38l-19.15-13.43-2.09,17.28a1.86,1.86,0,0,1-.07.34l-5.32,17.83a1.89,1.89,0,0,1-.2.46l-17.12,28.73,5.79,28a2.46,2.46,0,0,1,0,.37l.3,16.3,7.66,11.35,3.89.89-2.38-19.07a10.58,10.58,0,0,1,0-2.92Z"/><path class="cls-2" d="M1594.09,1693.83h0l-3.12-33.15h0l-.54-5.39-30.66-.68.58,3.59h0l7.54,47.27,28.75,18.6a8.5,8.5,0,0,1,3.36,4.23l19.33,53.62,14.15-5.35,2.66-11.44-27.22-34a1.46,1.46,0,0,1-.17-.24l-11.57-19.71a1.86,1.86,0,0,1-.25-.68L1594.1,1694s0,0,0-.06S1594.09,1693.86,1594.09,1693.83Z"/><path class="cls-2" d="M2722.58,1146.81l-9.43-21.47-31.93-54L2627,1102.7l-26.68,14.85,61.08,102.09,0,.07s0,0,.05.07l23.14,40A10.31,10.31,0,0,1,2686,1264l1.24,11.73,14-10.13-4.47-32.87a10.42,10.42,0,0,1,.38-4.54Z"/><path class="cls-2" d="M2113.63,684.34v27.5l6.19,38.91,13.58-3.59,3.33-5.83a2.08,2.08,0,0,1,1.12-.92l6.57-2.19a2.05,2.05,0,0,1,1.87.3l5.47,4.11L2197.43,731l-.27-14.37L2188,701l-43.34-25.39a1.72,1.72,0,0,1-.32-.23l-24.84-22Z"/><path class="cls-2" d="M2699.38,1060.84l32.13,54.36c.11.19.17.4.27.59s.22.34.31.53l11.26,25.66a10.41,10.41,0,0,1,.4,7.33l-3.8,12.19,3-5.37a8.64,8.64,0,0,1,1.39-1.84l14.07-14.07a8.43,8.43,0,0,1,1.79-1.37l53.81-30.66a8.46,8.46,0,0,1,3-1l15.64-2.19a8.31,8.31,0,0,1,2.49,0l13.77,2.19a8.38,8.38,0,0,1,2.71.93l27.55,15,0-.14-76.11-121.6Z"/><path class="cls-2" d="M1554.3,1393.85a2,2,0,0,1-.37.4l-18.13,15.15,34.07,11,9.22.28,5-4.51.59-18.34-1.84-11.69-2.46-19.37-1.05-1.84a2.1,2.1,0,0,1-.13-.26l-21-52.87-18.76-46-9.76-32.72a2.3,2.3,0,0,1-.06-.28l-4.76-30.9-8.69-.5-11.39,6.55-3.49,8.43a2,2,0,0,1-.41.63l-6.25,6.57a2,2,0,0,1-.83.52l-8.45,2.82a2,2,0,0,1-.59.1l-12.83.31-5.58-.53,62.57,90.25,13.19,21,22.86,38.2a2,2,0,0,1-.08,2.2Z"/><path class="cls-2" d="M2201.21,716l.27,14,31.37-8,20-10.59L2210.11,688l-.4-.23-1.41-.85-16.18,13,8.82,15.07A2,2,0,0,1,2201.21,716Z"/><polygon class="cls-2" points="2125.77 636.78 2120.61 648.88 2146.89 672.18 2189.3 697.02 2204.6 684.71 2172.49 665.28 2125.77 636.78"/><path class="cls-2" d="M1875.35,467.09l-19.53,38.45,15,29.79,89.75,18.26a2.06,2.06,0,0,1,1.21.76l4.54,6,20-16.64-12.1-29.49a10.27,10.27,0,0,1-.63-2.18l-13.45-77.26-.41-4.54h-57.25Z"/><path class="cls-2" d="M2105.34,439.47a2.13,2.13,0,0,1,.92.61l1.88,2.19,3.82,5L2144,430.22h-67.49Z"/><path class="cls-2" d="M896.55,439.27l1.16,4.87,11,47.94L919,536.47l15.63,66.29,22.54,97.32c.05.25.1.5.13.75l1.25,9.07c0,.26.06.52.08.77l.29,6.49L1050.58,763a10.29,10.29,0,0,1,1.46.88l27.21,19.71L1219.61,884l28.61-22.88,90.92-113.07,11.37-12.49,22.3-21.8a8.1,8.1,0,0,1,1.76-1.32l32.22-18.15.09,0,.07,0,59.64-31.83a10.39,10.39,0,0,1,4.49-4.7l53-28.12-45.5-42.22-34.37-31.55L1309,430.22H946.87Z"/><polygon class="cls-2" points="2139.88 744.02 2137.41 748.35 2142.35 752 2146.14 750.95 2148.77 745.47 2144.7 742.41 2139.88 744.02"/><path class="cls-2" d="M2128.72,461.62l12.65,7.11,42,27,60.7,36.12L2264,496,2202.6,462.9a2,2,0,0,1-1-1.47,2,2,0,0,1,.55-1.73l19.24-19.91-4.26-2.28-13.36-7.29h-23.47Z"/><path class="cls-2" d="M1980.84,431.13l13.26,76.18,9.17,22.35,55-45.64c.25-.21.51-.4.77-.58l49.43-33.86-4.95-6.41-40.33-12.95h-82.51Z"/><polygon class="cls-2" points="1458.32 540.32 1492.78 571.95 1543.43 618.96 1628.4 569.58 1686.03 518.29 1664.21 487.04 1613.02 430.22 1346.43 430.22 1458.32 540.32"/><path class="cls-2" d="M1678.22,471.28l15.15-1.86,37.51-12.68,1.17-1.25a10.79,10.79,0,0,1,2.24-1.8l2.21-23.47h-93.39Z"/><polygon class="cls-2" points="1753.7 463.52 1746.31 470.92 1730.99 487.17 1808.25 518.08 1852.11 503.86 1871.27 466.14 1895.69 430.22 1759.3 430.22 1753.7 463.52"/><path class="cls-2" d="M2112.2,757.41h0l-21,6.26h0l-6.33,1.76,4.61,12a8.78,8.78,0,0,1,.47,1.83l4.38,30.65,6.89,50.14s0,.08,0,.13,0,.08,0,.13l3.26,32,13.51,6.06,4.94,1.94,59.67-31.91h0l.06,0,.4-.2,29.4-13.76a8.61,8.61,0,0,1,1.16-.44l69.1-20.64h.07l0,0,100.39-29.16-.79-1.63-7.21-15.48-114.4-71.39-3.68-2-22.61,12a2.2,2.2,0,0,1-.45.17L2200,734.61l-47.25,12-3.35,7a2,2,0,0,1-1.29,1.08l-5.63,1.57a2,2,0,0,1-.54.07,2,2,0,0,1-1.21-.4l-6.41-4.74-15.56,4.11-6.52,2.18Z"/><path class="cls-2" d="M2063.62,1838.83l-24.09,7.58,2.74,12.58a2,2,0,0,1,0,.78l-1.17,6.74,11.14,40.54,1.34,3.63,26.81-13.83Z"/><polygon class="cls-2" points="1901.31 1768.69 1905.57 1774.6 1916.98 1757.77 1885.23 1746.88 1901.31 1768.69"/><path class="cls-2" d="M1898.75,1861l2.14,1.15,16.17-.55a8.43,8.43,0,0,1,2.45.28l19.88,5.27,30.79-2.4c.3,0,.6,0,.91,0l23.82.7-.54-17.92-4.75-7.78-15-10.08-54.3-22.83c-.14-.06-.26-.15-.39-.22s-.2-.06-.3-.11l-9.21-4.9-13.59,38.85Z"/><polygon class="cls-2" points="1800.58 1707.3 1785.1 1700.13 1788.45 1714.37 1800.58 1707.3"/><path class="cls-2" d="M1966.89,1650.78c0-.06-.05-.14-.09-.21s-.16-.27-.23-.42l-2.47-5.51-45.37-13.3-43.5-13.38-8.6.27h-.5l-90-2.45-11.13,5,14.14,54.08,9.89,8.44,33.36,15.47.1,0,0,0,.24.12,47,24.72,58.69,20.14,42.62-35.72h0l18.78-15.85Z"/><path class="cls-2" d="M1631.45,1097.08a8.46,8.46,0,0,1-8.22-6.5l-27.38-115.37-57.91,15.91,3.93,16.58,34.52,141.18,42.69-10.61,73.41-18-9.07-37.26-49.72,13.73A8.2,8.2,0,0,1,1631.45,1097.08Z"/><path class="cls-2" d="M1753.35,1045.35l-36.73-129.12-72,39.36-.36.18-.17.08c-.06,0-.11.06-.18.08l-32,13.77,25.75,108.46,66.31-18.32Z"/><path class="cls-2" d="M1877.17,1931.65l17.84,3.8,6.78-4.8a2,2,0,0,1,1.69-.31l68.73,18,14.56-2.07,16.58-8.91a2.1,2.1,0,0,1,.92-.24l16.3-.31,31.92.9.67-1.34a2,2,0,0,1,1.22-1l6.88-2.13-5.71-12.87-.6.3a2,2,0,0,1-.91.22,2.1,2.1,0,0,1-.81-.17,2.06,2.06,0,0,1-1.14-1.29l-1.56-5.32-1.79-4.86-17.16-5s0,0-.08,0a2.1,2.1,0,0,1-.39-.21,1.89,1.89,0,0,1-.3-.19l-.07,0-23.5-22.5a8.76,8.76,0,0,1-4.74,1.32l-31.46-.92-31.77,2.47-.65,0a8.26,8.26,0,0,1-2.16-.28l-20.07-5.31-17.21.58a8.56,8.56,0,0,1-4.29-1l-8.13-4.38-.2-.14a7.22,7.22,0,0,1-.81-.55,5.25,5.25,0,0,1-.53-.4,8.11,8.11,0,0,1-.65-.66,5.23,5.23,0,0,1-.45-.49,8.46,8.46,0,0,1-.56-.86,4.43,4.43,0,0,1-.29-.46,7.92,7.92,0,0,1-.45-1.08c0-.14-.11-.26-.15-.4a7.7,7.7,0,0,1-.17-.86,6,6,0,0,1-.14-.74v0l-2.5-26.9a8.48,8.48,0,0,1,.44-3.57l16.06-45.9-8.69-12.07-22.78-30.89a9,9,0,0,1-.84-1.41l-4.11-8.71L1819,1716.1l-31.93,18.61a8.47,8.47,0,0,1-4.25,1.14,8.6,8.6,0,0,1-3.34-.68,8.78,8.78,0,0,1-1.19-.69l-13.06,12.78,3.34,34.07,11.47,51.07,19.26,33.94,15.73,8.17a1.89,1.89,0,0,1,.28.17l21.28,16,.23.2,15,15.33a2,2,0,0,1,.39.56L1858,1919Z"/><polygon class="cls-2" points="1852.63 1917.22 1848.71 1908.76 1834.05 1893.8 1813.04 1878.04 1798.4 1870.43 1783.07 1889.38 1787.7 1898.38 1852.63 1917.22"/><path class="cls-2" d="M2000.92,1077.56l4.29,16.15,6.3,1.26,27.13,2.77a8.4,8.4,0,0,1,5.15,2.48l2.38.43.27.06,21.9,4.73,16.54-159.15-110,42.22Z"/><path class="cls-2" d="M2379.66,1542.86l25-20.33.05,0c.22-.17.47-.31.7-.46a7.39,7.39,0,0,1,.76-.47l0,0,18.14-9.07,3.13-1.61-16.89-30.55-39.78-59.51-47.07,35.57a8,8,0,0,1-1.17.74l-104,54.55,28.42,38.76a10.43,10.43,0,0,1,1.63,3.33l13.45,47.23,3.83,13.1,85.86-16.33,16.46-3,14.67-13.29-6.23-30.32A8.44,8.44,0,0,1,2379.66,1542.86Z"/><path class="cls-2" d="M2685.9,1033.23a8.59,8.59,0,0,1,.84,1.82l2.42,7.5,103.42-59.29-6-10.93-28.32,17a1.7,1.7,0,0,1-.31.29,2,2,0,0,1-.57.24l-68.9,41.38-2.86,1.56Z"/><polygon class="cls-2" points="2673.37 1010.17 2684.74 1028.67 2686.49 1027.72 2754.04 987.15 2742.47 968.47 2673.37 1010.17"/><path class="cls-2" d="M1773.69,1054.87l.39-.23,38.09-21-75.25-118-3.6-2.47,38.56,135.55Z"/><path class="cls-2" d="M2038.21,1859.46l-3-13.78-13.66-29.18-16.24-31.86-26.9-60.67-41.91,35.12-18.56,27.37,9.3,5,54.69,23a8.28,8.28,0,0,1,1.44.77l17.21,11.58a8.7,8.7,0,0,1,2.49,2.6l6.88,11.26a8.48,8.48,0,0,1,1.24,4.15l.62,20.65a8.68,8.68,0,0,1,0,.88l-.62,8.44a8.37,8.37,0,0,1-1.12,3.56l23.15,22.16,14.17,4.16-10.3-37.47a2.06,2.06,0,0,1,0-.89Z"/><polygon class="cls-2" points="1761.66 1752.26 1756.2 1760.26 1749.71 1777.25 1747.78 1781.44 1738.47 1808.21 1753.59 1833.79 1775.67 1831.37 1764.6 1781.97 1761.66 1752.26"/><polygon class="cls-2" points="1795.41 1867.66 1777.05 1835.31 1755.7 1837.65 1781.01 1885.46 1795.41 1867.66"/><path class="cls-2" d="M2832.22,1855.05l-8.15,2.45a8.27,8.27,0,0,1-1.84.33l-45.67,3.13h0l-20.58,1.56-41.83,3,1,31.4,6.17,41.06,60.65,4.64a10,10,0,0,1,1.1.16l17.83,3.75h0l52.5,10.81,41.08,2.1,16.25-87.71-33.78-16.12Z"/><polygon class="cls-2" points="1162.06 1534.9 1112.94 1529.85 1065.84 1520.75 1020.88 1506.3 950.75 1481.57 922.13 1468.68 893.97 1451.8 893.05 1453.38 889.47 1495.74 1052.66 1549.21 1162.06 1534.9"/><polygon class="cls-2" points="1109.81 1561.7 1052.4 1553.33 961.47 1560.47 934.8 1577.31 1002.01 1596.51 1126.05 1614.71 1214.49 1603.4 1189.15 1582.86 1109.81 1561.7"/><polygon class="cls-2" points="1390.8 1398.24 1347.75 1370.19 1329.93 1398.81 1374.14 1403.14 1390.8 1398.24"/><path class="cls-2" d="M1269.43,1310.88l1.53-15.06.62-15.82-.61-10.57-6.94-28.34-69.19-36.89-5.9,3.49a2.14,2.14,0,0,1-.47.2l-18,5.21-.91,62.31a2.07,2.07,0,0,1-.45,1.25L1154,1295.52l-.29,10.3,34.17,4.56,15.07-39.47a2,2,0,0,1,2.74-1.13l11.58,5.32a2,2,0,0,1,.85.74l4.6,7.05,10.63,11.54,34.58,20.52Z"/><polygon class="cls-2" points="1295.33 1335.58 1267.9 1319.68 1240.43 1303.39 1287.09 1362.34 1303.48 1384.29 1309.11 1387.85 1325.8 1397.75 1344.35 1367.96 1295.33 1335.58"/><polygon class="cls-2" points="1133.93 1781.94 1155.76 1794.93 1220.97 1822.6 1212.22 1743.79 1133.93 1781.94"/><path class="cls-2" d="M1279.22,1758.64l13-5.3a8.43,8.43,0,0,1,5.24-9.07l4.55-1.8L1291,1708l-36.29,13-36.83,20-.4.21-1.42.69,4,36.34Z"/><path class="cls-2" d="M1547.85,1633.54a9.91,9.91,0,0,1,1.88-.13l41.92.94.42,0,24.86,1.55,47.91,1.5,12.88-4.58-19.91-77.07-24.6,6.21a7.54,7.54,0,0,1-1.41.23l-239.5,18.85,5.61,30.55s0,0,0,0a0,0,0,0,1,0,0l6.86,44.69Z"/><path class="cls-2" d="M1653.61,1539.41l-13.88-54.49-4.82.81-.33,0a2,2,0,0,1-1.83-1.15l-19.08-39.42-15.1-41.8-6.28-19.46-1.72-4.6-5.32-6.48,1.61,12.7,1.87,11.83a1.62,1.62,0,0,1,0,.38l-.62,19.4a2,2,0,0,1-.67,1.44l-6.26,5.63a2,2,0,0,1-1.36.53h-.06l-10.32-.31a1.9,1.9,0,0,1-.57-.1l-37.71-12.15-29-5.3-62.76-19.34-17.68.9-25.28,12.32a1.69,1.69,0,0,1-.31.13l-20.9,6.15-12.21,9.46a2,2,0,0,1-.79.37l-31.28,7.2-24.57,4.36-22.93,10.08-33.09,30.62-29.3,38.34L1205.83,1529a2,2,0,0,1-.79.67l-10.64,5c-.08,0-.18,0-.27.06a1.83,1.83,0,0,1-.33.11l-126.51,16.55,43.34,6.33,80,21.31a2.15,2.15,0,0,1,.75.39l28.7,23.25,36.31-4.64,130.25-33.35a8.37,8.37,0,0,1,1.43-.24l241.71-19Z"/><path class="cls-2" d="M1439.6,1383.46a2.43,2.43,0,0,1,.71.09l62.87,19.4,27.92,5.09,20-16.73,9.73-14-22.16-37-12.74-20.33-31.75-11.6-28.64-6.23-21.58-6.79-17.6,25.53-4.33,56.49,1,7Z"/><path class="cls-2" d="M1166.45,1213.4l-7.22-.75-4.46-.63-54.33-14.13a1.38,1.38,0,0,1-.34-.12l-48.48-22.21L941.89,1129.1v2.39a2,2,0,0,1-.6,1.43l-2.5,2.51a2,2,0,0,1-.75.47l-4.38,1.57a2,2,0,0,1-.69.12,2.33,2.33,0,0,1-.53-.07l-3.44-.94a2.07,2.07,0,0,1-1.22-.93l-2.62-4.45-23.88,27.68,12.49,5.47,0,0a1.53,1.53,0,0,1,.16.11,2,2,0,0,1,.36.23l7.51,6.88a2.1,2.1,0,0,1,.54.83l7.51,21.27a2,2,0,0,1,.11.81l-5.94,88.84s0,0,0,.05a.43.43,0,0,0,0,0l-1.84,15.28,2.9,11.86,9.73,8.85,57.22,36.39L1124.78,1404l13.9-4.17,14.9-56.92-3.67-1.52,0,0a1.8,1.8,0,0,1-.43-.29c-.07-.06-.16-.09-.23-.16a1.48,1.48,0,0,1-.23-.36,1.81,1.81,0,0,1-.19-.29,1.7,1.7,0,0,1-.06-.31,1.55,1.55,0,0,1-.08-.47s0,0,0,0l1.25-44.73a2,2,0,0,1,.45-1.22l15.2-18.85Z"/><path class="cls-2" d="M1315.5,1755.28h0l-11.89,4.7a8.41,8.41,0,0,1-9.9-2.88l-13.07,5.35-60.05,19.92,4.68,42.05,2.22.95,38,16.25,27.43,5.6,111.92.58-10.46-123.69Z"/><path class="cls-2" d="M1441.15,1292.22l.87-15.13-14.74-27.65a2,2,0,0,1-.16-.4l-16.85-58.81-51.42-7.8,1.51,6.47,4.34,20.76,11.38,24,12.39,16.41,5.59,9.29,18.84,16.69a2,2,0,0,1,.6.93l11.61,38.5Z"/><path class="cls-2" d="M1275,1269l.62,11-.62,16.15-1.58,15.45a1.58,1.58,0,0,1-.12.52l-1.89,5,26,15.09,49.09,32.43,24.35-36.25-36.42-49.46-65.64-35.17,6.11,25A2.25,2.25,0,0,1,1275,1269Z"/><polygon class="cls-2" points="1395.75 1396.61 1418.1 1385.71 1374.6 1330.1 1349.95 1366.78 1395.75 1396.61"/><path class="cls-2" d="M927.5,1123.35v3.83l3.36,5.69,2,.55,3.35-1.19,1.58-1.59v-2.91a2.85,2.85,0,0,1,0-.4l.26-1.26-.17-1.62-9.26-3.72-1.5.17-.11.15-.12.73.33.66A2.09,2.09,0,0,1,927.5,1123.35Z"/><path class="cls-2" d="M878.12,1175.4a2.07,2.07,0,0,1-.8.32l-47.64,8.1-5,2-1,7,19.22,46.56,6.74-.75,9.71-2.94,21-18.88,2.33-4.09a2,2,0,0,1,.93-.84l3.44-1.57a2.08,2.08,0,0,1,.95-.17l5.64.31a2.06,2.06,0,0,1,1.39.66l3.12,3.44a2,2,0,0,1,.46.84l.72,2.7,2-.59,5.05-3.72,1.32-5.57-.26-6.12-5.39-5.38a1.44,1.44,0,0,1-.22-.27l-4.38-6.26a2,2,0,0,1-.29-1.74l2.5-8.45a2.5,2.5,0,0,1,.23-.5l6.25-10a2.11,2.11,0,0,1,.39-.45l2.6-2.27L898.15,1162Z"/><polygon class="cls-2" points="892.62 1214.49 888.32 1214.25 885.93 1215.34 884.19 1218.38 885.28 1221.85 888 1223.67 890.65 1223.91 894.38 1223.21 895.78 1220.42 894.85 1216.95 892.62 1214.49"/><path class="cls-2" d="M1814.71,2031.91l-136.38-49.11a8.61,8.61,0,0,1-2.52-1.43l-48.4-39.91-11.17,46.11,5.55,47.82,146.54,3.28a9.09,9.09,0,0,1,1.28.12l73.56,13,3.11-6.23.74-5.77-31.44-7.61A8,8,0,0,1,1814.71,2031.91Z"/><path class="cls-2" d="M2758.73,1684.42,2805.57,1507l34.78-121.89a1.87,1.87,0,0,1,.07-.22h0l26.14-84.12,16.32-67,3.33-52.62-4-37.1-37.39-20.39-11.08-1.77-12.79,1.79L2769.57,1153l-12.45,12.46-7.43,13.22-27.16,87.84.34,2.49a10.48,10.48,0,0,1-4.25,9.9l-31.15,22.5-3.28,9.15-40.9,114.57-2.44,7.91-16.59,52.92c0,.11-.07.22-.11.33l-21.23,60.57-3.71,11.46-6.34,19.29,69.38,90.45,12.92,7.27,8.38,4.19,43.43,20,25.3,4.88Z"/><polygon class="cls-2" points="2551.65 1703.17 2638.27 1671.2 2584.96 1601.69 2551.65 1703.17"/><path class="cls-2" d="M2571.51,1575.35l11.51-35.11a.61.61,0,0,0,.05-.12.53.53,0,0,0,0-.12l21.22-60.52,16.6-53.08-52.39-18.24-62.63,184.32h0v0l-9.08,26.36,19.62,7.14,34.48,12.14L2571,1577A9.27,9.27,0,0,1,2571.51,1575.35Z"/><path class="cls-2" d="M2363.72,1840.92c-.14-.2-.26-.42-.4-.63s-.24-.34-.34-.53l0-.08-.07-.11-9.68-18.46-234.9,114,1.53,6.42a2,2,0,0,1-.48,1.85l-31.91,34.41a2.12,2.12,0,0,1-.47.38l-12.8,7.49a1.79,1.79,0,0,1-.56.23l-12.83,3.13a2.2,2.2,0,0,1-.37,0h-.12l-47.71,1.53-1.27,1.81,47.84,23.52,10.83-7.48a10.39,10.39,0,0,1,7.18-1.75l287.25-165-.23-.28C2364,1841.28,2363.87,1841.11,2363.72,1840.92Z"/><path class="cls-2" d="M1426.72,1694.28l33.79,3.13a8.63,8.63,0,0,1,2.22.52l40.35,15.33a8.63,8.63,0,0,1,2.32,1.33L1522,1728a8.39,8.39,0,0,1,1.57,1.69l20.33,28.78a8.21,8.21,0,0,1,1,1.77l36.76,93.16,5.11,10,17.65-12.4,8.09-8.34,3.19-9.82.95-8.76-31.53-87.47-29.51-19.09a8.44,8.44,0,0,1-3.76-5.76l-8.13-51h0l-.85-5.29L1406.5,1677.3l-99.32,25.77,10.53,33.18,81-32h0l24.09-9.38A8.54,8.54,0,0,1,1426.72,1694.28Z"/><polygon class="cls-2" points="2420.27 2043.2 2430.18 2061.2 2537.01 1999.46 2527.21 1983.22 2420.27 2043.2"/><path class="cls-2" d="M2850.6,1974.05l-53.18-11h0l-17.29-3.64-55.94-4.28,3.33,18.8c0,.1,0,.21.05.31l2.82,19.4,4.8,36.81,7,30,8.57,21,12.22,23.25,14.24,19.39,31.29,40.59,22.68,26.71,18.57,22.09,41.67-237.28-39.57-2A7.74,7.74,0,0,1,2850.6,1974.05Z"/><path class="cls-2" d="M2495.24,1622.64,2480,1650.4l3.22,36.22a8.45,8.45,0,0,1-6,8.84l.23,5.9-4.06.17-.24-5.88a8.46,8.46,0,0,1-6.77-7.54l-2.29-25.79-72.44,40.55a8.35,8.35,0,0,1-1.88.77L2294.28,1730l2.66,7,33.55,31.18,35.39,33.19a10.64,10.64,0,0,1,2.11,2.78l8.48,16.18,98.15-54,.07-.06h-.08l.94-7.82,4,.48-.4,3.36,21.86-19.41,25.08-29.17,23.51-71.68-34.58-12.18Z"/><polygon class="cls-2" points="1529.5 1767.43 1510.43 1740.43 1495.81 1728.56 1457.8 1714.13 1427.15 1711.29 1410.81 1717.66 1421.82 1847.87 1561.47 1848.42 1529.5 1767.43"/><polygon class="cls-2" points="1423.52 1991.01 1422.42 2029.86 1582.92 2034.91 1604.76 2035.13 1600.14 1995.31 1423.52 1991.01"/><path class="cls-2" d="M1918.14,1986.11l-87.87-9a8,8,0,0,1-1-.15l-45.67-9.07a10.64,10.64,0,0,1-1.9-.57l-66.31-26.9a10.55,10.55,0,0,1-2.79-1.67l-28.77-24.09a10.28,10.28,0,0,1-2.59-3.24l-11-21.27a10.32,10.32,0,0,1-1.08-3.5L1669,1885l-6.12-1.41a2.09,2.09,0,0,1-1.23-.84l-8.44-12.52a2,2,0,0,1-.35-1.1l-.31-16.7-5.89-28.5-12.8-43.18h0l-13.18,5,12.44,34.51a8.52,8.52,0,0,1,.45,3.78l-1.25,11.57a8.17,8.17,0,0,1-.36,1.7l-4.07,12.52a8.51,8.51,0,0,1-2,3.27l-10,10.32a7.94,7.94,0,0,1-1.21,1l-19,13.39,32.82,42.61,56.94,47L1820,2015.86l38.07,9.21,28.51,5a8.52,8.52,0,0,1,1.32.34l84.77,29.4a8.45,8.45,0,0,1,5.25,10.63l-8.11,24.57,14.15,5.54,54.32-69.55a10.31,10.31,0,0,1,1.24-1.32l-40-19.65Z"/><path class="cls-2" d="M1499.84,2078.14l51-27.34-128.55-4,1.28,85.94,14.34.62.68-3.41a8.4,8.4,0,0,1,1.94-3.91l9.07-10.33a8.17,8.17,0,0,1,1.3-1.19l47.85-35.66A7.94,7.94,0,0,1,1499.84,2078.14Z"/><path class="cls-2" d="M1576.9,1881.15l-.11-.18a1.31,1.31,0,0,1-.11-.12c-.1-.14-.16-.3-.25-.45s-.26-.37-.37-.58l-7.36-14.48-146.11-.57,1.08,109.34,177.4,4.33,12.15-50.13Z"/><path class="cls-2" d="M1863.61,2043.18l-.76,5.94a8.28,8.28,0,0,1-.82,2.7l-1.14,2.28,17.51,5.17c.24.07.45.19.69.28s.46.13.69.23l20.92,9.54L1954,2089l5.27-16L1883,2046.56Z"/><path class="cls-2" d="M1413.82,1187.86l17.15,59.86,14.91,28a2,2,0,0,1,.24,1.07l-.85,14.69,21.32,6.72,28.6,6.21a1.34,1.34,0,0,1,.27.07l26.51,9.69-61.41-88.58-29-39-17.88-26.35a2,2,0,0,1-.35-1.21l.26-7.84-28.22-8.82-25.92.86-1.12,35.08,53.89,8.18A2,2,0,0,1,1413.82,1187.86Z"/><path class="cls-2" d="M1614.06,2052.11l-29.32-.29-76.37,40.91-46.64,34.76-5.66,6.45,53.69,1.55,33.56,1.25,283.16,8.45,3.46-58.35s0-.05,0-.08c0-.35.11-.7.17-1.05s.1-.71.19-1.05c0,0,0,0,0-.08l4.87-17.06-67.89-12Z"/><path class="cls-2" d="M1871.28,670.91l-29.06-110.07-30.56-4.66-38.64,36a.35.35,0,0,1,0,.08l7.91,14.65,84.62,89,13.52-17.62-7.21-6.31A2,2,0,0,1,1871.28,670.91Z"/><path class="cls-2" d="M1666.16,1658.42l-50.05-1.56-.33,0-21.25-1.32.47,4.74h0l3,32.3,77.21,61.4,21.22,14.88,7-15.2,1.17-10.52-13.62-54.8-8.29-35-12.76,4.54A10.07,10.07,0,0,1,1666.16,1658.42Z"/><path class="cls-2" d="M2072.34,1982l1.3-.78,11-6.43,31-33.39-1.28-5.36a8.49,8.49,0,0,1-6-2.56l-2,1.18s0,0-.06,0l-.08.06L2085,1945.08l-28.13,14.07a2.22,2.22,0,0,1-.65.2L2019.9,1964l-30,4.18,29.88,7.47,12.86,3.45,27.59,5.82Z"/><path class="cls-2" d="M1698.92,1900l25.89,21.67,63.87,25.91,44.2,8.78,88.35,9a10.78,10.78,0,0,1,1.88.37l83.21,24.4a11.7,11.7,0,0,1,1.28.5l2.24-3.18a2,2,0,0,1,1.6-.87l32-1-11.67-2.47-12.94-3.46-40-10-34.62-10-34.24-3.74-26.41-.61a2.2,2.2,0,0,1-.37,0l-22.21-4.69a1.91,1.91,0,0,1-.52-.19l-21.11-11-8,.28-8.64,4.77a2,2,0,0,1-.83.24l-4.07.32a2.05,2.05,0,0,1-1.14-.25l-2.82-1.57a2,2,0,0,1-1-1.52l-.31-2.5a2,2,0,0,1,.09-.9l.94-2.81a2.05,2.05,0,0,1,.86-1.1l8.93-5.46.29-1.62-1.4-1.72-2.3.57-13.88,6.79a2,2,0,0,1-1.74,0l-3.44-1.56a2.07,2.07,0,0,1-1-.91l-15.16-29.19a1.91,1.91,0,0,1-.23-.45l-5.55-10.69h0v0l-28.14-53.15-16.22-27.45a2,2,0,0,1-.17-1.7l9.7-27.84,2-4.25,6.51-17.08a2.1,2.1,0,0,1,.22-.42l8.76-12.83.08-.09.07-.09.11-.12,12.72-12.45-38.79,13.32a2.05,2.05,0,0,1-.64.11h-.18l-9.32-.74-1.38,12.39a10.36,10.36,0,0,1-.9,3.23L1714,1781l-23.86,60.27-3,19.29,2.71,21.72Z"/><path class="cls-2" d="M1676,1542.44h0l20.53,79.52,50.21-14.15.43-17.32c0-.21,0-.42,0-.63l3.13-31.59a8.34,8.34,0,0,1,.76-2.77l21.9-46.31a8.4,8.4,0,0,1,1.76-2.45l41.91-40.67a8.58,8.58,0,0,1,1.48-1.14l31.28-19.08a7.79,7.79,0,0,1,1.29-.65l33-13.06,5.11-2.32-10.56-33.7-49.11,9.7-18.45-14.08-6.83-27.28-10.76-12.17a1,1,0,0,1-.08-.11,8.39,8.39,0,0,1-1.08-1.59l0-.08,0,0-6.26-12.51a9.22,9.22,0,0,1-.46-1.13l-19.22-58.27-11.3-23.21-5.6-7.66-40.5,9.92a8.45,8.45,0,1,1-4-16.41l46-11.26a8.45,8.45,0,0,1,8.82,3.22l9.39,12.83a8.69,8.69,0,0,1,.77,1.28l11.89,24.4a9.79,9.79,0,0,1,.43,1.06L1801,1331l2.83,5.67,68.51-19.94,1.62-1,.71-8.12-29.4-74.55-33.79-59.53-31.85-54.34a7.73,7.73,0,0,1-.59-1.23L1760.89,1071a0,0,0,0,0,0,0l0-.1-.18-.52-2.61-8.81-49.47,14.52-21.24,5.86,9.57,39.35h0a2.16,2.16,0,0,1,0,.8,1.74,1.74,0,0,1-.14.38,1.55,1.55,0,0,1-.13.36,3.32,3.32,0,0,1-.26.28,1.86,1.86,0,0,1-.27.29,1.23,1.23,0,0,1-.23.11,1.75,1.75,0,0,1-.5.23l-75.38,18.46-42.69,10.61,3.26,13,23.76,93.17c0,.13.07.26.1.39l.87,4.08,1.48,5.33.15.61.89,4.17,20,78,14.72,59.52Z"/><path class="cls-2" d="M2461.9,1644.17l-7-37.53-21.31-80-1.62.84-17.39,8.7-20.33,16.52,6.16,30a8.46,8.46,0,0,1-2.6,8l-20,18.14a8.39,8.39,0,0,1-4.15,2.05l-18.77,3.44-84.7,16.11,13,55.79,6.19,27.62,94.85-26.23Z"/><path class="cls-2" d="M2316.19,1783.54l-35.31-32.81a10.54,10.54,0,0,1-2.66-4l-4-10.56-23.18,7.94a8.25,8.25,0,0,1-2.74.46,9.39,9.39,0,0,1-1.19-.08l-22.85-3.27-50.2,9.58,2.39,10.32a8.44,8.44,0,0,1-6.29,10.13l-67.88,16a1.23,1.23,0,0,0-.19,0,8.78,8.78,0,0,1-1.75.2h-.1a7.83,7.83,0,0,1-1.29-.11c-.18,0-.36-.09-.55-.13s-.52-.12-.78-.21a5.72,5.72,0,0,1-.57-.24c-.23-.1-.46-.19-.68-.3s-.36-.23-.54-.34a6.41,6.41,0,0,1-.61-.4c-.17-.13-.32-.29-.48-.43s-.37-.31-.54-.49-.28-.34-.42-.51-.3-.37-.43-.57-.24-.4-.35-.6-.24-.41-.34-.63-.17-.44-.25-.67-.14-.34-.19-.52l-15.28-54.24-8.16-24.48-27.25-31.29-37.9,31.49-21.72,18.26h0l-.24.2,27.33,61.63,16.22,31.81s0,0,0,0l0,0,13,27.8,26.14-8.23a2,2,0,0,1,1.57.15,2,2,0,0,1,1,1.22l17.83,61.63a2,2,0,0,1-1,2.37l-28.85,14.87.41,1.38.33-.17h.06l0,0c.11,0,.23,0,.34-.07a1.77,1.77,0,0,1,.4-.08,2.6,2.6,0,0,1,.39.05,2.41,2.41,0,0,1,.37.07,2.17,2.17,0,0,1,.33.19,2.39,2.39,0,0,1,.34.21,2.67,2.67,0,0,1,.24.32,1.39,1.39,0,0,1,.21.27s0,0,0,.06,0,0,0,0l1.88,4.38,5.62,12.48a2,2,0,0,1,0,1.67,2.08,2.08,0,0,1-1.25,1.11l-8.25,2.56-.86,1.72a1.84,1.84,0,0,1-1.88,1.12l-33.15-.94h-.88l-14.8.3-16.46,8.84a2,2,0,0,1-.68.22l-15.32,2.19-.29,0a1.81,1.81,0,0,1-.52-.07l-68.21-17.9-6.73,4.77a2,2,0,0,1-1.6.33l-19.08-4.07a2.09,2.09,0,0,1-.69-.28l-19.77-13-65.2-18.93,12.8,24.57,1.93.88,13.22-6.46a1.74,1.74,0,0,1,.4-.15l3.75-.94a2,2,0,0,1,2.07.69l2.81,3.44a2,2,0,0,1,.43,1.65l-.62,3.44a2.06,2.06,0,0,1-.94,1.37l-9.07,5.55-.56,1.68.13,1,1.38.77,3-.23,8.68-4.8a2.11,2.11,0,0,1,.92-.25l9.07-.31a1.9,1.9,0,0,1,1,.23l21.33,11.13,21.75,4.59,26.4.63,34.58,3.76.34.07,34.31,9.89,39.92-5.57,36-4.65,27.84-13.92,21.24-10.31,1.93-1.14a8.45,8.45,0,0,1,4.39-10L2342,1807.76Z"/><polygon class="cls-2" points="2626.29 1410.38 2668.03 1293.5 2665.38 1268.38 2647.54 1237.5 2545.85 1295.19 2570.33 1390.9 2626.29 1410.38"/><path class="cls-2" d="M2471.4,1602.93c0,.1.07.2.09.31l3.82,20.59,5.15-9.35,9.46-27.46h0l64.55-190-25-97.58H2511l-3.62,2.67h0l-11.43,8.65-14.5,12L2453,1346.9l-29.83,25.47L2384,1409.9l.24.51,40.64,60.8c.13.2.25.4.37.61l21.27,38.47a.56.56,0,0,1,0,.12.76.76,0,0,1,.08.11,8.4,8.4,0,0,1,.63,1.64l0,0,24.08,90.41C2471.37,1602.72,2471.37,1602.82,2471.4,1602.93Z"/><path class="cls-2" d="M1594.26,1377.59l1.87,5,6.29,19.49,15,41.54,18.34,37.85,3-.5-16.49-64.73-14.72-59.51-20-78.12c0-.14-.07-.27-.1-.41l-.87-4.07-1.48-5.32c-.06-.21-.11-.41-.15-.62L1584,1264l-16.72-65.74-38.31,3.55,4.66,30.26,9.65,32.4,18.71,45.8,20.91,52.75,1.09,1.91,9.9,12.07A2.11,2.11,0,0,1,1594.26,1377.59Z"/><polygon class="cls-2" points="2073.34 782.63 2069.62 772.93 2056.1 769.55 1997.99 786.71 1997.99 786.71 1922.82 809.38 1923.67 812.35 1950.22 907.41 2061.93 863.98 2083.58 855.71 2083.21 852.94 2073.34 782.63"/><path class="cls-2" d="M1767.44,634.77,1719,647.29h0l-55.85,14.38,2.18,2.08a10.53,10.53,0,0,1,2.93,5l15.32,61.31,8.12,33.21,37.89-9.84,109.84-28.68,14.31-14.31,1.18-1.36-1.58-1.7-77.65-81.64-3.05,5.14A8.43,8.43,0,0,1,1767.44,634.77Z"/><path class="cls-2" d="M1463.32,1222.46l8.8.85,12.28-.31,7.67-2.57,5.65-5.92,3.61-8.72a2,2,0,0,1,.86-1l7.87-4.52-40.42-8.3a2.16,2.16,0,0,1-.65-.26l-23.46-14.39a1.8,1.8,0,0,1-.34-.26l-19-18-8.71-5.73-.17,5.1,17.46,25.73Z"/><path class="cls-2" d="M1868.6,745h-14.79l-7.85-.26-111.14,29-39,10.14L1712,829l20.83,58.44,83-43.36h0l59.65-31.55,23-11.6-13.81-45.54Z"/><path class="cls-2" d="M1903.31,817.35l-20,10.11-8.58,4.59-51,26.93h0l0,0-79.22,41.36,3.46,2.38a8.4,8.4,0,0,1,2.33,2.42l72.86,114.21,42.63-33.09,65.87-67.61L1903.5,818Z"/><path class="cls-2" d="M2635,651.6l175.4,320.62,31.74-20.94-28.29-184.35-49.11-78.27a8.09,8.09,0,0,1-.71-1.41l-4.69-11.88L2739.63,624l-6.3-15.76L2685,625.77l-48.8,17.92-5.5,3,2.53,2.53A10.42,10.42,0,0,1,2635,651.6Z"/><path class="cls-2" d="M1474.71,1011.08l-75.24,18.19a8.4,8.4,0,0,1-2,.24,7.83,7.83,0,0,1-1.08-.07l-8.78-1.13v23.21l6.84,35.47,10.86,36.88,11.88,24.37,11.41,7.51a2.09,2.09,0,0,1,.29.23l18.92,18,23,14.1,45.17,9.28,10.65.61,39.66-3.68-9.3-36.58-62.09,14.24a1.74,1.74,0,0,1-.45.06,2,2,0,0,1-.46-4l62-14.23-34.52-141.15-3.27-13.82-2.86,1.4a8.06,8.06,0,0,1-1.55.58Z"/><polygon class="cls-2" points="1597.92 809.27 1540.34 822.92 1500.5 832.85 1534.05 974.67 1599.24 956.77 1630.64 943.23 1617.61 889.15 1598.23 810.68 1597.92 809.27"/><polygon class="cls-2" points="1614.68 806.87 1634.02 885.15 1646.15 935.48 1717.21 896.66 1717.96 896.08 1696.07 834.64 1679.36 788.17 1614.32 805.19 1614.68 806.87"/><polygon class="cls-2" points="1843.23 556.88 1866.96 536.62 1852.51 508.01 1810.34 521.67 1812.89 552.25 1843.23 556.88"/><path class="cls-2" d="M1535.39,802.56l66.12-15.68,69.81-18.27-.61-2.46-7.53-31-14.57-58.3-11.89-11.36a10.82,10.82,0,0,1-1.5-1.83l-10.16-3.81-44,1.5a8.47,8.47,0,0,1-2.79-.37l-17.2-5.32a8.23,8.23,0,0,1-2.46-1.23l-15.49-11.22-57,30.24,31.13,133.65Z"/><path class="cls-2" d="M1333.43,1130.84a2.35,2.35,0,0,1-.52.32l-15.33,6.57-7.68,3.92h6.88l38.89-2.39,4.34-31.2Z"/><path class="cls-2" d="M1708.43,482.16,1698,485.69a8.25,8.25,0,0,1-1.67.39l-6.63.81,9.14,13.09Z"/><polygon class="cls-2" points="1808.89 553.21 1806.26 521.66 1727.99 490.35 1727.6 490.76 1711.57 520.47 1770.5 588.95 1808.89 553.21"/><path class="cls-2" d="M1661.37,644.67l53.37-13.74h0l45.11-11.64,4.53-7.6-5.73-10.62-58.17-67.59-55.78,49.65,16.48,60.32A8.81,8.81,0,0,1,1661.37,644.67Z"/><path class="cls-2" d="M1385.53,1138.21a1.91,1.91,0,0,1,.67.1l25.53,8-10.14-20.78a2.08,2.08,0,0,1-.12-.32l-11-37.23-5.61-29-6.19,15.47-14,29.25-4.94,35.45Z"/><polygon class="cls-2" points="1397.01 1012.49 1470.57 994.71 1508.69 984.64 1514.24 981.93 1480.17 837.91 1446.31 846.35 1238.87 901.31 1341.15 981.08 1362.32 995.49 1378.7 1005.39 1388.2 1011.36 1397.01 1012.49"/><path class="cls-2" d="M1431.84,819.94a8.52,8.52,0,0,1-.62-1.64l-26-99.5q-.09-.36-.15-.72l-.52-3.14-20.76,11.69-27,26.4-96,119.42a8.48,8.48,0,0,1-1.31,1.3l-.78.62,176.91-46.87Z"/><path class="cls-2" d="M1930.13,640.54l-25.07,36.91,16-5.81,50.68-16.89,25.33-7.51,20.65-5.63,28.15,87,7.5,24.16.12,0a8.47,8.47,0,0,1,4.44-.09l20,5a4.05,4.05,0,0,1,.55.2,8.07,8.07,0,0,1,.94.33c.25.12.48.27.72.41s.47.26.69.42a8.42,8.42,0,0,1,.64.55c.2.18.4.34.59.54a6.87,6.87,0,0,1,.52.66,7.52,7.52,0,0,1,.47.64l.17.3,6.82-1.89h0l20.85-6.22h0l4.94-1.65-6.3-39.59a1.63,1.63,0,0,1,0-.31V684.15a2.33,2.33,0,0,1,0-.37l6.57-34.73s0-.09.07-.15a1.31,1.31,0,0,1,.06-.27l6-14-20.67-12.16L1999.9,559.7l-21.68,18-18.63,18.64Z"/><path class="cls-2" d="M2345.66,524.9a1.9,1.9,0,0,1,.4.21l71,46.57,53.75,32.76,16.36-32-21.64-10.54-96.7-47.57-96.32-47.23-.33-.16-47.06-25.14-18.18,18.82L2281,500.55Z"/><path class="cls-2" d="M1875.05,669.27l6.42,5.61,31.28-46,30-45a11.09,11.09,0,0,1,1.3-1.6L1963.3,563l-4.25-5.58-89-18.11-23.93,20.42Z"/><path class="cls-2" d="M2133.49,616.94l49.88,30.43,37,22.38,50.78,27.73.53.31L2389,771a10.47,10.47,0,0,1,4,4.46l4.1,8.82,76.1-52h0l4.91-3.44-7.2-11.67h0l-13.19-21.77L2412.42,669a2,2,0,0,1,2-3.51l45.67,26.59a2,2,0,0,1,.71.7L2474.3,715l7.1,11.51,5.49-3.67h0L2514.56,704l-15.35-13.22L2310.74,577l-66.95-40.67-62.54-37.21-42-26.94-14.53-8.16-2.44,1.48-51,34.93-54.4,45.12,95.5,59Z"/><path class="cls-2" d="M2497,620.44l70.62,35.31a1.85,1.85,0,0,1,.61.47l6.15,7,25.68-17.52-11.22-11.23-10.29-9.78-41.1-27.4-46.6-23-16.62,32.31Z"/><polygon class="cls-2" points="2415.39 575.46 2318.88 577.2 2498.12 685.41 2494.07 623.4 2415.39 575.46"/><polygon class="cls-2" points="2592.97 683.37 2618.8 665.59 2617.36 662.97 2612.22 657.83 2585.84 675.78 2592.97 683.37"/><path class="cls-2" d="M2597.07,688.19a2,2,0,0,1,.28.46l32.74,73.58,15.78,19.49,16.34,22.94,43.54,68.6a1.9,1.9,0,0,1,.27.64l3.13,13.76,7.42,31,41,66.44,27.12-16.29L2620.76,669.18l-25.11,17.28Z"/><path class="cls-2" d="M2409.33,571.5,2344,528.63l-64.54-24.32-.25-.11-11.66-6.29-20,36,64.76,39.35Z"/><path d="M2994.18,1896.37l-70.06-36.92-.3-.15-41.29-19.7a8.5,8.5,0,0,0-3.53-.83l-47.86-.62a6.19,6.19,0,0,0-2.53.35l-8.48,2.54-44.73,3.07h-.06l-60.17,4.41,2.25-17.61,10.12-28.3,14.36-32.39,22.6-41.26,9.37,2.84a10.54,10.54,0,0,0,2.41.44l20.65,1.25h.63a10.42,10.42,0,0,0,2.23-.23l38.79-8.45c.11,0,.21-.08.32-.1s.41-.08.61-.15l126.68-40a10.48,10.48,0,0,0-6.32-20l-126.22,39.9-36.9,8-18-1.09-6.13-1.86,6.11-19c.06-.17.11-.35.16-.54l37.28-141.18a8.41,8.41,0,0,0,7.18,4.92l166.41,9.07h.47a8.45,8.45,0,0,0,.45-16.88l-166.41-9.07a8.57,8.57,0,0,0-5.38,1.64l6.86-26L2860.46,1391l0-.08,25-79.25a5.61,5.61,0,0,0,.19-.67l1.14-4.67,5.25-16.91a8.19,8.19,0,0,0,.23-.85l11.26-51a10.82,10.82,0,0,0,.23-1.6l3.44-54.43a10.47,10.47,0,0,0,0-1.77l-4.38-41-.06-.46-3.13-20.64a10.36,10.36,0,0,0-1.48-4l-77.17-123.32,36.54-24.12a9.52,9.52,0,0,0,1.33-1l30.87-28.51,17.81,18.48,9.77,10.35,50.44,101.5,15,30a8.45,8.45,0,0,0,15.11-7.56l-11.89-23.77-54.1-108.84a8.29,8.29,0,0,0-1.42-2l-10.7-11.33-18-18.71,96.22-102.45a10.48,10.48,0,0,0-15.27-14.35L2881.2,916l-24,22.14-26.93-175.51a8.33,8.33,0,0,0-1.19-3.2l-38.8-62-10.84-17.16-24.12-62.48-6.16-15.39L2903,546l90.08-31.6a8.45,8.45,0,1,0-5.59-15.94l-81.67,28.64-15.93,5.71-146.4,53.71-37.33-114.63-13.67-41.71h-17.28c.06.26,2.62,9.5,2.7,9.75l12.19,37.21,37.51,115.17-48.34,17.56-49.42,18.14a8.33,8.33,0,0,0-1.14.52l-9.92,5.41-15.28-14.54-9.32-9.33a11.87,11.87,0,0,0-1.6-1.31l-.85-.56-1.18-1.12a10.52,10.52,0,0,0-1.43-1.14l-38.16-25.34a10.27,10.27,0,0,0-1.16-.67l-1.82-.9-2.32-1.55a9.73,9.73,0,0,0-1.13-.65L2275.84,442.64l-10-12.42h-62.16l13.36,7.29,4.26,2.28L2202.1,459.7a2,2,0,0,0-.55,1.73,2,2,0,0,0,1,1.47L2264,496l-19.9,35.83-60.7-36.12-42-27-12.65-7.11,51.53-31.4H2144L2112,447.29l-3.82-5-1.88-2.19a2.13,2.13,0,0,0-.92-.61l-28.82-9.25h-13.3l40.33,12.95,4.95,6.41-49.43,33.86c-.26.18-.52.37-.77.58l-55,45.64-9.17-22.35-13.26-76.18-.13-.91h-20.92l.41,4.54L1973.65,512a10.27,10.27,0,0,0,.63,2.18l12.1,29.49-20,16.64-4.54-6a2.06,2.06,0,0,0-1.21-.76l-89.75-18.26-15-29.79,19.53-38.45,27.19-36.87h-6.85l-24.43,35.93-19.15,37.71-43.86,14.22L1731,487.17l15.32-16.25,7.39-7.4,5.6-33.3h-22.8l-2.21,23.47a10.79,10.79,0,0,0-2.24,1.8l-1.17,1.25-37.51,12.68-15.15,1.86-35.11-41.06H1613L1664.21,487,1686,518.29l-57.63,51.29-85,49.38-50.66-47-34.45-31.63-111.89-110.1H1309l135.2,125.58,34.37,31.55,45.5,42.22-53,28.12a10.39,10.39,0,0,0-4.49,4.7L1407,694.22l-.07,0-.09,0-32.22,18.15a8.1,8.1,0,0,0-1.76,1.32l-22.3,21.8-11.37,12.49-90.92,113.07L1219.61,884,1079.25,783.59,1052,763.88a10.29,10.29,0,0,0-1.46-.88l-91.67-45.84-.29-6.49c0-.25,0-.51-.08-.77l-1.25-9.07c0-.25-.08-.5-.13-.75l-22.54-97.32L919,536.47l-10.31-44.39-11-47.94-1.16-4.87,50.32-9H861.22l-16.57,3.92-42.74,10.37-8.14,2.19A8.45,8.45,0,0,0,796,463.3a8.31,8.31,0,0,0,2.2-.29l7.93-2.13,42.49-10.32,31.47-7.43,12.17,52.74,10.33,44.45,15.63,66.28,22.43,96.92.87,6.3L888.06,688.5c-.21-.09-.43-.17-.65-.24l-43.48-14.08a10.33,10.33,0,0,0-1.33-.33l-20.14-3.72-2.63-.58a10.5,10.5,0,0,0-1.67-.24l-21.58-1.25A10.48,10.48,0,0,0,795.36,689l20.74,1.21,2,.44.38.08,19.65,3.62,42.5,13.76,65.88,26.3,93.94,47L1067,800.6l145.14,103.86c.21.14.43.25.65.39s.42.27.64.39.63.28,1,.41l.58.23a11.46,11.46,0,0,0,1.12.28c.17,0,.32.09.49.12a10,10,0,0,0,1.34.11L1331,994.56l.44.32,21.58,14.7.39.25,16.45,9.94,11,6.88a8.49,8.49,0,0,0,2.77,1.07v23.61l-8.56,21.41-13.89,29L1331,1127.55l-14.5,6.22-20.33-3-50.68-9.33L1220.28,1108l-83.52-34.72-.39-.12L1099,1066l-40-4.7a2,2,0,0,0-.48,4l39.89,4.67,37,7.16,83.15,34.56,25.34,13.45a1.72,1.72,0,0,0,.59.2l51,9.4,14.68,2.19-9.06,4.62-69.89-12.68-87.62-28.06-21.13-10.57a2,2,0,0,0-.71-.2l-32.32-3.11-38-12.13a2,2,0,0,0-.9-.08l-20.55,2.81-20.4,1.86-22.64-.62-61.11-14a2,2,0,0,0-.64,0l-20.95,1.87a2.4,2.4,0,0,0-.53.12l-40,14.91-42.32,1.54-25.13-4.34a2,2,0,0,0-.69,4l25.34,4.38a1.19,1.19,0,0,0,.42,0l42.85-1.56a2.35,2.35,0,0,0,.64-.13L905,1070.61l20.37-1.82,61,14a1.83,1.83,0,0,0,.4,0l23.07.62,20.74-1.89,20.19-2.75,37.72,12.06a2.05,2.05,0,0,0,.43.09l32.15,3.09,20.93,10.47.29.12,87.9,28.15.25.06,70.7,12.83.36,0h15.45l38.44-2.37-1.18,36.56a1.91,1.91,0,0,0,0,.53l2.18,9.33,4.38,21a1.9,1.9,0,0,0,.15.46l11.58,24.4a1.8,1.8,0,0,0,.21.35l12.39,16.4,5.63,9.39a2.22,2.22,0,0,0,.4.47l18.64,16.51,12.55,41.63-4.35,56.87c0,.07,0,.14,0,.22a1.48,1.48,0,0,0,0,.21l.22,1.6L1337.46,1276a2,2,0,0,0-.64-.54l-70.07-37.54-71-37.85a1.85,1.85,0,0,0-.91-.22l-.25,0a2.09,2.09,0,0,0-.66.19c-.06,0-.12,0-.17,0l-6.66,3.94-18.76,5.44-8.6-.88-4.16-.58-53.94-14-48.37-22.15-111.19-47.09-.19-1.92a2,2,0,0,0-1.25-1.68l-9.2-3.8-1.88-.63a2.12,2.12,0,0,0-.87-.09l-2.81.31a2.06,2.06,0,0,0-1.4.8l-.94,1.25a2,2,0,0,0-.38.89l-.31,1.88A2,2,0,0,0,923,1123l.42.82V1127l-26.31,30.49-53.23-7.65L820,1145.17l-23.28-9.62a2,2,0,0,0-1.55,3.76l23.46,9.7a1.9,1.9,0,0,0,.39.11l24.19,4.71,49.19,7.07-16.21,10.88-47.43,8.07a1.91,1.91,0,0,0-.41.11l-6.25,2.51a2,2,0,0,0-1.26,1.6l-1.25,8.75a2,2,0,0,0,.13,1.07l20,48.48h0l14.38,35.33a2.08,2.08,0,0,0,.74.92l5.94,4.06a2,2,0,0,0,1.15.36,2.17,2.17,0,0,0,.62-.1l24.4-7.82a.6.6,0,0,0,.11-.06l.1,0,29.09-13.14a2,2,0,0,0,1.17-1.5l5.94-33.79a2,2,0,0,0-4-.7l-5.76,32.73-28,12.64-23.35,7.48-4.62-3.16-13.15-32.29,5.78-.64a2.29,2.29,0,0,0,.36-.07l10.32-3.13a2.08,2.08,0,0,0,.78-.44l13.12-11.87,6.1-5.42.62,2a2.11,2.11,0,0,0,.81,1.09l3.76,2.5a2.08,2.08,0,0,0,.94.33l3.44.31h.19a2.31,2.31,0,0,0,.37,0l5-.94a2,2,0,0,0,1.44-1.09l1.79-3.58,3.52-1a2,2,0,0,0,.65-.31l5.94-4.38a2,2,0,0,0,.77-1.17l1.56-6.57a1.75,1.75,0,0,0,.06-.56l-.31-7.19a2.07,2.07,0,0,0-.6-1.35l-5.81-5.82-3.72-5.31,2.14-7.24,6-9.52,3.4-3,5.79,5.31,7.2,20.4L920,1283l-1.87,15.58a2.1,2.1,0,0,0,0,.36,2.32,2.32,0,0,0,0,.37l3.13,12.82a2,2,0,0,0,.61,1l10.32,9.39a1.86,1.86,0,0,0,.28.21l57.55,36.6a2.14,2.14,0,0,0,.4.2L1124,1408.05a1.8,1.8,0,0,0,.69.13,1.9,1.9,0,0,0,.58-.09l15.64-4.69a2,2,0,0,0,1.38-1.44l15.64-59.74a2,2,0,0,0-1.19-2.4l-4-1.65.79-28.26,35.35,4.72h.27a2,2,0,0,0,1.89-1.31l14.87-38.94,9.07,4.16,4.37,6.7a1.39,1.39,0,0,0,.21.27l10.88,11.82,53.42,67.48,16.58,22.21a2.43,2.43,0,0,0,.29.26l-11.64-.38-16.27,1.25a2.33,2.33,0,0,0-.25.07c-.09,0-.18,0-.28,0l-46.6,16.58-.1.06a1.48,1.48,0,0,0-.34.21,2,2,0,0,0-.33.25l-.09.07-47,54.45-49.23,5.47-13.08-7.43-16.44-10.73L1067,1430.54l-24.4-10-.39-.12-33.77-6.51L983,1399.77l-36.21-31.52-11.27-8.76a2.3,2.3,0,0,0-.33-.21l-9.57-4.77-31.44-12.14-38.66-18.71-1.76-1.17a2,2,0,0,0-2.25,3.39l1.88,1.25a1.36,1.36,0,0,0,.24.13l38.94,18.84,31.41,12.12,9.21,4.61,11,8.56L980.44,1403a1.48,1.48,0,0,0,.35.25l26,14.39a2.14,2.14,0,0,0,.6.21l33.89,6.54,24,9.85L1097,1450.7l13.08,8.55-11.32.85-23-.3-15.15-.92-8-1.23-15.79-5.26a1.28,1.28,0,0,0-.28-.07l-6.88-1.26a2.16,2.16,0,0,0-.84,0l-10.2,2.47-8.77.91-17.41-.92-4.59-1.43-4.88-2.59-3.44-3.43-6.13-7-12.2-17.2c0-.06-.11-.09-.15-.15a1.93,1.93,0,0,0-.3-.27,1.65,1.65,0,0,0-.36-.22,1.51,1.51,0,0,0-.17-.1l-48.36-17-26.26-26.57a2,2,0,0,0-.52-.39l-56.71-28.65-25.52-17.22-4.16-8.32,1.34-8.35,7.62-7a2,2,0,0,0,.55-.86l5.32-16.27a1.88,1.88,0,0,0,.1-.71l-.63-15.33a2,2,0,0,0-.07-.48l-12.46-42.94-2.51-15a2,2,0,1,0-4,.66l2.56,15.25L809,1274.77l.6,14.72-5,15.41-7.74,7.15a2.1,2.1,0,0,0-.63,1.18l-1.56,9.69a1.94,1.94,0,0,0,.19,1.23l4.69,9.39a2,2,0,0,0,.68.78L826.33,1352,883,1380.59l26.35,26.67a2.15,2.15,0,0,0,.77.49l48.19,17,12,16.83,6.35,7.3,3.75,3.76a2.47,2.47,0,0,0,.49.36l5.32,2.81a1.43,1.43,0,0,0,.34.14l5,1.57a2.1,2.1,0,0,0,.5.09l17.83.94h.31l9.07-.94.13,0h.14l9.91-2.4,6.31,1.15,15.82,5.27a1.32,1.32,0,0,0,.33.08l8.32,1.27,15.42.95,23.33.3,12.51-.94a1.84,1.84,0,0,0,.76-.21l2.16-1.07,12.82,7.28a2,2,0,0,0,1,.27h.22l50.68-5.64a2,2,0,0,0,1.31-.69l47.2-54.64,45.85-16.32,15.76-1.22,18.25.61,18,10.68,0,0a2.3,2.3,0,0,0,.7.23l.09,0,42.77,4.19-8.12,6.29-30.74,7.07-24.72,4.39a1.62,1.62,0,0,0-.46.14l-23.46,10.32a1.76,1.76,0,0,0-.56.37l-33.47,31a1.42,1.42,0,0,0-.24.25l-29.44,38.54-15,21.15-9.75,4.59-28.1.31-51.44-5.29-46.68-9-44.68-14.37-69.91-24.65L924,1465.08l-29.6-17.76L850.08,1412l-48.55-37.58-4.38-3.13a2,2,0,1,0-2.36,3.31l4.31,3.08,48.47,37.52,43,34.25-1.31,2.24a2.12,2.12,0,0,0-.27.85L885.28,1497a2,2,0,0,0,1.39,2.1l155.51,51-81.53,6.4a2,2,0,0,0-.92.31l-30.17,19-4.41-1.26a7.78,7.78,0,0,0-.86-.25l-6-1.71-67.47-42-47.65-36.36-.61-.75A8.44,8.44,0,1,0,789.38,1504l1.25,1.57a8.29,8.29,0,0,0,1.47,1.43l48.79,37.23.66.45,52.86,32.92-8.93.28h-.21l-89.77,5a8.45,8.45,0,0,0,.46,16.88h.48l89.73-5,20.16-.62a8.2,8.2,0,0,0,1.31-.14l14.52-2.74,75.75,21.64a9.58,9.58,0,0,0,1.09.24l125.74,18.46a8.48,8.48,0,0,0,1.23.09,9.45,9.45,0,0,0,1.07-.07l132-16.89a8.92,8.92,0,0,0,1-.2l128.21-32.82,5.63,30.61,6.87,44.81L1293.19,1685l-.91.28-45.35,16.27a11.19,11.19,0,0,0-1.46.65l-37.33,20.23-96.75,47.15-86,4.83-213.56-29.89a10.62,10.62,0,0,0-2.58,0l-14.39,1.56a10.48,10.48,0,1,0,2.26,20.84l13.1-1.42,213.28,29.85a11.8,11.8,0,0,0,1.46.09h.58l89.15-5a2.5,2.5,0,0,0,.38-.06l32.56,19.38a8.16,8.16,0,0,0,1,.52l72.24,30.65,38.79,16.58a9.07,9.07,0,0,0,1.63.51l29.09,5.94a8.23,8.23,0,0,0,1.64.17l113.68.58,1.16,117.59-1.56,55.52v.37l1.4,93.9-28.9-.94-82.93-12.74-137.63-20.64a10.4,10.4,0,0,0-3.15,0l-20.33,3.13a10.49,10.49,0,0,0-3.9,1.43l-12.2,7.51a10.44,10.44,0,0,0-1.92,1.52l-109.17,109.49a10.48,10.48,0,1,0,14.84,14.8L1129.7,2127l9.34-5.75,16.67-2.56,136,20.4,83.51,12.83a10.55,10.55,0,0,0,1.25.11l38.36,1.25h0l29.24,1.26,65,1.87,33.55,1.26,293.4,8.76h.32a10.53,10.53,0,0,0,2-.2c.24-.05.45-.14.68-.2a11.74,11.74,0,0,0,1.23-.38c.27-.11.5-.26.76-.39s.67-.32,1-.52.46-.36.69-.54.58-.43.84-.67.39-.44.58-.66.49-.53.71-.82.3-.5.45-.75.38-.62.54-1,.21-.57.31-.86.26-.67.35-1,.1-.62.14-.93.14-.63.16-1l4-67.36,4.29-15,16.68,4.93,20.6,9.39c.23.11.48.21.72.3l61.85,22.8,16.2,6.34-24.8,35.06a10.48,10.48,0,1,0,17.11,12.1l32.39-45.78,58-74.25,26.86-18.57,7.15,14.3,17.52,11.58L2510.1,1826l-1.85-3.22,1.08-.67-4.07-6.57-.88.54-2.64-4.58,1.05-.6-.65-1.12a8.3,8.3,0,0,0-6.65-9.55l1-.61-4.06-6.88-1.15.68-2.51-4.36,1.18-.66-2.77-4.92-.12-.24c.18-.14.39-.24.57-.4l27.83-24.71a9.34,9.34,0,0,0,1-1l23.41-27.23,114.44-42.24,10.79,6.08.3.14.15.1,8.76,4.37.29.15,44.73,20.64.18.06a9.58,9.58,0,0,0,1.34.45c.26.07.51.18.78.23l.11,0,21.55,4.16-20,36.51c-.14.25-.27.52-.39.79l-14.7,33.15c0,.12-.07.24-.12.36s-.12.23-.17.36l-10.63,29.72a9.81,9.81,0,0,0-.53,2.2l-3.75,29.41a10.08,10.08,0,0,0-.08,1.65l1.25,40a10,10,0,0,0,.11,1.23l7.19,47.86c0,.1,0,.19.05.28l5.29,29.86,2.76,19.06,4.7,36.6a9.9,9.9,0,0,0,.22,1.21l6.12,26-23.74,12.82-.28.16-34.24,20.31-2.25-3.74-4.36-7.47-54.12-97-2.48-4.34-3.76-6.88-3.19,1.74-2.11-1.49a2,2,0,0,0-2.08-.16l-47.22,23.61-11.13-18.46a2,2,0,0,0-2.73-.72l-110.42,61.93-.05,0,0,0-28.72,18.42h0l-.09.06-53.24,35.7-26.59,19.4a1.47,1.47,0,0,0-.32.29l-13.78,15.66-11.58,13.46a1.56,1.56,0,0,0-.23.34l-19.71,35.66a2,2,0,0,0-.17.4l-5,16.9a2,2,0,0,0,1.37,2.52,1.9,1.9,0,0,0,.58.09,2,2,0,0,0,1.94-1.46l5-16.68,19.49-35.28,11.43-13.28,13.61-15.47,26.34-19.22,51.39-34.46,83.36,140.17a2,2,0,0,0,1.75,1,2.07,2.07,0,0,0,1-.29,2,2,0,0,0,.71-2.79l-83.45-140.33,25.29-16.22,10.84,19.68a2.05,2.05,0,0,0,1.78,1.06,2.09,2.09,0,0,0,1-.28l109.49-63.28a1.94,1.94,0,0,0,1.13-.16l47.71-23.86,7.08,5,56.4,101,6.68,11.26L2613,2122.94l-83.88,46.78-45.39,21.14a8.44,8.44,0,0,0,3.57,16.1,8.34,8.34,0,0,0,3.56-.79l45.67-21.27.55-.28,84.35-47,47.84-28.46,35.82-21.18,21.07-11.38,5.43,13.3c.08.21.2.39.29.59s.08.22.13.32l12.83,24.4a9.56,9.56,0,0,0,.83,1.33l14.85,20.22,31.59,41c.1.13.2.26.31.38l22.8,26.86,31.28,37.23a10.37,10.37,0,0,0,1.24,1.24l6.25,5.32a10.48,10.48,0,0,0,13.57-16l-3.47-3,45.66-260,16.68-90.08,59.91,31.57a8.44,8.44,0,1,0,7.87-14.94Zm-115-773.37,0,.14-27.55-15a8.38,8.38,0,0,0-2.71-.93l-13.77-2.19a8.31,8.31,0,0,0-2.49,0l-15.64,2.19a8.46,8.46,0,0,0-3,1l-53.81,30.66a8.43,8.43,0,0,0-1.79,1.37l-14.07,14.07a8.64,8.64,0,0,0-1.39,1.84l-3,5.37,3.8-12.19a10.41,10.41,0,0,0-.4-7.33l-11.26-25.66c-.09-.19-.21-.35-.31-.53s-.16-.4-.27-.59l-32.13-54.36,103.69-59.44Zm-182.4,109.69,4.47,32.87-14,10.13L2686,1264a10.31,10.31,0,0,0-1.35-4.14l-23.14-40s0,0-.05-.07l0-.07-61.08-102.09L2627,1102.7l54.2-31.39,31.93,54,9.43,21.47-25.42,81.34A10.42,10.42,0,0,0,2696.78,1232.69Zm-1030.68,629,2.38,19.07-3.89-.89-7.66-11.35-.3-16.3a2.46,2.46,0,0,0,0-.37l-5.79-28,17.12-28.73a1.89,1.89,0,0,0,.2-.46l5.32-17.83a1.86,1.86,0,0,0,.07-.34l2.09-17.28,19.15,13.43c0,.12-.11.25-.16.38l-24.4,61.62a10.84,10.84,0,0,0-.61,2.23l-3.44,21.9A10.58,10.58,0,0,0,1666.1,1861.65Zm-26.18-98.29-27.75-34.6-11.31-19.26-1.86-11,72.84,57.92-2.35,19.35-5.19,17.43-15,25.19-6.93-23.37-5-17,3-12.93A2,2,0,0,0,1639.92,1763.36Zm-43-52.81a1.86,1.86,0,0,0,.25.68l11.57,19.71a1.46,1.46,0,0,0,.17.24l27.22,34-2.66,11.44-14.15,5.35L1600,1728.3a8.5,8.5,0,0,0-3.36-4.23l-28.75-18.6-7.54-47.27h0l-.58-3.59,30.66.68.54,5.39h0l3.12,33.15h0s0,.05,0,.08,0,0,0,.06ZM1565,1376.32l-22.86-38.2-13.19-21-62.57-90.25,5.58.53,12.83-.31a2,2,0,0,0,.59-.1l8.45-2.82a2,2,0,0,0,.83-.52l6.25-6.57a2,2,0,0,0,.41-.63l3.49-8.43,11.39-6.55,8.69.5,4.76,30.9a2.3,2.3,0,0,0,.06.28l9.76,32.72,18.76,46,21,52.87a2.1,2.1,0,0,0,.13.26l1.05,1.84,2.46,19.37,1.84,11.69-.59,18.34-5,4.51-9.22-.28-34.07-11,18.13-15.15a2,2,0,0,0,.37-.4l10.63-15.33A2,2,0,0,0,1565,1376.32ZM2189.3,697l-42.41-24.84-26.28-23.3,5.16-12.1,46.72,28.5,32.11,19.43Zm19-10.07,1.41.85.4.23,42.76,23.35-20,10.59-31.37,8-.27-14a2,2,0,0,0-.27-1L2192.12,700Zm-64-11.6a1.72,1.72,0,0,0,.32.23L2188,701l9.16,15.66.27,14.37-45.67,11.63-5.47-4.11a2.05,2.05,0,0,0-1.87-.3l-6.57,2.19a2.08,2.08,0,0,0-1.12.92l-3.33,5.83-13.58,3.59-6.19-38.91v-27.5l5.87-31Zm4.43,70.12-2.63,5.48-3.79,1-4.94-3.65,2.47-4.33,4.82-1.6Zm-14.45,5.65,6.41,4.74a2,2,0,0,0,1.21.4,2,2,0,0,0,.54-.07l5.63-1.57a2,2,0,0,0,1.29-1.08l3.35-7,47.25-12,34.09-8.76a2.2,2.2,0,0,0,.45-.17l22.61-12,3.68,2,114.4,71.39,7.21,15.48.79,1.63-100.39,29.16,0,0h-.07l-69.1,20.64a8.61,8.61,0,0,0-1.16.44l-29.4,13.76-.4.2-.06,0h0l-59.67,31.91-4.94-1.94-13.51-6.06-3.26-32c0-.05,0-.09,0-.13s0-.09,0-.13L2094.31,810l-4.38-30.65a8.78,8.78,0,0,0-.47-1.83l-4.61-12,6.33-1.76h0l21-6.26h.06l6.52-2.18Zm552.17,276.6-1.75,1-11.37-18.51,69.09-41.7L2754,987.15Zm70.91-37.85a2,2,0,0,0,.57-.24,1.7,1.7,0,0,0,.31-.29l28.32-17,6,10.93-103.42,59.29-2.42-7.5a8.59,8.59,0,0,0-.84-1.82l-.26-.42,2.86-1.56Zm-179.73,68.21,4.7,16.58a8.13,8.13,0,0,0,.73,1.78l10,18.15a7.92,7.92,0,0,0,1.17,1.57l-6.11,1.54L2556,1046.3,2502,957l77.67-49.53.4-.27,6.06-4.37,84.8,138.4,3.22,10L2656,1061.69,2642,1040.48a10.26,10.26,0,0,0-.76-1L2629.92,1027a8.3,8.3,0,0,0-3.6-2.36l-7.51-2.51a8.34,8.34,0,0,0-2.67-.43h-6.57a8.39,8.39,0,0,0-4.2,1.12l-19.08,11a8.31,8.31,0,0,0-3,2.88l-4.07,6.56a8.58,8.58,0,0,0-1.24,3.8l-.62,8.14A8.33,8.33,0,0,0,2577.67,1058.08Zm-201,493,6.23,30.32-14.67,13.29-16.46,3L2266,1614.07l-3.83-13.1-13.45-47.23a10.43,10.43,0,0,0-1.63-3.33l-28.42-38.76,104-54.55a8,8,0,0,0,1.17-.74l47.07-35.57,39.78,59.51,16.89,30.55-3.13,1.61-18.14,9.07,0,0a7.39,7.39,0,0,0-.76.47c-.23.15-.48.29-.7.46l-.05,0-25,20.33A8.44,8.44,0,0,0,2376.71,1551.11Zm-339.64,316,10.3,37.47-14.17-4.16-23.15-22.16a8.37,8.37,0,0,0,1.12-3.56l.62-8.44a8.68,8.68,0,0,0,0-.88l-.62-20.65a8.48,8.48,0,0,0-1.24-4.15l-6.88-11.26a8.7,8.7,0,0,0-2.49-2.6l-17.21-11.58a8.28,8.28,0,0,0-1.44-.77l-54.69-23-9.3-5,18.56-27.37,41.91-35.12,26.9,60.67,16.24,31.86,13.66,29.18,3,13.78-1.19,6.8A2.06,2.06,0,0,0,2037.07,1867.15Zm-260-31.84,18.36,32.35-14.4,17.8-25.31-47.81Zm-23.46-1.52-15.12-25.58,9.31-26.77,1.93-4.19,6.49-17,5.46-8,2.94,29.71,11.07,49.4Zm44.81,36.64L1813,1878l21,15.76,14.66,15,3.92,8.46-64.93-18.84-4.63-9Zm53.85,36.3a2,2,0,0,0-.39-.56l-15-15.33-.23-.2-21.28-16a1.89,1.89,0,0,0-.28-.17l-15.73-8.17-19.26-33.94-11.47-51.07-3.34-34.07,13.06-12.78a8.78,8.78,0,0,0,1.19.69,8.6,8.6,0,0,0,3.34.68,8.47,8.47,0,0,0,4.25-1.14L1819,1716.1l40.9,21.53,4.11,8.71a9,9,0,0,0,.84,1.41l22.78,30.89,8.69,12.07-16.06,45.9a8.48,8.48,0,0,0-.44,3.57l2.5,26.9v0a6,6,0,0,0,.14.74,7.7,7.7,0,0,0,.17.86c0,.14.11.26.15.4a7.92,7.92,0,0,0,.45,1.08,4.43,4.43,0,0,0,.29.46,8.46,8.46,0,0,0,.56.86,5.23,5.23,0,0,0,.45.49,8.11,8.11,0,0,0,.65.66,5.25,5.25,0,0,0,.53.4,7.22,7.22,0,0,0,.81.55l.2.14,8.13,4.38a8.56,8.56,0,0,0,4.29,1l17.21-.58,20.07,5.31a8.26,8.26,0,0,0,2.16.28l.65,0,31.77-2.47,31.46.92a8.76,8.76,0,0,0,4.74-1.32l23.5,22.5.07,0a1.89,1.89,0,0,0,.3.19,2.1,2.1,0,0,0,.39.21s0,0,.08,0l17.16,5,1.79,4.86,1.56,5.32a2.06,2.06,0,0,0,1.14,1.29,2.1,2.1,0,0,0,.81.17,2,2,0,0,0,.91-.22l.6-.3,5.71,12.87-6.88,2.13a2,2,0,0,0-1.22,1l-.67,1.34-31.92-.9-16.3.31a2.1,2.1,0,0,0-.92.24l-16.58,8.91-14.56,2.07-68.73-18a2,2,0,0,0-1.69.31l-6.78,4.8-17.84-3.8L1858,1919Zm-67.15-206.6,15.48,7.17-12.13,7.07Zm120.47,74.47-4.26-5.91-16.08-21.81,31.75,10.89Zm14.07,31.9c.1,0,.2.07.3.11s.25.16.39.22l54.3,22.83,15,10.08,4.75,7.78.54,17.92-23.82-.7c-.31,0-.61,0-.91,0l-30.79,2.4-19.88-5.27a8.43,8.43,0,0,0-2.45-.28l-16.17.55-2.14-1.15-1.91-20.56,13.59-38.85Zm134,104.18-1.34-3.63-11.14-40.54,1.17-6.74a2,2,0,0,0,0-.78l-2.74-12.58,24.09-7.58,16.78,58ZM1971,1708.12h0l-42.62,35.72-58.69-20.14-47-24.72-.24-.12,0,0-.1,0L1789,1683.32l-9.89-8.44L1765,1620.8l11.13-5,90,2.45h.5l8.6-.27,43.5,13.38,45.37,13.3,2.47,5.51c.07.15.16.28.23.42s0,.15.09.21l22.92,41.49Zm-333.38-630L1611.9,969.7l32-13.77c.07,0,.12-.06.18-.08l.17-.08.36-.18,72-39.36,36.73,129.12L1704,1059.84Zm45.77,4.88,9.07,37.26-73.41,18-42.69,10.61-34.52-141.18-3.93-16.58,57.91-15.91,27.38,115.37a8.46,8.46,0,0,0,8.22,6.5,8.2,8.2,0,0,0,2.25-.31Zm49.9-169.83,3.6,2.47,75.25,118-38.09,21-.39.23-1.81-6.11Zm49.14,156.1,39.08-21.53,53.38,77-47.62,28.52-.42.27-5.35,3.66-27-46-15.39-39.81Zm50.84-34.21.76-2.86,42.49-33c.16-.13.29-.29.44-.42s.29-.23.43-.36l59.78-61.36,15.46,50,28.07,96.05,1.78,6.7-3.52-.54a8.41,8.41,0,0,0-1.66-.09l-33.78,1.57a8.49,8.49,0,0,0-5.15,2.06l-19.08,16.58-.24.22-6.32,5.92a8.49,8.49,0,0,0-3.54,1.34l-11.85,7.9-1.39.33-2.17-2.77Zm2.9,132.59L1885,1138.5l.75,1,13.19,21.48a8.42,8.42,0,0,0,.83,1.13l16.89,19.39a6.86,6.86,0,0,0,.65.67l19.58,18,16.14,16.14a8.34,8.34,0,0,0,1,.86l26.35,19.14,1,.71-60.74,53.62-28.93,15.66c0-.12,0-.23,0-.35a6.83,6.83,0,0,0-.06-.79,6.41,6.41,0,0,0-.16-.76,9,9,0,0,0-.25-.89c0-.08,0-.16-.07-.24l-30.34-77a8.53,8.53,0,0,0-.5-1.06L1830,1171.93ZM1929.5,1305a8.07,8.07,0,0,0,1.57-1.1l63.38-56,2.84,2.94.4.39,2.86,2.6,23.42,31,6.72,10.38a7.69,7.69,0,0,0,.73,1l8.35,9.55,5.92,9.18a7.17,7.17,0,0,0,.45.63l9.19,11.72,17,20.73,14.21,20.08a8.31,8.31,0,0,0,2.81,2.48l-41.88,23.71-6.88,3.75a.18.18,0,0,1-.07.05l-.09,0L1954,1447.93l-27.43-21.25a9.07,9.07,0,0,0-1.88-1.1l-6.94-2.94-6-16.4-14-36.27-4.77-16.34,1.61-.67-1.56-3.75-1.2.5-6.14-21Zm483.62-188.86h-.18l-15.94-.22-.89-4.7L2378,1003.18,2449.81,981l35.25,129.83a1.84,1.84,0,0,0,.09.25,1.6,1.6,0,0,0,0,.21l2,6.06Zm75.74,18.14,3.94.13,7,17.06-.81.13-.21.05-.14,0-13.45,2.81c-.23,0-.47.11-.7.18l-55.26,16.63-6.42-38Zm-398.58,118.24-.51-17.16a8.27,8.27,0,0,0,.2-3.49l-.6-15.87-.93-14.2-.92-21.1L2090,1141l.69-3.55,88.94,4.1,17.22,50.24a8.23,8.23,0,0,0,1,2.07l2.81,4.07c.15.21.31.41.47.61l12.6,15.06,13.87,19.73c.1.15.21.29.33.44l25.1,31.19L2234,1277.4l-56.59,37.21-55.82,36.48a8.27,8.27,0,0,0-1.32-4l-19.44-29.62-2.22-10.82-2.84-12.29-4.8-19.78-.52-18,3.91.16.17-4.06Zm16,128,42.62,64.17-.13.07h0l-25.94,14.69h0l-38,21-29.4-71.16.34-.19Zm18.52,82.49h0l26-14.71h0l.37-.2,26.13,39.51,13.31,20.41-35.28,21.07-1.67.72a8.68,8.68,0,0,0-1,.51l-17.21,10.33-.14.1a1.29,1.29,0,0,0-.16.09l-20.75,13.69-28-70.18Zm36,82.08,1.66-.71a8.54,8.54,0,0,0,1-.51l36.7-21.92,28.86,39.37,10.79,37.88-61.14,21.37-2.58.87-6.66,1.8-9.36-34.16-10.46-37.28Zm34-69-26.91-40.69-43.76-65.78,62.5-40.85,56.59-37.21,20.11-13.11,30.83,43.28,9.57,15.13a8.87,8.87,0,0,0,.82,1.09l58.18,65.57.71,1.73-49.29,37.25-105.25,55.22Zm46.5-252.68-13.92-19.8c-.14-.19-.28-.38-.43-.56l-12.58-15-1.93-2.79-15-43.9,192.74-8.56,15.55.25,7.37,43.75-37,14.11q-.42.17-.81.36l-40.67,20.65c-.27.14-.53.29-.79.45l-66.49,43.36Zm138.19-109.26s0,.06,0,.09,0,0,0,.08l.38,2-188,8.35-18.87-60,65.2-20.15.08,0h0l99.39-29.38h.06l24-7Zm-138.07-88.2-44.51-145.47,22.2-10.39L2279.55,852l45.15,149.29Zm-16.16,4.89-56.43,17.43L2133.35,914l48.25-25.8Zm-70.56,30.07,1.88,7.82c0,.11.07.21.1.31s0,.17.06.25l17.33,55.11-80.94-3.72a8.43,8.43,0,0,0-5.42-8l-3-1.13,18.41-177.16a1.62,1.62,0,0,1,0-.22,1.52,1.52,0,0,1,0-.21v-.16h0l1.21-22.88,6.91,3.09.37.16,4.77,1.87ZM1890.5,1447.61l20.71-9.41,5.9,2.5,29.32,22.71,16.77,38.84,5.62,18.94,9,60.61-6-.45a8,8,0,0,0-1.7,0l-49.42,6.26a7.36,7.36,0,0,0-1.32.27L1875,1601.07l-8.66.27-91.72-2.5a9.12,9.12,0,0,0-3.71.75l-7.14,3.22.29-11.58,3-29.84,20.62-43.58,40.14-39,29.85-18.21,32.49-12.87Zm-116.12,280.7-39.65,13.62-9.07-.72a11.52,11.52,0,0,0-.21-1.31l-14-56.51-8.9-37.63,47.79-14.43,11.54,44,1.54,6.19ZM1979,1636.65l-1.11-2.48a8.47,8.47,0,0,0-5.33-4.65l-49-14.35-18.12-5.58.49-.14,17.5-5.13,47.91-6.07,15.51,1.17,21.86,2.77,1.31.19,4,1.47,1.65,9.29a7.89,7.89,0,0,0,.44,1.58l4.13,10.66Zm36-50.43a7.88,7.88,0,0,0-1.72-.43l-18.18-2.33-8.12-54.32-1.56-11a8.15,8.15,0,0,0-.27-1.21l-5.94-20a7.55,7.55,0,0,0-.35-.94l-14.84-34.38,76.47-44,29.76,72,26.26,65.67,3,7.47L2048,1585.62l-25.51,3.33ZM2135.3,1687l8.62,14.88,4.28,12.27,9.89,42.65L2106.27,1769l-13.13-46.65-.12-.38-6.11-18.33Zm11.31-14.16-7.45-15.74,27.6-15.64,14-3.78.46-.14,63.31-22.09,3.34,11.42,14.93,64.07,6.52,29.12-21.83,7.49-53.68-7.67-30.67-14.24-3.51-10.08a9.37,9.37,0,0,0-.66-1.44Zm229.67-279.47-58.66-66.12-9.33-14.75c-.08-.13-.17-.26-.26-.38l-30.56-42.9,65.14-42.48,39.86-20.24,42.77-16.31L2489,1171l1.14-.24-22,141.23L2442.06,1334l-30,25.65c-.07,0-.11.12-.17.17s-.13.09-.19.15l-35.15,33.65C2376.44,1393.55,2376.37,1393.44,2376.28,1393.34Zm131.53-226.06,2.71-.45,2.42,1.1-12.72,118.5-2.95,2.17,0,0,0,0-9.43,7.13Zm-1.23-43.73-.06-.16-3-10.49a3.58,3.58,0,0,0-.11-.35l-2.12-6.36-35.58-131.08,17.91-8.11,54.52,90.29,29.19,46.48ZM2527,1156l54-30,58,96.94-105.13,59.64h-16.22l12.77-118.91A8.42,8.42,0,0,0,2527,1156Zm37-358.43,3.31,8.38a2.27,2.27,0,0,0,.27.48l30.08,39.7,5.91,25.12-8.72,9.45-41.36-68.22Zm-12.81,11.11-39.31-65.13,19-12.92,1.89,4,20.55,34.57,8.95,23.85Zm54.27,66.54,8,13.3a1.91,1.91,0,0,0,.54.59l16.58,12.2a1.93,1.93,0,0,0,.88.38l12.21,1.94L2649,958.5l-4.82,3.61-47.13-77.73Zm65.77,131.47-24.91-41.1,6-4.54a2,2,0,0,0,.81-1.82L2647.7,903l18.14-10.08,39.75-2.67,7.1,29.61a2.06,2.06,0,0,0,.25.59L2740.33,965Zm-6.14-117.8a2.09,2.09,0,0,0-.85.25l-19.09,10.61-12.58-2-15.86-11.67-9-15-6.07-25.82L2612.12,799l16.59-32,13.92,17.19,16.21,22.75,43.29,68.21,2.52,11.1Zm-56.72-91.5a2.15,2.15,0,0,0-.18.48l-9.67,42.67L2571,804.21l-4.58-11.59-9.38-25a3.18,3.18,0,0,0-.16-.32l-20.55-34.56-2-4.41,58-39.54,1.46,1.79,32.33,72.68Zm-75.82-72.85-4.35-9.39,54.23-37.06,7.13,7.59Zm-14.38-23h0l-.14.09-15.66-13.48-4.09-62.56,67.17,33.59,5.55,6.3Zm6.6,15.94,4.32,9.41-20.81,14.18-5.29-8.78Zm52.57,170.82-6.94,5-77.23,49.26-86.83-138.69-2-4.17,78.31-53.54,0,0,0,0,6.09-4.27.16-.11Zm-102.68,64.19-22,10L2366,989.18l-25.12,7.35-45.16-149.3,95.63-27.78Zm-389.8-6.22-16.54,159.15-21.9-4.73-.27-.06-2.38-.43a8.4,8.4,0,0,0-5.15-2.48l-27.13-2.77-6.3-1.26-4.29-16.15-26-89Zm-23-82.31-111.71,43.43-26.55-95.06-.85-3L1998,786.71h0l58.11-17.16,13.52,3.38,3.72,9.71,9.87,70.3.37,2.77ZM1931.6,918.67l-65.87,67.61-42.63,33.09-72.86-114.21a8.4,8.4,0,0,0-2.33-2.42l-3.46-2.38L1823.67,859l0,0h0l51-26.93,8.58-4.59,20-10.11.19.69Zm-56.09-106.2L1815.86,844h0l-83,43.36L1712,829l-16.2-45.06,39-10.14,111.14-29,7.85.26h14.79l16.07,10.33,13.81,45.54Zm-9.91-116.62-84.62-89-7.91-14.65a.35.35,0,0,0,0-.08l38.64-36,30.56,4.66,29.06,110.07a2,2,0,0,0,.63,1l7.21,6.31Zm-90-70.07,77.65,81.64,1.58,1.7-1.18,1.36-14.31,14.31-109.84,28.68-37.89,9.84-8.12-33.21-15.32-61.31a10.53,10.53,0,0,0-2.93-5l-2.18-2.08L1719,647.29h0l48.48-12.52a8.43,8.43,0,0,0,5.15-3.85Zm-79.57,208.86,21.9,61.44-.76.58-71.06,38.82L1634,885.15l-19.34-78.28-.36-1.68,65-17Zm-78.46,54.51,13,54.08-31.4,13.54-65.19,17.9L1500.5,832.85l39.84-9.93,57.58-13.65.31,1.41Zm-99.39,109.63,3.27,13.82L1556,1153.75,1494,1168a2,2,0,0,0,.46,4,1.74,1.74,0,0,0,.45-.06L1557,1157.7l9.3,36.58-39.66,3.68-10.65-.61-45.17-9.28-23-14.1-18.92-18a2.09,2.09,0,0,0-.29-.23l-11.41-7.51-11.88-24.37L1394.47,1087l-6.84-35.47v-23.21l8.78,1.13a7.83,7.83,0,0,0,1.08.07,8.4,8.4,0,0,0,2-.24l75.24-18.19,39.1-10.32a8.06,8.06,0,0,0,1.55-.58Zm-100.69,154.54,8.71,5.73,19,18a1.8,1.8,0,0,0,.34.26l23.46,14.39a2.16,2.16,0,0,0,.65.26l40.42,8.3-7.87,4.52a2,2,0,0,0-.86,1l-3.61,8.72-5.65,5.92-7.67,2.57-12.28.31-8.8-.85-28.5-38.31-17.46-25.73ZM1584,1364.94l-1.09-1.91L1562,1310.28l-18.71-45.8-9.65-32.4-4.66-30.26,38.31-3.55L1584,1264l.89,4.18c0,.21.09.41.15.62l1.48,5.32.87,4.07c0,.14.06.27.1.41l20,78.12,14.72,59.51,16.49,64.73-3,.5-18.34-37.85-15-41.54-6.29-19.49-1.87-5a2.11,2.11,0,0,0-.34-.58Zm43.82-13.33-20-78-.89-4.17-.15-.61-1.48-5.33-.87-4.08c0-.13-.06-.26-.1-.39l-23.76-93.17-3.26-13,42.69-10.61,75.38-18.46a1.75,1.75,0,0,0,.5-.23,1.23,1.23,0,0,0,.23-.11,1.86,1.86,0,0,0,.27-.29,3.32,3.32,0,0,0,.26-.28,1.55,1.55,0,0,0,.13-.36,1.74,1.74,0,0,0,.14-.38,2.16,2.16,0,0,0,0-.8h0l-9.57-39.35,21.24-5.86,49.47-14.52,2.61,8.81.18.52,0,.1a0,0,0,0,1,0,0L1779,1118a7.73,7.73,0,0,0,.59,1.23l31.85,54.34,33.79,59.53,29.4,74.55-.71,8.12-1.62,1-68.51,19.94L1801,1331l-19.2-58.22a9.79,9.79,0,0,0-.43-1.06l-11.89-24.4a8.69,8.69,0,0,0-.77-1.28l-9.39-12.83a8.45,8.45,0,0,0-8.82-3.22l-46,11.26a8.45,8.45,0,1,0,4,16.41l40.5-9.92,5.6,7.66,11.3,23.21,19.22,58.27a9.22,9.22,0,0,0,.46,1.13l6.26,12.51,0,0,0,.08a8.39,8.39,0,0,0,1.08,1.59,1,1,0,0,0,.08.11l10.76,12.17,6.83,27.28,18.45,14.08,49.11-9.7,10.56,33.7-5.11,2.32-33,13.06a7.79,7.79,0,0,0-1.29.65l-31.28,19.08a8.58,8.58,0,0,0-1.48,1.14l-41.91,40.67a8.4,8.4,0,0,0-1.76,2.45l-21.9,46.31a8.34,8.34,0,0,0-.76,2.77l-3.13,31.59c0,.21,0,.42,0,.63l-.43,17.32L1696.55,1622,1676,1542.45h0l-33.45-131.31Zm63.2,336.72,13.62,54.8-1.17,10.52-7,15.2L1675.26,1754l-77.21-61.4-3-32.3h0l-.47-4.74,21.25,1.32.33,0,50.05,1.56a10.07,10.07,0,0,0,3.83-.59l12.76-4.54Zm-.93,152.9L1714,1781l9.26-20.07a10.36,10.36,0,0,0,.9-3.23l1.38-12.39,9.32.74h.18a2.05,2.05,0,0,0,.64-.11l38.79-13.32L1761.72,1745l-.11.12-.07.09-.08.09-8.76,12.83a2.1,2.1,0,0,0-.22.42l-6.51,17.08-2,4.25-9.7,27.84a2,2,0,0,0,.17,1.7l16.22,27.45,28.14,53.15v0h0l5.55,10.69a1.91,1.91,0,0,0,.23.45l15.16,29.19a2.07,2.07,0,0,0,1,.91l3.44,1.56a2,2,0,0,0,1.74,0l13.88-6.79,2.3-.57,1.4,1.72-.29,1.62-8.93,5.46a2.05,2.05,0,0,0-.86,1.1l-.94,2.81a2,2,0,0,0-.09.9l.31,2.5a2,2,0,0,0,1,1.52l2.82,1.57a2.05,2.05,0,0,0,1.14.25l4.07-.32a2,2,0,0,0,.83-.24l8.64-4.77,8-.28,21.11,11a1.91,1.91,0,0,0,.52.19l22.21,4.69a2.2,2.2,0,0,0,.37,0l26.41.61,34.24,3.74,34.62,10,40,10,12.94,3.46,11.67,2.47-32,1a2,2,0,0,0-1.6.87l-2.24,3.18a11.7,11.7,0,0,0-1.28-.5l-83.21-24.4a10.78,10.78,0,0,0-1.88-.37l-88.35-9-44.2-8.78-63.87-25.91L1698.92,1900l-9.13-17.74-2.71-21.72Zm342.56,137.91-12.86-3.45-29.88-7.47,30-4.18,36.28-4.69a2.22,2.22,0,0,0,.65-.2l28.13-14.07,21.27-10.32.08-.06s0,0,.06,0l2-1.18a8.49,8.49,0,0,0,6,2.56l1.28,5.36-31,33.39-11,6.43-1.3.78-12.08,2.94Zm78-59.13a8.45,8.45,0,0,0-4.39,10l-1.93,1.14-21.24,10.31-27.84,13.92-36,4.65-39.92,5.57-34.31-9.89-.34-.07-34.58-3.76-26.4-.63-21.75-4.59-21.33-11.13a1.9,1.9,0,0,0-1-.23l-9.07.31a2.11,2.11,0,0,0-.92.25l-8.68,4.8-3,.23-1.38-.77-.13-1,.56-1.68,9.07-5.55a2.06,2.06,0,0,0,.94-1.37l.62-3.44a2,2,0,0,0-.43-1.65l-2.81-3.44a2,2,0,0,0-2.07-.69l-3.75.94a1.74,1.74,0,0,0-.4.15l-13.22,6.46-1.93-.88-12.8-24.57,65.2,18.93,19.77,13a2.09,2.09,0,0,0,.69.28l19.08,4.07a2,2,0,0,0,1.6-.33l6.73-4.77,68.21,17.9a1.81,1.81,0,0,0,.52.07l.29,0,15.32-2.19a2,2,0,0,0,.68-.22l16.46-8.84,14.8-.3h.88l33.15.94a1.84,1.84,0,0,0,1.88-1.12l.86-1.72,8.25-2.56a2.08,2.08,0,0,0,1.25-1.11,2,2,0,0,0,0-1.67l-5.62-12.48-1.88-4.38s0,0,0,0,0,0,0-.06a1.39,1.39,0,0,0-.21-.27,2.67,2.67,0,0,0-.24-.32,2.39,2.39,0,0,0-.34-.21,2.17,2.17,0,0,0-.33-.19,2.41,2.41,0,0,0-.37-.07,2.6,2.6,0,0,0-.39-.05,1.77,1.77,0,0,0-.4.08c-.11,0-.23,0-.34.07l0,0h-.06l-.33.17-.41-1.38,28.85-14.87a2,2,0,0,0,1-2.37l-17.83-61.63a2,2,0,0,0-1-1.22,2,2,0,0,0-1.57-.15l-26.14,8.23-13-27.8,0,0s0,0,0,0L2009,1782.89l-27.33-61.63.24-.2h0l21.72-18.26,37.9-31.49,27.25,31.29,8.16,24.48,15.28,54.24c.05.18.13.35.19.52s.16.46.25.67.22.42.34.63.22.41.35.6.28.38.43.57.27.35.42.51.36.33.54.49.31.3.48.43a6.41,6.41,0,0,0,.61.4c.18.11.35.24.54.34s.45.2.68.3a5.72,5.72,0,0,0,.57.24c.26.09.52.14.78.21s.37.1.55.13a7.83,7.83,0,0,0,1.29.11h.1a8.78,8.78,0,0,0,1.75-.2,1.23,1.23,0,0,1,.19,0l67.88-16a8.44,8.44,0,0,0,6.29-10.13l-2.39-10.32,50.2-9.58,22.85,3.27a9.39,9.39,0,0,0,1.19.08,8.25,8.25,0,0,0,2.74-.46l23.18-7.94,4,10.56a10.54,10.54,0,0,0,2.66,4l35.31,32.81,25.83,24.22Zm172.49-233.77-13-55.79,84.7-16.11,18.77-3.44a8.39,8.39,0,0,0,4.15-2.05l20-18.14a8.46,8.46,0,0,0,2.6-8l-6.16-30,20.33-16.52,17.39-8.7,1.62-.84,21.31,80,7,37.53-77.65,43.46-94.85,26.23Zm164.05-174,0,0a8.4,8.4,0,0,0-.63-1.64.76.76,0,0,0-.08-.11.56.56,0,0,0,0-.12l-21.27-38.47c-.12-.21-.24-.41-.37-.61l-40.64-60.8-.24-.51,39.2-37.53L2453,1346.9l28.45-24.08,14.5-12,11.43-8.65h0l3.62-2.67h18.51l25,97.58-64.55,190h0l-9.46,27.46-5.15,9.35-3.82-20.59c0-.11-.07-.21-.09-.31s0-.21-.06-.32Zm98.59-217,101.69-57.69,17.84,30.88,2.65,25.12-41.74,116.88-56-19.48Zm90.37-651.5,48.8-17.92,48.31-17.54,6.3,15.76,19.74,51.38,4.69,11.88a8.09,8.09,0,0,0,.71,1.41l49.11,78.27,28.29,184.35-31.74,20.94L2635,651.6a10.42,10.42,0,0,0-1.78-2.38l-2.53-2.53Zm148.43,325.07-27.12,16.29-41-66.44-7.42-31L2706,873.9a1.9,1.9,0,0,0-.27-.64l-43.54-68.6-16.34-22.94-15.78-19.49-32.74-73.58a2,2,0,0,0-.28-.46l-1.42-1.73,25.11-17.28ZM2612.22,657.83l5.14,5.14,1.44,2.62L2593,683.37l-7.13-7.59Zm-74.76-60.56,41.1,27.4,10.29,9.78,11.22,11.23-25.68,17.52-6.15-7a1.85,1.85,0,0,0-.61-.47L2497,620.44l-22.77-13.88,16.62-32.31Zm-39.34,88.14L2318.88,577.2l96.51-1.74,78.68,47.94ZM2206.89,460.6l18.18-18.82,47.06,25.14.33.16,96.32,47.23,96.7,47.57,21.64,10.54-16.36,32L2417,571.68l-71-46.57a1.9,1.9,0,0,0-.4-.21L2281,500.55Zm60.68,37.31,11.66,6.29.25.11L2344,528.63l65.31,42.87-97,1.75-64.76-39.35Zm-196.26,2.55,51-34.93,2.44-1.48,14.53,8.16,42,26.94,62.54,37.21L2310.74,577l188.47,113.78L2514.56,704l-27.66,18.81h0l-5.49,3.67L2474.3,715l-13.45-22.2a2,2,0,0,0-.71-.7l-45.67-26.59a2,2,0,0,0-2,3.51l45.22,26.33,13.19,21.77h0l7.2,11.67-4.91,3.44h0l-76.1,52-4.1-8.82a10.47,10.47,0,0,0-4-4.46l-117.3-73.2-.53-.31-50.78-27.73-37-22.38-49.88-30.43-21.08-12.4-95.5-59Zm-93.09,77.26,21.68-18,101.69,62.79,20.67,12.16-6,14a1.31,1.31,0,0,0-.06.27c0,.06-.06.1-.07.15l-6.57,34.73a2.33,2.33,0,0,0,0,.37V712a1.63,1.63,0,0,0,0,.31l6.3,39.59-4.94,1.65h0l-20.85,6.22h0l-6.82,1.89-.17-.3a7.52,7.52,0,0,0-.47-.64,6.87,6.87,0,0,0-.52-.66c-.19-.2-.39-.36-.59-.54a8.42,8.42,0,0,0-.64-.55c-.22-.16-.46-.28-.69-.42s-.47-.29-.72-.41a8.07,8.07,0,0,0-.94-.33,4.05,4.05,0,0,0-.55-.2l-20-5a8.47,8.47,0,0,0-4.44.09l-.12,0-7.5-24.16-28.15-87-20.65,5.63-25.33,7.51-50.68,16.89-16,5.81,25.07-36.91,29.46-44.18Zm-19.17-20.29,4.25,5.58L1944,582.27a11.09,11.09,0,0,0-1.3,1.6l-30,45-31.28,46-6.42-5.61-28.92-109.53,23.93-20.42ZM1852.51,508,1867,536.62l-23.73,20.26-30.34-4.63-2.55-30.58ZM1727.6,490.76l.39-.41,78.27,31.31,2.63,31.55L1770.5,589l-58.93-68.48Zm-31.3-4.68a8.25,8.25,0,0,0,1.67-.39l10.46-3.53L1698.81,500l-9.14-13.09Zm4.18,47.4,58.17,67.59,5.73,10.62-4.53,7.6-45.11,11.64h0l-53.37,13.74a8.81,8.81,0,0,0-.19-1.22l-16.48-60.32ZM1543.13,643.17l15.49,11.22a8.23,8.23,0,0,0,2.46,1.23l17.2,5.32a8.47,8.47,0,0,0,2.79.37l44-1.5,10.16,3.81a10.82,10.82,0,0,0,1.5,1.83l11.89,11.36,14.57,58.3,7.53,31,.61,2.46-69.81,18.27-66.12,15.68-18.09,4.5-31.13-133.65ZM1259.49,873.75a8.48,8.48,0,0,0,1.31-1.3l96-119.42,27-26.4,20.76-11.69.52,3.14q.06.36.15.72l26,99.5a8.52,8.52,0,0,0,.62,1.64l3.78,7.56-176.91,46.87Zm119.21,131.64-16.38-9.9-21.17-14.41-102.28-79.77,207.44-55,33.86-8.44,34.07,144-5.55,2.71-38.12,10.07L1397,1012.49l-8.81-1.13Zm-14,98.23,14-29.25,6.19-15.47,5.61,29,11,37.23a2.08,2.08,0,0,0,.12.32l10.14,20.78-25.53-8a1.91,1.91,0,0,0-.67-.1l-25.74.86Zm-9.06,35.64-38.89,2.39h-6.88l7.68-3.92,15.33-6.57a2.35,2.35,0,0,0,.52-.32l26.58-22.78Zm3.73,3.89,25.92-.86,28.22,8.82-.26,7.84a2,2,0,0,0,.35,1.21l17.88,26.35,29,39,61.41,88.58-26.51-9.69a1.34,1.34,0,0,0-.27-.07l-28.6-6.21-21.32-6.72.85-14.69a2,2,0,0,0-.24-1.07l-14.91-28-17.15-59.86a2,2,0,0,0-1.65-1.45l-53.89-8.18ZM1413.5,1277a2,2,0,0,0-.6-.93l-18.84-16.69-5.59-9.29-12.39-16.41-11.38-24-4.34-20.76-1.51-6.47,51.42,7.8,16.85,58.81a2,2,0,0,0,.16.4l14.74,27.65-.87,15.13-16,23.26Zm12.87,43.84,17.6-25.53,21.58,6.79,28.64,6.23,31.75,11.6,12.74,20.33,22.16,37-9.73,14-20,16.73-27.92-5.09-62.87-19.4a2.43,2.43,0,0,0-.71-.09l-16.59.85-1-7Zm-8.27,64.89-22.35,10.9-45.8-29.83,24.65-36.68Zm-83.61-106.87,36.42,49.46-24.35,36.25-49.09-32.43-26-15.09,1.89-5a1.58,1.58,0,0,0,.12-.52l1.58-15.45.62-16.15-.62-11a2.25,2.25,0,0,0-.06-.36l-6.11-25ZM927.08,1121.05l.11-.15,1.5-.17,9.26,3.72.17,1.62-.26,1.26a2.85,2.85,0,0,0,0,.4v2.91l-1.58,1.59-3.35,1.19-2-.55-3.36-5.69v-3.83a2.09,2.09,0,0,0-.21-.91l-.33-.66Zm-32.7,102.16-3.73.7-2.64-.24-2.73-1.82-1.09-3.47,1.74-3,2.39-1.09,4.3.24,2.23,2.46.93,3.47Zm12.23-54.15a2.11,2.11,0,0,0-.39.45l-6.25,10a2.5,2.5,0,0,0-.23.5l-2.5,8.45a2,2,0,0,0,.29,1.74l4.38,6.26a1.44,1.44,0,0,0,.22.27l5.39,5.38.26,6.12-1.32,5.57-5.05,3.72-2,.59-.72-2.7a2,2,0,0,0-.46-.84l-3.12-3.44a2.06,2.06,0,0,0-1.39-.66l-5.64-.31a2.08,2.08,0,0,0-.95.17l-3.44,1.57a2,2,0,0,0-.93.84l-2.33,4.09-21,18.88-9.71,2.94-6.74.75-19.22-46.56,1-7,5-2,47.64-8.1a2.07,2.07,0,0,0,.8-.32l20-13.45,11.06,4.84Zm243.74,124.44a2,2,0,0,0-.45,1.22l-1.25,44.73s0,0,0,0a1.55,1.55,0,0,0,.08.47,1.7,1.7,0,0,0,.06.31,1.81,1.81,0,0,0,.19.29,1.48,1.48,0,0,0,.23.36c.07.07.16.1.23.16a1.8,1.8,0,0,0,.43.29l0,0,3.67,1.52-14.9,56.92-13.9,4.17-132.72-48.18-57.22-36.39-9.73-8.85-2.9-11.86,1.84-15.28a.43.43,0,0,1,0,0s0,0,0-.05L930,1194.5a2,2,0,0,0-.11-.81l-7.51-21.27a2.1,2.1,0,0,0-.54-.83l-7.51-6.88a2,2,0,0,0-.36-.23,1.53,1.53,0,0,0-.16-.11l0,0-12.49-5.47,23.88-27.68,2.62,4.45a2.07,2.07,0,0,0,1.22.93l3.44.94a2.33,2.33,0,0,0,.53.07,2,2,0,0,0,.69-.12l4.38-1.57a2,2,0,0,0,.75-.47l2.5-2.51a2,2,0,0,0,.6-1.43v-2.39l109.73,46.46,48.48,22.21a1.38,1.38,0,0,0,.34.12l54.33,14.13,4.46.63,7.22.75-.9,61.25Zm72.32-10.61-4.6-7.05a2,2,0,0,0-.85-.74l-11.58-5.32a2,2,0,0,0-2.74,1.13l-15.07,39.47-34.17-4.56.29-10.3,15.21-18.86a2.07,2.07,0,0,0,.45-1.25l.91-62.31,18-5.21a2.14,2.14,0,0,0,.47-.2l5.9-3.49,69.19,36.89,6.94,28.34.61,10.57-.62,15.82-1.53,15.06-1.55,4.07-34.58-20.52Zm103.13,114.86-16.7-9.9-5.62-3.56-16.39-22-46.66-58.95,27.47,16.3,27.43,15.89,49,32.38Zm4.13,1.06,17.82-28.62,43,28-16.66,4.9Zm-440.46,96.93,3.58-42.36.92-1.58,28.16,16.88,28.62,12.89,70.12,24.73,45,14.45,47.1,9.1,49.12,5.05-109.4,14.31Zm236.58,119-124-18.21-67.21-19.2,26.67-16.84,90.93-7.14,57.41,8.37,79.34,21.16,25.34,20.54Zm262-50.27a8.37,8.37,0,0,0-1.43.24L1256.38,1598l-36.31,4.64-28.7-23.25a2.15,2.15,0,0,0-.75-.39l-80-21.31-43.34-6.33,126.51-16.55a1.83,1.83,0,0,0,.33-.11c.09,0,.19,0,.27-.06l10.64-5a2,2,0,0,0,.79-.67l15.28-21.52,29.3-38.34,33.09-30.62,22.93-10.08,24.57-4.36,31.28-7.2a2,2,0,0,0,.79-.37l12.21-9.46,20.9-6.15a1.69,1.69,0,0,0,.31-.13l25.28-12.32,17.68-.9,62.76,19.34,29,5.3,37.71,12.15a1.9,1.9,0,0,0,.57.1l10.32.31h.06a2,2,0,0,0,1.36-.53l6.26-5.63a2,2,0,0,0,.67-1.44l.62-19.4a1.62,1.62,0,0,0,0-.38l-1.87-11.83-1.61-12.7,5.32,6.48,1.72,4.6,6.28,19.46,15.1,41.8,19.08,39.42a2,2,0,0,0,1.83,1.15l.33,0,4.82-.81,13.88,54.49-23.84,6Zm9.86,47.22a0,0,0,0,0,0,0s0,0,0,0l-5.61-30.55,239.5-18.85a7.54,7.54,0,0,0,1.41-.23l24.6-6.21,19.91,77.07-12.88,4.58-47.91-1.5-24.86-1.55-.42,0-41.92-.94a9.91,9.91,0,0,0-1.88.13l-143.07,22.82Zm-180.4,129.54.4-.21,36.83-20,36.29-13,10.92,34.43-4.55,1.8a8.43,8.43,0,0,0-5.24,9.07l-13,5.3-59.09,19.6-4-36.34Zm-61.76,53.73-21.83-13,78.29-38.16,8.75,78.81Zm137.18,52.28-27.43-5.6-38-16.25-2.22-.95-4.68-42.05,60.05-19.92,13.07-5.35a8.41,8.41,0,0,0,9.9,2.88l11.89-4.7h0l78.9-31.17,10.46,123.69Zm105.85-143h0l-81,32-10.53-33.18,99.32-25.77,136.31-21.74.85,5.29h0l8.13,51a8.44,8.44,0,0,0,3.76,5.76l29.51,19.09,31.53,87.47-.95,8.76-3.19,9.82-8.09,8.34-17.65,12.4-5.11-10-36.76-93.16a8.21,8.21,0,0,0-1-1.77l-20.33-28.78A8.39,8.39,0,0,0,1522,1728l-16.58-13.45a8.63,8.63,0,0,0-2.32-1.33l-40.35-15.33a8.63,8.63,0,0,0-2.22-.52l-33.79-3.13a8.54,8.54,0,0,0-3.84.55Zm202.28,274.23-177.4-4.33-1.08-109.34,146.11.57,7.36,14.48c.11.21.25.39.37.58s.15.31.25.45a1.31,1.31,0,0,0,.11.12l.11.18,36.32,47.16Zm3.69,56.69-21.84-.22-160.5-5.05,1.09-38.85,176.63,4.3Zm-194-317.47,16.34-6.37,30.65,2.84,38,14.43,14.62,11.87,19.07,27,32,81-139.65-.55Zm38.82,398-9.07,10.33a8.4,8.4,0,0,0-1.94,3.91l-.68,3.41-14.34-.62-1.28-85.94,128.55,4-51,27.34a7.94,7.94,0,0,0-1.06.68l-47.85,35.66A8.17,8.17,0,0,0,1449.63,2115.67Zm380.7-31.09s0,.05,0,.08c-.09.34-.13.7-.19,1.05s-.14.7-.17,1.05c0,0,0,0,0,.08l-3.46,58.35-283.16-8.45-33.56-1.25-53.69-1.55,5.66-6.45,46.64-34.76,76.37-40.91,29.32.29,153.25,3.43,67.89,12Zm16-39-3.11,6.23-73.56-13a9.09,9.09,0,0,0-1.28-.12l-146.54-3.28-5.55-47.82,11.17-46.11,48.4,39.91a8.61,8.61,0,0,0,2.52,1.43l136.38,49.11a8,8,0,0,0,.87.26l31.44,7.61ZM1954,2089l-53.3-19.65-20.92-9.54c-.23-.1-.46-.14-.69-.23s-.45-.21-.69-.28l-17.51-5.17,1.14-2.28a8.28,8.28,0,0,0,.82-2.7l.76-5.94,19.4,3.38,76.26,26.45Zm84.28-58L1984,2100.51l-14.15-5.54,8.11-24.57a8.45,8.45,0,0,0-5.25-10.63l-84.77-29.4a8.52,8.52,0,0,0-1.32-.34l-28.51-5-38.07-9.21-134.57-48.46-56.94-47-32.82-42.61,19-13.39a7.94,7.94,0,0,0,1.21-1l10-10.32a8.51,8.51,0,0,0,2-3.27l4.07-12.52a8.17,8.17,0,0,0,.36-1.7l1.25-11.57a8.52,8.52,0,0,0-.45-3.78l-12.44-34.51,13.18-5h0l12.8,43.18,5.89,28.5.31,16.7a2,2,0,0,0,.35,1.1l8.44,12.52a2.09,2.09,0,0,0,1.23.84L1669,1885l.21,1.66a10.32,10.32,0,0,0,1.08,3.5l11,21.27a10.28,10.28,0,0,0,2.59,3.24l28.77,24.09a10.55,10.55,0,0,0,2.79,1.67l66.31,26.9a10.64,10.64,0,0,0,1.9.57l45.67,9.07a8,8,0,0,0,1,.15l87.87,9,81.41,23.88,40,19.65A10.31,10.31,0,0,0,2038.28,2031Zm38.88-24.25a10.39,10.39,0,0,0-7.18,1.75l-10.83,7.48-47.84-23.52,1.27-1.81,47.71-1.53h.12a2.2,2.2,0,0,0,.37,0l12.83-3.13a1.79,1.79,0,0,0,.56-.23l12.8-7.49a2.12,2.12,0,0,0,.47-.38l31.91-34.41a2,2,0,0,0,.48-1.85l-1.53-6.42,234.9-114,9.68,18.46.07.11,0,.08c.1.19.23.35.34.53s.26.43.4.63.3.36.46.54l.23.28Zm449-293-25.08,29.17-21.86,19.41.4-3.36-4-.48-.94,7.82h.08l-.07.06-98.15,54-8.48-16.18a10.64,10.64,0,0,0-2.11-2.78l-35.39-33.19L2296.94,1737l-2.66-7,95.45-26.39a8.35,8.35,0,0,0,1.88-.77l72.44-40.55,2.29,25.79a8.46,8.46,0,0,0,6.77,7.54l.24,5.88,4.06-.17-.23-5.9a8.45,8.45,0,0,0,6-8.84L2480,1650.4l15.29-27.76,19.82,7.21,34.58,12.18Zm-9.7-87.69-19.62-7.14,9.08-26.36v0h0l62.63-184.32,52.39,18.24-16.6,53.08L2583.1,1540a.53.53,0,0,1,0,.12.61.61,0,0,1-.05.12l-11.51,35.11a9.27,9.27,0,0,0-.55,1.69l-20.05,61.12Zm35.22,77.15L2585,1601.69l53.31,69.51Zm175.33-3.64-43.43-20-8.38-4.19-12.92-7.27-69.38-90.45,6.34-19.29,3.71-11.46,21.23-60.57c0-.11.08-.22.11-.33l16.59-52.92,2.44-7.91,40.9-114.57,3.28-9.15,31.15-22.5a10.48,10.48,0,0,0,4.25-9.9l-.34-2.49,27.16-87.84,7.43-13.22,12.45-12.46,51.41-29.29,12.79-1.79,11.08,1.77,37.39,20.39,4,37.1-3.33,52.62-16.32,67-26.14,84.12h0a1.87,1.87,0,0,0-.07.22L2805.57,1507l-46.84,177.41-6.45,20Zm-296.8,361.67-9.91-18,106.94-60,9.8,16.25Zm419.59,152.31-18.57-22.09-22.68-26.71-31.29-40.59L2763,2104.73l-12.22-23.25-8.57-21-7-30-4.8-36.81-2.82-19.4c0-.1,0-.21-.05-.31l-3.33-18.8,55.94,4.28,17.29,3.64h0l53.18,11a7.74,7.74,0,0,0,1.27.16l39.57,2Zm44.68-254-41.08-2.1-52.5-10.81h0l-17.83-3.75a10,10,0,0,0-1.1-.16l-60.65-4.64-6.17-41.06-1-31.4,41.83-3,20.58-1.56h0l45.67-3.13a8.27,8.27,0,0,0,1.84-.33l8.15-2.45,44.7.59,33.78,16.12Z"/><rect x="2160.03" y="1310.82" width="4.07" height="7.72" transform="translate(-330.42 878.29) rotate(-21.37)"/><rect x="2154.98" y="1298.8" width="4.07" height="7.84" transform="translate(-340.39 966.89) rotate(-23.47)"/><rect x="2149.91" y="1286.63" width="4.07" height="8.13" transform="translate(-330.76 926.11) rotate(-22.6)"/><rect x="2144.97" y="1274.71" width="4.07" height="7.85" transform="translate(-331.62 960.91) rotate(-23.47)"/><rect x="2139.89" y="1262.83" width="4.07" height="7.84" transform="translate(-327.65 960.66) rotate(-23.53)"/><rect x="2229.39" y="1269.44" width="4.07" height="7.9" transform="translate(-331.56 1451.92) rotate(-33.7)"/><rect x="2222.16" y="1258.5" width="4.07" height="7.9" transform="translate(-326.75 1445.5) rotate(-33.68)"/><rect x="2215" y="1247.54" width="4.07" height="7.9" transform="translate(-321.83 1440.26) rotate(-33.7)"/><rect x="2207.81" y="1236.85" width="4.07" height="7.64" transform="translate(-312.03 1491.31) rotate(-34.99)"/><polygon points="2202.23 1225.61 2203.97 1224.58 2201.9 1221.08 2195.02 1225.14 2197.09 1228.65 2199.29 1227.34 2198.74 1227.71 2203.12 1234.28 2206.5 1232.02 2202.23 1225.61"/><rect x="2101.59" y="1251.01" width="4.06" height="7.83" transform="translate(766.38 3307.2) rotate(-87.73)"/><rect x="2114.41" y="1251.29" width="4.07" height="7.83" transform="translate(777.59 3319.75) rotate(-87.71)"/><rect x="2127.55" y="1251.61" width="4.07" height="7.83" transform="translate(789.89 3333.18) rotate(-87.71)"/><polygon points="2145.95 1258.05 2147.45 1257.05 2145.47 1254.09 2145.48 1253.96 2145.19 1253.67 2144.81 1253.93 2138.91 1253.64 2138.86 1254.65 2135.39 1256.19 2136.64 1259 2139.48 1257.74 2145.95 1258.05"/><rect x="2150.41" y="1248.71" width="7.72" height="4.07" transform="translate(-335.75 1321.72) rotate(-31.77)"/><rect x="2161.74" y="1242.2" width="7.73" height="4.07" transform="translate(-330.63 1326.57) rotate(-31.77)"/><rect x="2173.04" y="1235.78" width="7.84" height="4.07" transform="translate(-326.91 1193.69) rotate(-28.61)"/><rect x="2184.32" y="1229.2" width="7.84" height="4.07" transform="translate(-322.39 1198.84) rotate(-28.63)"/><rect x="2206.8" y="1216.45" width="7.84" height="4.07" transform="translate(-313.54 1207.49) rotate(-28.61)"/><rect x="1990.26" y="1521.75" width="7.85" height="4.06" transform="translate(-442.31 921.96) rotate(-23.51)"/><rect x="2002.16" y="1516.42" width="7.84" height="4.06" transform="translate(-439.33 926.81) rotate(-23.52)"/><rect x="2014.36" y="1511.1" width="7.84" height="4.06" transform="translate(-436.19 931.23) rotate(-23.52)"/><rect x="2026.24" y="1506.1" width="7.84" height="4.06" transform="translate(-433.2 935.56) rotate(-23.52)"/><rect x="2038.13" y="1500.78" width="7.84" height="4.06" transform="translate(-430.09 939.86) rotate(-23.52)"/><rect x="2050.02" y="1495.46" width="7.85" height="4.06" transform="translate(-426.98 944.17) rotate(-23.52)"/><rect x="2061.89" y="1490.47" width="7.85" height="4.06" transform="translate(-423.88 947.94) rotate(-23.51)"/><path d="M1141.77,1336.39v1.09l-6.56,42.35-21.24-2.27-86.69-35.86h0l-5.8-2.42,25.75-85.94,5.47,2.05h0l73.81,27.84a1.57,1.57,0,0,0,.3,0,1.72,1.72,0,0,0,.21.07l16,1.68Zm3.49-55.21-17.56-1.85-73.58-27.74h0l-7.51-2.81a2,2,0,0,0-2.66,1.32l-26.9,89.78a2,2,0,0,0,1.16,2.46l7.51,3.12h0l87,36a1.59,1.59,0,0,0,.3.06,2.58,2.58,0,0,0,.26.08l23.46,2.51h.22a2,2,0,0,0,2-1.72l6.88-44.42c0-.11,0-.21,0-.31l1.25-54.39a2,2,0,0,0-1.82-2.07"/><rect x="2587.13" y="1963.46" width="4.06" height="7.84" transform="translate(-625.95 1480.18) rotate(-28.61)"/><polygon points="2579.04 1953.36 2583.11 1960.24 2586.61 1958.17 2582.54 1951.29 2579.04 1953.36"/><rect x="2574.38" y="1940.61" width="4.07" height="7.84" transform="translate(-616.63 1471.72) rotate(-28.62)"/><rect x="2568.13" y="1929.35" width="4.07" height="7.84" transform="translate(-612 1467.35) rotate(-28.62)"/><polygon points="2563.46 1917.5 2559.97 1919.59 2562.71 1924.14 2563.65 1926.02 2567.29 1924.2 2566.27 1922.19 2563.46 1917.5"/><polygon points="2553.39 1908 2557.46 1914.88 2560.96 1912.82 2556.89 1905.93 2553.39 1908"/><rect x="2548.81" y="1895.21" width="4.07" height="7.84" transform="translate(-597.85 1452.79) rotate(-28.6)"/><polygon points="2540.57 1885.48 2544.64 1892.36 2548.14 1890.29 2544.07 1883.41 2540.57 1885.48"/><rect x="2535.92" y="1872.73" width="4.07" height="7.56" transform="translate(-596.56 1505.95) rotate(-29.74)"/><polygon points="2531.31 1860.7 2527.68 1862.52 2529.3 1865.76 2531.49 1869.51 2535.01 1867.46 2532.88 1863.83 2531.31 1860.7"/><rect x="2522.96" y="1849.7" width="4.07" height="7.99" transform="translate(-591.85 1542.14) rotate(-30.58)"/><rect x="2516.52" y="1838.63" width="4.07" height="7.84" transform="translate(-574.86 1431.54) rotate(-28.62)"/><rect x="2510.02" y="1827.32" width="4.07" height="7.84" transform="translate(-570.09 1425.94) rotate(-28.6)"/><polygon points="2475.86 1745.73 2476.43 1752.35 2476.38 1752.46 2476.48 1752.92 2477.18 1752.86 2480.01 1754.28 2480.58 1753.14 2479.91 1745.38 2475.86 1745.73"/><rect x="2475.4" y="1732.72" width="4.07" height="7.83" transform="translate(-67.65 100.74) rotate(-2.3)"/><rect x="2474.77" y="1719.58" width="4.07" height="7.83" transform="translate(-67.12 100.71) rotate(-2.3)"/><rect x="2474.05" y="1706.71" width="4.07" height="7.53" transform="translate(-132.97 210.63) rotate(-4.74)"/><rect x="2018.85" y="1296.66" width="7.69" height="4.06" transform="translate(-367.28 1041.9) rotate(-26.57)"/><polygon points="2013.47 1306.07 2015.95 1304.67 2013.93 1301.15 2011.89 1302.32 2007.03 1304.13 2008.46 1307.94 2013.47 1306.07"/><rect x="1995.38" y="1307.11" width="7.62" height="4.06" transform="translate(-319.24 729.9) rotate(-19.19)"/><rect x="1982.78" y="1311.5" width="7.91" height="4.07" transform="translate(-313.21 694.87) rotate(-18.42)"/><rect x="1970.83" y="1316.18" width="7.84" height="4.07" transform="translate(-361.79 896.4) rotate(-23.49)"/><rect x="1958.66" y="1321.23" width="7.85" height="4.06" transform="translate(-364.94 892.71) rotate(-23.51)"/><rect x="1946.47" y="1326.01" width="8.02" height="4.07" transform="translate(-342.11 769.39) rotate(-20.56)"/><rect x="1934.67" y="1331.07" width="7.72" height="4.07" transform="matrix(0.93, -0.36, 0.36, 0.93, -352.38, 797.59)"/><rect x="1922.37" y="1335.92" width="7.85" height="4.07" transform="translate(-373.61 878.43) rotate(-23.48)"/><rect x="1910.57" y="1340.74" width="7.73" height="4.07" transform="translate(-357.49 789.18) rotate(-21.35)"/><rect x="1898.37" y="1345.74" width="7.73" height="4.07" transform="translate(-360.15 785.08) rotate(-21.35)"/><line class="cls-3" x1="1920.98" y1="1839.9" x2="1956.76" y2="1842.4"/><line class="cls-3" x1="1945.5" y1="1832.6" x2="1944.24" y2="1850.54"/><line class="cls-3" x1="2322.07" y1="1311.54" x2="2352.49" y2="1292.53"/><line class="cls-3" x1="2337.61" y1="1291.22" x2="2347.15" y2="1306.48"/><line class="cls-3" x1="2303.67" y1="1275.2" x2="2337.38" y2="1262.93"/><line class="cls-3" x1="2323.1" y1="1258.55" x2="2329.25" y2="1275.46"/><line class="cls-3" x1="2228.8" y1="933.22" x2="2262.5" y2="920.95"/><line class="cls-3" x1="2248.22" y1="916.57" x2="2254.38" y2="933.48"/><line class="cls-3" x1="1872.36" y1="1417.9" x2="1837.28" y2="1425.36"/><line class="cls-3" x1="1850.81" y1="1431.68" x2="1847.07" y2="1414.08"/><polygon class="cls-1" points="1969.11 919.41 1983.9 966.67 2050.05 941.01 2059.17 920.49 2054.1 902.54 2033.18 894.1 1969.11 919.41"/><line class="cls-3" x1="1999.96" y1="933.22" x2="2033.66" y2="920.95"/><line class="cls-3" x1="2019.39" y1="916.57" x2="2025.54" y2="933.48"/><text class="cls-4" transform="matrix(0.55, 0.83, -0.83, 0.55, 2128.34, 1403.54)">Masary<tspan class="cls-5" x="53.18" y="0">k</tspan><tspan x="61.14" y="0">ova</tspan></text><text class="cls-4" transform="translate(2261.14 1661.34) rotate(75.41)">Masary<tspan class="cls-5" x="53.18" y="0">k</tspan><tspan x="61.14" y="0">ova</tspan></text><text class="cls-4" transform="matrix(0.87, -0.49, 0.49, 0.87, 2429.12, 1810.28)">Ndran</text><text class="cls-4" transform="matrix(0.87, -0.49, 0.49, 0.87, 2284.24, 1907.75)">Ndran</text><text class="cls-6" transform="translate(2050.87 1632.5)">Zeln trh</text><text class="cls-6" transform="translate(1906.36 1155.28)">nmst Svobody</text><text class="cls-6" transform="translate(2510.54 1161.89) rotate(-28.54)">Malinovs<tspan class="cls-7" x="90.4" y="0">k</tspan><tspan class="cls-8" x="101.42" y="0">ho nm.</tspan></text><text class="cls-4" transform="translate(1913.45 831.47) rotate(74.25)">Ranova</text><text class="cls-4" transform="translate(1962.18 997.42) rotate(74.25)">Ranova</text><text class="cls-4" transform="translate(1968.57 916.17) rotate(-19.96)">Ja<tspan class="cls-9" x="16.24" y="0">k</tspan><tspan x="24.54" y="0">ubs</tspan><tspan class="cls-5" x="50.02" y="0">k</tspan><tspan x="57.98" y="0"> nm.</tspan></text><text class="cls-4" transform="translate(2152.35 1138.83) rotate(-0.1)"><tspan class="cls-10">K</tspan><tspan x="9.64" y="0">oblin</tspan></text><text class="cls-4" transform="translate(2359.79 1130.92) rotate(-0.1)"><tspan class="cls-10">K</tspan><tspan x="9.64" y="0">oblin</tspan></text><text class="cls-4" transform="translate(2351.13 1220.08) rotate(-25.81)">Jns<tspan class="cls-11" x="32.33" y="0">k</tspan><tspan x="40.58" y="0"></tspan></text><text class="cls-4" transform="translate(2169.35 1337.51) rotate(-32.92)">Jns<tspan class="cls-11" x="32.33" y="0">k</tspan><tspan x="40.58" y="0"></tspan></text><text class="cls-4" transform="translate(2414.45 1378.41) rotate(-42.12)">Orl</text><text class="cls-4" transform="translate(2279.35 1477.83) rotate(-28.25)">Orl</text><text class="cls-4" transform="matrix(0.54, 0.84, -0.84, 0.54, 1742.91, 922.11)">es<tspan class="cls-12" x="28.16" y="0">k</tspan><tspan x="36.41" y="0"></tspan></text><text class="cls-4" transform="matrix(0.58, 0.82, -0.82, 0.58, 1827.36, 1053.19)">es<tspan class="cls-12" x="28.16" y="0">k</tspan><tspan x="36.41" y="0"></tspan></text><text class="cls-4" transform="translate(1755.91 1044.88) rotate(70.05)"><tspan class="cls-13">V</tspan><tspan x="9.97" y="0">esel</tspan></text><text class="cls-4" transform="translate(1847.91 1231.62) rotate(68.48)"><tspan class="cls-13">V</tspan><tspan x="9.97" y="0">esel</tspan></text><text class="cls-4" transform="matrix(0.33, 0.94, -0.94, 0.33, 1862.47, 1327.64)">Domini<tspan class="cls-11" x="54.81" y="0">k</tspan><tspan x="63.05" y="0">ns</tspan><tspan class="cls-5" x="87.37" y="0">k</tspan><tspan x="95.33" y="0"></tspan><tspan x="0" y="19.95">nm.</tspan></text><text class="cls-4" transform="translate(1503.63 913.52) rotate(75.51)">Husova</text><text class="cls-4" transform="translate(1587.78 1253.03) rotate(75.51)">Husova</text><text class="cls-4" transform="translate(1666.51 1564.3) rotate(75.51)">Husova</text><text class="cls-4" transform="translate(1819.06 857.95) rotate(-27.2)">Solnin</text><text class="cls-4" transform="translate(1622.82 963.91) rotate(-27.2)">Solnin</text></svg>