<?xml version="1.0" encoding="utf-8"?>
<!-- Generator: Adobe Illustrator 22.1.0, SVG Export Plug-In . SVG Version: 6.00 Build 0)  -->
<svg version="1.1" baseProfile="basic" id="Layer_1"
	 xmlns="http://www.w3.org/2000/svg" xmlns:xlink="http://www.w3.org/1999/xlink" x="0px" y="0px" viewBox="0 0 279 48.5"
	 xml:space="preserve">
<style type="text/css">
	.st0{fill:#EA0029;}
</style>
<path class="st0" d="M30.7,34.4c0,8.1-6.1,13-15,13H1.1V0.9h13.3c9.3,0,15.4,4.5,15.4,13c0,4.5-2.1,7.8-5.8,9.9
	C28.2,25.6,30.7,29.1,30.7,34.4 M8.2,8v12.4h5.7c5.7,0,8.7-2.3,8.7-6.1C22.6,10,20,8,14.1,8H8.2z M23.5,33.8c0-4.1-2.8-6.3-8.2-6.3
	H8.2v12.8h7.3C20.8,40.3,23.5,38.3,23.5,33.8"/>
<path class="st0" d="M61,47.5l-6.6-19.8c-0.9,0.1-1.9,0.2-2.8,0.2h-6.3v19.6h-7V0.9h13.3c9.3,0,15.4,4.7,15.4,13.3
	c0,5.1-2.3,9-6.2,11.3l7.5,22H61z M59.8,14.4c0-4.4-2.6-6.4-8.5-6.4h-5.9v12.7h5.7C56.9,20.7,59.8,18.6,59.8,14.4"/>
<path class="st0" d="M105.8,27.2l0.1,20.3h-7l-0.1-15.3l-13.9-5.3v20.6h-7V0.9H91c8.9,0,15.4,3.1,15.4,11.6c0,7-4,10.2-9.9,11.4
	L105.8,27.2z M84.9,8v9.8h5.5c5.2,0,8.7-0.9,8.7-4.8c0-4.3-3-5-8.5-5H84.9z"/>
<path class="st0" d="M153.9,47.5h-7c-0.5-1.2-0.9-3.3-1.7-13.3c-0.3-4-2.5-6.3-6.5-6.3h-7.7v19.6h-7V0.9h13.3
	c9.3,0,15.4,4.7,15.4,13.4c0,4.9-2.3,8.1-5.9,9.7c3,1.7,5.2,4.5,5.5,8.8C153,43.5,153.5,46,153.9,47.5 M130.9,8v12.8h5.7
	c5.8,0,8.7-2.1,8.7-6.4c0-4.5-2.5-6.5-8.5-6.5H130.9z"/>
<path class="st0" d="M245.3,0.8h7v46.6H246l-23.9-33.6v33.6h-7V0.8h6.3l23.9,33.4V0.8z M277.5,11.8c-0.1,6.7-5.1,11-10.6,11
	c-5.6,0-10.6-4.4-10.6-11c0-6.6,5.1-11,10.6-11C272.3,0.8,277.5,5.2,277.5,11.8 M256.2,26.1h21.3v5.8h-21.3V26.1z M266.8,6
	c-3.1,0-5.6,2.4-5.6,5.9c0,3.5,2.6,5.9,5.6,5.9c3.1,0,5.5-2.4,5.6-5.9C272.5,8.4,269.9,6,266.8,6"/>
</svg>
