<?xml version="1.0" encoding="utf-8"?>
<!-- Generator: Adobe Illustrator 22.1.0, SVG Export Plug-In . SVG Version: 6.00 Build 0)  -->
<svg version="1.1" baseProfile="basic" id="Layer_1"
	 xmlns="http://www.w3.org/2000/svg" xmlns:xlink="http://www.w3.org/1999/xlink" x="0px" y="0px" viewBox="0 0 80.5 50.1"
	 xml:space="preserve">
<style type="text/css">
	.st0{fill:#EA0029;}
</style>
<polygon class="st0" points="9.3,28.6 9.3,36.8 8.1,36.8 8.1,31.5 5.6,36.8 4.4,36.8 2,31.5 2,36.8 0.7,36.8 0.7,28.6 2,28.6 
	5.1,35.3 8.1,28.6 "/>
<path class="st0" d="M16.4,34.2c0,1.8-1.3,2.7-2.7,2.7c-1.5,0-2.7-1-2.7-2.7v-5.6h1.2v5.6c0,1,0.7,1.5,1.5,1.5
	c0.8,0,1.5-0.5,1.5-1.5v-5.6h1.2V34.2z"/>
<polygon class="st0" points="21.6,35.5 21.6,36.8 18,36.8 18,28.6 19.2,28.6 19.2,35.5 "/>
<polygon class="st0" points="27,29.8 25.1,29.8 25.1,36.8 23.9,36.8 23.9,29.8 22,29.8 22,28.6 27,28.6 "/>
<rect x="28.1" y="28.6" class="st0" width="1.2" height="8.2"/>
<polygon class="st0" points="39.5,28.6 39.5,36.8 38.3,36.8 38.3,31.5 35.8,36.8 34.6,36.8 32.1,31.5 32.1,36.8 30.9,36.8 
	30.9,28.6 32.1,28.6 35.2,35.3 38.3,28.6 "/>
<polygon class="st0" points="42.3,33.1 42.3,35.5 45,35.5 45,36.8 41.1,36.8 41.1,28.6 45,28.6 45,29.8 42.3,29.8 42.3,31.8 
	45.2,31.8 45.2,33.1 "/>
<path class="st0" d="M49.6,35.5c1.5,0,2.7-1,2.7-2.8c0-1.8-1.2-2.8-2.7-2.8h-1.8v5.7H49.6z M49.6,28.6c2.2,0,3.9,1.5,3.9,4.1
	c0,2.6-1.8,4.1-3.9,4.1h-3.1v-8.2H49.6z"/>
<rect x="54.7" y="28.6" class="st0" width="1.2" height="8.2"/>
<path class="st0" d="M60.9,26.2L62,27l-0.9,1h-1L60.9,26.2z M62.2,33.8L60.7,30l-1.5,3.9H62.2z M62.7,35.1h-4l-0.6,1.7h-1.4l3.3-8.2
	h1.3l3.4,8.2h-1.4L62.7,35.1z"/>
<polygon class="st0" points="69.2,35.5 69.2,36.8 65.6,36.8 65.6,28.6 66.8,28.6 66.8,35.5 "/>
<polygon class="st0" points="76.7,28.6 76.7,36.8 75.6,36.8 71.4,30.9 71.4,36.8 70.1,36.8 70.1,28.6 71.2,28.6 75.5,34.4 
	75.5,28.6 "/>
<path class="st0" d="M79.1,26.2l1.1,0.8l-0.9,1h-1L79.1,26.2z M78.3,28.6h1.2v8.2h-1.2V28.6z"/>
<polygon class="st0" points="9.3,41.3 9.3,49.5 8.1,49.5 8.1,44.3 5.6,49.6 4.4,49.6 2,44.3 2,49.5 0.7,49.5 0.7,41.3 2,41.3 
	5.1,48.1 8.1,41.3 "/>
<path class="st0" d="M11.8,39l1.1,0.8l-0.9,1h-1L11.8,39z M10.9,41.3h1.2v8.2h-1.2V41.3z"/>
<path class="st0" d="M15,45.5c-0.9-0.5-1.5-1.1-1.5-2.1c0-1.1,0.9-2.2,2.3-2.2c1.3,0,2.1,0.8,2.4,1.7l-1,0.7
	c-0.3-0.7-0.7-1.1-1.4-1.1c-0.6,0-1.1,0.4-1.1,0.9c0,0.5,0.2,0.7,0.8,1l1.2,0.6c0.9,0.5,1.6,1.2,1.6,2.3c0,1.5-1.2,2.4-2.5,2.4
	c-1.2,0-2.5-0.8-2.6-2.7h1.3c0.1,1,0.7,1.4,1.3,1.4c0.7,0,1.2-0.4,1.2-1.1c0-0.6-0.3-0.9-1-1.3L15,45.5z"/>
<polygon class="st0" points="23.9,42.6 22,42.6 22,49.5 20.7,49.5 20.7,42.6 18.8,42.6 18.8,41.3 23.9,41.3 "/>
<path class="st0" d="M31.5,45.4c0-1.8-1.3-3-2.9-3c-1.6,0-2.9,1.2-2.9,3c0,1.8,1.3,3,2.9,3C30.1,48.4,31.5,47.2,31.5,45.4
	 M24.5,45.4c0-2.6,2-4.3,4.2-4.3c2.2,0,4.2,1.7,4.2,4.3c0,2.6-2,4.3-4.2,4.3C26.4,49.7,24.5,48,24.5,45.4"/>
<path class="st0" d="M36.2,44.9c1.1,0,1.5-0.4,1.5-1.2c0-0.8-0.5-1.2-1.5-1.2h-1.1v2.4H36.2z M36.3,41.3c1.6,0,2.7,0.9,2.7,2.4
	c0,1.5-1.2,2.4-2.7,2.4h-1.2v3.3h-1.2v-8.2H36.3z"/>
<rect x="39.9" y="41.3" class="st0" width="1.2" height="8.2"/>
<path class="st0" d="M44,45.5c-0.9-0.5-1.5-1.1-1.5-2.1c0-1.1,0.9-2.2,2.3-2.2c1.3,0,2.1,0.8,2.4,1.7l-1,0.7
	c-0.3-0.7-0.7-1.1-1.4-1.1c-0.6,0-1.1,0.4-1.1,0.9c0,0.5,0.2,0.7,0.8,1l1.2,0.6c0.9,0.5,1.6,1.2,1.6,2.3c0,1.5-1.2,2.4-2.5,2.4
	c-1.2,0-2.5-0.8-2.6-2.7h1.3c0.1,1,0.7,1.4,1.3,1.4c0.7,0,1.2-0.4,1.2-1.1c0-0.6-0.3-0.9-1-1.3L44,45.5z"/>
<path class="st0" d="M3.2,10c0.9,0,1.4-0.4,1.4-1.1c0-0.7-0.5-1.1-1.4-1.1H2V10H3.2z M2,4.3v2.2h1c1,0,1.5-0.4,1.5-1.1
	c0-0.8-0.5-1.1-1.5-1.1H2z M3.1,3c1.6,0,2.7,0.8,2.7,2.3c0,0.8-0.4,1.4-1,1.7C5.5,7.4,5.9,8,5.9,8.9c0,1.4-1.1,2.3-2.6,2.3H0.7V3
	H3.1z"/>
<path class="st0" d="M9.3,6.5c1,0,1.5-0.4,1.5-1.1c0-0.8-0.5-1.1-1.5-1.1h-1v2.2H9.3z M11.1,11.2L9.9,7.7c-0.2,0-0.3,0-0.5,0H8.3
	v3.5H7.1V3h2.3c1.6,0,2.7,0.8,2.7,2.3c0,0.9-0.4,1.6-1.1,2l1.3,3.9H11.1z"/>
<polygon class="st0" points="19.9,3 19.9,11.2 18.7,11.2 14.5,5.3 14.5,11.2 13.3,11.2 13.3,3 14.4,3 18.6,8.9 18.6,3 "/>
<path class="st0" d="M25.2,1.2L24,2.4h-1.3l-1.3-1.3l0.5-0.5l1.4,0.8l1.4-0.8L25.2,1.2z M22.4,7.6V10h3v1.3h-4.3V3h4.3v1.3h-3v2h3.2
	v1.3H22.4z"/>
<polygon class="st0" points="33.5,3 33.5,11.2 32.4,11.2 28.2,5.3 28.2,11.2 26.9,11.2 26.9,3 28,3 32.3,8.9 32.3,3 "/>
<path class="st0" d="M36.4,7.2c-0.9-0.5-1.5-1.1-1.5-2.1c0-1.1,0.9-2.2,2.3-2.2c1.3,0,2.1,0.8,2.4,1.7l-1,0.7
	c-0.3-0.7-0.7-1.1-1.4-1.1c-0.6,0-1.1,0.4-1.1,0.9c0,0.5,0.2,0.7,0.8,1l1.2,0.6c0.9,0.5,1.6,1.2,1.6,2.3c0,1.5-1.2,2.4-2.5,2.4
	c-1.2,0-2.5-0.8-2.6-2.7h1.3c0.1,1,0.7,1.4,1.3,1.4c0.7,0,1.2-0.4,1.2-1.1c0-0.6-0.3-0.9-1-1.3L36.4,7.2z"/>
<polygon class="st0" points="43.4,7.1 47.1,11.2 45.6,11.2 42,7.3 42,11.2 40.8,11.2 40.8,3 42,3 42,7 45.6,3 47.2,3 "/>
<path class="st0" d="M50.2,0.7l1.1,0.8l-0.9,1h-1L50.2,0.7z M49.2,7.6V10h2.7v1.3H48V3h3.9v1.3h-2.7v2h2.9v1.3H49.2z"/>
<path class="st0" d="M3.1,19.4c1.1,0,1.5-0.4,1.5-1.2s-0.5-1.2-1.5-1.2H2v2.4H3.1z M3.1,15.8c1.6,0,2.7,0.9,2.7,2.4
	c0,1.5-1.2,2.4-2.7,2.4H2V24H0.7v-8.2H3.1z"/>
<path class="st0" d="M13.3,19.9c0-1.8-1.3-3-2.9-3c-1.6,0-2.9,1.2-2.9,3c0,1.8,1.3,3,2.9,3C12,22.9,13.3,21.7,13.3,19.9 M6.3,19.9
	c0-2.6,2-4.3,4.2-4.3c2.2,0,4.2,1.7,4.2,4.3c0,2.6-2,4.3-4.2,4.3C8.3,24.2,6.3,22.5,6.3,19.9"/>
<polygon class="st0" points="19.4,24 19.4,24 18.1,24 15,15.8 16.3,15.8 18.7,22.3 21.1,15.8 22.5,15.8 "/>
<path class="st0" d="M27.1,13.9L26,15.2h-1.2l-1.1-1.3l0.5-0.5l1.3,0.8l1.3-0.8L27.1,13.9z M24.6,20.3v2.4h2.7V24h-3.9v-8.2h3.9v1.3
	h-2.7v2h2.9v1.3H24.6z"/>
<path class="st0" d="M30.1,20c-0.9-0.5-1.5-1.1-1.5-2.1c0-1.1,0.9-2.2,2.3-2.2c1.3,0,2.1,0.8,2.4,1.7l-1,0.7
	c-0.3-0.7-0.7-1.1-1.4-1.1c-0.6,0-1.1,0.4-1.1,0.9c0,0.5,0.2,0.7,0.8,1l1.2,0.6c0.9,0.5,1.6,1.2,1.6,2.3c0,1.5-1.2,2.4-2.5,2.4
	c-1.2,0-2.5-0.8-2.6-2.7h1.3c0.1,1,0.7,1.4,1.3,1.4c0.7,0,1.2-0.4,1.2-1.1c0-0.6-0.3-0.9-1-1.3L30.1,20z"/>
<polygon class="st0" points="38.9,17.1 37,17.1 37,24 35.8,24 35.8,17.1 33.9,17.1 33.9,15.8 38.9,15.8 "/>
<rect x="40" y="15.8" class="st0" width="1.2" height="8.2"/>
<polygon class="st0" points="43.6,24.8 43.9,24.9 48.1,15 47.7,14.8 "/>
</svg>
